ISO-10303-21;
HEADER;
/* Generated by software containing ST-Developer
 * from STEP Tools, Inc. (www.steptools.com) 
 */

FILE_DESCRIPTION(
/* description */ (''),
/* implementation_level */ '2;1');

FILE_NAME(
/* name */ 'C:\\2axis_CNC\\hardware\\3D_model_Step\\hold gt2.stp',
/* time_stamp */ '2026-08-19T14:15:26+07:00',
/* author */ ('drago'),
/* organization */ (''),
/* preprocessor_version */ 'ST-DEVELOPER v18',
/* originating_system */ 'Autodesk Inventor 2020',
/* authorisation */ '');

FILE_SCHEMA (('AUTOMOTIVE_DESIGN { 1 0 10303 214 3 1 1 }'));
ENDSEC;

DATA;
#10=MECHANICAL_DESIGN_GEOMETRIC_PRESENTATION_REPRESENTATION('',(#13),#407);
#11=SHAPE_REPRESENTATION_RELATIONSHIP('SRR','None',#414,#12);
#12=ADVANCED_BREP_SHAPE_REPRESENTATION('',(#14),#406);
#13=STYLED_ITEM('',(#423),#14);
#14=MANIFOLD_SOLID_BREP('Solid1',#229);
#15=FACE_BOUND('',#48,.T.);
#16=FACE_BOUND('',#49,.T.);
#17=FACE_BOUND('',#51,.T.);
#18=FACE_BOUND('',#52,.T.);
#19=PLANE('',#258);
#20=PLANE('',#262);
#21=PLANE('',#266);
#22=PLANE('',#270);
#23=PLANE('',#271);
#24=PLANE('',#272);
#25=FACE_OUTER_BOUND('',#37,.T.);
#26=FACE_OUTER_BOUND('',#38,.T.);
#27=FACE_OUTER_BOUND('',#39,.T.);
#28=FACE_OUTER_BOUND('',#40,.T.);
#29=FACE_OUTER_BOUND('',#41,.T.);
#30=FACE_OUTER_BOUND('',#42,.T.);
#31=FACE_OUTER_BOUND('',#43,.T.);
#32=FACE_OUTER_BOUND('',#44,.T.);
#33=FACE_OUTER_BOUND('',#45,.T.);
#34=FACE_OUTER_BOUND('',#46,.T.);
#35=FACE_OUTER_BOUND('',#47,.T.);
#36=FACE_OUTER_BOUND('',#50,.T.);
#37=EDGE_LOOP('',(#151,#152,#153,#154));
#38=EDGE_LOOP('',(#155,#156,#157,#158));
#39=EDGE_LOOP('',(#159,#160,#161,#162));
#40=EDGE_LOOP('',(#163,#164,#165,#166));
#41=EDGE_LOOP('',(#167,#168,#169,#170));
#42=EDGE_LOOP('',(#171,#172,#173,#174));
#43=EDGE_LOOP('',(#175,#176,#177,#178));
#44=EDGE_LOOP('',(#179,#180,#181,#182));
#45=EDGE_LOOP('',(#183,#184,#185,#186));
#46=EDGE_LOOP('',(#187,#188,#189,#190));
#47=EDGE_LOOP('',(#191,#192,#193,#194,#195,#196,#197,#198));
#48=EDGE_LOOP('',(#199));
#49=EDGE_LOOP('',(#200));
#50=EDGE_LOOP('',(#201,#202,#203,#204,#205,#206,#207,#208));
#51=EDGE_LOOP('',(#209));
#52=EDGE_LOOP('',(#210));
#53=LINE('',#346,#71);
#54=LINE('',#352,#72);
#55=LINE('',#359,#73);
#56=LINE('',#362,#74);
#57=LINE('',#365,#75);
#58=LINE('',#367,#76);
#59=LINE('',#368,#77);
#60=LINE('',#374,#78);
#61=LINE('',#377,#79);
#62=LINE('',#379,#80);
#63=LINE('',#380,#81);
#64=LINE('',#386,#82);
#65=LINE('',#389,#83);
#66=LINE('',#391,#84);
#67=LINE('',#392,#85);
#68=LINE('',#398,#86);
#69=LINE('',#400,#87);
#70=LINE('',#401,#88);
#71=VECTOR('',#279,0.9);
#72=VECTOR('',#286,0.9);
#73=VECTOR('',#293,10.);
#74=VECTOR('',#296,10.);
#75=VECTOR('',#299,10.);
#76=VECTOR('',#300,10.);
#77=VECTOR('',#301,10.);
#78=VECTOR('',#308,10.);
#79=VECTOR('',#311,10.);
#80=VECTOR('',#312,10.);
#81=VECTOR('',#313,10.);
#82=VECTOR('',#320,10.);
#83=VECTOR('',#323,10.);
#84=VECTOR('',#324,10.);
#85=VECTOR('',#325,10.);
#86=VECTOR('',#332,10.);
#87=VECTOR('',#335,10.);
#88=VECTOR('',#336,10.);
#89=CIRCLE('',#250,0.9);
#90=CIRCLE('',#251,0.9);
#91=CIRCLE('',#253,0.9);
#92=CIRCLE('',#254,0.9);
#93=CIRCLE('',#256,2.);
#94=CIRCLE('',#257,2.);
#95=CIRCLE('',#260,2.);
#96=CIRCLE('',#261,2.);
#97=CIRCLE('',#264,2.);
#98=CIRCLE('',#265,2.);
#99=CIRCLE('',#268,2.);
#100=CIRCLE('',#269,2.);
#101=VERTEX_POINT('',#343);
#102=VERTEX_POINT('',#345);
#103=VERTEX_POINT('',#349);
#104=VERTEX_POINT('',#351);
#105=VERTEX_POINT('',#355);
#106=VERTEX_POINT('',#356);
#107=VERTEX_POINT('',#358);
#108=VERTEX_POINT('',#360);
#109=VERTEX_POINT('',#364);
#110=VERTEX_POINT('',#366);
#111=VERTEX_POINT('',#370);
#112=VERTEX_POINT('',#372);
#113=VERTEX_POINT('',#376);
#114=VERTEX_POINT('',#378);
#115=VERTEX_POINT('',#382);
#116=VERTEX_POINT('',#384);
#117=VERTEX_POINT('',#388);
#118=VERTEX_POINT('',#390);
#119=VERTEX_POINT('',#394);
#120=VERTEX_POINT('',#396);
#121=EDGE_CURVE('',#101,#101,#89,.T.);
#122=EDGE_CURVE('',#101,#102,#53,.T.);
#123=EDGE_CURVE('',#102,#102,#90,.T.);
#124=EDGE_CURVE('',#103,#103,#91,.T.);
#125=EDGE_CURVE('',#103,#104,#54,.T.);
#126=EDGE_CURVE('',#104,#104,#92,.T.);
#127=EDGE_CURVE('',#105,#106,#93,.T.);
#128=EDGE_CURVE('',#106,#107,#55,.T.);
#129=EDGE_CURVE('',#108,#107,#94,.T.);
#130=EDGE_CURVE('',#105,#108,#56,.T.);
#131=EDGE_CURVE('',#109,#105,#57,.T.);
#132=EDGE_CURVE('',#110,#108,#58,.T.);
#133=EDGE_CURVE('',#109,#110,#59,.T.);
#134=EDGE_CURVE('',#111,#109,#95,.T.);
#135=EDGE_CURVE('',#112,#110,#96,.T.);
#136=EDGE_CURVE('',#111,#112,#60,.T.);
#137=EDGE_CURVE('',#113,#111,#61,.T.);
#138=EDGE_CURVE('',#114,#112,#62,.T.);
#139=EDGE_CURVE('',#113,#114,#63,.T.);
#140=EDGE_CURVE('',#115,#113,#97,.T.);
#141=EDGE_CURVE('',#116,#114,#98,.T.);
#142=EDGE_CURVE('',#115,#116,#64,.T.);
#143=EDGE_CURVE('',#117,#115,#65,.T.);
#144=EDGE_CURVE('',#118,#116,#66,.T.);
#145=EDGE_CURVE('',#117,#118,#67,.T.);
#146=EDGE_CURVE('',#119,#117,#99,.T.);
#147=EDGE_CURVE('',#120,#118,#100,.T.);
#148=EDGE_CURVE('',#119,#120,#68,.T.);
#149=EDGE_CURVE('',#106,#119,#69,.T.);
#150=EDGE_CURVE('',#107,#120,#70,.T.);
#151=ORIENTED_EDGE('',*,*,#121,.F.);
#152=ORIENTED_EDGE('',*,*,#122,.T.);
#153=ORIENTED_EDGE('',*,*,#123,.T.);
#154=ORIENTED_EDGE('',*,*,#122,.F.);
#155=ORIENTED_EDGE('',*,*,#124,.F.);
#156=ORIENTED_EDGE('',*,*,#125,.T.);
#157=ORIENTED_EDGE('',*,*,#126,.T.);
#158=ORIENTED_EDGE('',*,*,#125,.F.);
#159=ORIENTED_EDGE('',*,*,#127,.T.);
#160=ORIENTED_EDGE('',*,*,#128,.T.);
#161=ORIENTED_EDGE('',*,*,#129,.F.);
#162=ORIENTED_EDGE('',*,*,#130,.F.);
#163=ORIENTED_EDGE('',*,*,#131,.T.);
#164=ORIENTED_EDGE('',*,*,#130,.T.);
#165=ORIENTED_EDGE('',*,*,#132,.F.);
#166=ORIENTED_EDGE('',*,*,#133,.F.);
#167=ORIENTED_EDGE('',*,*,#134,.T.);
#168=ORIENTED_EDGE('',*,*,#133,.T.);
#169=ORIENTED_EDGE('',*,*,#135,.F.);
#170=ORIENTED_EDGE('',*,*,#136,.F.);
#171=ORIENTED_EDGE('',*,*,#137,.T.);
#172=ORIENTED_EDGE('',*,*,#136,.T.);
#173=ORIENTED_EDGE('',*,*,#138,.F.);
#174=ORIENTED_EDGE('',*,*,#139,.F.);
#175=ORIENTED_EDGE('',*,*,#140,.T.);
#176=ORIENTED_EDGE('',*,*,#139,.T.);
#177=ORIENTED_EDGE('',*,*,#141,.F.);
#178=ORIENTED_EDGE('',*,*,#142,.F.);
#179=ORIENTED_EDGE('',*,*,#143,.T.);
#180=ORIENTED_EDGE('',*,*,#142,.T.);
#181=ORIENTED_EDGE('',*,*,#144,.F.);
#182=ORIENTED_EDGE('',*,*,#145,.F.);
#183=ORIENTED_EDGE('',*,*,#146,.T.);
#184=ORIENTED_EDGE('',*,*,#145,.T.);
#185=ORIENTED_EDGE('',*,*,#147,.F.);
#186=ORIENTED_EDGE('',*,*,#148,.F.);
#187=ORIENTED_EDGE('',*,*,#149,.T.);
#188=ORIENTED_EDGE('',*,*,#148,.T.);
#189=ORIENTED_EDGE('',*,*,#150,.F.);
#190=ORIENTED_EDGE('',*,*,#128,.F.);
#191=ORIENTED_EDGE('',*,*,#150,.T.);
#192=ORIENTED_EDGE('',*,*,#147,.T.);
#193=ORIENTED_EDGE('',*,*,#144,.T.);
#194=ORIENTED_EDGE('',*,*,#141,.T.);
#195=ORIENTED_EDGE('',*,*,#138,.T.);
#196=ORIENTED_EDGE('',*,*,#135,.T.);
#197=ORIENTED_EDGE('',*,*,#132,.T.);
#198=ORIENTED_EDGE('',*,*,#129,.T.);
#199=ORIENTED_EDGE('',*,*,#124,.T.);
#200=ORIENTED_EDGE('',*,*,#121,.T.);
#201=ORIENTED_EDGE('',*,*,#149,.F.);
#202=ORIENTED_EDGE('',*,*,#127,.F.);
#203=ORIENTED_EDGE('',*,*,#131,.F.);
#204=ORIENTED_EDGE('',*,*,#134,.F.);
#205=ORIENTED_EDGE('',*,*,#137,.F.);
#206=ORIENTED_EDGE('',*,*,#140,.F.);
#207=ORIENTED_EDGE('',*,*,#143,.F.);
#208=ORIENTED_EDGE('',*,*,#146,.F.);
#209=ORIENTED_EDGE('',*,*,#126,.F.);
#210=ORIENTED_EDGE('',*,*,#123,.F.);
#211=CYLINDRICAL_SURFACE('',#249,0.9);
#212=CYLINDRICAL_SURFACE('',#252,0.9);
#213=CYLINDRICAL_SURFACE('',#255,2.);
#214=CYLINDRICAL_SURFACE('',#259,2.);
#215=CYLINDRICAL_SURFACE('',#263,2.);
#216=CYLINDRICAL_SURFACE('',#267,2.);
#217=ADVANCED_FACE('',(#25),#211,.F.);
#218=ADVANCED_FACE('',(#26),#212,.F.);
#219=ADVANCED_FACE('',(#27),#213,.T.);
#220=ADVANCED_FACE('',(#28),#19,.T.);
#221=ADVANCED_FACE('',(#29),#214,.T.);
#222=ADVANCED_FACE('',(#30),#20,.T.);
#223=ADVANCED_FACE('',(#31),#215,.T.);
#224=ADVANCED_FACE('',(#32),#21,.T.);
#225=ADVANCED_FACE('',(#33),#216,.T.);
#226=ADVANCED_FACE('',(#34),#22,.T.);
#227=ADVANCED_FACE('',(#35,#15,#16),#23,.T.);
#228=ADVANCED_FACE('',(#36,#17,#18),#24,.F.);
#229=CLOSED_SHELL('',(#217,#218,#219,#220,#221,#222,#223,#224,#225,#226,
#227,#228));
#230=DERIVED_UNIT_ELEMENT(#232,1.);
#231=DERIVED_UNIT_ELEMENT(#409,3.);
#232=(
MASS_UNIT()
NAMED_UNIT(*)
SI_UNIT($,.GRAM.)
);
#233=DERIVED_UNIT((#230,#231));
#234=MEASURE_REPRESENTATION_ITEM('density measure',
POSITIVE_RATIO_MEASURE(1.),#233);
#235=PROPERTY_DEFINITION_REPRESENTATION(#240,#237);
#236=PROPERTY_DEFINITION_REPRESENTATION(#241,#238);
#237=REPRESENTATION('material name',(#239),#406);
#238=REPRESENTATION('density',(#234),#406);
#239=DESCRIPTIVE_REPRESENTATION_ITEM('Generic','Generic');
#240=PROPERTY_DEFINITION('material property','material name',#416);
#241=PROPERTY_DEFINITION('material property','density of part',#416);
#242=DATE_TIME_ROLE('creation_date');
#243=APPLIED_DATE_AND_TIME_ASSIGNMENT(#244,#242,(#416));
#244=DATE_AND_TIME(#245,#246);
#245=CALENDAR_DATE(2026,8,7);
#246=LOCAL_TIME(9,52,18.,#247);
#247=COORDINATED_UNIVERSAL_TIME_OFFSET(0,0,.BEHIND.);
#248=AXIS2_PLACEMENT_3D('placement',#341,#273,#274);
#249=AXIS2_PLACEMENT_3D('',#342,#275,#276);
#250=AXIS2_PLACEMENT_3D('',#344,#277,#278);
#251=AXIS2_PLACEMENT_3D('',#347,#280,#281);
#252=AXIS2_PLACEMENT_3D('',#348,#282,#283);
#253=AXIS2_PLACEMENT_3D('',#350,#284,#285);
#254=AXIS2_PLACEMENT_3D('',#353,#287,#288);
#255=AXIS2_PLACEMENT_3D('',#354,#289,#290);
#256=AXIS2_PLACEMENT_3D('',#357,#291,#292);
#257=AXIS2_PLACEMENT_3D('',#361,#294,#295);
#258=AXIS2_PLACEMENT_3D('',#363,#297,#298);
#259=AXIS2_PLACEMENT_3D('',#369,#302,#303);
#260=AXIS2_PLACEMENT_3D('',#371,#304,#305);
#261=AXIS2_PLACEMENT_3D('',#373,#306,#307);
#262=AXIS2_PLACEMENT_3D('',#375,#309,#310);
#263=AXIS2_PLACEMENT_3D('',#381,#314,#315);
#264=AXIS2_PLACEMENT_3D('',#383,#316,#317);
#265=AXIS2_PLACEMENT_3D('',#385,#318,#319);
#266=AXIS2_PLACEMENT_3D('',#387,#321,#322);
#267=AXIS2_PLACEMENT_3D('',#393,#326,#327);
#268=AXIS2_PLACEMENT_3D('',#395,#328,#329);
#269=AXIS2_PLACEMENT_3D('',#397,#330,#331);
#270=AXIS2_PLACEMENT_3D('',#399,#333,#334);
#271=AXIS2_PLACEMENT_3D('',#402,#337,#338);
#272=AXIS2_PLACEMENT_3D('',#403,#339,#340);
#273=DIRECTION('axis',(0.,0.,1.));
#274=DIRECTION('refdir',(1.,0.,0.));
#275=DIRECTION('center_axis',(0.,0.,1.));
#276=DIRECTION('ref_axis',(-1.,0.,0.));
#277=DIRECTION('center_axis',(0.,0.,-1.));
#278=DIRECTION('ref_axis',(-1.,0.,0.));
#279=DIRECTION('',(0.,0.,-1.));
#280=DIRECTION('center_axis',(0.,0.,-1.));
#281=DIRECTION('ref_axis',(-1.,0.,0.));
#282=DIRECTION('center_axis',(0.,0.,1.));
#283=DIRECTION('ref_axis',(-1.,0.,0.));
#284=DIRECTION('center_axis',(0.,0.,-1.));
#285=DIRECTION('ref_axis',(-1.,0.,0.));
#286=DIRECTION('',(0.,0.,-1.));
#287=DIRECTION('center_axis',(0.,0.,-1.));
#288=DIRECTION('ref_axis',(-1.,0.,0.));
#289=DIRECTION('center_axis',(0.,0.,1.));
#290=DIRECTION('ref_axis',(0.,1.,0.));
#291=DIRECTION('center_axis',(0.,0.,1.));
#292=DIRECTION('ref_axis',(0.,1.,0.));
#293=DIRECTION('',(0.,0.,1.));
#294=DIRECTION('center_axis',(0.,0.,1.));
#295=DIRECTION('ref_axis',(0.,1.,0.));
#296=DIRECTION('',(0.,0.,1.));
#297=DIRECTION('center_axis',(0.,1.,0.));
#298=DIRECTION('ref_axis',(-1.,0.,0.));
#299=DIRECTION('',(-1.,0.,0.));
#300=DIRECTION('',(-1.,0.,0.));
#301=DIRECTION('',(0.,0.,1.));
#302=DIRECTION('center_axis',(0.,0.,1.));
#303=DIRECTION('ref_axis',(1.,0.,0.));
#304=DIRECTION('center_axis',(0.,0.,1.));
#305=DIRECTION('ref_axis',(1.,0.,0.));
#306=DIRECTION('center_axis',(0.,0.,1.));
#307=DIRECTION('ref_axis',(1.,0.,0.));
#308=DIRECTION('',(0.,0.,1.));
#309=DIRECTION('center_axis',(1.,1.38777878078145E-16,0.));
#310=DIRECTION('ref_axis',(-1.38777878078145E-16,1.,0.));
#311=DIRECTION('',(-1.38777878078145E-16,1.,0.));
#312=DIRECTION('',(-1.38777878078145E-16,1.,0.));
#313=DIRECTION('',(0.,0.,1.));
#314=DIRECTION('center_axis',(0.,0.,1.));
#315=DIRECTION('ref_axis',(0.,-1.,0.));
#316=DIRECTION('center_axis',(0.,0.,1.));
#317=DIRECTION('ref_axis',(0.,-1.,0.));
#318=DIRECTION('center_axis',(0.,0.,1.));
#319=DIRECTION('ref_axis',(0.,-1.,0.));
#320=DIRECTION('',(0.,0.,1.));
#321=DIRECTION('center_axis',(1.11022302462516E-16,-1.,0.));
#322=DIRECTION('ref_axis',(1.,1.11022302462516E-16,0.));
#323=DIRECTION('',(1.,1.11022302462516E-16,0.));
#324=DIRECTION('',(1.,1.11022302462516E-16,0.));
#325=DIRECTION('',(0.,0.,1.));
#326=DIRECTION('center_axis',(0.,0.,1.));
#327=DIRECTION('ref_axis',(-1.,0.,0.));
#328=DIRECTION('center_axis',(0.,0.,1.));
#329=DIRECTION('ref_axis',(-1.,0.,0.));
#330=DIRECTION('center_axis',(0.,0.,1.));
#331=DIRECTION('ref_axis',(-1.,0.,0.));
#332=DIRECTION('',(0.,0.,1.));
#333=DIRECTION('center_axis',(-1.,0.,0.));
#334=DIRECTION('ref_axis',(0.,-1.,0.));
#335=DIRECTION('',(0.,-1.,0.));
#336=DIRECTION('',(0.,-1.,0.));
#337=DIRECTION('center_axis',(0.,0.,1.));
#338=DIRECTION('ref_axis',(1.,0.,0.));
#339=DIRECTION('center_axis',(0.,0.,1.));
#340=DIRECTION('ref_axis',(1.,0.,0.));
#341=CARTESIAN_POINT('',(0.,0.,0.));
#342=CARTESIAN_POINT('Origin',(0.,14.5,0.));
#343=CARTESIAN_POINT('',(0.9,14.5,2.5));
#344=CARTESIAN_POINT('Origin',(0.,14.5,2.5));
#345=CARTESIAN_POINT('',(0.9,14.5,0.));
#346=CARTESIAN_POINT('',(0.9,14.5,0.));
#347=CARTESIAN_POINT('Origin',(0.,14.5,0.));
#348=CARTESIAN_POINT('Origin',(0.,9.5,0.));
#349=CARTESIAN_POINT('',(0.9,9.5,2.5));
#350=CARTESIAN_POINT('Origin',(0.,9.5,2.5));
#351=CARTESIAN_POINT('',(0.9,9.5,0.));
#352=CARTESIAN_POINT('',(0.9,9.5,0.));
#353=CARTESIAN_POINT('Origin',(0.,9.5,0.));
#354=CARTESIAN_POINT('Origin',(-5.,17.5,0.));
#355=CARTESIAN_POINT('',(-5.,19.5,0.));
#356=CARTESIAN_POINT('',(-7.,17.5,0.));
#357=CARTESIAN_POINT('Origin',(-5.,17.5,0.));
#358=CARTESIAN_POINT('',(-7.,17.5,2.5));
#359=CARTESIAN_POINT('',(-7.,17.5,0.));
#360=CARTESIAN_POINT('',(-5.,19.5,2.5));
#361=CARTESIAN_POINT('Origin',(-5.,17.5,2.5));
#362=CARTESIAN_POINT('',(-5.,19.5,0.));
#363=CARTESIAN_POINT('Origin',(5.,19.5,0.));
#364=CARTESIAN_POINT('',(5.,19.5,0.));
#365=CARTESIAN_POINT('',(5.,19.5,0.));
#366=CARTESIAN_POINT('',(5.,19.5,2.5));
#367=CARTESIAN_POINT('',(5.,19.5,2.5));
#368=CARTESIAN_POINT('',(5.,19.5,0.));
#369=CARTESIAN_POINT('Origin',(5.,17.5,0.));
#370=CARTESIAN_POINT('',(7.,17.5,0.));
#371=CARTESIAN_POINT('Origin',(5.,17.5,0.));
#372=CARTESIAN_POINT('',(7.,17.5,2.5));
#373=CARTESIAN_POINT('Origin',(5.,17.5,2.5));
#374=CARTESIAN_POINT('',(7.,17.5,0.));
#375=CARTESIAN_POINT('Origin',(7.,9.5,0.));
#376=CARTESIAN_POINT('',(7.,9.5,0.));
#377=CARTESIAN_POINT('',(7.,9.5,0.));
#378=CARTESIAN_POINT('',(7.,9.5,2.5));
#379=CARTESIAN_POINT('',(7.,9.5,2.5));
#380=CARTESIAN_POINT('',(7.,9.5,0.));
#381=CARTESIAN_POINT('Origin',(5.,9.5,0.));
#382=CARTESIAN_POINT('',(5.,7.5,0.));
#383=CARTESIAN_POINT('Origin',(5.,9.5,0.));
#384=CARTESIAN_POINT('',(5.,7.5,2.5));
#385=CARTESIAN_POINT('Origin',(5.,9.5,2.5));
#386=CARTESIAN_POINT('',(5.,7.5,0.));
#387=CARTESIAN_POINT('Origin',(-5.,7.5,0.));
#388=CARTESIAN_POINT('',(-5.,7.5,0.));
#389=CARTESIAN_POINT('',(-5.,7.5,0.));
#390=CARTESIAN_POINT('',(-5.,7.5,2.5));
#391=CARTESIAN_POINT('',(-5.,7.5,2.5));
#392=CARTESIAN_POINT('',(-5.,7.5,0.));
#393=CARTESIAN_POINT('Origin',(-5.,9.5,0.));
#394=CARTESIAN_POINT('',(-7.,9.5,0.));
#395=CARTESIAN_POINT('Origin',(-5.,9.5,0.));
#396=CARTESIAN_POINT('',(-7.,9.5,2.5));
#397=CARTESIAN_POINT('Origin',(-5.,9.5,2.5));
#398=CARTESIAN_POINT('',(-7.,9.5,0.));
#399=CARTESIAN_POINT('Origin',(-7.,17.5,0.));
#400=CARTESIAN_POINT('',(-7.,17.5,0.));
#401=CARTESIAN_POINT('',(-7.,17.5,2.5));
#402=CARTESIAN_POINT('Origin',(1.11022302462516E-15,13.5,2.5));
#403=CARTESIAN_POINT('Origin',(1.11022302462516E-15,13.5,0.));
#404=UNCERTAINTY_MEASURE_WITH_UNIT(LENGTH_MEASURE(0.01),#408,
'DISTANCE_ACCURACY_VALUE',
'Maximum model space distance between geometric entities at asserted c
onnectivities');
#405=UNCERTAINTY_MEASURE_WITH_UNIT(LENGTH_MEASURE(0.01),#408,
'DISTANCE_ACCURACY_VALUE',
'Maximum model space distance between geometric entities at asserted c
onnectivities');
#406=(
GEOMETRIC_REPRESENTATION_CONTEXT(3)
GLOBAL_UNCERTAINTY_ASSIGNED_CONTEXT((#404))
GLOBAL_UNIT_ASSIGNED_CONTEXT((#408,#410,#411))
REPRESENTATION_CONTEXT('','3D')
);
#407=(
GEOMETRIC_REPRESENTATION_CONTEXT(3)
GLOBAL_UNCERTAINTY_ASSIGNED_CONTEXT((#405))
GLOBAL_UNIT_ASSIGNED_CONTEXT((#408,#410,#411))
REPRESENTATION_CONTEXT('','3D')
);
#408=(
LENGTH_UNIT()
NAMED_UNIT(*)
SI_UNIT(.MILLI.,.METRE.)
);
#409=(
LENGTH_UNIT()
NAMED_UNIT(*)
SI_UNIT(.CENTI.,.METRE.)
);
#410=(
NAMED_UNIT(*)
PLANE_ANGLE_UNIT()
SI_UNIT($,.RADIAN.)
);
#411=(
NAMED_UNIT(*)
SI_UNIT($,.STERADIAN.)
SOLID_ANGLE_UNIT()
);
#412=SHAPE_DEFINITION_REPRESENTATION(#413,#414);
#413=PRODUCT_DEFINITION_SHAPE('',$,#416);
#414=SHAPE_REPRESENTATION('',(#248),#406);
#415=PRODUCT_DEFINITION_CONTEXT('part definition',#420,'design');
#416=PRODUCT_DEFINITION('hold gt2','hold gt2',#417,#415);
#417=PRODUCT_DEFINITION_FORMATION('',$,#422);
#418=PRODUCT_RELATED_PRODUCT_CATEGORY('hold gt2','hold gt2',(#422));
#419=APPLICATION_PROTOCOL_DEFINITION('international standard',
'automotive_design',2009,#420);
#420=APPLICATION_CONTEXT(
'Core Data for Automotive Mechanical Design Process');
#421=PRODUCT_CONTEXT('part definition',#420,'mechanical');
#422=PRODUCT('hold gt2','hold gt2',$,(#421));
#423=PRESENTATION_STYLE_ASSIGNMENT((#424));
#424=SURFACE_STYLE_USAGE(.BOTH.,#427);
#425=SURFACE_STYLE_RENDERING_WITH_PROPERTIES($,#431,(#426));
#426=SURFACE_STYLE_TRANSPARENT(0.);
#427=SURFACE_SIDE_STYLE('',(#428,#425));
#428=SURFACE_STYLE_FILL_AREA(#429);
#429=FILL_AREA_STYLE('',(#430));
#430=FILL_AREA_STYLE_COLOUR('',#431);
#431=COLOUR_RGB('',0.749019607843137,0.749019607843137,0.749019607843137);
ENDSEC;
END-ISO-10303-21;
