ISO-10303-21;
HEADER;
/* Generated by software containing ST-Developer
 * from STEP Tools, Inc. (www.steptools.com) 
 */

FILE_DESCRIPTION(
/* description */ (''),
/* implementation_level */ '2;1');

FILE_NAME(
/* name */ 
'C:\\Users\\drago\\OneDrive\\Ta\X2\0300\X0\i li\X\EA\X2\0323\X0\u\\2ax
is CNC\\hold pen - slider pen.stp',
/* time_stamp */ '2026-08-19T14:17:31+07:00',
/* author */ ('drago'),
/* organization */ (''),
/* preprocessor_version */ 'ST-DEVELOPER v18',
/* originating_system */ 'Autodesk Inventor 2020',
/* authorisation */ '');

FILE_SCHEMA (('AUTOMOTIVE_DESIGN { 1 0 10303 214 3 1 1 }'));
ENDSEC;

DATA;
#10=MECHANICAL_DESIGN_GEOMETRIC_PRESENTATION_REPRESENTATION('',(#13),#767);
#11=SHAPE_REPRESENTATION_RELATIONSHIP('SRR','None',#774,#12);
#12=ADVANCED_BREP_SHAPE_REPRESENTATION('',(#14),#766);
#13=STYLED_ITEM('',(#783),#14);
#14=MANIFOLD_SOLID_BREP('Solid1',#393);
#15=B_SPLINE_CURVE_WITH_KNOTS('',3,(#666,#667,#668,#669,#670,#671,#672,
#673,#674,#675,#676,#677,#678,#679,#680,#681,#682,#683,#684,#685,#686,#687,
#688,#689,#690,#691,#692,#693,#694,#695,#696,#697,#698,#699),
 .UNSPECIFIED.,.T.,.F.,(4,2,2,2,2,2,2,2,2,2,2,2,2,2,2,2,4),(0.,0.0529496671887387,
0.105899334377477,0.158843427585045,0.211787520792612,0.26473161400018,
0.317675707207747,0.370625374396486,0.423575041585225,0.476524708773964,
0.529474375962703,0.58241846917027,0.635362562377838,0.688306655585405,
0.741250748792973,0.794200415981711,0.84715008317045),.UNSPECIFIED.);
#16=B_SPLINE_CURVE_WITH_KNOTS('',3,(#704,#705,#706,#707,#708,#709,#710,
#711,#712,#713,#714,#715,#716,#717,#718,#719,#720,#721,#722,#723,#724,#725,
#726,#727,#728,#729,#730,#731,#732,#733,#734,#735,#736,#737),
 .UNSPECIFIED.,.T.,.F.,(4,2,2,2,2,2,2,2,2,2,2,2,2,2,2,2,4),(0.,0.0528289374826617,
0.105657874965323,0.158485745368841,0.211313615772359,0.264141486175877,
0.316969356579395,0.369798294062056,0.422627231544718,0.47545616902738,
0.528285106510042,0.58111297691356,0.633940847317077,0.686768717720595,
0.739596588124113,0.792425525606775,0.845254463089437),.UNSPECIFIED.);
#17=CYLINDRICAL_SURFACE('',#423,1.05);
#18=CYLINDRICAL_SURFACE('',#428,1.05);
#19=CYLINDRICAL_SURFACE('',#444,6.);
#20=CYLINDRICAL_SURFACE('',#448,1.4);
#21=CYLINDRICAL_SURFACE('',#450,2.5);
#22=CYLINDRICAL_SURFACE('',#451,5.00000000000001);
#23=CYLINDRICAL_SURFACE('',#458,0.9);
#24=CYLINDRICAL_SURFACE('',#460,1.);
#25=CYLINDRICAL_SURFACE('',#461,9.);
#26=FACE_BOUND('',#64,.T.);
#27=FACE_BOUND('',#65,.T.);
#28=FACE_BOUND('',#66,.T.);
#29=FACE_BOUND('',#72,.T.);
#30=FACE_BOUND('',#73,.T.);
#31=FACE_BOUND('',#74,.T.);
#32=FACE_BOUND('',#78,.T.);
#33=FACE_BOUND('',#85,.T.);
#34=FACE_BOUND('',#91,.T.);
#35=PLANE('',#416);
#36=PLANE('',#433);
#37=PLANE('',#449);
#38=PLANE('',#452);
#39=PLANE('',#455);
#40=PLANE('',#459);
#41=FACE_OUTER_BOUND('',#62,.T.);
#42=FACE_OUTER_BOUND('',#63,.T.);
#43=FACE_OUTER_BOUND('',#67,.T.);
#44=FACE_OUTER_BOUND('',#68,.T.);
#45=FACE_OUTER_BOUND('',#69,.T.);
#46=FACE_OUTER_BOUND('',#70,.T.);
#47=FACE_OUTER_BOUND('',#71,.T.);
#48=FACE_OUTER_BOUND('',#75,.T.);
#49=FACE_OUTER_BOUND('',#76,.T.);
#50=FACE_OUTER_BOUND('',#77,.T.);
#51=FACE_OUTER_BOUND('',#79,.T.);
#52=FACE_OUTER_BOUND('',#80,.T.);
#53=FACE_OUTER_BOUND('',#81,.T.);
#54=FACE_OUTER_BOUND('',#82,.T.);
#55=FACE_OUTER_BOUND('',#83,.T.);
#56=FACE_OUTER_BOUND('',#84,.T.);
#57=FACE_OUTER_BOUND('',#86,.T.);
#58=FACE_OUTER_BOUND('',#87,.T.);
#59=FACE_OUTER_BOUND('',#88,.T.);
#60=FACE_OUTER_BOUND('',#89,.T.);
#61=FACE_OUTER_BOUND('',#90,.T.);
#62=EDGE_LOOP('',(#258,#259,#260,#261));
#63=EDGE_LOOP('',(#262,#263,#264,#265,#266,#267,#268));
#64=EDGE_LOOP('',(#269));
#65=EDGE_LOOP('',(#270));
#66=EDGE_LOOP('',(#271));
#67=EDGE_LOOP('',(#272,#273,#274,#275,#276));
#68=EDGE_LOOP('',(#277,#278,#279,#280));
#69=EDGE_LOOP('',(#281,#282,#283,#284,#285));
#70=EDGE_LOOP('',(#286,#287,#288,#289,#290));
#71=EDGE_LOOP('',(#291,#292,#293,#294,#295,#296,#297));
#72=EDGE_LOOP('',(#298));
#73=EDGE_LOOP('',(#299));
#74=EDGE_LOOP('',(#300));
#75=EDGE_LOOP('',(#301,#302,#303,#304,#305));
#76=EDGE_LOOP('',(#306,#307,#308,#309,#310));
#77=EDGE_LOOP('',(#311,#312,#313,#314,#315,#316));
#78=EDGE_LOOP('',(#317));
#79=EDGE_LOOP('',(#318,#319,#320,#321,#322));
#80=EDGE_LOOP('',(#323,#324,#325,#326));
#81=EDGE_LOOP('',(#327,#328,#329,#330));
#82=EDGE_LOOP('',(#331,#332,#333,#334));
#83=EDGE_LOOP('',(#335,#336,#337,#338));
#84=EDGE_LOOP('',(#339,#340,#341,#342));
#85=EDGE_LOOP('',(#343,#344));
#86=EDGE_LOOP('',(#345,#346));
#87=EDGE_LOOP('',(#347,#348,#349,#350,#351,#352));
#88=EDGE_LOOP('',(#353,#354,#355,#356));
#89=EDGE_LOOP('',(#357,#358,#359,#360));
#90=EDGE_LOOP('',(#361,#362,#363,#364));
#91=EDGE_LOOP('',(#365));
#92=LINE('',#591,#116);
#93=LINE('',#596,#117);
#94=LINE('',#598,#118);
#95=LINE('',#602,#119);
#96=LINE('',#617,#120);
#97=LINE('',#620,#121);
#98=LINE('',#627,#122);
#99=LINE('',#631,#123);
#100=LINE('',#641,#124);
#101=LINE('',#645,#125);
#102=LINE('',#646,#126);
#103=LINE('',#652,#127);
#104=LINE('',#655,#128);
#105=LINE('',#661,#129);
#106=LINE('',#701,#130);
#107=LINE('',#738,#131);
#108=LINE('',#740,#132);
#109=LINE('',#741,#133);
#110=LINE('',#743,#134);
#111=LINE('',#744,#135);
#112=LINE('',#746,#136);
#113=LINE('',#748,#137);
#114=LINE('',#759,#138);
#115=LINE('',#761,#139);
#116=VECTOR('',#468,1.3);
#117=VECTOR('',#473,10.);
#118=VECTOR('',#474,10.);
#119=VECTOR('',#477,10.);
#120=VECTOR('',#494,1.05);
#121=VECTOR('',#497,1.3);
#122=VECTOR('',#506,1.05);
#123=VECTOR('',#511,1.3);
#124=VECTOR('',#520,10.);
#125=VECTOR('',#523,10.);
#126=VECTOR('',#524,10.);
#127=VECTOR('',#531,1.3);
#128=VECTOR('',#534,6.25);
#129=VECTOR('',#541,6.);
#130=VECTOR('',#548,6.25);
#131=VECTOR('',#551,1.4);
#132=VECTOR('',#554,10.);
#133=VECTOR('',#555,10.);
#134=VECTOR('',#558,10.);
#135=VECTOR('',#559,10.);
#136=VECTOR('',#562,10.);
#137=VECTOR('',#565,10.);
#138=VECTOR('',#578,0.9);
#139=VECTOR('',#581,10.);
#140=CIRCLE('',#414,1.55);
#141=CIRCLE('',#415,1.05);
#142=CIRCLE('',#417,1.);
#143=CIRCLE('',#418,2.5);
#144=CIRCLE('',#419,5.);
#145=CIRCLE('',#420,9.);
#146=CIRCLE('',#421,1.55);
#147=CIRCLE('',#422,6.5);
#148=CIRCLE('',#424,1.05);
#149=CIRCLE('',#425,1.05);
#150=CIRCLE('',#427,1.05);
#151=CIRCLE('',#429,1.05);
#152=CIRCLE('',#430,1.05);
#153=CIRCLE('',#432,1.55);
#154=CIRCLE('',#434,9.);
#155=CIRCLE('',#435,5.00000000000001);
#156=CIRCLE('',#436,2.5);
#157=CIRCLE('',#437,1.);
#158=CIRCLE('',#438,1.55);
#159=CIRCLE('',#439,6.5);
#160=CIRCLE('',#442,6.);
#161=CIRCLE('',#443,6.);
#162=CIRCLE('',#445,6.);
#163=CIRCLE('',#446,6.);
#164=CIRCLE('',#453,0.9);
#165=CIRCLE('',#454,0.9);
#166=CIRCLE('',#456,0.9);
#167=CIRCLE('',#457,0.9);
#168=VERTEX_POINT('',#588);
#169=VERTEX_POINT('',#590);
#170=VERTEX_POINT('',#594);
#171=VERTEX_POINT('',#595);
#172=VERTEX_POINT('',#597);
#173=VERTEX_POINT('',#599);
#174=VERTEX_POINT('',#601);
#175=VERTEX_POINT('',#603);
#176=VERTEX_POINT('',#605);
#177=VERTEX_POINT('',#608);
#178=VERTEX_POINT('',#610);
#179=VERTEX_POINT('',#613);
#180=VERTEX_POINT('',#614);
#181=VERTEX_POINT('',#619);
#182=VERTEX_POINT('',#623);
#183=VERTEX_POINT('',#624);
#184=VERTEX_POINT('',#629);
#185=VERTEX_POINT('',#633);
#186=VERTEX_POINT('',#634);
#187=VERTEX_POINT('',#636);
#188=VERTEX_POINT('',#638);
#189=VERTEX_POINT('',#640);
#190=VERTEX_POINT('',#642);
#191=VERTEX_POINT('',#644);
#192=VERTEX_POINT('',#647);
#193=VERTEX_POINT('',#649);
#194=VERTEX_POINT('',#654);
#195=VERTEX_POINT('',#656);
#196=VERTEX_POINT('',#660);
#197=VERTEX_POINT('',#662);
#198=VERTEX_POINT('',#665);
#199=VERTEX_POINT('',#703);
#200=VERTEX_POINT('',#749);
#201=VERTEX_POINT('',#750);
#202=VERTEX_POINT('',#754);
#203=VERTEX_POINT('',#755);
#204=EDGE_CURVE('',#168,#168,#140,.T.);
#205=EDGE_CURVE('',#168,#169,#92,.T.);
#206=EDGE_CURVE('',#169,#169,#141,.T.);
#207=EDGE_CURVE('',#170,#171,#93,.T.);
#208=EDGE_CURVE('',#171,#172,#94,.T.);
#209=EDGE_CURVE('',#172,#173,#142,.T.);
#210=EDGE_CURVE('',#173,#174,#95,.T.);
#211=EDGE_CURVE('',#174,#175,#143,.T.);
#212=EDGE_CURVE('',#175,#176,#144,.T.);
#213=EDGE_CURVE('',#176,#170,#145,.T.);
#214=EDGE_CURVE('',#177,#177,#146,.T.);
#215=EDGE_CURVE('',#178,#178,#147,.T.);
#216=EDGE_CURVE('',#179,#180,#148,.T.);
#217=EDGE_CURVE('',#180,#179,#149,.T.);
#218=EDGE_CURVE('',#180,#169,#96,.T.);
#219=EDGE_CURVE('',#177,#181,#97,.T.);
#220=EDGE_CURVE('',#181,#181,#150,.T.);
#221=EDGE_CURVE('',#182,#183,#151,.T.);
#222=EDGE_CURVE('',#183,#182,#152,.T.);
#223=EDGE_CURVE('',#183,#181,#98,.T.);
#224=EDGE_CURVE('',#184,#184,#153,.T.);
#225=EDGE_CURVE('',#184,#179,#99,.T.);
#226=EDGE_CURVE('',#185,#186,#154,.T.);
#227=EDGE_CURVE('',#187,#186,#155,.T.);
#228=EDGE_CURVE('',#188,#187,#156,.T.);
#229=EDGE_CURVE('',#188,#189,#100,.T.);
#230=EDGE_CURVE('',#190,#189,#157,.T.);
#231=EDGE_CURVE('',#190,#191,#101,.T.);
#232=EDGE_CURVE('',#185,#191,#102,.T.);
#233=EDGE_CURVE('',#192,#192,#158,.T.);
#234=EDGE_CURVE('',#193,#193,#159,.T.);
#235=EDGE_CURVE('',#192,#182,#103,.T.);
#236=EDGE_CURVE('',#178,#194,#104,.T.);
#237=EDGE_CURVE('',#194,#195,#160,.T.);
#238=EDGE_CURVE('',#195,#194,#161,.T.);
#239=EDGE_CURVE('',#195,#196,#105,.T.);
#240=EDGE_CURVE('',#197,#196,#162,.T.);
#241=EDGE_CURVE('',#196,#197,#163,.T.);
#242=EDGE_CURVE('',#198,#198,#15,.T.);
#243=EDGE_CURVE('',#197,#193,#106,.T.);
#244=EDGE_CURVE('',#199,#199,#16,.T.);
#245=EDGE_CURVE('',#199,#198,#107,.T.);
#246=EDGE_CURVE('',#170,#185,#108,.T.);
#247=EDGE_CURVE('',#191,#171,#109,.T.);
#248=EDGE_CURVE('',#187,#175,#110,.T.);
#249=EDGE_CURVE('',#188,#174,#111,.T.);
#250=EDGE_CURVE('',#186,#176,#112,.T.);
#251=EDGE_CURVE('',#172,#190,#113,.T.);
#252=EDGE_CURVE('',#200,#201,#164,.T.);
#253=EDGE_CURVE('',#201,#200,#165,.T.);
#254=EDGE_CURVE('',#202,#203,#166,.T.);
#255=EDGE_CURVE('',#203,#202,#167,.T.);
#256=EDGE_CURVE('',#201,#203,#114,.T.);
#257=EDGE_CURVE('',#189,#173,#115,.T.);
#258=ORIENTED_EDGE('',*,*,#204,.T.);
#259=ORIENTED_EDGE('',*,*,#205,.T.);
#260=ORIENTED_EDGE('',*,*,#206,.T.);
#261=ORIENTED_EDGE('',*,*,#205,.F.);
#262=ORIENTED_EDGE('',*,*,#207,.T.);
#263=ORIENTED_EDGE('',*,*,#208,.T.);
#264=ORIENTED_EDGE('',*,*,#209,.T.);
#265=ORIENTED_EDGE('',*,*,#210,.T.);
#266=ORIENTED_EDGE('',*,*,#211,.T.);
#267=ORIENTED_EDGE('',*,*,#212,.T.);
#268=ORIENTED_EDGE('',*,*,#213,.T.);
#269=ORIENTED_EDGE('',*,*,#214,.F.);
#270=ORIENTED_EDGE('',*,*,#215,.F.);
#271=ORIENTED_EDGE('',*,*,#204,.F.);
#272=ORIENTED_EDGE('',*,*,#216,.F.);
#273=ORIENTED_EDGE('',*,*,#217,.F.);
#274=ORIENTED_EDGE('',*,*,#218,.T.);
#275=ORIENTED_EDGE('',*,*,#206,.F.);
#276=ORIENTED_EDGE('',*,*,#218,.F.);
#277=ORIENTED_EDGE('',*,*,#214,.T.);
#278=ORIENTED_EDGE('',*,*,#219,.T.);
#279=ORIENTED_EDGE('',*,*,#220,.T.);
#280=ORIENTED_EDGE('',*,*,#219,.F.);
#281=ORIENTED_EDGE('',*,*,#221,.F.);
#282=ORIENTED_EDGE('',*,*,#222,.F.);
#283=ORIENTED_EDGE('',*,*,#223,.T.);
#284=ORIENTED_EDGE('',*,*,#220,.F.);
#285=ORIENTED_EDGE('',*,*,#223,.F.);
#286=ORIENTED_EDGE('',*,*,#224,.T.);
#287=ORIENTED_EDGE('',*,*,#225,.T.);
#288=ORIENTED_EDGE('',*,*,#216,.T.);
#289=ORIENTED_EDGE('',*,*,#217,.T.);
#290=ORIENTED_EDGE('',*,*,#225,.F.);
#291=ORIENTED_EDGE('',*,*,#226,.T.);
#292=ORIENTED_EDGE('',*,*,#227,.F.);
#293=ORIENTED_EDGE('',*,*,#228,.F.);
#294=ORIENTED_EDGE('',*,*,#229,.T.);
#295=ORIENTED_EDGE('',*,*,#230,.F.);
#296=ORIENTED_EDGE('',*,*,#231,.T.);
#297=ORIENTED_EDGE('',*,*,#232,.F.);
#298=ORIENTED_EDGE('',*,*,#233,.F.);
#299=ORIENTED_EDGE('',*,*,#234,.F.);
#300=ORIENTED_EDGE('',*,*,#224,.F.);
#301=ORIENTED_EDGE('',*,*,#233,.T.);
#302=ORIENTED_EDGE('',*,*,#235,.T.);
#303=ORIENTED_EDGE('',*,*,#221,.T.);
#304=ORIENTED_EDGE('',*,*,#222,.T.);
#305=ORIENTED_EDGE('',*,*,#235,.F.);
#306=ORIENTED_EDGE('',*,*,#215,.T.);
#307=ORIENTED_EDGE('',*,*,#236,.T.);
#308=ORIENTED_EDGE('',*,*,#237,.T.);
#309=ORIENTED_EDGE('',*,*,#238,.T.);
#310=ORIENTED_EDGE('',*,*,#236,.F.);
#311=ORIENTED_EDGE('',*,*,#237,.F.);
#312=ORIENTED_EDGE('',*,*,#238,.F.);
#313=ORIENTED_EDGE('',*,*,#239,.T.);
#314=ORIENTED_EDGE('',*,*,#240,.F.);
#315=ORIENTED_EDGE('',*,*,#241,.F.);
#316=ORIENTED_EDGE('',*,*,#239,.F.);
#317=ORIENTED_EDGE('',*,*,#242,.T.);
#318=ORIENTED_EDGE('',*,*,#240,.T.);
#319=ORIENTED_EDGE('',*,*,#241,.T.);
#320=ORIENTED_EDGE('',*,*,#243,.T.);
#321=ORIENTED_EDGE('',*,*,#234,.T.);
#322=ORIENTED_EDGE('',*,*,#243,.F.);
#323=ORIENTED_EDGE('',*,*,#244,.F.);
#324=ORIENTED_EDGE('',*,*,#245,.T.);
#325=ORIENTED_EDGE('',*,*,#242,.F.);
#326=ORIENTED_EDGE('',*,*,#245,.F.);
#327=ORIENTED_EDGE('',*,*,#246,.T.);
#328=ORIENTED_EDGE('',*,*,#232,.T.);
#329=ORIENTED_EDGE('',*,*,#247,.T.);
#330=ORIENTED_EDGE('',*,*,#207,.F.);
#331=ORIENTED_EDGE('',*,*,#228,.T.);
#332=ORIENTED_EDGE('',*,*,#248,.T.);
#333=ORIENTED_EDGE('',*,*,#211,.F.);
#334=ORIENTED_EDGE('',*,*,#249,.F.);
#335=ORIENTED_EDGE('',*,*,#227,.T.);
#336=ORIENTED_EDGE('',*,*,#250,.T.);
#337=ORIENTED_EDGE('',*,*,#212,.F.);
#338=ORIENTED_EDGE('',*,*,#248,.F.);
#339=ORIENTED_EDGE('',*,*,#251,.F.);
#340=ORIENTED_EDGE('',*,*,#208,.F.);
#341=ORIENTED_EDGE('',*,*,#247,.F.);
#342=ORIENTED_EDGE('',*,*,#231,.F.);
#343=ORIENTED_EDGE('',*,*,#252,.T.);
#344=ORIENTED_EDGE('',*,*,#253,.T.);
#345=ORIENTED_EDGE('',*,*,#254,.F.);
#346=ORIENTED_EDGE('',*,*,#255,.F.);
#347=ORIENTED_EDGE('',*,*,#252,.F.);
#348=ORIENTED_EDGE('',*,*,#253,.F.);
#349=ORIENTED_EDGE('',*,*,#256,.T.);
#350=ORIENTED_EDGE('',*,*,#255,.T.);
#351=ORIENTED_EDGE('',*,*,#254,.T.);
#352=ORIENTED_EDGE('',*,*,#256,.F.);
#353=ORIENTED_EDGE('',*,*,#257,.F.);
#354=ORIENTED_EDGE('',*,*,#229,.F.);
#355=ORIENTED_EDGE('',*,*,#249,.T.);
#356=ORIENTED_EDGE('',*,*,#210,.F.);
#357=ORIENTED_EDGE('',*,*,#230,.T.);
#358=ORIENTED_EDGE('',*,*,#257,.T.);
#359=ORIENTED_EDGE('',*,*,#209,.F.);
#360=ORIENTED_EDGE('',*,*,#251,.T.);
#361=ORIENTED_EDGE('',*,*,#250,.F.);
#362=ORIENTED_EDGE('',*,*,#226,.F.);
#363=ORIENTED_EDGE('',*,*,#246,.F.);
#364=ORIENTED_EDGE('',*,*,#213,.F.);
#365=ORIENTED_EDGE('',*,*,#244,.T.);
#366=CONICAL_SURFACE('',#413,1.3,0.785398163397448);
#367=CONICAL_SURFACE('',#426,1.3,0.785398163397448);
#368=CONICAL_SURFACE('',#431,1.3,0.785398163397449);
#369=CONICAL_SURFACE('',#440,1.3,0.785398163397449);
#370=CONICAL_SURFACE('',#441,6.25,0.785398163397449);
#371=CONICAL_SURFACE('',#447,6.25,0.78539816339745);
#372=ADVANCED_FACE('',(#41),#366,.F.);
#373=ADVANCED_FACE('',(#42,#26,#27,#28),#35,.T.);
#374=ADVANCED_FACE('',(#43),#17,.F.);
#375=ADVANCED_FACE('',(#44),#367,.F.);
#376=ADVANCED_FACE('',(#45),#18,.F.);
#377=ADVANCED_FACE('',(#46),#368,.F.);
#378=ADVANCED_FACE('',(#47,#29,#30,#31),#36,.F.);
#379=ADVANCED_FACE('',(#48),#369,.F.);
#380=ADVANCED_FACE('',(#49),#370,.F.);
#381=ADVANCED_FACE('',(#50,#32),#19,.F.);
#382=ADVANCED_FACE('',(#51),#371,.F.);
#383=ADVANCED_FACE('',(#52),#20,.F.);
#384=ADVANCED_FACE('',(#53),#37,.T.);
#385=ADVANCED_FACE('',(#54),#21,.T.);
#386=ADVANCED_FACE('',(#55),#22,.F.);
#387=ADVANCED_FACE('',(#56,#33),#38,.F.);
#388=ADVANCED_FACE('',(#57),#39,.T.);
#389=ADVANCED_FACE('',(#58),#23,.F.);
#390=ADVANCED_FACE('',(#59),#40,.T.);
#391=ADVANCED_FACE('',(#60),#24,.T.);
#392=ADVANCED_FACE('',(#61,#34),#25,.T.);
#393=CLOSED_SHELL('',(#372,#373,#374,#375,#376,#377,#378,#379,#380,#381,
#382,#383,#384,#385,#386,#387,#388,#389,#390,#391,#392));
#394=DERIVED_UNIT_ELEMENT(#396,1.);
#395=DERIVED_UNIT_ELEMENT(#769,3.);
#396=(
MASS_UNIT()
NAMED_UNIT(*)
SI_UNIT($,.GRAM.)
);
#397=DERIVED_UNIT((#394,#395));
#398=MEASURE_REPRESENTATION_ITEM('density measure',
POSITIVE_RATIO_MEASURE(1.),#397);
#399=PROPERTY_DEFINITION_REPRESENTATION(#404,#401);
#400=PROPERTY_DEFINITION_REPRESENTATION(#405,#402);
#401=REPRESENTATION('material name',(#403),#766);
#402=REPRESENTATION('density',(#398),#766);
#403=DESCRIPTIVE_REPRESENTATION_ITEM('Generic','Generic');
#404=PROPERTY_DEFINITION('material property','material name',#776);
#405=PROPERTY_DEFINITION('material property','density of part',#776);
#406=DATE_TIME_ROLE('creation_date');
#407=APPLIED_DATE_AND_TIME_ASSIGNMENT(#408,#406,(#776));
#408=DATE_AND_TIME(#409,#410);
#409=CALENDAR_DATE(2026,8,7);
#410=LOCAL_TIME(10,7,41.,#411);
#411=COORDINATED_UNIVERSAL_TIME_OFFSET(0,0,.BEHIND.);
#412=AXIS2_PLACEMENT_3D('placement',#586,#462,#463);
#413=AXIS2_PLACEMENT_3D('',#587,#464,#465);
#414=AXIS2_PLACEMENT_3D('',#589,#466,#467);
#415=AXIS2_PLACEMENT_3D('',#592,#469,#470);
#416=AXIS2_PLACEMENT_3D('',#593,#471,#472);
#417=AXIS2_PLACEMENT_3D('',#600,#475,#476);
#418=AXIS2_PLACEMENT_3D('',#604,#478,#479);
#419=AXIS2_PLACEMENT_3D('',#606,#480,#481);
#420=AXIS2_PLACEMENT_3D('',#607,#482,#483);
#421=AXIS2_PLACEMENT_3D('',#609,#484,#485);
#422=AXIS2_PLACEMENT_3D('',#611,#486,#487);
#423=AXIS2_PLACEMENT_3D('',#612,#488,#489);
#424=AXIS2_PLACEMENT_3D('',#615,#490,#491);
#425=AXIS2_PLACEMENT_3D('',#616,#492,#493);
#426=AXIS2_PLACEMENT_3D('',#618,#495,#496);
#427=AXIS2_PLACEMENT_3D('',#621,#498,#499);
#428=AXIS2_PLACEMENT_3D('',#622,#500,#501);
#429=AXIS2_PLACEMENT_3D('',#625,#502,#503);
#430=AXIS2_PLACEMENT_3D('',#626,#504,#505);
#431=AXIS2_PLACEMENT_3D('',#628,#507,#508);
#432=AXIS2_PLACEMENT_3D('',#630,#509,#510);
#433=AXIS2_PLACEMENT_3D('',#632,#512,#513);
#434=AXIS2_PLACEMENT_3D('',#635,#514,#515);
#435=AXIS2_PLACEMENT_3D('',#637,#516,#517);
#436=AXIS2_PLACEMENT_3D('',#639,#518,#519);
#437=AXIS2_PLACEMENT_3D('',#643,#521,#522);
#438=AXIS2_PLACEMENT_3D('',#648,#525,#526);
#439=AXIS2_PLACEMENT_3D('',#650,#527,#528);
#440=AXIS2_PLACEMENT_3D('',#651,#529,#530);
#441=AXIS2_PLACEMENT_3D('',#653,#532,#533);
#442=AXIS2_PLACEMENT_3D('',#657,#535,#536);
#443=AXIS2_PLACEMENT_3D('',#658,#537,#538);
#444=AXIS2_PLACEMENT_3D('',#659,#539,#540);
#445=AXIS2_PLACEMENT_3D('',#663,#542,#543);
#446=AXIS2_PLACEMENT_3D('',#664,#544,#545);
#447=AXIS2_PLACEMENT_3D('',#700,#546,#547);
#448=AXIS2_PLACEMENT_3D('',#702,#549,#550);
#449=AXIS2_PLACEMENT_3D('',#739,#552,#553);
#450=AXIS2_PLACEMENT_3D('',#742,#556,#557);
#451=AXIS2_PLACEMENT_3D('',#745,#560,#561);
#452=AXIS2_PLACEMENT_3D('',#747,#563,#564);
#453=AXIS2_PLACEMENT_3D('',#751,#566,#567);
#454=AXIS2_PLACEMENT_3D('',#752,#568,#569);
#455=AXIS2_PLACEMENT_3D('',#753,#570,#571);
#456=AXIS2_PLACEMENT_3D('',#756,#572,#573);
#457=AXIS2_PLACEMENT_3D('',#757,#574,#575);
#458=AXIS2_PLACEMENT_3D('',#758,#576,#577);
#459=AXIS2_PLACEMENT_3D('',#760,#579,#580);
#460=AXIS2_PLACEMENT_3D('',#762,#582,#583);
#461=AXIS2_PLACEMENT_3D('',#763,#584,#585);
#462=DIRECTION('axis',(0.,0.,1.));
#463=DIRECTION('refdir',(1.,0.,0.));
#464=DIRECTION('center_axis',(0.,0.,1.));
#465=DIRECTION('ref_axis',(-1.,0.,0.));
#466=DIRECTION('center_axis',(0.,0.,1.));
#467=DIRECTION('ref_axis',(-1.,0.,0.));
#468=DIRECTION('',(-0.707106781186547,-8.65956056235493E-17,-0.707106781186547));
#469=DIRECTION('center_axis',(0.,0.,-1.));
#470=DIRECTION('ref_axis',(-1.,0.,0.));
#471=DIRECTION('center_axis',(0.,0.,1.));
#472=DIRECTION('ref_axis',(1.,0.,0.));
#473=DIRECTION('',(1.,0.,0.));
#474=DIRECTION('',(0.,1.,0.));
#475=DIRECTION('center_axis',(0.,0.,1.));
#476=DIRECTION('ref_axis',(1.,0.,0.));
#477=DIRECTION('',(-1.,0.,0.));
#478=DIRECTION('center_axis',(0.,0.,1.));
#479=DIRECTION('ref_axis',(0.,1.,0.));
#480=DIRECTION('center_axis',(0.,0.,-1.));
#481=DIRECTION('ref_axis',(-0.857142857142857,0.515078753637713,0.));
#482=DIRECTION('center_axis',(0.,0.,1.));
#483=DIRECTION('ref_axis',(-0.857142857142857,0.515078753637713,0.));
#484=DIRECTION('center_axis',(0.,0.,1.));
#485=DIRECTION('ref_axis',(-1.,0.,0.));
#486=DIRECTION('center_axis',(0.,0.,1.));
#487=DIRECTION('ref_axis',(-0.992156741649222,-0.125,0.));
#488=DIRECTION('center_axis',(0.,0.,1.));
#489=DIRECTION('ref_axis',(-1.,0.,0.));
#490=DIRECTION('center_axis',(0.,0.,1.));
#491=DIRECTION('ref_axis',(1.,0.,0.));
#492=DIRECTION('center_axis',(0.,0.,1.));
#493=DIRECTION('ref_axis',(1.,0.,0.));
#494=DIRECTION('',(0.,0.,1.));
#495=DIRECTION('center_axis',(0.,0.,1.));
#496=DIRECTION('ref_axis',(-1.,0.,0.));
#497=DIRECTION('',(-0.707106781186547,-8.65956056235493E-17,-0.707106781186548));
#498=DIRECTION('center_axis',(0.,0.,-1.));
#499=DIRECTION('ref_axis',(-1.,0.,0.));
#500=DIRECTION('center_axis',(0.,0.,1.));
#501=DIRECTION('ref_axis',(-1.,0.,0.));
#502=DIRECTION('center_axis',(0.,0.,1.));
#503=DIRECTION('ref_axis',(1.,0.,0.));
#504=DIRECTION('center_axis',(0.,0.,1.));
#505=DIRECTION('ref_axis',(1.,0.,0.));
#506=DIRECTION('',(0.,0.,1.));
#507=DIRECTION('center_axis',(0.,0.,-1.));
#508=DIRECTION('ref_axis',(1.,0.,0.));
#509=DIRECTION('center_axis',(0.,0.,-1.));
#510=DIRECTION('ref_axis',(1.,0.,0.));
#511=DIRECTION('',(0.707106781186548,-8.65956056235494E-17,0.707106781186547));
#512=DIRECTION('center_axis',(0.,0.,1.));
#513=DIRECTION('ref_axis',(1.,0.,0.));
#514=DIRECTION('center_axis',(0.,0.,-1.));
#515=DIRECTION('ref_axis',(-1.,0.,0.));
#516=DIRECTION('center_axis',(0.,0.,-1.));
#517=DIRECTION('ref_axis',(-0.857142857142857,0.515078753637713,0.));
#518=DIRECTION('center_axis',(0.,0.,1.));
#519=DIRECTION('ref_axis',(6.12323399573677E-17,1.,0.));
#520=DIRECTION('',(1.,0.,0.));
#521=DIRECTION('center_axis',(0.,0.,1.));
#522=DIRECTION('ref_axis',(0.707106781186548,0.707106781186547,0.));
#523=DIRECTION('',(0.,-1.,0.));
#524=DIRECTION('',(1.,0.,0.));
#525=DIRECTION('center_axis',(0.,0.,-1.));
#526=DIRECTION('ref_axis',(1.,0.,0.));
#527=DIRECTION('center_axis',(0.,0.,-1.));
#528=DIRECTION('ref_axis',(-0.992156741649222,-0.125,0.));
#529=DIRECTION('center_axis',(0.,0.,-1.));
#530=DIRECTION('ref_axis',(1.,0.,0.));
#531=DIRECTION('',(0.707106781186548,-8.65956056235494E-17,0.707106781186547));
#532=DIRECTION('center_axis',(0.,0.,1.));
#533=DIRECTION('ref_axis',(-0.992156741649222,-0.125,0.));
#534=DIRECTION('',(-0.701560760020114,-0.0883883476483185,-0.707106781186547));
#535=DIRECTION('center_axis',(0.,0.,-1.));
#536=DIRECTION('ref_axis',(-0.992156741649222,-0.125,0.));
#537=DIRECTION('center_axis',(0.,0.,-1.));
#538=DIRECTION('ref_axis',(-0.992156741649222,-0.125,0.));
#539=DIRECTION('center_axis',(0.,0.,1.));
#540=DIRECTION('ref_axis',(0.992156741649222,0.125,0.));
#541=DIRECTION('',(0.,0.,-1.));
#542=DIRECTION('center_axis',(0.,0.,1.));
#543=DIRECTION('ref_axis',(-0.992156741649222,-0.125,0.));
#544=DIRECTION('center_axis',(0.,0.,1.));
#545=DIRECTION('ref_axis',(-0.992156741649222,-0.125,0.));
#546=DIRECTION('center_axis',(0.,0.,-1.));
#547=DIRECTION('ref_axis',(-0.992156741649222,-0.125,0.));
#548=DIRECTION('',(0.701560760020115,0.0883883476483185,-0.707106781186547));
#549=DIRECTION('center_axis',(0.,1.,0.));
#550=DIRECTION('ref_axis',(1.,0.,0.));
#551=DIRECTION('',(0.,1.,0.));
#552=DIRECTION('center_axis',(0.,-1.,0.));
#553=DIRECTION('ref_axis',(1.,0.,0.));
#554=DIRECTION('',(0.,0.,-1.));
#555=DIRECTION('',(0.,0.,1.));
#556=DIRECTION('center_axis',(0.,0.,1.));
#557=DIRECTION('ref_axis',(6.12323399573677E-17,1.,0.));
#558=DIRECTION('',(0.,0.,1.));
#559=DIRECTION('',(0.,0.,1.));
#560=DIRECTION('center_axis',(0.,0.,1.));
#561=DIRECTION('ref_axis',(-0.857142857142857,0.515078753637713,0.));
#562=DIRECTION('',(0.,0.,1.));
#563=DIRECTION('center_axis',(-1.,0.,0.));
#564=DIRECTION('ref_axis',(0.,0.,1.));
#565=DIRECTION('',(0.,0.,-1.));
#566=DIRECTION('center_axis',(-1.,0.,0.));
#567=DIRECTION('ref_axis',(0.,0.,-1.));
#568=DIRECTION('center_axis',(-1.,0.,0.));
#569=DIRECTION('ref_axis',(0.,0.,-1.));
#570=DIRECTION('center_axis',(1.,0.,0.));
#571=DIRECTION('ref_axis',(0.,0.,-1.));
#572=DIRECTION('center_axis',(-1.,0.,0.));
#573=DIRECTION('ref_axis',(0.,0.,-1.));
#574=DIRECTION('center_axis',(-1.,0.,0.));
#575=DIRECTION('ref_axis',(0.,0.,-1.));
#576=DIRECTION('center_axis',(-1.,0.,0.));
#577=DIRECTION('ref_axis',(0.,0.,-1.));
#578=DIRECTION('',(-1.,0.,0.));
#579=DIRECTION('center_axis',(0.,1.,0.));
#580=DIRECTION('ref_axis',(-1.,0.,0.));
#581=DIRECTION('',(0.,0.,1.));
#582=DIRECTION('center_axis',(0.,0.,-1.));
#583=DIRECTION('ref_axis',(0.707106781186548,0.707106781186547,0.));
#584=DIRECTION('center_axis',(0.,0.,1.));
#585=DIRECTION('ref_axis',(-0.960645359210588,-0.277777777777778,0.));
#586=CARTESIAN_POINT('',(0.,0.,0.));
#587=CARTESIAN_POINT('Origin',(9.,0.,8.75));
#588=CARTESIAN_POINT('',(10.55,1.8982025386784E-16,9.));
#589=CARTESIAN_POINT('Origin',(9.,0.,9.));
#590=CARTESIAN_POINT('',(10.05,-1.28587913910472E-16,8.5));
#591=CARTESIAN_POINT('',(10.3,1.59204083889156E-16,8.75));
#592=CARTESIAN_POINT('Origin',(9.,0.,8.5));
#593=CARTESIAN_POINT('Origin',(4.5,-6.85555127546399,9.));
#594=CARTESIAN_POINT('',(13.468695557326,-6.46110255092798,9.));
#595=CARTESIAN_POINT('',(13.4999041164476,-6.46110255092798,9.));
#596=CARTESIAN_POINT('',(13.468695557326,-6.46110255092798,9.));
#597=CARTESIAN_POINT('',(13.4999041164476,1.5,9.));
#598=CARTESIAN_POINT('',(13.4999041164476,-6.46110255092798,9.));
#599=CARTESIAN_POINT('',(12.4999041164476,2.5,9.));
#600=CARTESIAN_POINT('Origin',(12.4999041164476,1.5,9.));
#601=CARTESIAN_POINT('',(0.,2.5,9.));
#602=CARTESIAN_POINT('',(12.4999041164476,2.5,9.));
#603=CARTESIAN_POINT('',(-2.5,-1.11022302462516E-15,9.));
#604=CARTESIAN_POINT('Origin',(0.,0.,9.));
#605=CARTESIAN_POINT('',(-3.21428571428571,-2.57539376818856,9.));
#606=CARTESIAN_POINT('Origin',(-7.5,3.05311331771918E-15,9.));
#607=CARTESIAN_POINT('Origin',(4.5,-7.21110255092798,9.));
#608=CARTESIAN_POINT('',(1.55,1.8982025386784E-16,9.));
#609=CARTESIAN_POINT('Origin',(0.,0.,9.));
#610=CARTESIAN_POINT('',(10.9490188207199,-6.39860255092798,9.));
#611=CARTESIAN_POINT('Origin',(4.5,-7.21110255092798,9.));
#612=CARTESIAN_POINT('Origin',(9.,0.,0.));
#613=CARTESIAN_POINT('',(7.95,-1.28587913910472E-16,0.5));
#614=CARTESIAN_POINT('',(10.05,1.28587913910472E-16,0.5));
#615=CARTESIAN_POINT('Origin',(9.,0.,0.5));
#616=CARTESIAN_POINT('Origin',(9.,0.,0.5));
#617=CARTESIAN_POINT('',(10.05,1.28587913910472E-16,0.));
#618=CARTESIAN_POINT('Origin',(0.,0.,8.75));
#619=CARTESIAN_POINT('',(1.05,-1.28587913910472E-16,8.5));
#620=CARTESIAN_POINT('',(1.3,1.59204083889156E-16,8.75));
#621=CARTESIAN_POINT('Origin',(0.,0.,8.5));
#622=CARTESIAN_POINT('Origin',(0.,0.,0.));
#623=CARTESIAN_POINT('',(-1.05,-1.28587913910472E-16,0.5));
#624=CARTESIAN_POINT('',(1.05,1.28587913910472E-16,0.5));
#625=CARTESIAN_POINT('Origin',(0.,0.,0.5));
#626=CARTESIAN_POINT('Origin',(0.,0.,0.5));
#627=CARTESIAN_POINT('',(1.05,1.28587913910472E-16,0.));
#628=CARTESIAN_POINT('Origin',(9.,0.,0.25));
#629=CARTESIAN_POINT('',(7.45,1.8982025386784E-16,0.));
#630=CARTESIAN_POINT('Origin',(9.,0.,0.));
#631=CARTESIAN_POINT('',(7.7,1.59204083889156E-16,0.25));
#632=CARTESIAN_POINT('Origin',(4.5,-12.086102550928,0.));
#633=CARTESIAN_POINT('',(13.468695557326,-6.46110255092798,0.));
#634=CARTESIAN_POINT('',(-3.21428571428571,-2.57539376818856,0.));
#635=CARTESIAN_POINT('Origin',(4.5,-7.21110255092798,0.));
#636=CARTESIAN_POINT('',(-2.5,-8.32667268468867E-16,0.));
#637=CARTESIAN_POINT('Origin',(-7.5,3.05311331771918E-15,0.));
#638=CARTESIAN_POINT('',(1.53080849893419E-16,2.5,0.));
#639=CARTESIAN_POINT('Origin',(0.,0.,0.));
#640=CARTESIAN_POINT('',(12.4999041164476,2.5,0.));
#641=CARTESIAN_POINT('',(14.4229041164476,2.5,0.));
#642=CARTESIAN_POINT('',(13.4999041164476,1.5,0.));
#643=CARTESIAN_POINT('Origin',(12.4999041164476,1.5,0.));
#644=CARTESIAN_POINT('',(13.4999041164476,-6.46110255092798,0.));
#645=CARTESIAN_POINT('',(13.4999041164476,-4.57505496848213,0.));
#646=CARTESIAN_POINT('',(10.4529404498953,-6.46110255092798,0.));
#647=CARTESIAN_POINT('',(-1.55,1.8982025386784E-16,0.));
#648=CARTESIAN_POINT('Origin',(0.,0.,0.));
#649=CARTESIAN_POINT('',(10.9490188207199,-6.39860255092798,0.));
#650=CARTESIAN_POINT('Origin',(4.5,-7.21110255092798,0.));
#651=CARTESIAN_POINT('Origin',(0.,0.,0.25));
#652=CARTESIAN_POINT('',(-1.3,1.59204083889156E-16,0.25));
#653=CARTESIAN_POINT('Origin',(4.5,-7.21110255092798,8.75));
#654=CARTESIAN_POINT('',(10.4529404498953,-6.46110255092798,8.5));
#655=CARTESIAN_POINT('',(10.7009796353076,-6.42985255092798,8.75));
#656=CARTESIAN_POINT('',(-1.45294044989533,-7.96110255092798,8.5));
#657=CARTESIAN_POINT('Origin',(4.5,-7.21110255092798,8.5));
#658=CARTESIAN_POINT('Origin',(4.5,-7.21110255092798,8.5));
#659=CARTESIAN_POINT('Origin',(4.5,-7.21110255092798,0.));
#660=CARTESIAN_POINT('',(-1.45294044989533,-7.96110255092798,0.5));
#661=CARTESIAN_POINT('',(-1.45294044989533,-7.96110255092798,0.));
#662=CARTESIAN_POINT('',(10.4529404498953,-6.46110255092798,0.5));
#663=CARTESIAN_POINT('Origin',(4.5,-7.21110255092798,0.5));
#664=CARTESIAN_POINT('Origin',(4.5,-7.21110255092798,0.5));
#665=CARTESIAN_POINT('',(3.1,-13.0454834092539,4.5));
#666=CARTESIAN_POINT('Ctrl Pts',(3.1,-13.0454834092539,4.5));
#667=CARTESIAN_POINT('Ctrl Pts',(3.1,-13.0454834092539,4.32350110937087));
#668=CARTESIAN_POINT('Ctrl Pts',(3.13540699365355,-13.0543253484106,4.13570303702362));
#669=CARTESIAN_POINT('Ctrl Pts',(3.27847926395219,-13.0859007344557,3.79097701468521));
#670=CARTESIAN_POINT('Ctrl Pts',(3.38611101286773,-13.108139280057,3.63398999980993));
#671=CARTESIAN_POINT('Ctrl Pts',(3.63397695277036,-13.1496033396459,3.3861240599073));
#672=CARTESIAN_POINT('Ctrl Pts',(3.79096943969385,-13.1715746472307,3.27848212017704));
#673=CARTESIAN_POINT('Ctrl Pts',(4.13571472712033,-13.2025337809676,3.13540242953219));
#674=CARTESIAN_POINT('Ctrl Pts',(4.32351968930811,-13.211102550928,3.1));
#675=CARTESIAN_POINT('Ctrl Pts',(4.67648031069189,-13.211102550928,3.1));
#676=CARTESIAN_POINT('Ctrl Pts',(4.86428527287967,-13.2025337809676,3.13540242953219));
#677=CARTESIAN_POINT('Ctrl Pts',(5.20903056030615,-13.1715746472307,3.27848212017704));
#678=CARTESIAN_POINT('Ctrl Pts',(5.36602304722963,-13.1496033396459,3.3861240599073));
#679=CARTESIAN_POINT('Ctrl Pts',(5.61388898713227,-13.108139280057,3.63398999980993));
#680=CARTESIAN_POINT('Ctrl Pts',(5.7215207360478,-13.0859007344557,3.79097701468521));
#681=CARTESIAN_POINT('Ctrl Pts',(5.86459300634645,-13.0543253484106,4.13570303702362));
#682=CARTESIAN_POINT('Ctrl Pts',(5.9,-13.0454834092539,4.32350110937087));
#683=CARTESIAN_POINT('Ctrl Pts',(5.9,-13.0454834092539,4.67649889062913));
#684=CARTESIAN_POINT('Ctrl Pts',(5.86459300634645,-13.0543253484106,4.86429696297638));
#685=CARTESIAN_POINT('Ctrl Pts',(5.72152073604781,-13.0859007344557,5.20902298531479));
#686=CARTESIAN_POINT('Ctrl Pts',(5.61388898713227,-13.108139280057,5.36601000019007));
#687=CARTESIAN_POINT('Ctrl Pts',(5.36602304722963,-13.1496033396459,5.6138759400927));
#688=CARTESIAN_POINT('Ctrl Pts',(5.20903056030615,-13.1715746472307,5.72151787982296));
#689=CARTESIAN_POINT('Ctrl Pts',(4.86428527287967,-13.2025337809676,5.86459757046781));
#690=CARTESIAN_POINT('Ctrl Pts',(4.67648031069189,-13.211102550928,5.9));
#691=CARTESIAN_POINT('Ctrl Pts',(4.32351968930811,-13.211102550928,5.9));
#692=CARTESIAN_POINT('Ctrl Pts',(4.13571472712033,-13.2025337809676,5.86459757046781));
#693=CARTESIAN_POINT('Ctrl Pts',(3.79096943969385,-13.1715746472307,5.72151787982296));
#694=CARTESIAN_POINT('Ctrl Pts',(3.63397695277036,-13.1496033396459,5.6138759400927));
#695=CARTESIAN_POINT('Ctrl Pts',(3.38611101286773,-13.108139280057,5.36601000019006));
#696=CARTESIAN_POINT('Ctrl Pts',(3.27847926395219,-13.0859007344557,5.20902298531479));
#697=CARTESIAN_POINT('Ctrl Pts',(3.13540699365355,-13.0543253484106,4.86429696297638));
#698=CARTESIAN_POINT('Ctrl Pts',(3.1,-13.0454834092539,4.67649889062913));
#699=CARTESIAN_POINT('Ctrl Pts',(3.1,-13.0454834092539,4.5));
#700=CARTESIAN_POINT('Origin',(4.5,-7.21110255092798,0.25));
#701=CARTESIAN_POINT('',(10.7009796353076,-6.42985255092798,0.25));
#702=CARTESIAN_POINT('Origin',(4.5,-22.25,4.5));
#703=CARTESIAN_POINT('',(3.1,-16.1015468592851,4.5));
#704=CARTESIAN_POINT('Ctrl Pts',(3.1,-16.1015468592851,4.5));
#705=CARTESIAN_POINT('Ctrl Pts',(3.1,-16.1015468592851,4.67609645827554));
#706=CARTESIAN_POINT('Ctrl Pts',(3.13525156768221,-16.1073196735422,4.86373163014639));
#707=CARTESIAN_POINT('Ctrl Pts',(3.27821474684701,-16.1280783901027,5.20857592551336));
#708=CARTESIAN_POINT('Ctrl Pts',(3.38591100865967,-16.1427544175822,5.365809995982));
#709=CARTESIAN_POINT('Ctrl Pts',(3.63418749655381,-16.1702301550221,5.61408648387614));
#710=CARTESIAN_POINT('Ctrl Pts',(3.79142264716541,-16.1848283130966,5.72178471265588));
#711=CARTESIAN_POINT('Ctrl Pts',(4.13627063929144,-16.205408353516,5.86474932193372));
#712=CARTESIAN_POINT('Ctrl Pts',(4.32390709865494,-16.211102550928,5.9));
#713=CARTESIAN_POINT('Ctrl Pts',(4.67609290134506,-16.211102550928,5.9));
#714=CARTESIAN_POINT('Ctrl Pts',(4.86372936070855,-16.205408353516,5.86474932193372));
#715=CARTESIAN_POINT('Ctrl Pts',(5.20857735283458,-16.1848283130966,5.72178471265588));
#716=CARTESIAN_POINT('Ctrl Pts',(5.36581250344619,-16.1702301550221,5.61408648387614));
#717=CARTESIAN_POINT('Ctrl Pts',(5.61408899134033,-16.1427544175822,5.365809995982));
#718=CARTESIAN_POINT('Ctrl Pts',(5.72178525315298,-16.1280783901027,5.20857592551336));
#719=CARTESIAN_POINT('Ctrl Pts',(5.86474843231779,-16.1073196735422,4.86373163014639));
#720=CARTESIAN_POINT('Ctrl Pts',(5.9,-16.1015468592851,4.67609645827554));
#721=CARTESIAN_POINT('Ctrl Pts',(5.9,-16.1015468592851,4.32390354172446));
#722=CARTESIAN_POINT('Ctrl Pts',(5.86474843231779,-16.1073196735422,4.13626836985361));
#723=CARTESIAN_POINT('Ctrl Pts',(5.72178525315298,-16.1280783901027,3.79142407448664));
#724=CARTESIAN_POINT('Ctrl Pts',(5.61408899134033,-16.1427544175822,3.634190004018));
#725=CARTESIAN_POINT('Ctrl Pts',(5.36581250344619,-16.1702301550221,3.38591351612386));
#726=CARTESIAN_POINT('Ctrl Pts',(5.20857735283459,-16.1848283130966,3.27821528734412));
#727=CARTESIAN_POINT('Ctrl Pts',(4.86372936070855,-16.205408353516,3.13525067806628));
#728=CARTESIAN_POINT('Ctrl Pts',(4.67609290134506,-16.211102550928,3.1));
#729=CARTESIAN_POINT('Ctrl Pts',(4.32390709865494,-16.211102550928,3.1));
#730=CARTESIAN_POINT('Ctrl Pts',(4.13627063929145,-16.205408353516,3.13525067806628));
#731=CARTESIAN_POINT('Ctrl Pts',(3.79142264716541,-16.1848283130966,3.27821528734412));
#732=CARTESIAN_POINT('Ctrl Pts',(3.63418749655381,-16.1702301550221,3.38591351612386));
#733=CARTESIAN_POINT('Ctrl Pts',(3.38591100865967,-16.1427544175822,3.634190004018));
#734=CARTESIAN_POINT('Ctrl Pts',(3.27821474684702,-16.1280783901027,3.79142407448664));
#735=CARTESIAN_POINT('Ctrl Pts',(3.13525156768221,-16.1073196735422,4.13626836985361));
#736=CARTESIAN_POINT('Ctrl Pts',(3.1,-16.1015468592851,4.32390354172446));
#737=CARTESIAN_POINT('Ctrl Pts',(3.1,-16.1015468592851,4.5));
#738=CARTESIAN_POINT('',(3.1,-22.25,4.5));
#739=CARTESIAN_POINT('Origin',(10.4529404498953,-6.46110255092798,0.));
#740=CARTESIAN_POINT('',(13.468695557326,-6.46110255092798,5.));
#741=CARTESIAN_POINT('',(13.4999041164476,-6.46110255092798,2.5));
#742=CARTESIAN_POINT('Origin',(0.,0.,0.));
#743=CARTESIAN_POINT('',(-2.5,-8.32667268468867E-16,0.));
#744=CARTESIAN_POINT('',(1.53080849893419E-16,2.5,0.));
#745=CARTESIAN_POINT('Origin',(-7.5,3.05311331771918E-15,0.));
#746=CARTESIAN_POINT('',(-3.21428571428571,-2.57539376818856,0.));
#747=CARTESIAN_POINT('Origin',(13.4999041164476,-1.10555127546399,2.5));
#748=CARTESIAN_POINT('',(13.4999041164476,1.5,1.25));
#749=CARTESIAN_POINT('',(13.4999041164476,-1.21110255092798,1.6));
#750=CARTESIAN_POINT('',(13.4999041164476,-1.21110255092798,3.4));
#751=CARTESIAN_POINT('Origin',(13.4999041164476,-1.21110255092798,2.5));
#752=CARTESIAN_POINT('Origin',(13.4999041164476,-1.21110255092798,2.5));
#753=CARTESIAN_POINT('Origin',(10.9999041164476,-1.21110255092798,2.5));
#754=CARTESIAN_POINT('',(10.9999041164476,-1.21110255092798,1.6));
#755=CARTESIAN_POINT('',(10.9999041164476,-1.21110255092798,3.4));
#756=CARTESIAN_POINT('Origin',(10.9999041164476,-1.21110255092798,2.5));
#757=CARTESIAN_POINT('Origin',(10.9999041164476,-1.21110255092798,2.5));
#758=CARTESIAN_POINT('Origin',(13.4999041164476,-1.21110255092798,2.5));
#759=CARTESIAN_POINT('',(13.4999041164476,-1.21110255092798,3.4));
#760=CARTESIAN_POINT('Origin',(9.,2.5,0.));
#761=CARTESIAN_POINT('',(12.4999041164476,2.5,1.25));
#762=CARTESIAN_POINT('Origin',(12.4999041164476,1.5,1.25));
#763=CARTESIAN_POINT('Origin',(4.5,-7.21110255092798,0.));
#764=UNCERTAINTY_MEASURE_WITH_UNIT(LENGTH_MEASURE(0.01),#768,
'DISTANCE_ACCURACY_VALUE',
'Maximum model space distance between geometric entities at asserted c
onnectivities');
#765=UNCERTAINTY_MEASURE_WITH_UNIT(LENGTH_MEASURE(0.01),#768,
'DISTANCE_ACCURACY_VALUE',
'Maximum model space distance between geometric entities at asserted c
onnectivities');
#766=(
GEOMETRIC_REPRESENTATION_CONTEXT(3)
GLOBAL_UNCERTAINTY_ASSIGNED_CONTEXT((#764))
GLOBAL_UNIT_ASSIGNED_CONTEXT((#768,#770,#771))
REPRESENTATION_CONTEXT('','3D')
);
#767=(
GEOMETRIC_REPRESENTATION_CONTEXT(3)
GLOBAL_UNCERTAINTY_ASSIGNED_CONTEXT((#765))
GLOBAL_UNIT_ASSIGNED_CONTEXT((#768,#770,#771))
REPRESENTATION_CONTEXT('','3D')
);
#768=(
LENGTH_UNIT()
NAMED_UNIT(*)
SI_UNIT(.MILLI.,.METRE.)
);
#769=(
LENGTH_UNIT()
NAMED_UNIT(*)
SI_UNIT(.CENTI.,.METRE.)
);
#770=(
NAMED_UNIT(*)
PLANE_ANGLE_UNIT()
SI_UNIT($,.RADIAN.)
);
#771=(
NAMED_UNIT(*)
SI_UNIT($,.STERADIAN.)
SOLID_ANGLE_UNIT()
);
#772=SHAPE_DEFINITION_REPRESENTATION(#773,#774);
#773=PRODUCT_DEFINITION_SHAPE('',$,#776);
#774=SHAPE_REPRESENTATION('',(#412),#766);
#775=PRODUCT_DEFINITION_CONTEXT('part definition',#780,'design');
#776=PRODUCT_DEFINITION('hold pen - slider pen','hold pen - slider pen',
#777,#775);
#777=PRODUCT_DEFINITION_FORMATION('',$,#782);
#778=PRODUCT_RELATED_PRODUCT_CATEGORY('hold pen - slider pen',
'hold pen - slider pen',(#782));
#779=APPLICATION_PROTOCOL_DEFINITION('international standard',
'automotive_design',2009,#780);
#780=APPLICATION_CONTEXT(
'Core Data for Automotive Mechanical Design Process');
#781=PRODUCT_CONTEXT('part definition',#780,'mechanical');
#782=PRODUCT('hold pen - slider pen','hold pen - slider pen',$,(#781));
#783=PRESENTATION_STYLE_ASSIGNMENT((#784));
#784=SURFACE_STYLE_USAGE(.BOTH.,#787);
#785=SURFACE_STYLE_RENDERING_WITH_PROPERTIES($,#791,(#786));
#786=SURFACE_STYLE_TRANSPARENT(0.);
#787=SURFACE_SIDE_STYLE('',(#788,#785));
#788=SURFACE_STYLE_FILL_AREA(#789);
#789=FILL_AREA_STYLE('',(#790));
#790=FILL_AREA_STYLE_COLOUR('',#791);
#791=COLOUR_RGB('',0.749019607843137,0.749019607843137,0.749019607843137);
ENDSEC;
END-ISO-10303-21;
