ISO-10303-21;
HEADER;
/* Generated by software containing ST-Developer
 * from STEP Tools, Inc. (www.steptools.com) 
 */

FILE_DESCRIPTION(
/* description */ (''),
/* implementation_level */ '2;1');

FILE_NAME(
/* name */ 
'C:\\Users\\drago\\OneDrive\\Ta\X2\0300\X0\i li\X\EA\X2\0323\X0\u\\2ax
is CNC\\holder servo.stp',
/* time_stamp */ '2026-08-19T14:17:02+07:00',
/* author */ ('drago'),
/* organization */ (''),
/* preprocessor_version */ 'ST-DEVELOPER v18',
/* originating_system */ 'Autodesk Inventor 2020',
/* authorisation */ '');

FILE_SCHEMA (('AUTOMOTIVE_DESIGN { 1 0 10303 214 3 1 1 }'));
ENDSEC;

DATA;
#10=MECHANICAL_DESIGN_GEOMETRIC_PRESENTATION_REPRESENTATION('',(#13),#566);
#11=SHAPE_REPRESENTATION_RELATIONSHIP('SRR','None',#573,#12);
#12=ADVANCED_BREP_SHAPE_REPRESENTATION('',(#14),#565);
#13=STYLED_ITEM('',(#582),#14);
#14=MANIFOLD_SOLID_BREP('Solid1',#340);
#15=CYLINDRICAL_SURFACE('',#365,2.);
#16=CYLINDRICAL_SURFACE('',#375,0.899999999999999);
#17=CYLINDRICAL_SURFACE('',#380,0.9);
#18=FACE_BOUND('',#46,.T.);
#19=FACE_BOUND('',#48,.T.);
#20=FACE_BOUND('',#61,.T.);
#21=FACE_BOUND('',#65,.T.);
#22=CIRCLE('',#361,0.899999999999999);
#23=CIRCLE('',#363,2.);
#24=CIRCLE('',#364,0.9);
#25=CIRCLE('',#366,2.);
#26=CIRCLE('',#376,0.899999999999999);
#27=CIRCLE('',#381,0.9);
#28=FACE_OUTER_BOUND('',#45,.T.);
#29=FACE_OUTER_BOUND('',#47,.T.);
#30=FACE_OUTER_BOUND('',#49,.T.);
#31=FACE_OUTER_BOUND('',#50,.T.);
#32=FACE_OUTER_BOUND('',#51,.T.);
#33=FACE_OUTER_BOUND('',#52,.T.);
#34=FACE_OUTER_BOUND('',#53,.T.);
#35=FACE_OUTER_BOUND('',#54,.T.);
#36=FACE_OUTER_BOUND('',#55,.T.);
#37=FACE_OUTER_BOUND('',#56,.T.);
#38=FACE_OUTER_BOUND('',#57,.T.);
#39=FACE_OUTER_BOUND('',#58,.T.);
#40=FACE_OUTER_BOUND('',#59,.T.);
#41=FACE_OUTER_BOUND('',#60,.T.);
#42=FACE_OUTER_BOUND('',#62,.T.);
#43=FACE_OUTER_BOUND('',#63,.T.);
#44=FACE_OUTER_BOUND('',#64,.T.);
#45=EDGE_LOOP('',(#219,#220,#221,#222));
#46=EDGE_LOOP('',(#223));
#47=EDGE_LOOP('',(#224,#225,#226,#227,#228));
#48=EDGE_LOOP('',(#229));
#49=EDGE_LOOP('',(#230,#231,#232,#233));
#50=EDGE_LOOP('',(#234,#235,#236,#237,#238,#239,#240,#241,#242,#243,#244,
#245));
#51=EDGE_LOOP('',(#246,#247,#248,#249));
#52=EDGE_LOOP('',(#250,#251,#252,#253));
#53=EDGE_LOOP('',(#254,#255,#256,#257));
#54=EDGE_LOOP('',(#258,#259,#260,#261));
#55=EDGE_LOOP('',(#262,#263,#264,#265));
#56=EDGE_LOOP('',(#266,#267,#268,#269));
#57=EDGE_LOOP('',(#270,#271,#272,#273));
#58=EDGE_LOOP('',(#274,#275,#276,#277));
#59=EDGE_LOOP('',(#278,#279,#280,#281,#282,#283,#284,#285,#286,#287,#288,
#289));
#60=EDGE_LOOP('',(#290,#291,#292,#293));
#61=EDGE_LOOP('',(#294));
#62=EDGE_LOOP('',(#295,#296,#297,#298));
#63=EDGE_LOOP('',(#299,#300,#301,#302));
#64=EDGE_LOOP('',(#303,#304,#305,#306,#307));
#65=EDGE_LOOP('',(#308));
#66=LINE('',#474,#105);
#67=LINE('',#476,#106);
#68=LINE('',#478,#107);
#69=LINE('',#479,#108);
#70=LINE('',#485,#109);
#71=LINE('',#487,#110);
#72=LINE('',#491,#111);
#73=LINE('',#492,#112);
#74=LINE('',#497,#113);
#75=LINE('',#500,#114);
#76=LINE('',#503,#115);
#77=LINE('',#505,#116);
#78=LINE('',#506,#117);
#79=LINE('',#508,#118);
#80=LINE('',#510,#119);
#81=LINE('',#512,#120);
#82=LINE('',#514,#121);
#83=LINE('',#516,#122);
#84=LINE('',#517,#123);
#85=LINE('',#520,#124);
#86=LINE('',#521,#125);
#87=LINE('',#524,#126);
#88=LINE('',#525,#127);
#89=LINE('',#528,#128);
#90=LINE('',#529,#129);
#91=LINE('',#532,#130);
#92=LINE('',#533,#131);
#93=LINE('',#537,#132);
#94=LINE('',#538,#133);
#95=LINE('',#539,#134);
#96=LINE('',#542,#135);
#97=LINE('',#543,#136);
#98=LINE('',#545,#137);
#99=LINE('',#549,#138);
#100=LINE('',#552,#139);
#101=LINE('',#553,#140);
#102=LINE('',#554,#141);
#103=LINE('',#557,#142);
#104=LINE('',#561,#143);
#105=VECTOR('',#387,10.);
#106=VECTOR('',#388,10.);
#107=VECTOR('',#389,10.);
#108=VECTOR('',#390,10.);
#109=VECTOR('',#395,10.);
#110=VECTOR('',#396,10.);
#111=VECTOR('',#399,10.);
#112=VECTOR('',#400,10.);
#113=VECTOR('',#405,10.);
#114=VECTOR('',#408,10.);
#115=VECTOR('',#411,10.);
#116=VECTOR('',#412,10.);
#117=VECTOR('',#413,10.);
#118=VECTOR('',#414,10.);
#119=VECTOR('',#415,10.);
#120=VECTOR('',#416,10.);
#121=VECTOR('',#417,10.);
#122=VECTOR('',#418,10.);
#123=VECTOR('',#419,10.);
#124=VECTOR('',#422,10.);
#125=VECTOR('',#423,10.);
#126=VECTOR('',#426,10.);
#127=VECTOR('',#427,10.);
#128=VECTOR('',#430,10.);
#129=VECTOR('',#431,10.);
#130=VECTOR('',#434,10.);
#131=VECTOR('',#435,10.);
#132=VECTOR('',#438,10.);
#133=VECTOR('',#439,10.);
#134=VECTOR('',#440,10.);
#135=VECTOR('',#443,10.);
#136=VECTOR('',#444,10.);
#137=VECTOR('',#447,10.);
#138=VECTOR('',#452,0.899999999999999);
#139=VECTOR('',#455,10.);
#140=VECTOR('',#456,10.);
#141=VECTOR('',#457,10.);
#142=VECTOR('',#462,10.);
#143=VECTOR('',#467,0.9);
#144=VERTEX_POINT('',#472);
#145=VERTEX_POINT('',#473);
#146=VERTEX_POINT('',#475);
#147=VERTEX_POINT('',#477);
#148=VERTEX_POINT('',#480);
#149=VERTEX_POINT('',#483);
#150=VERTEX_POINT('',#484);
#151=VERTEX_POINT('',#486);
#152=VERTEX_POINT('',#488);
#153=VERTEX_POINT('',#490);
#154=VERTEX_POINT('',#493);
#155=VERTEX_POINT('',#496);
#156=VERTEX_POINT('',#498);
#157=VERTEX_POINT('',#502);
#158=VERTEX_POINT('',#504);
#159=VERTEX_POINT('',#507);
#160=VERTEX_POINT('',#509);
#161=VERTEX_POINT('',#511);
#162=VERTEX_POINT('',#513);
#163=VERTEX_POINT('',#515);
#164=VERTEX_POINT('',#519);
#165=VERTEX_POINT('',#523);
#166=VERTEX_POINT('',#527);
#167=VERTEX_POINT('',#531);
#168=VERTEX_POINT('',#535);
#169=VERTEX_POINT('',#536);
#170=VERTEX_POINT('',#541);
#171=VERTEX_POINT('',#547);
#172=VERTEX_POINT('',#551);
#173=VERTEX_POINT('',#559);
#174=EDGE_CURVE('',#144,#145,#66,.T.);
#175=EDGE_CURVE('',#146,#144,#67,.T.);
#176=EDGE_CURVE('',#147,#146,#68,.T.);
#177=EDGE_CURVE('',#145,#147,#69,.T.);
#178=EDGE_CURVE('',#148,#148,#22,.T.);
#179=EDGE_CURVE('',#149,#150,#70,.T.);
#180=EDGE_CURVE('',#151,#149,#71,.T.);
#181=EDGE_CURVE('',#152,#151,#23,.T.);
#182=EDGE_CURVE('',#153,#152,#72,.T.);
#183=EDGE_CURVE('',#150,#153,#73,.T.);
#184=EDGE_CURVE('',#154,#154,#24,.T.);
#185=EDGE_CURVE('',#151,#155,#74,.T.);
#186=EDGE_CURVE('',#156,#155,#25,.T.);
#187=EDGE_CURVE('',#152,#156,#75,.T.);
#188=EDGE_CURVE('',#149,#157,#76,.T.);
#189=EDGE_CURVE('',#157,#158,#77,.T.);
#190=EDGE_CURVE('',#145,#158,#78,.T.);
#191=EDGE_CURVE('',#147,#159,#79,.T.);
#192=EDGE_CURVE('',#160,#159,#80,.T.);
#193=EDGE_CURVE('',#160,#161,#81,.T.);
#194=EDGE_CURVE('',#162,#161,#82,.T.);
#195=EDGE_CURVE('',#163,#162,#83,.T.);
#196=EDGE_CURVE('',#155,#163,#84,.T.);
#197=EDGE_CURVE('',#146,#164,#85,.T.);
#198=EDGE_CURVE('',#159,#164,#86,.T.);
#199=EDGE_CURVE('',#165,#156,#87,.T.);
#200=EDGE_CURVE('',#165,#153,#88,.T.);
#201=EDGE_CURVE('',#150,#166,#89,.T.);
#202=EDGE_CURVE('',#157,#166,#90,.T.);
#203=EDGE_CURVE('',#166,#167,#91,.T.);
#204=EDGE_CURVE('',#167,#158,#92,.T.);
#205=EDGE_CURVE('',#168,#169,#93,.T.);
#206=EDGE_CURVE('',#169,#162,#94,.T.);
#207=EDGE_CURVE('',#161,#168,#95,.T.);
#208=EDGE_CURVE('',#170,#168,#96,.T.);
#209=EDGE_CURVE('',#170,#160,#97,.T.);
#210=EDGE_CURVE('',#144,#167,#98,.T.);
#211=EDGE_CURVE('',#171,#171,#26,.T.);
#212=EDGE_CURVE('',#171,#148,#99,.T.);
#213=EDGE_CURVE('',#172,#165,#100,.T.);
#214=EDGE_CURVE('',#169,#172,#101,.T.);
#215=EDGE_CURVE('',#164,#170,#102,.T.);
#216=EDGE_CURVE('',#163,#172,#103,.T.);
#217=EDGE_CURVE('',#173,#173,#27,.T.);
#218=EDGE_CURVE('',#173,#154,#104,.T.);
#219=ORIENTED_EDGE('',*,*,#174,.F.);
#220=ORIENTED_EDGE('',*,*,#175,.F.);
#221=ORIENTED_EDGE('',*,*,#176,.F.);
#222=ORIENTED_EDGE('',*,*,#177,.F.);
#223=ORIENTED_EDGE('',*,*,#178,.F.);
#224=ORIENTED_EDGE('',*,*,#179,.F.);
#225=ORIENTED_EDGE('',*,*,#180,.F.);
#226=ORIENTED_EDGE('',*,*,#181,.F.);
#227=ORIENTED_EDGE('',*,*,#182,.F.);
#228=ORIENTED_EDGE('',*,*,#183,.F.);
#229=ORIENTED_EDGE('',*,*,#184,.F.);
#230=ORIENTED_EDGE('',*,*,#181,.T.);
#231=ORIENTED_EDGE('',*,*,#185,.T.);
#232=ORIENTED_EDGE('',*,*,#186,.F.);
#233=ORIENTED_EDGE('',*,*,#187,.F.);
#234=ORIENTED_EDGE('',*,*,#180,.T.);
#235=ORIENTED_EDGE('',*,*,#188,.T.);
#236=ORIENTED_EDGE('',*,*,#189,.T.);
#237=ORIENTED_EDGE('',*,*,#190,.F.);
#238=ORIENTED_EDGE('',*,*,#177,.T.);
#239=ORIENTED_EDGE('',*,*,#191,.T.);
#240=ORIENTED_EDGE('',*,*,#192,.F.);
#241=ORIENTED_EDGE('',*,*,#193,.T.);
#242=ORIENTED_EDGE('',*,*,#194,.F.);
#243=ORIENTED_EDGE('',*,*,#195,.F.);
#244=ORIENTED_EDGE('',*,*,#196,.F.);
#245=ORIENTED_EDGE('',*,*,#185,.F.);
#246=ORIENTED_EDGE('',*,*,#176,.T.);
#247=ORIENTED_EDGE('',*,*,#197,.T.);
#248=ORIENTED_EDGE('',*,*,#198,.F.);
#249=ORIENTED_EDGE('',*,*,#191,.F.);
#250=ORIENTED_EDGE('',*,*,#182,.T.);
#251=ORIENTED_EDGE('',*,*,#187,.T.);
#252=ORIENTED_EDGE('',*,*,#199,.F.);
#253=ORIENTED_EDGE('',*,*,#200,.T.);
#254=ORIENTED_EDGE('',*,*,#179,.T.);
#255=ORIENTED_EDGE('',*,*,#201,.T.);
#256=ORIENTED_EDGE('',*,*,#202,.F.);
#257=ORIENTED_EDGE('',*,*,#188,.F.);
#258=ORIENTED_EDGE('',*,*,#203,.T.);
#259=ORIENTED_EDGE('',*,*,#204,.T.);
#260=ORIENTED_EDGE('',*,*,#189,.F.);
#261=ORIENTED_EDGE('',*,*,#202,.T.);
#262=ORIENTED_EDGE('',*,*,#205,.T.);
#263=ORIENTED_EDGE('',*,*,#206,.T.);
#264=ORIENTED_EDGE('',*,*,#194,.T.);
#265=ORIENTED_EDGE('',*,*,#207,.T.);
#266=ORIENTED_EDGE('',*,*,#208,.T.);
#267=ORIENTED_EDGE('',*,*,#207,.F.);
#268=ORIENTED_EDGE('',*,*,#193,.F.);
#269=ORIENTED_EDGE('',*,*,#209,.F.);
#270=ORIENTED_EDGE('',*,*,#174,.T.);
#271=ORIENTED_EDGE('',*,*,#190,.T.);
#272=ORIENTED_EDGE('',*,*,#204,.F.);
#273=ORIENTED_EDGE('',*,*,#210,.F.);
#274=ORIENTED_EDGE('',*,*,#211,.F.);
#275=ORIENTED_EDGE('',*,*,#212,.T.);
#276=ORIENTED_EDGE('',*,*,#178,.T.);
#277=ORIENTED_EDGE('',*,*,#212,.F.);
#278=ORIENTED_EDGE('',*,*,#183,.T.);
#279=ORIENTED_EDGE('',*,*,#200,.F.);
#280=ORIENTED_EDGE('',*,*,#213,.F.);
#281=ORIENTED_EDGE('',*,*,#214,.F.);
#282=ORIENTED_EDGE('',*,*,#205,.F.);
#283=ORIENTED_EDGE('',*,*,#208,.F.);
#284=ORIENTED_EDGE('',*,*,#215,.F.);
#285=ORIENTED_EDGE('',*,*,#197,.F.);
#286=ORIENTED_EDGE('',*,*,#175,.T.);
#287=ORIENTED_EDGE('',*,*,#210,.T.);
#288=ORIENTED_EDGE('',*,*,#203,.F.);
#289=ORIENTED_EDGE('',*,*,#201,.F.);
#290=ORIENTED_EDGE('',*,*,#198,.T.);
#291=ORIENTED_EDGE('',*,*,#215,.T.);
#292=ORIENTED_EDGE('',*,*,#209,.T.);
#293=ORIENTED_EDGE('',*,*,#192,.T.);
#294=ORIENTED_EDGE('',*,*,#211,.T.);
#295=ORIENTED_EDGE('',*,*,#214,.T.);
#296=ORIENTED_EDGE('',*,*,#216,.F.);
#297=ORIENTED_EDGE('',*,*,#195,.T.);
#298=ORIENTED_EDGE('',*,*,#206,.F.);
#299=ORIENTED_EDGE('',*,*,#217,.F.);
#300=ORIENTED_EDGE('',*,*,#218,.T.);
#301=ORIENTED_EDGE('',*,*,#184,.T.);
#302=ORIENTED_EDGE('',*,*,#218,.F.);
#303=ORIENTED_EDGE('',*,*,#213,.T.);
#304=ORIENTED_EDGE('',*,*,#199,.T.);
#305=ORIENTED_EDGE('',*,*,#186,.T.);
#306=ORIENTED_EDGE('',*,*,#196,.T.);
#307=ORIENTED_EDGE('',*,*,#216,.T.);
#308=ORIENTED_EDGE('',*,*,#217,.T.);
#309=PLANE('',#360);
#310=PLANE('',#362);
#311=PLANE('',#367);
#312=PLANE('',#368);
#313=PLANE('',#369);
#314=PLANE('',#370);
#315=PLANE('',#371);
#316=PLANE('',#372);
#317=PLANE('',#373);
#318=PLANE('',#374);
#319=PLANE('',#377);
#320=PLANE('',#378);
#321=PLANE('',#379);
#322=PLANE('',#382);
#323=ADVANCED_FACE('',(#28,#18),#309,.F.);
#324=ADVANCED_FACE('',(#29,#19),#310,.F.);
#325=ADVANCED_FACE('',(#30),#15,.T.);
#326=ADVANCED_FACE('',(#31),#311,.T.);
#327=ADVANCED_FACE('',(#32),#312,.T.);
#328=ADVANCED_FACE('',(#33),#313,.T.);
#329=ADVANCED_FACE('',(#34),#314,.T.);
#330=ADVANCED_FACE('',(#35),#315,.F.);
#331=ADVANCED_FACE('',(#36),#316,.T.);
#332=ADVANCED_FACE('',(#37),#317,.T.);
#333=ADVANCED_FACE('',(#38),#318,.T.);
#334=ADVANCED_FACE('',(#39),#16,.F.);
#335=ADVANCED_FACE('',(#40),#319,.T.);
#336=ADVANCED_FACE('',(#41,#20),#320,.T.);
#337=ADVANCED_FACE('',(#42),#321,.T.);
#338=ADVANCED_FACE('',(#43),#17,.F.);
#339=ADVANCED_FACE('',(#44,#21),#322,.T.);
#340=CLOSED_SHELL('',(#323,#324,#325,#326,#327,#328,#329,#330,#331,#332,
#333,#334,#335,#336,#337,#338,#339));
#341=DERIVED_UNIT_ELEMENT(#343,1.);
#342=DERIVED_UNIT_ELEMENT(#568,3.);
#343=(
MASS_UNIT()
NAMED_UNIT(*)
SI_UNIT($,.GRAM.)
);
#344=DERIVED_UNIT((#341,#342));
#345=MEASURE_REPRESENTATION_ITEM('density measure',
POSITIVE_RATIO_MEASURE(1.),#344);
#346=PROPERTY_DEFINITION_REPRESENTATION(#351,#348);
#347=PROPERTY_DEFINITION_REPRESENTATION(#352,#349);
#348=REPRESENTATION('material name',(#350),#565);
#349=REPRESENTATION('density',(#345),#565);
#350=DESCRIPTIVE_REPRESENTATION_ITEM('Generic','Generic');
#351=PROPERTY_DEFINITION('material property','material name',#575);
#352=PROPERTY_DEFINITION('material property','density of part',#575);
#353=DATE_TIME_ROLE('creation_date');
#354=APPLIED_DATE_AND_TIME_ASSIGNMENT(#355,#353,(#575));
#355=DATE_AND_TIME(#356,#357);
#356=CALENDAR_DATE(2026,8,7);
#357=LOCAL_TIME(11,12,19.,#358);
#358=COORDINATED_UNIVERSAL_TIME_OFFSET(0,0,.BEHIND.);
#359=AXIS2_PLACEMENT_3D('placement',#470,#383,#384);
#360=AXIS2_PLACEMENT_3D('',#471,#385,#386);
#361=AXIS2_PLACEMENT_3D('',#481,#391,#392);
#362=AXIS2_PLACEMENT_3D('',#482,#393,#394);
#363=AXIS2_PLACEMENT_3D('',#489,#397,#398);
#364=AXIS2_PLACEMENT_3D('',#494,#401,#402);
#365=AXIS2_PLACEMENT_3D('',#495,#403,#404);
#366=AXIS2_PLACEMENT_3D('',#499,#406,#407);
#367=AXIS2_PLACEMENT_3D('',#501,#409,#410);
#368=AXIS2_PLACEMENT_3D('',#518,#420,#421);
#369=AXIS2_PLACEMENT_3D('',#522,#424,#425);
#370=AXIS2_PLACEMENT_3D('',#526,#428,#429);
#371=AXIS2_PLACEMENT_3D('',#530,#432,#433);
#372=AXIS2_PLACEMENT_3D('',#534,#436,#437);
#373=AXIS2_PLACEMENT_3D('',#540,#441,#442);
#374=AXIS2_PLACEMENT_3D('',#544,#445,#446);
#375=AXIS2_PLACEMENT_3D('',#546,#448,#449);
#376=AXIS2_PLACEMENT_3D('',#548,#450,#451);
#377=AXIS2_PLACEMENT_3D('',#550,#453,#454);
#378=AXIS2_PLACEMENT_3D('',#555,#458,#459);
#379=AXIS2_PLACEMENT_3D('',#556,#460,#461);
#380=AXIS2_PLACEMENT_3D('',#558,#463,#464);
#381=AXIS2_PLACEMENT_3D('',#560,#465,#466);
#382=AXIS2_PLACEMENT_3D('',#562,#468,#469);
#383=DIRECTION('axis',(0.,0.,1.));
#384=DIRECTION('refdir',(1.,0.,0.));
#385=DIRECTION('center_axis',(0.,0.,1.));
#386=DIRECTION('ref_axis',(1.,0.,0.));
#387=DIRECTION('',(-1.,0.,0.));
#388=DIRECTION('',(0.,1.,0.));
#389=DIRECTION('',(1.,0.,0.));
#390=DIRECTION('',(0.,-1.,0.));
#391=DIRECTION('center_axis',(0.,0.,-1.));
#392=DIRECTION('ref_axis',(-1.,0.,0.));
#393=DIRECTION('center_axis',(0.,0.,1.));
#394=DIRECTION('ref_axis',(1.,0.,0.));
#395=DIRECTION('',(1.,0.,0.));
#396=DIRECTION('',(0.,-1.,0.));
#397=DIRECTION('center_axis',(0.,0.,1.));
#398=DIRECTION('ref_axis',(-5.55111512312578E-16,1.,0.));
#399=DIRECTION('',(-1.,0.,0.));
#400=DIRECTION('',(0.,1.,0.));
#401=DIRECTION('center_axis',(0.,0.,-1.));
#402=DIRECTION('ref_axis',(-1.,0.,0.));
#403=DIRECTION('center_axis',(0.,0.,1.));
#404=DIRECTION('ref_axis',(-5.55111512312578E-16,1.,0.));
#405=DIRECTION('',(0.,0.,1.));
#406=DIRECTION('center_axis',(0.,0.,1.));
#407=DIRECTION('ref_axis',(-5.55111512312578E-16,1.,0.));
#408=DIRECTION('',(0.,0.,1.));
#409=DIRECTION('center_axis',(-1.,0.,0.));
#410=DIRECTION('ref_axis',(0.,-1.,0.));
#411=DIRECTION('',(0.,0.,1.));
#412=DIRECTION('',(0.,-1.,0.));
#413=DIRECTION('',(0.,0.,1.));
#414=DIRECTION('',(0.,0.,1.));
#415=DIRECTION('',(0.,-1.,0.));
#416=DIRECTION('',(0.,0.,1.));
#417=DIRECTION('',(0.,-1.,0.));
#418=DIRECTION('',(0.,0.,1.));
#419=DIRECTION('',(0.,-1.,0.));
#420=DIRECTION('center_axis',(0.,-1.,0.));
#421=DIRECTION('ref_axis',(1.,0.,0.));
#422=DIRECTION('',(0.,0.,1.));
#423=DIRECTION('',(1.,0.,0.));
#424=DIRECTION('center_axis',(0.,1.,0.));
#425=DIRECTION('ref_axis',(-1.,0.,0.));
#426=DIRECTION('',(-1.,0.,0.));
#427=DIRECTION('',(0.,0.,-1.));
#428=DIRECTION('center_axis',(0.,-1.,0.));
#429=DIRECTION('ref_axis',(1.,0.,0.));
#430=DIRECTION('',(0.,0.,1.));
#431=DIRECTION('',(1.,0.,0.));
#432=DIRECTION('center_axis',(0.,0.,1.));
#433=DIRECTION('ref_axis',(1.,0.,0.));
#434=DIRECTION('',(0.,-1.,0.));
#435=DIRECTION('',(-1.,0.,0.));
#436=DIRECTION('center_axis',(0.,0.,1.));
#437=DIRECTION('ref_axis',(1.,0.,0.));
#438=DIRECTION('',(0.,1.,0.));
#439=DIRECTION('',(-1.,0.,0.));
#440=DIRECTION('',(1.,0.,0.));
#441=DIRECTION('center_axis',(0.,-1.,0.));
#442=DIRECTION('ref_axis',(1.,0.,0.));
#443=DIRECTION('',(0.,0.,1.));
#444=DIRECTION('',(-1.,0.,0.));
#445=DIRECTION('center_axis',(0.,1.,0.));
#446=DIRECTION('ref_axis',(-1.,0.,0.));
#447=DIRECTION('',(0.,0.,1.));
#448=DIRECTION('center_axis',(0.,0.,1.));
#449=DIRECTION('ref_axis',(-1.,0.,0.));
#450=DIRECTION('center_axis',(0.,0.,-1.));
#451=DIRECTION('ref_axis',(-1.,0.,0.));
#452=DIRECTION('',(0.,0.,-1.));
#453=DIRECTION('center_axis',(1.,0.,0.));
#454=DIRECTION('ref_axis',(0.,1.,0.));
#455=DIRECTION('',(0.,1.,0.));
#456=DIRECTION('',(0.,0.,-1.));
#457=DIRECTION('',(0.,1.,0.));
#458=DIRECTION('center_axis',(0.,0.,1.));
#459=DIRECTION('ref_axis',(1.,0.,0.));
#460=DIRECTION('center_axis',(0.,1.,0.));
#461=DIRECTION('ref_axis',(-1.,0.,0.));
#462=DIRECTION('',(1.,0.,0.));
#463=DIRECTION('center_axis',(0.,0.,1.));
#464=DIRECTION('ref_axis',(-1.,0.,0.));
#465=DIRECTION('center_axis',(0.,0.,-1.));
#466=DIRECTION('ref_axis',(-1.,0.,0.));
#467=DIRECTION('',(0.,0.,-1.));
#468=DIRECTION('center_axis',(0.,0.,1.));
#469=DIRECTION('ref_axis',(1.,0.,0.));
#470=CARTESIAN_POINT('',(0.,0.,0.));
#471=CARTESIAN_POINT('Origin',(-3.50866538678982,0.837890234690701,0.7));
#472=CARTESIAN_POINT('',(-1.,-11.,0.7));
#473=CARTESIAN_POINT('',(-7.,-11.,0.7));
#474=CARTESIAN_POINT('',(-2.25433269339491,-11.,0.7));
#475=CARTESIAN_POINT('',(-1.,-17.,0.7));
#476=CARTESIAN_POINT('',(-1.,-8.08105488265465,0.7));
#477=CARTESIAN_POINT('',(-7.,-17.,0.7));
#478=CARTESIAN_POINT('',(-5.25433269339491,-17.,0.7));
#479=CARTESIAN_POINT('',(-7.,9.16894511734535,0.7));
#480=CARTESIAN_POINT('',(-3.1,-15.,0.7));
#481=CARTESIAN_POINT('Origin',(-4.,-15.,0.7));
#482=CARTESIAN_POINT('Origin',(-3.50866538678982,0.837890234690701,0.7));
#483=CARTESIAN_POINT('',(-7.,13.,0.7));
#484=CARTESIAN_POINT('',(-1.,13.,0.7));
#485=CARTESIAN_POINT('',(-5.25433269339491,13.,0.7));
#486=CARTESIAN_POINT('',(-7.,17.5,0.7));
#487=CARTESIAN_POINT('',(-7.,9.16894511734535,0.7));
#488=CARTESIAN_POINT('',(-5.,19.5,0.7));
#489=CARTESIAN_POINT('Origin',(-5.,17.5,0.7));
#490=CARTESIAN_POINT('',(-1.,19.5,0.7));
#491=CARTESIAN_POINT('',(-2.20433269339491,19.5,0.7));
#492=CARTESIAN_POINT('',(-1.,-8.08105488265465,0.7));
#493=CARTESIAN_POINT('',(-3.05,17.25,0.7));
#494=CARTESIAN_POINT('Origin',(-3.95,17.25,0.7));
#495=CARTESIAN_POINT('Origin',(-5.,17.5,0.));
#496=CARTESIAN_POINT('',(-7.,17.5,3.));
#497=CARTESIAN_POINT('',(-7.,17.5,0.));
#498=CARTESIAN_POINT('',(-5.,19.5,3.));
#499=CARTESIAN_POINT('Origin',(-5.,17.5,3.));
#500=CARTESIAN_POINT('',(-5.,19.5,0.));
#501=CARTESIAN_POINT('Origin',(-7.,17.5,0.));
#502=CARTESIAN_POINT('',(-7.,13.,11.8));
#503=CARTESIAN_POINT('',(-7.,13.,0.));
#504=CARTESIAN_POINT('',(-7.,-11.,11.8));
#505=CARTESIAN_POINT('',(-7.,15.,11.8));
#506=CARTESIAN_POINT('',(-7.,-11.,0.));
#507=CARTESIAN_POINT('',(-7.,-17.,3.));
#508=CARTESIAN_POINT('',(-7.,-17.,0.));
#509=CARTESIAN_POINT('',(-7.,-13.,3.));
#510=CARTESIAN_POINT('',(-7.,-11.,3.));
#511=CARTESIAN_POINT('',(-7.,-13.,13.8));
#512=CARTESIAN_POINT('',(-7.,-13.,0.));
#513=CARTESIAN_POINT('',(-7.,15.,13.8));
#514=CARTESIAN_POINT('',(-7.,15.,13.8));
#515=CARTESIAN_POINT('',(-7.,15.,3.));
#516=CARTESIAN_POINT('',(-7.,15.,0.));
#517=CARTESIAN_POINT('',(-7.,17.5,3.));
#518=CARTESIAN_POINT('Origin',(-7.,-17.,0.));
#519=CARTESIAN_POINT('',(-1.,-17.,3.));
#520=CARTESIAN_POINT('',(-1.,-17.,0.));
#521=CARTESIAN_POINT('',(-7.,-17.,3.));
#522=CARTESIAN_POINT('Origin',(-0.9,19.5,0.));
#523=CARTESIAN_POINT('',(-1.,19.5,3.));
#524=CARTESIAN_POINT('',(-0.9,19.5,3.));
#525=CARTESIAN_POINT('',(-1.,19.5,3.45));
#526=CARTESIAN_POINT('Origin',(-7.,13.,0.));
#527=CARTESIAN_POINT('',(-1.,13.,11.8));
#528=CARTESIAN_POINT('',(-1.,13.,3.45));
#529=CARTESIAN_POINT('',(-7.,13.,11.8));
#530=CARTESIAN_POINT('Origin',(-3.95,1.,11.8));
#531=CARTESIAN_POINT('',(-1.,-11.,11.8));
#532=CARTESIAN_POINT('',(-1.,2.125,11.8));
#533=CARTESIAN_POINT('',(-1.,-11.,11.8));
#534=CARTESIAN_POINT('Origin',(-3.95,1.,13.8));
#535=CARTESIAN_POINT('',(-1.,-13.,13.8));
#536=CARTESIAN_POINT('',(-1.,15.,13.8));
#537=CARTESIAN_POINT('',(-1.,2.125,13.8));
#538=CARTESIAN_POINT('',(-0.9,15.,13.8));
#539=CARTESIAN_POINT('',(-7.,-13.,13.8));
#540=CARTESIAN_POINT('Origin',(-7.,-13.,0.));
#541=CARTESIAN_POINT('',(-1.,-13.,3.));
#542=CARTESIAN_POINT('',(-1.,-13.,0.));
#543=CARTESIAN_POINT('',(-1.,-13.,3.));
#544=CARTESIAN_POINT('Origin',(-1.,-11.,0.));
#545=CARTESIAN_POINT('',(-1.,-11.,0.));
#546=CARTESIAN_POINT('Origin',(-4.,-15.,0.));
#547=CARTESIAN_POINT('',(-3.1,-15.,3.));
#548=CARTESIAN_POINT('Origin',(-4.,-15.,3.));
#549=CARTESIAN_POINT('',(-3.1,-15.,0.));
#550=CARTESIAN_POINT('Origin',(-1.,-17.,0.));
#551=CARTESIAN_POINT('',(-1.,15.,3.));
#552=CARTESIAN_POINT('',(-1.,10.25,3.));
#553=CARTESIAN_POINT('',(-1.,15.,3.45));
#554=CARTESIAN_POINT('',(-1.,-17.,3.));
#555=CARTESIAN_POINT('Origin',(-4.,-15.,3.));
#556=CARTESIAN_POINT('Origin',(-0.9,15.,0.));
#557=CARTESIAN_POINT('',(-7.,15.,3.));
#558=CARTESIAN_POINT('Origin',(-3.95,17.25,0.));
#559=CARTESIAN_POINT('',(-3.05,17.25,3.));
#560=CARTESIAN_POINT('Origin',(-3.95,17.25,3.));
#561=CARTESIAN_POINT('',(-3.05,17.25,0.));
#562=CARTESIAN_POINT('Origin',(-3.95,17.25,3.));
#563=UNCERTAINTY_MEASURE_WITH_UNIT(LENGTH_MEASURE(0.01),#567,
'DISTANCE_ACCURACY_VALUE',
'Maximum model space distance between geometric entities at asserted c
onnectivities');
#564=UNCERTAINTY_MEASURE_WITH_UNIT(LENGTH_MEASURE(0.01),#567,
'DISTANCE_ACCURACY_VALUE',
'Maximum model space distance between geometric entities at asserted c
onnectivities');
#565=(
GEOMETRIC_REPRESENTATION_CONTEXT(3)
GLOBAL_UNCERTAINTY_ASSIGNED_CONTEXT((#563))
GLOBAL_UNIT_ASSIGNED_CONTEXT((#567,#569,#570))
REPRESENTATION_CONTEXT('','3D')
);
#566=(
GEOMETRIC_REPRESENTATION_CONTEXT(3)
GLOBAL_UNCERTAINTY_ASSIGNED_CONTEXT((#564))
GLOBAL_UNIT_ASSIGNED_CONTEXT((#567,#569,#570))
REPRESENTATION_CONTEXT('','3D')
);
#567=(
LENGTH_UNIT()
NAMED_UNIT(*)
SI_UNIT(.MILLI.,.METRE.)
);
#568=(
LENGTH_UNIT()
NAMED_UNIT(*)
SI_UNIT(.CENTI.,.METRE.)
);
#569=(
NAMED_UNIT(*)
PLANE_ANGLE_UNIT()
SI_UNIT($,.RADIAN.)
);
#570=(
NAMED_UNIT(*)
SI_UNIT($,.STERADIAN.)
SOLID_ANGLE_UNIT()
);
#571=SHAPE_DEFINITION_REPRESENTATION(#572,#573);
#572=PRODUCT_DEFINITION_SHAPE('',$,#575);
#573=SHAPE_REPRESENTATION('',(#359),#565);
#574=PRODUCT_DEFINITION_CONTEXT('part definition',#579,'design');
#575=PRODUCT_DEFINITION('holder servo','holder servo',#576,#574);
#576=PRODUCT_DEFINITION_FORMATION('',$,#581);
#577=PRODUCT_RELATED_PRODUCT_CATEGORY('holder servo','holder servo',(#581));
#578=APPLICATION_PROTOCOL_DEFINITION('international standard',
'automotive_design',2009,#579);
#579=APPLICATION_CONTEXT(
'Core Data for Automotive Mechanical Design Process');
#580=PRODUCT_CONTEXT('part definition',#579,'mechanical');
#581=PRODUCT('holder servo','holder servo',$,(#580));
#582=PRESENTATION_STYLE_ASSIGNMENT((#583));
#583=SURFACE_STYLE_USAGE(.BOTH.,#586);
#584=SURFACE_STYLE_RENDERING_WITH_PROPERTIES($,#590,(#585));
#585=SURFACE_STYLE_TRANSPARENT(0.);
#586=SURFACE_SIDE_STYLE('',(#587,#584));
#587=SURFACE_STYLE_FILL_AREA(#588);
#588=FILL_AREA_STYLE('',(#589));
#589=FILL_AREA_STYLE_COLOUR('',#590);
#590=COLOUR_RGB('',0.749019607843137,0.749019607843137,0.749019607843137);
ENDSEC;
END-ISO-10303-21;
