ISO-10303-21;
HEADER;
/* Generated by software containing ST-Developer
 * from STEP Tools, Inc. (www.steptools.com) 
 */

FILE_DESCRIPTION(
/* description */ (''),
/* implementation_level */ '2;1');

FILE_NAME(
/* name */ 
'C:\\Users\\drago\\OneDrive\\Ta\X2\0300\X0\i li\X\EA\X2\0323\X0\u\\2ax
is CNC\\motor holder.stp',
/* time_stamp */ '2026-08-19T14:17:20+07:00',
/* author */ ('drago'),
/* organization */ (''),
/* preprocessor_version */ 'ST-DEVELOPER v18',
/* originating_system */ 'Autodesk Inventor 2020',
/* authorisation */ '');

FILE_SCHEMA (('AUTOMOTIVE_DESIGN { 1 0 10303 214 3 1 1 }'));
ENDSEC;

DATA;
#10=MECHANICAL_DESIGN_GEOMETRIC_PRESENTATION_REPRESENTATION('',(#13,#14),
#2214);
#11=SHAPE_REPRESENTATION_RELATIONSHIP('SRR','None',#2221,#12);
#12=ADVANCED_BREP_SHAPE_REPRESENTATION('',(#18,#19),#2213);
#13=STYLED_ITEM('',(#2230),#18);
#14=STYLED_ITEM('',(#2230),#19);
#15=CONICAL_SURFACE('',#1381,1.5,0.785398163397448);
#16=CONICAL_SURFACE('',#1394,1.5,0.785398163397448);
#17=CONICAL_SURFACE('',#1438,1.75,0.785398163397449);
#18=MANIFOLD_SOLID_BREP('Solid1',#1298);
#19=MANIFOLD_SOLID_BREP('Solid1',#1299);
#20=FACE_BOUND('',#139,.T.);
#21=FACE_BOUND('',#143,.T.);
#22=FACE_BOUND('',#147,.T.);
#23=FACE_BOUND('',#154,.T.);
#24=FACE_BOUND('',#173,.T.);
#25=FACE_BOUND('',#174,.T.);
#26=FACE_BOUND('',#185,.T.);
#27=FACE_BOUND('',#190,.T.);
#28=FACE_BOUND('',#195,.T.);
#29=FACE_BOUND('',#196,.T.);
#30=FACE_BOUND('',#197,.T.);
#31=FACE_BOUND('',#206,.T.);
#32=FACE_BOUND('',#208,.T.);
#33=PLANE('',#1325);
#34=PLANE('',#1330);
#35=PLANE('',#1337);
#36=PLANE('',#1338);
#37=PLANE('',#1346);
#38=PLANE('',#1350);
#39=PLANE('',#1357);
#40=PLANE('',#1358);
#41=PLANE('',#1359);
#42=PLANE('',#1360);
#43=PLANE('',#1361);
#44=PLANE('',#1362);
#45=PLANE('',#1363);
#46=PLANE('',#1364);
#47=PLANE('',#1365);
#48=PLANE('',#1369);
#49=PLANE('',#1375);
#50=PLANE('',#1376);
#51=PLANE('',#1377);
#52=PLANE('',#1378);
#53=PLANE('',#1379);
#54=PLANE('',#1380);
#55=PLANE('',#1386);
#56=PLANE('',#1400);
#57=PLANE('',#1410);
#58=PLANE('',#1411);
#59=PLANE('',#1416);
#60=PLANE('',#1421);
#61=PLANE('',#1424);
#62=PLANE('',#1427);
#63=PLANE('',#1428);
#64=PLANE('',#1432);
#65=PLANE('',#1434);
#66=PLANE('',#1442);
#67=PLANE('',#1444);
#68=PLANE('',#1446);
#69=FACE_OUTER_BOUND('',#134,.T.);
#70=FACE_OUTER_BOUND('',#135,.T.);
#71=FACE_OUTER_BOUND('',#136,.T.);
#72=FACE_OUTER_BOUND('',#137,.T.);
#73=FACE_OUTER_BOUND('',#138,.T.);
#74=FACE_OUTER_BOUND('',#140,.T.);
#75=FACE_OUTER_BOUND('',#141,.T.);
#76=FACE_OUTER_BOUND('',#142,.T.);
#77=FACE_OUTER_BOUND('',#144,.T.);
#78=FACE_OUTER_BOUND('',#145,.T.);
#79=FACE_OUTER_BOUND('',#146,.T.);
#80=FACE_OUTER_BOUND('',#148,.T.);
#81=FACE_OUTER_BOUND('',#149,.T.);
#82=FACE_OUTER_BOUND('',#150,.T.);
#83=FACE_OUTER_BOUND('',#151,.T.);
#84=FACE_OUTER_BOUND('',#152,.T.);
#85=FACE_OUTER_BOUND('',#153,.T.);
#86=FACE_OUTER_BOUND('',#155,.T.);
#87=FACE_OUTER_BOUND('',#156,.T.);
#88=FACE_OUTER_BOUND('',#157,.T.);
#89=FACE_OUTER_BOUND('',#158,.T.);
#90=FACE_OUTER_BOUND('',#159,.T.);
#91=FACE_OUTER_BOUND('',#160,.T.);
#92=FACE_OUTER_BOUND('',#161,.T.);
#93=FACE_OUTER_BOUND('',#162,.T.);
#94=FACE_OUTER_BOUND('',#163,.T.);
#95=FACE_OUTER_BOUND('',#164,.T.);
#96=FACE_OUTER_BOUND('',#165,.T.);
#97=FACE_OUTER_BOUND('',#166,.T.);
#98=FACE_OUTER_BOUND('',#167,.T.);
#99=FACE_OUTER_BOUND('',#168,.T.);
#100=FACE_OUTER_BOUND('',#169,.T.);
#101=FACE_OUTER_BOUND('',#170,.T.);
#102=FACE_OUTER_BOUND('',#171,.T.);
#103=FACE_OUTER_BOUND('',#172,.T.);
#104=FACE_OUTER_BOUND('',#175,.T.);
#105=FACE_OUTER_BOUND('',#176,.T.);
#106=FACE_OUTER_BOUND('',#177,.T.);
#107=FACE_OUTER_BOUND('',#178,.T.);
#108=FACE_OUTER_BOUND('',#179,.T.);
#109=FACE_OUTER_BOUND('',#180,.T.);
#110=FACE_OUTER_BOUND('',#181,.T.);
#111=FACE_OUTER_BOUND('',#182,.T.);
#112=FACE_OUTER_BOUND('',#183,.T.);
#113=FACE_OUTER_BOUND('',#184,.T.);
#114=FACE_OUTER_BOUND('',#186,.T.);
#115=FACE_OUTER_BOUND('',#187,.T.);
#116=FACE_OUTER_BOUND('',#188,.T.);
#117=FACE_OUTER_BOUND('',#189,.T.);
#118=FACE_OUTER_BOUND('',#191,.T.);
#119=FACE_OUTER_BOUND('',#192,.T.);
#120=FACE_OUTER_BOUND('',#193,.T.);
#121=FACE_OUTER_BOUND('',#194,.T.);
#122=FACE_OUTER_BOUND('',#198,.T.);
#123=FACE_OUTER_BOUND('',#199,.T.);
#124=FACE_OUTER_BOUND('',#200,.T.);
#125=FACE_OUTER_BOUND('',#201,.T.);
#126=FACE_OUTER_BOUND('',#202,.T.);
#127=FACE_OUTER_BOUND('',#203,.T.);
#128=FACE_OUTER_BOUND('',#204,.T.);
#129=FACE_OUTER_BOUND('',#205,.T.);
#130=FACE_OUTER_BOUND('',#207,.T.);
#131=FACE_OUTER_BOUND('',#209,.T.);
#132=FACE_OUTER_BOUND('',#210,.T.);
#133=FACE_OUTER_BOUND('',#211,.T.);
#134=EDGE_LOOP('',(#833,#834,#835,#836));
#135=EDGE_LOOP('',(#837,#838,#839,#840));
#136=EDGE_LOOP('',(#841,#842,#843,#844,#845,#846,#847,#848,#849,#850));
#137=EDGE_LOOP('',(#851,#852,#853,#854));
#138=EDGE_LOOP('',(#855,#856,#857,#858,#859,#860));
#139=EDGE_LOOP('',(#861));
#140=EDGE_LOOP('',(#862,#863,#864,#865));
#141=EDGE_LOOP('',(#866,#867,#868,#869));
#142=EDGE_LOOP('',(#870,#871,#872,#873,#874,#875));
#143=EDGE_LOOP('',(#876,#877));
#144=EDGE_LOOP('',(#878,#879,#880,#881));
#145=EDGE_LOOP('',(#882,#883,#884,#885));
#146=EDGE_LOOP('',(#886,#887,#888,#889,#890,#891));
#147=EDGE_LOOP('',(#892,#893));
#148=EDGE_LOOP('',(#894,#895,#896,#897));
#149=EDGE_LOOP('',(#898,#899,#900,#901));
#150=EDGE_LOOP('',(#902,#903,#904,#905,#906));
#151=EDGE_LOOP('',(#907,#908,#909,#910,#911));
#152=EDGE_LOOP('',(#912,#913,#914,#915));
#153=EDGE_LOOP('',(#916,#917,#918,#919,#920,#921));
#154=EDGE_LOOP('',(#922));
#155=EDGE_LOOP('',(#923,#924,#925,#926,#927,#928,#929,#930,#931,#932));
#156=EDGE_LOOP('',(#933,#934,#935,#936));
#157=EDGE_LOOP('',(#937,#938,#939,#940));
#158=EDGE_LOOP('',(#941,#942,#943,#944));
#159=EDGE_LOOP('',(#945,#946,#947,#948));
#160=EDGE_LOOP('',(#949,#950,#951,#952));
#161=EDGE_LOOP('',(#953,#954,#955,#956));
#162=EDGE_LOOP('',(#957,#958,#959,#960));
#163=EDGE_LOOP('',(#961,#962,#963,#964));
#164=EDGE_LOOP('',(#965,#966,#967,#968,#969,#970,#971,#972,#973,#974,#975,
#976,#977,#978,#979,#980,#981,#982,#983,#984,#985,#986));
#165=EDGE_LOOP('',(#987,#988,#989,#990));
#166=EDGE_LOOP('',(#991,#992,#993,#994,#995));
#167=EDGE_LOOP('',(#996,#997,#998,#999));
#168=EDGE_LOOP('',(#1000,#1001,#1002,#1003));
#169=EDGE_LOOP('',(#1004,#1005,#1006,#1007));
#170=EDGE_LOOP('',(#1008,#1009,#1010,#1011));
#171=EDGE_LOOP('',(#1012,#1013,#1014,#1015,#1016,#1017));
#172=EDGE_LOOP('',(#1018,#1019,#1020,#1021,#1022,#1023,#1024,#1025,#1026,
#1027,#1028,#1029,#1030));
#173=EDGE_LOOP('',(#1031,#1032,#1033,#1034,#1035,#1036,#1037));
#174=EDGE_LOOP('',(#1038));
#175=EDGE_LOOP('',(#1039,#1040,#1041,#1042,#1043,#1044));
#176=EDGE_LOOP('',(#1045,#1046,#1047,#1048,#1049));
#177=EDGE_LOOP('',(#1050,#1051,#1052,#1053,#1054,#1055));
#178=EDGE_LOOP('',(#1056,#1057,#1058,#1059,#1060));
#179=EDGE_LOOP('',(#1061,#1062,#1063,#1064));
#180=EDGE_LOOP('',(#1065,#1066,#1067,#1068));
#181=EDGE_LOOP('',(#1069,#1070,#1071,#1072));
#182=EDGE_LOOP('',(#1073,#1074,#1075,#1076));
#183=EDGE_LOOP('',(#1077,#1078,#1079,#1080));
#184=EDGE_LOOP('',(#1081,#1082,#1083,#1084,#1085,#1086));
#185=EDGE_LOOP('',(#1087));
#186=EDGE_LOOP('',(#1088,#1089,#1090,#1091));
#187=EDGE_LOOP('',(#1092,#1093,#1094,#1095,#1096,#1097,#1098,#1099,#1100,
#1101,#1102,#1103));
#188=EDGE_LOOP('',(#1104,#1105,#1106,#1107));
#189=EDGE_LOOP('',(#1108,#1109,#1110,#1111,#1112,#1113));
#190=EDGE_LOOP('',(#1114));
#191=EDGE_LOOP('',(#1115,#1116,#1117,#1118));
#192=EDGE_LOOP('',(#1119,#1120,#1121,#1122));
#193=EDGE_LOOP('',(#1123,#1124,#1125,#1126));
#194=EDGE_LOOP('',(#1127,#1128,#1129,#1130,#1131,#1132,#1133,#1134));
#195=EDGE_LOOP('',(#1135,#1136));
#196=EDGE_LOOP('',(#1137,#1138));
#197=EDGE_LOOP('',(#1139,#1140));
#198=EDGE_LOOP('',(#1141,#1142,#1143,#1144));
#199=EDGE_LOOP('',(#1145,#1146,#1147,#1148));
#200=EDGE_LOOP('',(#1149,#1150,#1151,#1152));
#201=EDGE_LOOP('',(#1153,#1154,#1155,#1156,#1157,#1158));
#202=EDGE_LOOP('',(#1159,#1160,#1161,#1162,#1163,#1164));
#203=EDGE_LOOP('',(#1165,#1166,#1167,#1168));
#204=EDGE_LOOP('',(#1169,#1170,#1171,#1172));
#205=EDGE_LOOP('',(#1173,#1174,#1175,#1176,#1177,#1178));
#206=EDGE_LOOP('',(#1179));
#207=EDGE_LOOP('',(#1180,#1181,#1182,#1183,#1184,#1185));
#208=EDGE_LOOP('',(#1186));
#209=EDGE_LOOP('',(#1187,#1188,#1189,#1190,#1191,#1192,#1193,#1194,#1195,
#1196,#1197,#1198));
#210=EDGE_LOOP('',(#1199,#1200,#1201,#1202));
#211=EDGE_LOOP('',(#1203,#1204,#1205,#1206));
#212=LINE('',#1839,#334);
#213=LINE('',#1842,#335);
#214=LINE('',#1847,#336);
#215=LINE('',#1851,#337);
#216=LINE('',#1853,#338);
#217=LINE('',#1855,#339);
#218=LINE('',#1859,#340);
#219=LINE('',#1861,#341);
#220=LINE('',#1863,#342);
#221=LINE('',#1868,#343);
#222=LINE('',#1873,#344);
#223=LINE('',#1876,#345);
#224=LINE('',#1884,#346);
#225=LINE('',#1887,#347);
#226=LINE('',#1890,#348);
#227=LINE('',#1892,#349);
#228=LINE('',#1893,#350);
#229=LINE('',#1896,#351);
#230=LINE('',#1897,#352);
#231=LINE('',#1907,#353);
#232=LINE('',#1910,#354);
#233=LINE('',#1913,#355);
#234=LINE('',#1916,#356);
#235=LINE('',#1917,#357);
#236=LINE('',#1923,#358);
#237=LINE('',#1926,#359);
#238=LINE('',#1929,#360);
#239=LINE('',#1934,#361);
#240=LINE('',#1939,#362);
#241=LINE('',#1941,#363);
#242=LINE('',#1943,#364);
#243=LINE('',#1944,#365);
#244=LINE('',#1948,#366);
#245=LINE('',#1950,#367);
#246=LINE('',#1952,#368);
#247=LINE('',#1953,#369);
#248=LINE('',#1956,#370);
#249=LINE('',#1958,#371);
#250=LINE('',#1960,#372);
#251=LINE('',#1961,#373);
#252=LINE('',#1965,#374);
#253=LINE('',#1967,#375);
#254=LINE('',#1969,#376);
#255=LINE('',#1970,#377);
#256=LINE('',#1974,#378);
#257=LINE('',#1976,#379);
#258=LINE('',#1978,#380);
#259=LINE('',#1979,#381);
#260=LINE('',#1982,#382);
#261=LINE('',#1984,#383);
#262=LINE('',#1985,#384);
#263=LINE('',#1988,#385);
#264=LINE('',#1990,#386);
#265=LINE('',#1991,#387);
#266=LINE('',#1996,#388);
#267=LINE('',#2002,#389);
#268=LINE('',#2004,#390);
#269=LINE('',#2006,#391);
#270=LINE('',#2008,#392);
#271=LINE('',#2012,#393);
#272=LINE('',#2014,#394);
#273=LINE('',#2016,#395);
#274=LINE('',#2021,#396);
#275=LINE('',#2023,#397);
#276=LINE('',#2024,#398);
#277=LINE('',#2027,#399);
#278=LINE('',#2028,#400);
#279=LINE('',#2032,#401);
#280=LINE('',#2034,#402);
#281=LINE('',#2036,#403);
#282=LINE('',#2038,#404);
#283=LINE('',#2039,#405);
#284=LINE('',#2043,#406);
#285=LINE('',#2045,#407);
#286=LINE('',#2047,#408);
#287=LINE('',#2048,#409);
#288=LINE('',#2050,#410);
#289=LINE('',#2051,#411);
#290=LINE('',#2053,#412);
#291=LINE('',#2054,#413);
#292=LINE('',#2060,#414);
#293=LINE('',#2069,#415);
#294=LINE('',#2071,#416);
#295=LINE('',#2073,#417);
#296=LINE('',#2075,#418);
#297=LINE('',#2077,#419);
#298=LINE('',#2081,#420);
#299=LINE('',#2082,#421);
#300=LINE('',#2090,#422);
#301=LINE('',#2093,#423);
#302=LINE('',#2102,#424);
#303=LINE('',#2104,#425);
#304=LINE('',#2107,#426);
#305=LINE('',#2112,#427);
#306=LINE('',#2116,#428);
#307=LINE('',#2121,#429);
#308=LINE('',#2125,#430);
#309=LINE('',#2127,#431);
#310=LINE('',#2128,#432);
#311=LINE('',#2131,#433);
#312=LINE('',#2137,#434);
#313=LINE('',#2140,#435);
#314=LINE('',#2143,#436);
#315=LINE('',#2148,#437);
#316=LINE('',#2152,#438);
#317=LINE('',#2155,#439);
#318=LINE('',#2160,#440);
#319=LINE('',#2161,#441);
#320=LINE('',#2165,#442);
#321=LINE('',#2168,#443);
#322=LINE('',#2169,#444);
#323=LINE('',#2174,#445);
#324=LINE('',#2175,#446);
#325=LINE('',#2181,#447);
#326=LINE('',#2183,#448);
#327=LINE('',#2187,#449);
#328=LINE('',#2192,#450);
#329=LINE('',#2194,#451);
#330=LINE('',#2198,#452);
#331=LINE('',#2200,#453);
#332=LINE('',#2208,#454);
#333=LINE('',#2210,#455);
#334=VECTOR('',#1455,10.);
#335=VECTOR('',#1458,10.);
#336=VECTOR('',#1463,10.);
#337=VECTOR('',#1468,10.);
#338=VECTOR('',#1469,10.);
#339=VECTOR('',#1470,10.);
#340=VECTOR('',#1473,10.);
#341=VECTOR('',#1474,10.);
#342=VECTOR('',#1475,10.);
#343=VECTOR('',#1482,10.);
#344=VECTOR('',#1487,10.);
#345=VECTOR('',#1490,10.);
#346=VECTOR('',#1497,10.);
#347=VECTOR('',#1500,10.);
#348=VECTOR('',#1503,10.);
#349=VECTOR('',#1504,10.);
#350=VECTOR('',#1505,10.);
#351=VECTOR('',#1508,10.);
#352=VECTOR('',#1509,10.);
#353=VECTOR('',#1522,10.);
#354=VECTOR('',#1525,10.);
#355=VECTOR('',#1528,10.);
#356=VECTOR('',#1531,10.);
#357=VECTOR('',#1532,10.);
#358=VECTOR('',#1539,10.);
#359=VECTOR('',#1544,0.9);
#360=VECTOR('',#1547,0.899999999999999);
#361=VECTOR('',#1556,10.);
#362=VECTOR('',#1561,10.);
#363=VECTOR('',#1562,10.);
#364=VECTOR('',#1563,10.);
#365=VECTOR('',#1564,10.);
#366=VECTOR('',#1567,10.);
#367=VECTOR('',#1568,10.);
#368=VECTOR('',#1569,10.);
#369=VECTOR('',#1570,10.);
#370=VECTOR('',#1573,10.);
#371=VECTOR('',#1574,10.);
#372=VECTOR('',#1575,10.);
#373=VECTOR('',#1576,10.);
#374=VECTOR('',#1579,10.);
#375=VECTOR('',#1580,10.);
#376=VECTOR('',#1581,10.);
#377=VECTOR('',#1582,10.);
#378=VECTOR('',#1585,10.);
#379=VECTOR('',#1586,10.);
#380=VECTOR('',#1587,10.);
#381=VECTOR('',#1588,10.);
#382=VECTOR('',#1591,10.);
#383=VECTOR('',#1592,10.);
#384=VECTOR('',#1593,10.);
#385=VECTOR('',#1596,10.);
#386=VECTOR('',#1597,10.);
#387=VECTOR('',#1598,10.);
#388=VECTOR('',#1603,10.);
#389=VECTOR('',#1610,10.);
#390=VECTOR('',#1611,10.);
#391=VECTOR('',#1612,10.);
#392=VECTOR('',#1615,10.);
#393=VECTOR('',#1618,10.);
#394=VECTOR('',#1619,10.);
#395=VECTOR('',#1620,10.);
#396=VECTOR('',#1625,10.);
#397=VECTOR('',#1626,10.);
#398=VECTOR('',#1627,10.);
#399=VECTOR('',#1630,10.);
#400=VECTOR('',#1631,10.);
#401=VECTOR('',#1634,10.);
#402=VECTOR('',#1635,10.);
#403=VECTOR('',#1636,10.);
#404=VECTOR('',#1637,10.);
#405=VECTOR('',#1638,10.);
#406=VECTOR('',#1641,10.);
#407=VECTOR('',#1642,10.);
#408=VECTOR('',#1643,10.);
#409=VECTOR('',#1644,10.);
#410=VECTOR('',#1647,10.);
#411=VECTOR('',#1648,10.);
#412=VECTOR('',#1651,10.);
#413=VECTOR('',#1652,10.);
#414=VECTOR('',#1659,1.5);
#415=VECTOR('',#1670,10.);
#416=VECTOR('',#1671,10.);
#417=VECTOR('',#1672,10.);
#418=VECTOR('',#1673,10.);
#419=VECTOR('',#1674,10.);
#420=VECTOR('',#1679,10.);
#421=VECTOR('',#1680,10.);
#422=VECTOR('',#1689,0.999999999999999);
#423=VECTOR('',#1692,1.5);
#424=VECTOR('',#1703,1.);
#425=VECTOR('',#1706,10.);
#426=VECTOR('',#1709,10.);
#427=VECTOR('',#1716,10.);
#428=VECTOR('',#1721,10.);
#429=VECTOR('',#1726,10.);
#430=VECTOR('',#1731,10.);
#431=VECTOR('',#1732,10.);
#432=VECTOR('',#1733,10.);
#433=VECTOR('',#1736,10.);
#434=VECTOR('',#1743,10.);
#435=VECTOR('',#1748,10.);
#436=VECTOR('',#1751,10.);
#437=VECTOR('',#1756,10.);
#438=VECTOR('',#1761,10.);
#439=VECTOR('',#1764,10.);
#440=VECTOR('',#1769,10.);
#441=VECTOR('',#1770,10.);
#442=VECTOR('',#1775,10.);
#443=VECTOR('',#1778,10.);
#444=VECTOR('',#1779,10.);
#445=VECTOR('',#1784,10.);
#446=VECTOR('',#1785,10.);
#447=VECTOR('',#1792,10.);
#448=VECTOR('',#1795,10.);
#449=VECTOR('',#1800,1.);
#450=VECTOR('',#1807,1.75);
#451=VECTOR('',#1810,10.);
#452=VECTOR('',#1815,10.);
#453=VECTOR('',#1818,10.);
#454=VECTOR('',#1829,0.899999999999999);
#455=VECTOR('',#1832,0.9);
#456=CIRCLE('',#1320,1.);
#457=CIRCLE('',#1321,1.);
#458=CIRCLE('',#1323,14.2);
#459=CIRCLE('',#1324,14.2);
#460=CIRCLE('',#1326,16.7);
#461=CIRCLE('',#1327,1.);
#462=CIRCLE('',#1329,1.);
#463=CIRCLE('',#1331,2.);
#464=CIRCLE('',#1332,2.);
#465=CIRCLE('',#1333,0.9);
#466=CIRCLE('',#1335,2.);
#467=CIRCLE('',#1336,2.);
#468=CIRCLE('',#1339,2.);
#469=CIRCLE('',#1340,0.899999999999999);
#470=CIRCLE('',#1341,0.899999999999999);
#471=CIRCLE('',#1343,2.);
#472=CIRCLE('',#1345,2.);
#473=CIRCLE('',#1347,2.);
#474=CIRCLE('',#1348,0.9);
#475=CIRCLE('',#1349,0.9);
#476=CIRCLE('',#1354,0.899999999999999);
#477=CIRCLE('',#1356,16.7);
#478=CIRCLE('',#1367,14.2);
#479=CIRCLE('',#1368,14.2);
#480=CIRCLE('',#1370,1.);
#481=CIRCLE('',#1371,16.7);
#482=CIRCLE('',#1372,16.7);
#483=CIRCLE('',#1373,1.);
#484=CIRCLE('',#1374,14.2);
#485=CIRCLE('',#1382,2.);
#486=CIRCLE('',#1383,0.999999999999999);
#487=CIRCLE('',#1384,0.999999999999999);
#488=CIRCLE('',#1385,2.);
#489=CIRCLE('',#1387,4.);
#490=CIRCLE('',#1388,2.5);
#491=CIRCLE('',#1389,2.5);
#492=CIRCLE('',#1390,2.);
#493=CIRCLE('',#1392,0.999999999999999);
#494=CIRCLE('',#1393,0.999999999999999);
#495=CIRCLE('',#1395,1.);
#496=CIRCLE('',#1396,1.);
#497=CIRCLE('',#1398,1.);
#498=CIRCLE('',#1399,1.);
#499=CIRCLE('',#1402,14.2);
#500=CIRCLE('',#1404,1.);
#501=CIRCLE('',#1406,1.);
#502=CIRCLE('',#1408,2.);
#503=CIRCLE('',#1409,2.);
#504=CIRCLE('',#1412,2.);
#505=CIRCLE('',#1413,0.899999999999999);
#506=CIRCLE('',#1415,2.);
#507=CIRCLE('',#1417,16.7);
#508=CIRCLE('',#1419,2.);
#509=CIRCLE('',#1420,2.);
#510=CIRCLE('',#1422,2.);
#511=CIRCLE('',#1423,0.9);
#512=CIRCLE('',#1426,2.);
#513=CIRCLE('',#1429,4.);
#514=CIRCLE('',#1430,1.);
#515=CIRCLE('',#1431,1.);
#516=CIRCLE('',#1436,1.);
#517=CIRCLE('',#1437,1.);
#518=CIRCLE('',#1441,16.7);
#519=CIRCLE('',#1443,0.9);
#520=CIRCLE('',#1445,0.899999999999999);
#521=VERTEX_POINT('',#1835);
#522=VERTEX_POINT('',#1836);
#523=VERTEX_POINT('',#1838);
#524=VERTEX_POINT('',#1840);
#525=VERTEX_POINT('',#1844);
#526=VERTEX_POINT('',#1846);
#527=VERTEX_POINT('',#1850);
#528=VERTEX_POINT('',#1852);
#529=VERTEX_POINT('',#1854);
#530=VERTEX_POINT('',#1856);
#531=VERTEX_POINT('',#1858);
#532=VERTEX_POINT('',#1860);
#533=VERTEX_POINT('',#1862);
#534=VERTEX_POINT('',#1866);
#535=VERTEX_POINT('',#1870);
#536=VERTEX_POINT('',#1872);
#537=VERTEX_POINT('',#1874);
#538=VERTEX_POINT('',#1877);
#539=VERTEX_POINT('',#1880);
#540=VERTEX_POINT('',#1881);
#541=VERTEX_POINT('',#1883);
#542=VERTEX_POINT('',#1885);
#543=VERTEX_POINT('',#1889);
#544=VERTEX_POINT('',#1891);
#545=VERTEX_POINT('',#1895);
#546=VERTEX_POINT('',#1899);
#547=VERTEX_POINT('',#1900);
#548=VERTEX_POINT('',#1906);
#549=VERTEX_POINT('',#1908);
#550=VERTEX_POINT('',#1912);
#551=VERTEX_POINT('',#1915);
#552=VERTEX_POINT('',#1918);
#553=VERTEX_POINT('',#1919);
#554=VERTEX_POINT('',#1928);
#555=VERTEX_POINT('',#1937);
#556=VERTEX_POINT('',#1938);
#557=VERTEX_POINT('',#1940);
#558=VERTEX_POINT('',#1942);
#559=VERTEX_POINT('',#1946);
#560=VERTEX_POINT('',#1947);
#561=VERTEX_POINT('',#1949);
#562=VERTEX_POINT('',#1951);
#563=VERTEX_POINT('',#1955);
#564=VERTEX_POINT('',#1957);
#565=VERTEX_POINT('',#1959);
#566=VERTEX_POINT('',#1963);
#567=VERTEX_POINT('',#1964);
#568=VERTEX_POINT('',#1966);
#569=VERTEX_POINT('',#1968);
#570=VERTEX_POINT('',#1972);
#571=VERTEX_POINT('',#1973);
#572=VERTEX_POINT('',#1975);
#573=VERTEX_POINT('',#1977);
#574=VERTEX_POINT('',#1981);
#575=VERTEX_POINT('',#1983);
#576=VERTEX_POINT('',#1987);
#577=VERTEX_POINT('',#1989);
#578=VERTEX_POINT('',#1993);
#579=VERTEX_POINT('',#1995);
#580=VERTEX_POINT('',#1999);
#581=VERTEX_POINT('',#2001);
#582=VERTEX_POINT('',#2003);
#583=VERTEX_POINT('',#2005);
#584=VERTEX_POINT('',#2009);
#585=VERTEX_POINT('',#2011);
#586=VERTEX_POINT('',#2013);
#587=VERTEX_POINT('',#2015);
#588=VERTEX_POINT('',#2017);
#589=VERTEX_POINT('',#2020);
#590=VERTEX_POINT('',#2022);
#591=VERTEX_POINT('',#2026);
#592=VERTEX_POINT('',#2030);
#593=VERTEX_POINT('',#2031);
#594=VERTEX_POINT('',#2033);
#595=VERTEX_POINT('',#2035);
#596=VERTEX_POINT('',#2037);
#597=VERTEX_POINT('',#2041);
#598=VERTEX_POINT('',#2042);
#599=VERTEX_POINT('',#2044);
#600=VERTEX_POINT('',#2046);
#601=VERTEX_POINT('',#2057);
#602=VERTEX_POINT('',#2059);
#603=VERTEX_POINT('',#2061);
#604=VERTEX_POINT('',#2066);
#605=VERTEX_POINT('',#2068);
#606=VERTEX_POINT('',#2070);
#607=VERTEX_POINT('',#2072);
#608=VERTEX_POINT('',#2074);
#609=VERTEX_POINT('',#2076);
#610=VERTEX_POINT('',#2078);
#611=VERTEX_POINT('',#2083);
#612=VERTEX_POINT('',#2086);
#613=VERTEX_POINT('',#2087);
#614=VERTEX_POINT('',#2092);
#615=VERTEX_POINT('',#2094);
#616=VERTEX_POINT('',#2098);
#617=VERTEX_POINT('',#2099);
#618=VERTEX_POINT('',#2106);
#619=VERTEX_POINT('',#2110);
#620=VERTEX_POINT('',#2114);
#621=VERTEX_POINT('',#2118);
#622=VERTEX_POINT('',#2120);
#623=VERTEX_POINT('',#2124);
#624=VERTEX_POINT('',#2126);
#625=VERTEX_POINT('',#2130);
#626=VERTEX_POINT('',#2133);
#627=VERTEX_POINT('',#2136);
#628=VERTEX_POINT('',#2141);
#629=VERTEX_POINT('',#2145);
#630=VERTEX_POINT('',#2147);
#631=VERTEX_POINT('',#2151);
#632=VERTEX_POINT('',#2153);
#633=VERTEX_POINT('',#2156);
#634=VERTEX_POINT('',#2159);
#635=VERTEX_POINT('',#2163);
#636=VERTEX_POINT('',#2167);
#637=VERTEX_POINT('',#2171);
#638=VERTEX_POINT('',#2173);
#639=VERTEX_POINT('',#2176);
#640=VERTEX_POINT('',#2177);
#641=VERTEX_POINT('',#2186);
#642=VERTEX_POINT('',#2188);
#643=VERTEX_POINT('',#2196);
#644=VERTEX_POINT('',#2201);
#645=VERTEX_POINT('',#2204);
#646=EDGE_CURVE('',#521,#522,#456,.T.);
#647=EDGE_CURVE('',#522,#523,#212,.T.);
#648=EDGE_CURVE('',#523,#524,#457,.T.);
#649=EDGE_CURVE('',#524,#521,#213,.T.);
#650=EDGE_CURVE('',#522,#525,#458,.T.);
#651=EDGE_CURVE('',#526,#525,#214,.T.);
#652=EDGE_CURVE('',#523,#526,#459,.T.);
#653=EDGE_CURVE('',#521,#527,#215,.T.);
#654=EDGE_CURVE('',#528,#527,#216,.T.);
#655=EDGE_CURVE('',#528,#529,#217,.T.);
#656=EDGE_CURVE('',#530,#529,#460,.T.);
#657=EDGE_CURVE('',#530,#531,#218,.T.);
#658=EDGE_CURVE('',#532,#531,#219,.T.);
#659=EDGE_CURVE('',#532,#533,#220,.T.);
#660=EDGE_CURVE('',#525,#533,#461,.T.);
#661=EDGE_CURVE('',#534,#526,#462,.T.);
#662=EDGE_CURVE('',#533,#534,#221,.T.);
#663=EDGE_CURVE('',#535,#532,#463,.T.);
#664=EDGE_CURVE('',#535,#536,#222,.T.);
#665=EDGE_CURVE('',#537,#536,#464,.T.);
#666=EDGE_CURVE('',#537,#534,#223,.T.);
#667=EDGE_CURVE('',#538,#538,#465,.T.);
#668=EDGE_CURVE('',#539,#540,#466,.T.);
#669=EDGE_CURVE('',#540,#541,#224,.T.);
#670=EDGE_CURVE('',#541,#542,#467,.T.);
#671=EDGE_CURVE('',#542,#539,#225,.T.);
#672=EDGE_CURVE('',#543,#540,#226,.T.);
#673=EDGE_CURVE('',#544,#543,#227,.T.);
#674=EDGE_CURVE('',#544,#541,#228,.T.);
#675=EDGE_CURVE('',#539,#545,#229,.T.);
#676=EDGE_CURVE('',#529,#545,#230,.T.);
#677=EDGE_CURVE('',#543,#528,#468,.T.);
#678=EDGE_CURVE('',#546,#547,#469,.T.);
#679=EDGE_CURVE('',#547,#546,#470,.T.);
#680=EDGE_CURVE('',#527,#544,#471,.T.);
#681=EDGE_CURVE('',#536,#548,#231,.T.);
#682=EDGE_CURVE('',#548,#549,#472,.T.);
#683=EDGE_CURVE('',#549,#537,#232,.T.);
#684=EDGE_CURVE('',#550,#548,#233,.T.);
#685=EDGE_CURVE('',#531,#550,#473,.T.);
#686=EDGE_CURVE('',#551,#530,#234,.T.);
#687=EDGE_CURVE('',#551,#549,#235,.T.);
#688=EDGE_CURVE('',#552,#553,#474,.T.);
#689=EDGE_CURVE('',#553,#552,#475,.T.);
#690=EDGE_CURVE('',#550,#535,#236,.T.);
#691=EDGE_CURVE('',#553,#538,#237,.T.);
#692=EDGE_CURVE('',#547,#554,#238,.T.);
#693=EDGE_CURVE('',#554,#554,#476,.T.);
#694=EDGE_CURVE('',#551,#545,#477,.T.);
#695=EDGE_CURVE('',#542,#524,#239,.T.);
#696=EDGE_CURVE('',#555,#556,#240,.T.);
#697=EDGE_CURVE('',#557,#556,#241,.T.);
#698=EDGE_CURVE('',#558,#557,#242,.T.);
#699=EDGE_CURVE('',#555,#558,#243,.T.);
#700=EDGE_CURVE('',#559,#560,#244,.T.);
#701=EDGE_CURVE('',#561,#560,#245,.T.);
#702=EDGE_CURVE('',#562,#561,#246,.T.);
#703=EDGE_CURVE('',#562,#559,#247,.T.);
#704=EDGE_CURVE('',#563,#557,#248,.T.);
#705=EDGE_CURVE('',#564,#557,#249,.T.);
#706=EDGE_CURVE('',#564,#565,#250,.T.);
#707=EDGE_CURVE('',#563,#565,#251,.T.);
#708=EDGE_CURVE('',#566,#567,#252,.T.);
#709=EDGE_CURVE('',#568,#566,#253,.T.);
#710=EDGE_CURVE('',#569,#568,#254,.T.);
#711=EDGE_CURVE('',#567,#569,#255,.T.);
#712=EDGE_CURVE('',#570,#571,#256,.T.);
#713=EDGE_CURVE('',#572,#570,#257,.T.);
#714=EDGE_CURVE('',#573,#572,#258,.T.);
#715=EDGE_CURVE('',#571,#573,#259,.T.);
#716=EDGE_CURVE('',#574,#566,#260,.T.);
#717=EDGE_CURVE('',#575,#574,#261,.T.);
#718=EDGE_CURVE('',#568,#575,#262,.T.);
#719=EDGE_CURVE('',#576,#570,#263,.T.);
#720=EDGE_CURVE('',#577,#576,#264,.T.);
#721=EDGE_CURVE('',#572,#577,#265,.T.);
#722=EDGE_CURVE('',#569,#578,#478,.T.);
#723=EDGE_CURVE('',#579,#578,#266,.T.);
#724=EDGE_CURVE('',#567,#579,#479,.T.);
#725=EDGE_CURVE('',#580,#579,#480,.T.);
#726=EDGE_CURVE('',#581,#580,#267,.T.);
#727=EDGE_CURVE('',#582,#581,#268,.T.);
#728=EDGE_CURVE('',#583,#582,#269,.T.);
#729=EDGE_CURVE('',#583,#560,#481,.T.);
#730=EDGE_CURVE('',#559,#556,#270,.T.);
#731=EDGE_CURVE('',#555,#584,#482,.T.);
#732=EDGE_CURVE('',#585,#584,#271,.T.);
#733=EDGE_CURVE('',#586,#585,#272,.T.);
#734=EDGE_CURVE('',#586,#587,#273,.T.);
#735=EDGE_CURVE('',#588,#587,#483,.T.);
#736=EDGE_CURVE('',#588,#576,#484,.T.);
#737=EDGE_CURVE('',#571,#589,#274,.T.);
#738=EDGE_CURVE('',#589,#590,#275,.T.);
#739=EDGE_CURVE('',#590,#574,#276,.T.);
#740=EDGE_CURVE('',#573,#591,#277,.T.);
#741=EDGE_CURVE('',#591,#589,#278,.T.);
#742=EDGE_CURVE('',#592,#593,#279,.F.);
#743=EDGE_CURVE('',#593,#594,#280,.T.);
#744=EDGE_CURVE('',#594,#595,#281,.F.);
#745=EDGE_CURVE('',#595,#596,#282,.T.);
#746=EDGE_CURVE('',#596,#592,#283,.T.);
#747=EDGE_CURVE('',#597,#598,#284,.T.);
#748=EDGE_CURVE('',#597,#599,#285,.T.);
#749=EDGE_CURVE('',#599,#600,#286,.T.);
#750=EDGE_CURVE('',#598,#600,#287,.T.);
#751=EDGE_CURVE('',#595,#597,#288,.T.);
#752=EDGE_CURVE('',#594,#599,#289,.T.);
#753=EDGE_CURVE('',#598,#592,#290,.T.);
#754=EDGE_CURVE('',#600,#593,#291,.T.);
#755=EDGE_CURVE('',#596,#601,#485,.T.);
#756=EDGE_CURVE('',#601,#602,#292,.T.);
#757=EDGE_CURVE('',#602,#603,#486,.T.);
#758=EDGE_CURVE('',#603,#602,#487,.T.);
#759=EDGE_CURVE('',#601,#596,#488,.T.);
#760=EDGE_CURVE('',#565,#604,#489,.T.);
#761=EDGE_CURVE('',#604,#605,#293,.T.);
#762=EDGE_CURVE('',#605,#606,#294,.T.);
#763=EDGE_CURVE('',#606,#607,#295,.T.);
#764=EDGE_CURVE('',#608,#607,#296,.T.);
#765=EDGE_CURVE('',#608,#609,#297,.T.);
#766=EDGE_CURVE('',#610,#609,#490,.T.);
#767=EDGE_CURVE('',#609,#610,#491,.T.);
#768=EDGE_CURVE('',#609,#590,#298,.T.);
#769=EDGE_CURVE('',#563,#591,#299,.T.);
#770=EDGE_CURVE('',#611,#611,#492,.T.);
#771=EDGE_CURVE('',#612,#613,#493,.T.);
#772=EDGE_CURVE('',#613,#612,#494,.T.);
#773=EDGE_CURVE('',#613,#603,#300,.T.);
#774=EDGE_CURVE('',#611,#614,#301,.T.);
#775=EDGE_CURVE('',#614,#615,#495,.T.);
#776=EDGE_CURVE('',#615,#614,#496,.T.);
#777=EDGE_CURVE('',#616,#617,#497,.T.);
#778=EDGE_CURVE('',#617,#616,#498,.T.);
#779=EDGE_CURVE('',#617,#615,#302,.T.);
#780=EDGE_CURVE('',#608,#575,#303,.T.);
#781=EDGE_CURVE('',#618,#588,#304,.T.);
#782=EDGE_CURVE('',#618,#577,#499,.T.);
#783=EDGE_CURVE('',#578,#619,#500,.T.);
#784=EDGE_CURVE('',#619,#580,#305,.T.);
#785=EDGE_CURVE('',#620,#618,#501,.T.);
#786=EDGE_CURVE('',#587,#620,#306,.T.);
#787=EDGE_CURVE('',#581,#621,#502,.T.);
#788=EDGE_CURVE('',#621,#622,#307,.T.);
#789=EDGE_CURVE('',#622,#582,#503,.T.);
#790=EDGE_CURVE('',#623,#621,#308,.T.);
#791=EDGE_CURVE('',#624,#623,#309,.T.);
#792=EDGE_CURVE('',#624,#622,#310,.T.);
#793=EDGE_CURVE('',#625,#619,#311,.T.);
#794=EDGE_CURVE('',#623,#625,#504,.T.);
#795=EDGE_CURVE('',#626,#626,#505,.T.);
#796=EDGE_CURVE('',#625,#627,#312,.T.);
#797=EDGE_CURVE('',#627,#624,#506,.T.);
#798=EDGE_CURVE('',#562,#607,#313,.T.);
#799=EDGE_CURVE('',#628,#561,#507,.T.);
#800=EDGE_CURVE('',#628,#627,#314,.T.);
#801=EDGE_CURVE('',#585,#629,#508,.T.);
#802=EDGE_CURVE('',#629,#630,#315,.T.);
#803=EDGE_CURVE('',#630,#586,#509,.T.);
#804=EDGE_CURVE('',#631,#630,#316,.T.);
#805=EDGE_CURVE('',#632,#631,#510,.T.);
#806=EDGE_CURVE('',#620,#632,#317,.T.);
#807=EDGE_CURVE('',#633,#633,#511,.T.);
#808=EDGE_CURVE('',#634,#629,#318,.T.);
#809=EDGE_CURVE('',#631,#634,#319,.T.);
#810=EDGE_CURVE('',#634,#635,#512,.T.);
#811=EDGE_CURVE('',#635,#632,#320,.T.);
#812=EDGE_CURVE('',#636,#606,#321,.T.);
#813=EDGE_CURVE('',#636,#562,#322,.T.);
#814=EDGE_CURVE('',#637,#564,#513,.T.);
#815=EDGE_CURVE('',#636,#638,#323,.T.);
#816=EDGE_CURVE('',#638,#637,#324,.T.);
#817=EDGE_CURVE('',#639,#640,#514,.T.);
#818=EDGE_CURVE('',#640,#639,#515,.T.);
#819=EDGE_CURVE('',#605,#638,#325,.T.);
#820=EDGE_CURVE('',#637,#604,#326,.T.);
#821=EDGE_CURVE('',#640,#641,#327,.T.);
#822=EDGE_CURVE('',#642,#641,#516,.T.);
#823=EDGE_CURVE('',#641,#642,#517,.T.);
#824=EDGE_CURVE('',#610,#642,#328,.T.);
#825=EDGE_CURVE('',#583,#628,#329,.T.);
#826=EDGE_CURVE('',#558,#643,#518,.T.);
#827=EDGE_CURVE('',#643,#584,#330,.T.);
#828=EDGE_CURVE('',#635,#643,#331,.T.);
#829=EDGE_CURVE('',#644,#644,#519,.T.);
#830=EDGE_CURVE('',#645,#645,#520,.T.);
#831=EDGE_CURVE('',#626,#645,#332,.T.);
#832=EDGE_CURVE('',#633,#644,#333,.T.);
#833=ORIENTED_EDGE('',*,*,#646,.T.);
#834=ORIENTED_EDGE('',*,*,#647,.T.);
#835=ORIENTED_EDGE('',*,*,#648,.T.);
#836=ORIENTED_EDGE('',*,*,#649,.T.);
#837=ORIENTED_EDGE('',*,*,#647,.F.);
#838=ORIENTED_EDGE('',*,*,#650,.T.);
#839=ORIENTED_EDGE('',*,*,#651,.F.);
#840=ORIENTED_EDGE('',*,*,#652,.F.);
#841=ORIENTED_EDGE('',*,*,#646,.F.);
#842=ORIENTED_EDGE('',*,*,#653,.T.);
#843=ORIENTED_EDGE('',*,*,#654,.F.);
#844=ORIENTED_EDGE('',*,*,#655,.T.);
#845=ORIENTED_EDGE('',*,*,#656,.F.);
#846=ORIENTED_EDGE('',*,*,#657,.T.);
#847=ORIENTED_EDGE('',*,*,#658,.F.);
#848=ORIENTED_EDGE('',*,*,#659,.T.);
#849=ORIENTED_EDGE('',*,*,#660,.F.);
#850=ORIENTED_EDGE('',*,*,#650,.F.);
#851=ORIENTED_EDGE('',*,*,#661,.T.);
#852=ORIENTED_EDGE('',*,*,#651,.T.);
#853=ORIENTED_EDGE('',*,*,#660,.T.);
#854=ORIENTED_EDGE('',*,*,#662,.T.);
#855=ORIENTED_EDGE('',*,*,#662,.F.);
#856=ORIENTED_EDGE('',*,*,#659,.F.);
#857=ORIENTED_EDGE('',*,*,#663,.F.);
#858=ORIENTED_EDGE('',*,*,#664,.T.);
#859=ORIENTED_EDGE('',*,*,#665,.F.);
#860=ORIENTED_EDGE('',*,*,#666,.T.);
#861=ORIENTED_EDGE('',*,*,#667,.T.);
#862=ORIENTED_EDGE('',*,*,#668,.T.);
#863=ORIENTED_EDGE('',*,*,#669,.T.);
#864=ORIENTED_EDGE('',*,*,#670,.T.);
#865=ORIENTED_EDGE('',*,*,#671,.T.);
#866=ORIENTED_EDGE('',*,*,#669,.F.);
#867=ORIENTED_EDGE('',*,*,#672,.F.);
#868=ORIENTED_EDGE('',*,*,#673,.F.);
#869=ORIENTED_EDGE('',*,*,#674,.T.);
#870=ORIENTED_EDGE('',*,*,#668,.F.);
#871=ORIENTED_EDGE('',*,*,#675,.T.);
#872=ORIENTED_EDGE('',*,*,#676,.F.);
#873=ORIENTED_EDGE('',*,*,#655,.F.);
#874=ORIENTED_EDGE('',*,*,#677,.F.);
#875=ORIENTED_EDGE('',*,*,#672,.T.);
#876=ORIENTED_EDGE('',*,*,#678,.T.);
#877=ORIENTED_EDGE('',*,*,#679,.T.);
#878=ORIENTED_EDGE('',*,*,#677,.T.);
#879=ORIENTED_EDGE('',*,*,#654,.T.);
#880=ORIENTED_EDGE('',*,*,#680,.T.);
#881=ORIENTED_EDGE('',*,*,#673,.T.);
#882=ORIENTED_EDGE('',*,*,#665,.T.);
#883=ORIENTED_EDGE('',*,*,#681,.T.);
#884=ORIENTED_EDGE('',*,*,#682,.T.);
#885=ORIENTED_EDGE('',*,*,#683,.T.);
#886=ORIENTED_EDGE('',*,*,#682,.F.);
#887=ORIENTED_EDGE('',*,*,#684,.F.);
#888=ORIENTED_EDGE('',*,*,#685,.F.);
#889=ORIENTED_EDGE('',*,*,#657,.F.);
#890=ORIENTED_EDGE('',*,*,#686,.F.);
#891=ORIENTED_EDGE('',*,*,#687,.T.);
#892=ORIENTED_EDGE('',*,*,#688,.T.);
#893=ORIENTED_EDGE('',*,*,#689,.T.);
#894=ORIENTED_EDGE('',*,*,#681,.F.);
#895=ORIENTED_EDGE('',*,*,#664,.F.);
#896=ORIENTED_EDGE('',*,*,#690,.F.);
#897=ORIENTED_EDGE('',*,*,#684,.T.);
#898=ORIENTED_EDGE('',*,*,#663,.T.);
#899=ORIENTED_EDGE('',*,*,#658,.T.);
#900=ORIENTED_EDGE('',*,*,#685,.T.);
#901=ORIENTED_EDGE('',*,*,#690,.T.);
#902=ORIENTED_EDGE('',*,*,#688,.F.);
#903=ORIENTED_EDGE('',*,*,#689,.F.);
#904=ORIENTED_EDGE('',*,*,#691,.T.);
#905=ORIENTED_EDGE('',*,*,#667,.F.);
#906=ORIENTED_EDGE('',*,*,#691,.F.);
#907=ORIENTED_EDGE('',*,*,#678,.F.);
#908=ORIENTED_EDGE('',*,*,#679,.F.);
#909=ORIENTED_EDGE('',*,*,#692,.T.);
#910=ORIENTED_EDGE('',*,*,#693,.F.);
#911=ORIENTED_EDGE('',*,*,#692,.F.);
#912=ORIENTED_EDGE('',*,*,#676,.T.);
#913=ORIENTED_EDGE('',*,*,#694,.F.);
#914=ORIENTED_EDGE('',*,*,#686,.T.);
#915=ORIENTED_EDGE('',*,*,#656,.T.);
#916=ORIENTED_EDGE('',*,*,#649,.F.);
#917=ORIENTED_EDGE('',*,*,#695,.F.);
#918=ORIENTED_EDGE('',*,*,#670,.F.);
#919=ORIENTED_EDGE('',*,*,#674,.F.);
#920=ORIENTED_EDGE('',*,*,#680,.F.);
#921=ORIENTED_EDGE('',*,*,#653,.F.);
#922=ORIENTED_EDGE('',*,*,#693,.T.);
#923=ORIENTED_EDGE('',*,*,#648,.F.);
#924=ORIENTED_EDGE('',*,*,#652,.T.);
#925=ORIENTED_EDGE('',*,*,#661,.F.);
#926=ORIENTED_EDGE('',*,*,#666,.F.);
#927=ORIENTED_EDGE('',*,*,#683,.F.);
#928=ORIENTED_EDGE('',*,*,#687,.F.);
#929=ORIENTED_EDGE('',*,*,#694,.T.);
#930=ORIENTED_EDGE('',*,*,#675,.F.);
#931=ORIENTED_EDGE('',*,*,#671,.F.);
#932=ORIENTED_EDGE('',*,*,#695,.T.);
#933=ORIENTED_EDGE('',*,*,#696,.T.);
#934=ORIENTED_EDGE('',*,*,#697,.F.);
#935=ORIENTED_EDGE('',*,*,#698,.F.);
#936=ORIENTED_EDGE('',*,*,#699,.F.);
#937=ORIENTED_EDGE('',*,*,#700,.T.);
#938=ORIENTED_EDGE('',*,*,#701,.F.);
#939=ORIENTED_EDGE('',*,*,#702,.F.);
#940=ORIENTED_EDGE('',*,*,#703,.T.);
#941=ORIENTED_EDGE('',*,*,#704,.T.);
#942=ORIENTED_EDGE('',*,*,#705,.F.);
#943=ORIENTED_EDGE('',*,*,#706,.T.);
#944=ORIENTED_EDGE('',*,*,#707,.F.);
#945=ORIENTED_EDGE('',*,*,#708,.F.);
#946=ORIENTED_EDGE('',*,*,#709,.F.);
#947=ORIENTED_EDGE('',*,*,#710,.F.);
#948=ORIENTED_EDGE('',*,*,#711,.F.);
#949=ORIENTED_EDGE('',*,*,#712,.F.);
#950=ORIENTED_EDGE('',*,*,#713,.F.);
#951=ORIENTED_EDGE('',*,*,#714,.F.);
#952=ORIENTED_EDGE('',*,*,#715,.F.);
#953=ORIENTED_EDGE('',*,*,#716,.F.);
#954=ORIENTED_EDGE('',*,*,#717,.F.);
#955=ORIENTED_EDGE('',*,*,#718,.F.);
#956=ORIENTED_EDGE('',*,*,#709,.T.);
#957=ORIENTED_EDGE('',*,*,#719,.F.);
#958=ORIENTED_EDGE('',*,*,#720,.F.);
#959=ORIENTED_EDGE('',*,*,#721,.F.);
#960=ORIENTED_EDGE('',*,*,#713,.T.);
#961=ORIENTED_EDGE('',*,*,#711,.T.);
#962=ORIENTED_EDGE('',*,*,#722,.T.);
#963=ORIENTED_EDGE('',*,*,#723,.F.);
#964=ORIENTED_EDGE('',*,*,#724,.F.);
#965=ORIENTED_EDGE('',*,*,#716,.T.);
#966=ORIENTED_EDGE('',*,*,#708,.T.);
#967=ORIENTED_EDGE('',*,*,#724,.T.);
#968=ORIENTED_EDGE('',*,*,#725,.F.);
#969=ORIENTED_EDGE('',*,*,#726,.F.);
#970=ORIENTED_EDGE('',*,*,#727,.F.);
#971=ORIENTED_EDGE('',*,*,#728,.F.);
#972=ORIENTED_EDGE('',*,*,#729,.T.);
#973=ORIENTED_EDGE('',*,*,#700,.F.);
#974=ORIENTED_EDGE('',*,*,#730,.T.);
#975=ORIENTED_EDGE('',*,*,#696,.F.);
#976=ORIENTED_EDGE('',*,*,#731,.T.);
#977=ORIENTED_EDGE('',*,*,#732,.F.);
#978=ORIENTED_EDGE('',*,*,#733,.F.);
#979=ORIENTED_EDGE('',*,*,#734,.T.);
#980=ORIENTED_EDGE('',*,*,#735,.F.);
#981=ORIENTED_EDGE('',*,*,#736,.T.);
#982=ORIENTED_EDGE('',*,*,#719,.T.);
#983=ORIENTED_EDGE('',*,*,#712,.T.);
#984=ORIENTED_EDGE('',*,*,#737,.T.);
#985=ORIENTED_EDGE('',*,*,#738,.T.);
#986=ORIENTED_EDGE('',*,*,#739,.T.);
#987=ORIENTED_EDGE('',*,*,#715,.T.);
#988=ORIENTED_EDGE('',*,*,#740,.T.);
#989=ORIENTED_EDGE('',*,*,#741,.T.);
#990=ORIENTED_EDGE('',*,*,#737,.F.);
#991=ORIENTED_EDGE('',*,*,#742,.T.);
#992=ORIENTED_EDGE('',*,*,#743,.T.);
#993=ORIENTED_EDGE('',*,*,#744,.T.);
#994=ORIENTED_EDGE('',*,*,#745,.T.);
#995=ORIENTED_EDGE('',*,*,#746,.T.);
#996=ORIENTED_EDGE('',*,*,#747,.F.);
#997=ORIENTED_EDGE('',*,*,#748,.T.);
#998=ORIENTED_EDGE('',*,*,#749,.T.);
#999=ORIENTED_EDGE('',*,*,#750,.F.);
#1000=ORIENTED_EDGE('',*,*,#751,.F.);
#1001=ORIENTED_EDGE('',*,*,#744,.F.);
#1002=ORIENTED_EDGE('',*,*,#752,.T.);
#1003=ORIENTED_EDGE('',*,*,#748,.F.);
#1004=ORIENTED_EDGE('',*,*,#753,.F.);
#1005=ORIENTED_EDGE('',*,*,#750,.T.);
#1006=ORIENTED_EDGE('',*,*,#754,.T.);
#1007=ORIENTED_EDGE('',*,*,#742,.F.);
#1008=ORIENTED_EDGE('',*,*,#754,.F.);
#1009=ORIENTED_EDGE('',*,*,#749,.F.);
#1010=ORIENTED_EDGE('',*,*,#752,.F.);
#1011=ORIENTED_EDGE('',*,*,#743,.F.);
#1012=ORIENTED_EDGE('',*,*,#755,.T.);
#1013=ORIENTED_EDGE('',*,*,#756,.T.);
#1014=ORIENTED_EDGE('',*,*,#757,.T.);
#1015=ORIENTED_EDGE('',*,*,#758,.T.);
#1016=ORIENTED_EDGE('',*,*,#756,.F.);
#1017=ORIENTED_EDGE('',*,*,#759,.T.);
#1018=ORIENTED_EDGE('',*,*,#760,.T.);
#1019=ORIENTED_EDGE('',*,*,#761,.T.);
#1020=ORIENTED_EDGE('',*,*,#762,.T.);
#1021=ORIENTED_EDGE('',*,*,#763,.T.);
#1022=ORIENTED_EDGE('',*,*,#764,.F.);
#1023=ORIENTED_EDGE('',*,*,#765,.T.);
#1024=ORIENTED_EDGE('',*,*,#766,.F.);
#1025=ORIENTED_EDGE('',*,*,#767,.F.);
#1026=ORIENTED_EDGE('',*,*,#768,.T.);
#1027=ORIENTED_EDGE('',*,*,#738,.F.);
#1028=ORIENTED_EDGE('',*,*,#741,.F.);
#1029=ORIENTED_EDGE('',*,*,#769,.F.);
#1030=ORIENTED_EDGE('',*,*,#707,.T.);
#1031=ORIENTED_EDGE('',*,*,#751,.T.);
#1032=ORIENTED_EDGE('',*,*,#747,.T.);
#1033=ORIENTED_EDGE('',*,*,#753,.T.);
#1034=ORIENTED_EDGE('',*,*,#746,.F.);
#1035=ORIENTED_EDGE('',*,*,#759,.F.);
#1036=ORIENTED_EDGE('',*,*,#755,.F.);
#1037=ORIENTED_EDGE('',*,*,#745,.F.);
#1038=ORIENTED_EDGE('',*,*,#770,.F.);
#1039=ORIENTED_EDGE('',*,*,#771,.F.);
#1040=ORIENTED_EDGE('',*,*,#772,.F.);
#1041=ORIENTED_EDGE('',*,*,#773,.T.);
#1042=ORIENTED_EDGE('',*,*,#757,.F.);
#1043=ORIENTED_EDGE('',*,*,#758,.F.);
#1044=ORIENTED_EDGE('',*,*,#773,.F.);
#1045=ORIENTED_EDGE('',*,*,#770,.T.);
#1046=ORIENTED_EDGE('',*,*,#774,.T.);
#1047=ORIENTED_EDGE('',*,*,#775,.T.);
#1048=ORIENTED_EDGE('',*,*,#776,.T.);
#1049=ORIENTED_EDGE('',*,*,#774,.F.);
#1050=ORIENTED_EDGE('',*,*,#777,.F.);
#1051=ORIENTED_EDGE('',*,*,#778,.F.);
#1052=ORIENTED_EDGE('',*,*,#779,.T.);
#1053=ORIENTED_EDGE('',*,*,#775,.F.);
#1054=ORIENTED_EDGE('',*,*,#776,.F.);
#1055=ORIENTED_EDGE('',*,*,#779,.F.);
#1056=ORIENTED_EDGE('',*,*,#717,.T.);
#1057=ORIENTED_EDGE('',*,*,#739,.F.);
#1058=ORIENTED_EDGE('',*,*,#768,.F.);
#1059=ORIENTED_EDGE('',*,*,#765,.F.);
#1060=ORIENTED_EDGE('',*,*,#780,.T.);
#1061=ORIENTED_EDGE('',*,*,#720,.T.);
#1062=ORIENTED_EDGE('',*,*,#736,.F.);
#1063=ORIENTED_EDGE('',*,*,#781,.F.);
#1064=ORIENTED_EDGE('',*,*,#782,.T.);
#1065=ORIENTED_EDGE('',*,*,#725,.T.);
#1066=ORIENTED_EDGE('',*,*,#723,.T.);
#1067=ORIENTED_EDGE('',*,*,#783,.T.);
#1068=ORIENTED_EDGE('',*,*,#784,.T.);
#1069=ORIENTED_EDGE('',*,*,#785,.T.);
#1070=ORIENTED_EDGE('',*,*,#781,.T.);
#1071=ORIENTED_EDGE('',*,*,#735,.T.);
#1072=ORIENTED_EDGE('',*,*,#786,.T.);
#1073=ORIENTED_EDGE('',*,*,#787,.T.);
#1074=ORIENTED_EDGE('',*,*,#788,.T.);
#1075=ORIENTED_EDGE('',*,*,#789,.T.);
#1076=ORIENTED_EDGE('',*,*,#727,.T.);
#1077=ORIENTED_EDGE('',*,*,#788,.F.);
#1078=ORIENTED_EDGE('',*,*,#790,.F.);
#1079=ORIENTED_EDGE('',*,*,#791,.F.);
#1080=ORIENTED_EDGE('',*,*,#792,.T.);
#1081=ORIENTED_EDGE('',*,*,#784,.F.);
#1082=ORIENTED_EDGE('',*,*,#793,.F.);
#1083=ORIENTED_EDGE('',*,*,#794,.F.);
#1084=ORIENTED_EDGE('',*,*,#790,.T.);
#1085=ORIENTED_EDGE('',*,*,#787,.F.);
#1086=ORIENTED_EDGE('',*,*,#726,.T.);
#1087=ORIENTED_EDGE('',*,*,#795,.T.);
#1088=ORIENTED_EDGE('',*,*,#794,.T.);
#1089=ORIENTED_EDGE('',*,*,#796,.T.);
#1090=ORIENTED_EDGE('',*,*,#797,.T.);
#1091=ORIENTED_EDGE('',*,*,#791,.T.);
#1092=ORIENTED_EDGE('',*,*,#718,.T.);
#1093=ORIENTED_EDGE('',*,*,#780,.F.);
#1094=ORIENTED_EDGE('',*,*,#764,.T.);
#1095=ORIENTED_EDGE('',*,*,#798,.F.);
#1096=ORIENTED_EDGE('',*,*,#702,.T.);
#1097=ORIENTED_EDGE('',*,*,#799,.F.);
#1098=ORIENTED_EDGE('',*,*,#800,.T.);
#1099=ORIENTED_EDGE('',*,*,#796,.F.);
#1100=ORIENTED_EDGE('',*,*,#793,.T.);
#1101=ORIENTED_EDGE('',*,*,#783,.F.);
#1102=ORIENTED_EDGE('',*,*,#722,.F.);
#1103=ORIENTED_EDGE('',*,*,#710,.T.);
#1104=ORIENTED_EDGE('',*,*,#801,.T.);
#1105=ORIENTED_EDGE('',*,*,#802,.T.);
#1106=ORIENTED_EDGE('',*,*,#803,.T.);
#1107=ORIENTED_EDGE('',*,*,#733,.T.);
#1108=ORIENTED_EDGE('',*,*,#786,.F.);
#1109=ORIENTED_EDGE('',*,*,#734,.F.);
#1110=ORIENTED_EDGE('',*,*,#803,.F.);
#1111=ORIENTED_EDGE('',*,*,#804,.F.);
#1112=ORIENTED_EDGE('',*,*,#805,.F.);
#1113=ORIENTED_EDGE('',*,*,#806,.F.);
#1114=ORIENTED_EDGE('',*,*,#807,.T.);
#1115=ORIENTED_EDGE('',*,*,#802,.F.);
#1116=ORIENTED_EDGE('',*,*,#808,.F.);
#1117=ORIENTED_EDGE('',*,*,#809,.F.);
#1118=ORIENTED_EDGE('',*,*,#804,.T.);
#1119=ORIENTED_EDGE('',*,*,#810,.T.);
#1120=ORIENTED_EDGE('',*,*,#811,.T.);
#1121=ORIENTED_EDGE('',*,*,#805,.T.);
#1122=ORIENTED_EDGE('',*,*,#809,.T.);
#1123=ORIENTED_EDGE('',*,*,#798,.T.);
#1124=ORIENTED_EDGE('',*,*,#763,.F.);
#1125=ORIENTED_EDGE('',*,*,#812,.F.);
#1126=ORIENTED_EDGE('',*,*,#813,.T.);
#1127=ORIENTED_EDGE('',*,*,#814,.T.);
#1128=ORIENTED_EDGE('',*,*,#705,.T.);
#1129=ORIENTED_EDGE('',*,*,#697,.T.);
#1130=ORIENTED_EDGE('',*,*,#730,.F.);
#1131=ORIENTED_EDGE('',*,*,#703,.F.);
#1132=ORIENTED_EDGE('',*,*,#813,.F.);
#1133=ORIENTED_EDGE('',*,*,#815,.T.);
#1134=ORIENTED_EDGE('',*,*,#816,.T.);
#1135=ORIENTED_EDGE('',*,*,#817,.T.);
#1136=ORIENTED_EDGE('',*,*,#818,.T.);
#1137=ORIENTED_EDGE('',*,*,#777,.T.);
#1138=ORIENTED_EDGE('',*,*,#778,.T.);
#1139=ORIENTED_EDGE('',*,*,#771,.T.);
#1140=ORIENTED_EDGE('',*,*,#772,.T.);
#1141=ORIENTED_EDGE('',*,*,#819,.T.);
#1142=ORIENTED_EDGE('',*,*,#815,.F.);
#1143=ORIENTED_EDGE('',*,*,#812,.T.);
#1144=ORIENTED_EDGE('',*,*,#762,.F.);
#1145=ORIENTED_EDGE('',*,*,#814,.F.);
#1146=ORIENTED_EDGE('',*,*,#820,.T.);
#1147=ORIENTED_EDGE('',*,*,#760,.F.);
#1148=ORIENTED_EDGE('',*,*,#706,.F.);
#1149=ORIENTED_EDGE('',*,*,#816,.F.);
#1150=ORIENTED_EDGE('',*,*,#819,.F.);
#1151=ORIENTED_EDGE('',*,*,#761,.F.);
#1152=ORIENTED_EDGE('',*,*,#820,.F.);
#1153=ORIENTED_EDGE('',*,*,#817,.F.);
#1154=ORIENTED_EDGE('',*,*,#818,.F.);
#1155=ORIENTED_EDGE('',*,*,#821,.T.);
#1156=ORIENTED_EDGE('',*,*,#822,.F.);
#1157=ORIENTED_EDGE('',*,*,#823,.F.);
#1158=ORIENTED_EDGE('',*,*,#821,.F.);
#1159=ORIENTED_EDGE('',*,*,#767,.T.);
#1160=ORIENTED_EDGE('',*,*,#824,.T.);
#1161=ORIENTED_EDGE('',*,*,#822,.T.);
#1162=ORIENTED_EDGE('',*,*,#823,.T.);
#1163=ORIENTED_EDGE('',*,*,#824,.F.);
#1164=ORIENTED_EDGE('',*,*,#766,.T.);
#1165=ORIENTED_EDGE('',*,*,#701,.T.);
#1166=ORIENTED_EDGE('',*,*,#729,.F.);
#1167=ORIENTED_EDGE('',*,*,#825,.T.);
#1168=ORIENTED_EDGE('',*,*,#799,.T.);
#1169=ORIENTED_EDGE('',*,*,#699,.T.);
#1170=ORIENTED_EDGE('',*,*,#826,.T.);
#1171=ORIENTED_EDGE('',*,*,#827,.T.);
#1172=ORIENTED_EDGE('',*,*,#731,.F.);
#1173=ORIENTED_EDGE('',*,*,#801,.F.);
#1174=ORIENTED_EDGE('',*,*,#732,.T.);
#1175=ORIENTED_EDGE('',*,*,#827,.F.);
#1176=ORIENTED_EDGE('',*,*,#828,.F.);
#1177=ORIENTED_EDGE('',*,*,#810,.F.);
#1178=ORIENTED_EDGE('',*,*,#808,.T.);
#1179=ORIENTED_EDGE('',*,*,#829,.T.);
#1180=ORIENTED_EDGE('',*,*,#789,.F.);
#1181=ORIENTED_EDGE('',*,*,#792,.F.);
#1182=ORIENTED_EDGE('',*,*,#797,.F.);
#1183=ORIENTED_EDGE('',*,*,#800,.F.);
#1184=ORIENTED_EDGE('',*,*,#825,.F.);
#1185=ORIENTED_EDGE('',*,*,#728,.T.);
#1186=ORIENTED_EDGE('',*,*,#830,.T.);
#1187=ORIENTED_EDGE('',*,*,#721,.T.);
#1188=ORIENTED_EDGE('',*,*,#782,.F.);
#1189=ORIENTED_EDGE('',*,*,#785,.F.);
#1190=ORIENTED_EDGE('',*,*,#806,.T.);
#1191=ORIENTED_EDGE('',*,*,#811,.F.);
#1192=ORIENTED_EDGE('',*,*,#828,.T.);
#1193=ORIENTED_EDGE('',*,*,#826,.F.);
#1194=ORIENTED_EDGE('',*,*,#698,.T.);
#1195=ORIENTED_EDGE('',*,*,#704,.F.);
#1196=ORIENTED_EDGE('',*,*,#769,.T.);
#1197=ORIENTED_EDGE('',*,*,#740,.F.);
#1198=ORIENTED_EDGE('',*,*,#714,.T.);
#1199=ORIENTED_EDGE('',*,*,#795,.F.);
#1200=ORIENTED_EDGE('',*,*,#831,.T.);
#1201=ORIENTED_EDGE('',*,*,#830,.F.);
#1202=ORIENTED_EDGE('',*,*,#831,.F.);
#1203=ORIENTED_EDGE('',*,*,#807,.F.);
#1204=ORIENTED_EDGE('',*,*,#832,.T.);
#1205=ORIENTED_EDGE('',*,*,#829,.F.);
#1206=ORIENTED_EDGE('',*,*,#832,.F.);
#1207=CYLINDRICAL_SURFACE('',#1319,1.);
#1208=CYLINDRICAL_SURFACE('',#1322,14.2);
#1209=CYLINDRICAL_SURFACE('',#1328,1.);
#1210=CYLINDRICAL_SURFACE('',#1334,2.);
#1211=CYLINDRICAL_SURFACE('',#1342,2.);
#1212=CYLINDRICAL_SURFACE('',#1344,2.);
#1213=CYLINDRICAL_SURFACE('',#1351,2.);
#1214=CYLINDRICAL_SURFACE('',#1352,0.9);
#1215=CYLINDRICAL_SURFACE('',#1353,0.899999999999999);
#1216=CYLINDRICAL_SURFACE('',#1355,16.7);
#1217=CYLINDRICAL_SURFACE('',#1366,14.2);
#1218=CYLINDRICAL_SURFACE('',#1391,0.999999999999999);
#1219=CYLINDRICAL_SURFACE('',#1397,1.);
#1220=CYLINDRICAL_SURFACE('',#1401,14.2);
#1221=CYLINDRICAL_SURFACE('',#1403,1.);
#1222=CYLINDRICAL_SURFACE('',#1405,1.);
#1223=CYLINDRICAL_SURFACE('',#1407,2.);
#1224=CYLINDRICAL_SURFACE('',#1414,2.);
#1225=CYLINDRICAL_SURFACE('',#1418,2.);
#1226=CYLINDRICAL_SURFACE('',#1425,2.);
#1227=CYLINDRICAL_SURFACE('',#1433,4.);
#1228=CYLINDRICAL_SURFACE('',#1435,1.);
#1229=CYLINDRICAL_SURFACE('',#1439,16.7);
#1230=CYLINDRICAL_SURFACE('',#1440,16.7);
#1231=CYLINDRICAL_SURFACE('',#1447,0.899999999999999);
#1232=CYLINDRICAL_SURFACE('',#1448,0.9);
#1233=ADVANCED_FACE('',(#69),#1207,.T.);
#1234=ADVANCED_FACE('',(#70),#1208,.F.);
#1235=ADVANCED_FACE('',(#71),#33,.F.);
#1236=ADVANCED_FACE('',(#72),#1209,.T.);
#1237=ADVANCED_FACE('',(#73,#20),#34,.T.);
#1238=ADVANCED_FACE('',(#74),#1210,.T.);
#1239=ADVANCED_FACE('',(#75),#35,.T.);
#1240=ADVANCED_FACE('',(#76,#21),#36,.T.);
#1241=ADVANCED_FACE('',(#77),#1211,.T.);
#1242=ADVANCED_FACE('',(#78),#1212,.T.);
#1243=ADVANCED_FACE('',(#79,#22),#37,.T.);
#1244=ADVANCED_FACE('',(#80),#38,.T.);
#1245=ADVANCED_FACE('',(#81),#1213,.T.);
#1246=ADVANCED_FACE('',(#82),#1214,.F.);
#1247=ADVANCED_FACE('',(#83),#1215,.F.);
#1248=ADVANCED_FACE('',(#84),#1216,.T.);
#1249=ADVANCED_FACE('',(#85,#23),#39,.T.);
#1250=ADVANCED_FACE('',(#86),#40,.T.);
#1251=ADVANCED_FACE('',(#87),#41,.T.);
#1252=ADVANCED_FACE('',(#88),#42,.T.);
#1253=ADVANCED_FACE('',(#89),#43,.T.);
#1254=ADVANCED_FACE('',(#90),#44,.F.);
#1255=ADVANCED_FACE('',(#91),#45,.F.);
#1256=ADVANCED_FACE('',(#92),#46,.F.);
#1257=ADVANCED_FACE('',(#93),#47,.F.);
#1258=ADVANCED_FACE('',(#94),#1217,.F.);
#1259=ADVANCED_FACE('',(#95),#48,.T.);
#1260=ADVANCED_FACE('',(#96),#49,.T.);
#1261=ADVANCED_FACE('',(#97),#50,.T.);
#1262=ADVANCED_FACE('',(#98),#51,.F.);
#1263=ADVANCED_FACE('',(#99),#52,.F.);
#1264=ADVANCED_FACE('',(#100),#53,.F.);
#1265=ADVANCED_FACE('',(#101),#54,.F.);
#1266=ADVANCED_FACE('',(#102),#15,.F.);
#1267=ADVANCED_FACE('',(#103,#24,#25),#55,.T.);
#1268=ADVANCED_FACE('',(#104),#1218,.F.);
#1269=ADVANCED_FACE('',(#105),#16,.F.);
#1270=ADVANCED_FACE('',(#106),#1219,.F.);
#1271=ADVANCED_FACE('',(#107),#56,.T.);
#1272=ADVANCED_FACE('',(#108),#1220,.F.);
#1273=ADVANCED_FACE('',(#109),#1221,.T.);
#1274=ADVANCED_FACE('',(#110),#1222,.T.);
#1275=ADVANCED_FACE('',(#111),#1223,.T.);
#1276=ADVANCED_FACE('',(#112),#57,.T.);
#1277=ADVANCED_FACE('',(#113,#26),#58,.T.);
#1278=ADVANCED_FACE('',(#114),#1224,.T.);
#1279=ADVANCED_FACE('',(#115),#59,.F.);
#1280=ADVANCED_FACE('',(#116),#1225,.T.);
#1281=ADVANCED_FACE('',(#117,#27),#60,.T.);
#1282=ADVANCED_FACE('',(#118),#61,.T.);
#1283=ADVANCED_FACE('',(#119),#1226,.T.);
#1284=ADVANCED_FACE('',(#120),#62,.T.);
#1285=ADVANCED_FACE('',(#121,#28,#29,#30),#63,.T.);
#1286=ADVANCED_FACE('',(#122),#64,.T.);
#1287=ADVANCED_FACE('',(#123),#1227,.T.);
#1288=ADVANCED_FACE('',(#124),#65,.F.);
#1289=ADVANCED_FACE('',(#125),#1228,.F.);
#1290=ADVANCED_FACE('',(#126),#17,.F.);
#1291=ADVANCED_FACE('',(#127),#1229,.T.);
#1292=ADVANCED_FACE('',(#128),#1230,.T.);
#1293=ADVANCED_FACE('',(#129,#31),#66,.T.);
#1294=ADVANCED_FACE('',(#130,#32),#67,.T.);
#1295=ADVANCED_FACE('',(#131),#68,.F.);
#1296=ADVANCED_FACE('',(#132),#1231,.F.);
#1297=ADVANCED_FACE('',(#133),#1232,.F.);
#1298=CLOSED_SHELL('',(#1233,#1234,#1235,#1236,#1237,#1238,#1239,#1240,
#1241,#1242,#1243,#1244,#1245,#1246,#1247,#1248,#1249,#1250));
#1299=CLOSED_SHELL('',(#1251,#1252,#1253,#1254,#1255,#1256,#1257,#1258,
#1259,#1260,#1261,#1262,#1263,#1264,#1265,#1266,#1267,#1268,#1269,#1270,
#1271,#1272,#1273,#1274,#1275,#1276,#1277,#1278,#1279,#1280,#1281,#1282,
#1283,#1284,#1285,#1286,#1287,#1288,#1289,#1290,#1291,#1292,#1293,#1294,
#1295,#1296,#1297));
#1300=DERIVED_UNIT_ELEMENT(#1302,1.);
#1301=DERIVED_UNIT_ELEMENT(#2216,3.);
#1302=(
MASS_UNIT()
NAMED_UNIT(*)
SI_UNIT($,.GRAM.)
);
#1303=DERIVED_UNIT((#1300,#1301));
#1304=MEASURE_REPRESENTATION_ITEM('density measure',
POSITIVE_RATIO_MEASURE(1.),#1303);
#1305=PROPERTY_DEFINITION_REPRESENTATION(#1310,#1307);
#1306=PROPERTY_DEFINITION_REPRESENTATION(#1311,#1308);
#1307=REPRESENTATION('material name',(#1309),#2213);
#1308=REPRESENTATION('density',(#1304),#2213);
#1309=DESCRIPTIVE_REPRESENTATION_ITEM('Generic','Generic');
#1310=PROPERTY_DEFINITION('material property','material name',#2223);
#1311=PROPERTY_DEFINITION('material property','density of part',#2223);
#1312=DATE_TIME_ROLE('creation_date');
#1313=APPLIED_DATE_AND_TIME_ASSIGNMENT(#1314,#1312,(#2223));
#1314=DATE_AND_TIME(#1315,#1316);
#1315=CALENDAR_DATE(2026,7,7);
#1316=LOCAL_TIME(13,51,11.,#1317);
#1317=COORDINATED_UNIVERSAL_TIME_OFFSET(0,0,.BEHIND.);
#1318=AXIS2_PLACEMENT_3D('placement',#1833,#1449,#1450);
#1319=AXIS2_PLACEMENT_3D('',#1834,#1451,#1452);
#1320=AXIS2_PLACEMENT_3D('',#1837,#1453,#1454);
#1321=AXIS2_PLACEMENT_3D('',#1841,#1456,#1457);
#1322=AXIS2_PLACEMENT_3D('',#1843,#1459,#1460);
#1323=AXIS2_PLACEMENT_3D('',#1845,#1461,#1462);
#1324=AXIS2_PLACEMENT_3D('',#1848,#1464,#1465);
#1325=AXIS2_PLACEMENT_3D('',#1849,#1466,#1467);
#1326=AXIS2_PLACEMENT_3D('',#1857,#1471,#1472);
#1327=AXIS2_PLACEMENT_3D('',#1864,#1476,#1477);
#1328=AXIS2_PLACEMENT_3D('',#1865,#1478,#1479);
#1329=AXIS2_PLACEMENT_3D('',#1867,#1480,#1481);
#1330=AXIS2_PLACEMENT_3D('',#1869,#1483,#1484);
#1331=AXIS2_PLACEMENT_3D('',#1871,#1485,#1486);
#1332=AXIS2_PLACEMENT_3D('',#1875,#1488,#1489);
#1333=AXIS2_PLACEMENT_3D('',#1878,#1491,#1492);
#1334=AXIS2_PLACEMENT_3D('',#1879,#1493,#1494);
#1335=AXIS2_PLACEMENT_3D('',#1882,#1495,#1496);
#1336=AXIS2_PLACEMENT_3D('',#1886,#1498,#1499);
#1337=AXIS2_PLACEMENT_3D('',#1888,#1501,#1502);
#1338=AXIS2_PLACEMENT_3D('',#1894,#1506,#1507);
#1339=AXIS2_PLACEMENT_3D('',#1898,#1510,#1511);
#1340=AXIS2_PLACEMENT_3D('',#1901,#1512,#1513);
#1341=AXIS2_PLACEMENT_3D('',#1902,#1514,#1515);
#1342=AXIS2_PLACEMENT_3D('',#1903,#1516,#1517);
#1343=AXIS2_PLACEMENT_3D('',#1904,#1518,#1519);
#1344=AXIS2_PLACEMENT_3D('',#1905,#1520,#1521);
#1345=AXIS2_PLACEMENT_3D('',#1909,#1523,#1524);
#1346=AXIS2_PLACEMENT_3D('',#1911,#1526,#1527);
#1347=AXIS2_PLACEMENT_3D('',#1914,#1529,#1530);
#1348=AXIS2_PLACEMENT_3D('',#1920,#1533,#1534);
#1349=AXIS2_PLACEMENT_3D('',#1921,#1535,#1536);
#1350=AXIS2_PLACEMENT_3D('',#1922,#1537,#1538);
#1351=AXIS2_PLACEMENT_3D('',#1924,#1540,#1541);
#1352=AXIS2_PLACEMENT_3D('',#1925,#1542,#1543);
#1353=AXIS2_PLACEMENT_3D('',#1927,#1545,#1546);
#1354=AXIS2_PLACEMENT_3D('',#1930,#1548,#1549);
#1355=AXIS2_PLACEMENT_3D('',#1931,#1550,#1551);
#1356=AXIS2_PLACEMENT_3D('',#1932,#1552,#1553);
#1357=AXIS2_PLACEMENT_3D('',#1933,#1554,#1555);
#1358=AXIS2_PLACEMENT_3D('',#1935,#1557,#1558);
#1359=AXIS2_PLACEMENT_3D('',#1936,#1559,#1560);
#1360=AXIS2_PLACEMENT_3D('',#1945,#1565,#1566);
#1361=AXIS2_PLACEMENT_3D('',#1954,#1571,#1572);
#1362=AXIS2_PLACEMENT_3D('',#1962,#1577,#1578);
#1363=AXIS2_PLACEMENT_3D('',#1971,#1583,#1584);
#1364=AXIS2_PLACEMENT_3D('',#1980,#1589,#1590);
#1365=AXIS2_PLACEMENT_3D('',#1986,#1594,#1595);
#1366=AXIS2_PLACEMENT_3D('',#1992,#1599,#1600);
#1367=AXIS2_PLACEMENT_3D('',#1994,#1601,#1602);
#1368=AXIS2_PLACEMENT_3D('',#1997,#1604,#1605);
#1369=AXIS2_PLACEMENT_3D('',#1998,#1606,#1607);
#1370=AXIS2_PLACEMENT_3D('',#2000,#1608,#1609);
#1371=AXIS2_PLACEMENT_3D('',#2007,#1613,#1614);
#1372=AXIS2_PLACEMENT_3D('',#2010,#1616,#1617);
#1373=AXIS2_PLACEMENT_3D('',#2018,#1621,#1622);
#1374=AXIS2_PLACEMENT_3D('',#2019,#1623,#1624);
#1375=AXIS2_PLACEMENT_3D('',#2025,#1628,#1629);
#1376=AXIS2_PLACEMENT_3D('',#2029,#1632,#1633);
#1377=AXIS2_PLACEMENT_3D('',#2040,#1639,#1640);
#1378=AXIS2_PLACEMENT_3D('',#2049,#1645,#1646);
#1379=AXIS2_PLACEMENT_3D('',#2052,#1649,#1650);
#1380=AXIS2_PLACEMENT_3D('',#2055,#1653,#1654);
#1381=AXIS2_PLACEMENT_3D('',#2056,#1655,#1656);
#1382=AXIS2_PLACEMENT_3D('',#2058,#1657,#1658);
#1383=AXIS2_PLACEMENT_3D('',#2062,#1660,#1661);
#1384=AXIS2_PLACEMENT_3D('',#2063,#1662,#1663);
#1385=AXIS2_PLACEMENT_3D('',#2064,#1664,#1665);
#1386=AXIS2_PLACEMENT_3D('',#2065,#1666,#1667);
#1387=AXIS2_PLACEMENT_3D('',#2067,#1668,#1669);
#1388=AXIS2_PLACEMENT_3D('',#2079,#1675,#1676);
#1389=AXIS2_PLACEMENT_3D('',#2080,#1677,#1678);
#1390=AXIS2_PLACEMENT_3D('',#2084,#1681,#1682);
#1391=AXIS2_PLACEMENT_3D('',#2085,#1683,#1684);
#1392=AXIS2_PLACEMENT_3D('',#2088,#1685,#1686);
#1393=AXIS2_PLACEMENT_3D('',#2089,#1687,#1688);
#1394=AXIS2_PLACEMENT_3D('',#2091,#1690,#1691);
#1395=AXIS2_PLACEMENT_3D('',#2095,#1693,#1694);
#1396=AXIS2_PLACEMENT_3D('',#2096,#1695,#1696);
#1397=AXIS2_PLACEMENT_3D('',#2097,#1697,#1698);
#1398=AXIS2_PLACEMENT_3D('',#2100,#1699,#1700);
#1399=AXIS2_PLACEMENT_3D('',#2101,#1701,#1702);
#1400=AXIS2_PLACEMENT_3D('',#2103,#1704,#1705);
#1401=AXIS2_PLACEMENT_3D('',#2105,#1707,#1708);
#1402=AXIS2_PLACEMENT_3D('',#2108,#1710,#1711);
#1403=AXIS2_PLACEMENT_3D('',#2109,#1712,#1713);
#1404=AXIS2_PLACEMENT_3D('',#2111,#1714,#1715);
#1405=AXIS2_PLACEMENT_3D('',#2113,#1717,#1718);
#1406=AXIS2_PLACEMENT_3D('',#2115,#1719,#1720);
#1407=AXIS2_PLACEMENT_3D('',#2117,#1722,#1723);
#1408=AXIS2_PLACEMENT_3D('',#2119,#1724,#1725);
#1409=AXIS2_PLACEMENT_3D('',#2122,#1727,#1728);
#1410=AXIS2_PLACEMENT_3D('',#2123,#1729,#1730);
#1411=AXIS2_PLACEMENT_3D('',#2129,#1734,#1735);
#1412=AXIS2_PLACEMENT_3D('',#2132,#1737,#1738);
#1413=AXIS2_PLACEMENT_3D('',#2134,#1739,#1740);
#1414=AXIS2_PLACEMENT_3D('',#2135,#1741,#1742);
#1415=AXIS2_PLACEMENT_3D('',#2138,#1744,#1745);
#1416=AXIS2_PLACEMENT_3D('',#2139,#1746,#1747);
#1417=AXIS2_PLACEMENT_3D('',#2142,#1749,#1750);
#1418=AXIS2_PLACEMENT_3D('',#2144,#1752,#1753);
#1419=AXIS2_PLACEMENT_3D('',#2146,#1754,#1755);
#1420=AXIS2_PLACEMENT_3D('',#2149,#1757,#1758);
#1421=AXIS2_PLACEMENT_3D('',#2150,#1759,#1760);
#1422=AXIS2_PLACEMENT_3D('',#2154,#1762,#1763);
#1423=AXIS2_PLACEMENT_3D('',#2157,#1765,#1766);
#1424=AXIS2_PLACEMENT_3D('',#2158,#1767,#1768);
#1425=AXIS2_PLACEMENT_3D('',#2162,#1771,#1772);
#1426=AXIS2_PLACEMENT_3D('',#2164,#1773,#1774);
#1427=AXIS2_PLACEMENT_3D('',#2166,#1776,#1777);
#1428=AXIS2_PLACEMENT_3D('',#2170,#1780,#1781);
#1429=AXIS2_PLACEMENT_3D('',#2172,#1782,#1783);
#1430=AXIS2_PLACEMENT_3D('',#2178,#1786,#1787);
#1431=AXIS2_PLACEMENT_3D('',#2179,#1788,#1789);
#1432=AXIS2_PLACEMENT_3D('',#2180,#1790,#1791);
#1433=AXIS2_PLACEMENT_3D('',#2182,#1793,#1794);
#1434=AXIS2_PLACEMENT_3D('',#2184,#1796,#1797);
#1435=AXIS2_PLACEMENT_3D('',#2185,#1798,#1799);
#1436=AXIS2_PLACEMENT_3D('',#2189,#1801,#1802);
#1437=AXIS2_PLACEMENT_3D('',#2190,#1803,#1804);
#1438=AXIS2_PLACEMENT_3D('',#2191,#1805,#1806);
#1439=AXIS2_PLACEMENT_3D('',#2193,#1808,#1809);
#1440=AXIS2_PLACEMENT_3D('',#2195,#1811,#1812);
#1441=AXIS2_PLACEMENT_3D('',#2197,#1813,#1814);
#1442=AXIS2_PLACEMENT_3D('',#2199,#1816,#1817);
#1443=AXIS2_PLACEMENT_3D('',#2202,#1819,#1820);
#1444=AXIS2_PLACEMENT_3D('',#2203,#1821,#1822);
#1445=AXIS2_PLACEMENT_3D('',#2205,#1823,#1824);
#1446=AXIS2_PLACEMENT_3D('',#2206,#1825,#1826);
#1447=AXIS2_PLACEMENT_3D('',#2207,#1827,#1828);
#1448=AXIS2_PLACEMENT_3D('',#2209,#1830,#1831);
#1449=DIRECTION('axis',(0.,0.,1.));
#1450=DIRECTION('refdir',(1.,0.,0.));
#1451=DIRECTION('center_axis',(0.,0.,-1.));
#1452=DIRECTION('ref_axis',(0.665157282547757,-0.746703280743887,0.));
#1453=DIRECTION('center_axis',(0.,0.,1.));
#1454=DIRECTION('ref_axis',(0.665157282547757,-0.746703280743887,0.));
#1455=DIRECTION('',(0.,0.,1.));
#1456=DIRECTION('center_axis',(0.,0.,-1.));
#1457=DIRECTION('ref_axis',(0.665157282547757,-0.746703280743887,0.));
#1458=DIRECTION('',(0.,0.,-1.));
#1459=DIRECTION('center_axis',(0.,0.,1.));
#1460=DIRECTION('ref_axis',(-0.528169014082578,0.849139265705596,0.));
#1461=DIRECTION('center_axis',(0.,0.,-1.));
#1462=DIRECTION('ref_axis',(-0.528169014082578,0.849139265705596,0.));
#1463=DIRECTION('',(0.,0.,-1.));
#1464=DIRECTION('center_axis',(0.,0.,-1.));
#1465=DIRECTION('ref_axis',(-0.528169014082578,0.849139265705596,0.));
#1466=DIRECTION('center_axis',(0.,0.,1.));
#1467=DIRECTION('ref_axis',(1.,0.,0.));
#1468=DIRECTION('',(-1.,0.,0.));
#1469=DIRECTION('',(0.,-1.,0.));
#1470=DIRECTION('',(1.,0.,0.));
#1471=DIRECTION('center_axis',(0.,0.,1.));
#1472=DIRECTION('ref_axis',(0.59880239520742,-0.800896804522191,0.));
#1473=DIRECTION('',(1.,0.,0.));
#1474=DIRECTION('',(0.,1.,0.));
#1475=DIRECTION('',(-1.,0.,0.));
#1476=DIRECTION('center_axis',(0.,0.,1.));
#1477=DIRECTION('ref_axis',(-0.665157282547759,-0.746703280743885,0.));
#1478=DIRECTION('center_axis',(0.,0.,1.));
#1479=DIRECTION('ref_axis',(-0.665157282547759,-0.746703280743885,0.));
#1480=DIRECTION('center_axis',(0.,0.,-1.));
#1481=DIRECTION('ref_axis',(-0.665157282547759,-0.746703280743885,0.));
#1482=DIRECTION('',(0.,0.,1.));
#1483=DIRECTION('center_axis',(0.,-1.,0.));
#1484=DIRECTION('ref_axis',(1.,0.,0.));
#1485=DIRECTION('center_axis',(0.,1.,0.));
#1486=DIRECTION('ref_axis',(0.707106781186547,0.,-0.707106781186548));
#1487=DIRECTION('',(0.,0.,1.));
#1488=DIRECTION('center_axis',(0.,1.,0.));
#1489=DIRECTION('ref_axis',(0.707106781186548,0.,0.707106781186548));
#1490=DIRECTION('',(-1.,0.,0.));
#1491=DIRECTION('center_axis',(0.,1.,0.));
#1492=DIRECTION('ref_axis',(1.,0.,0.));
#1493=DIRECTION('center_axis',(0.,1.,0.));
#1494=DIRECTION('ref_axis',(-0.707106781186548,0.,0.707106781186548));
#1495=DIRECTION('center_axis',(0.,-1.,0.));
#1496=DIRECTION('ref_axis',(-0.707106781186548,0.,0.707106781186548));
#1497=DIRECTION('',(0.,-1.,0.));
#1498=DIRECTION('center_axis',(0.,1.,0.));
#1499=DIRECTION('ref_axis',(-0.707106781186548,0.,0.707106781186548));
#1500=DIRECTION('',(0.,1.,0.));
#1501=DIRECTION('center_axis',(-1.,0.,0.));
#1502=DIRECTION('ref_axis',(0.,-1.,0.));
#1503=DIRECTION('',(0.,0.,1.));
#1504=DIRECTION('',(0.,1.,0.));
#1505=DIRECTION('',(0.,0.,1.));
#1506=DIRECTION('center_axis',(0.,1.,0.));
#1507=DIRECTION('ref_axis',(-1.,0.,0.));
#1508=DIRECTION('',(1.,0.,0.));
#1509=DIRECTION('',(0.,0.,1.));
#1510=DIRECTION('center_axis',(0.,-1.,0.));
#1511=DIRECTION('ref_axis',(-0.707106781186547,0.,-0.707106781186548));
#1512=DIRECTION('center_axis',(0.,-1.,0.));
#1513=DIRECTION('ref_axis',(1.,0.,0.));
#1514=DIRECTION('center_axis',(0.,-1.,0.));
#1515=DIRECTION('ref_axis',(1.,0.,0.));
#1516=DIRECTION('center_axis',(0.,1.,0.));
#1517=DIRECTION('ref_axis',(-0.707106781186547,0.,-0.707106781186548));
#1518=DIRECTION('center_axis',(0.,1.,0.));
#1519=DIRECTION('ref_axis',(-0.707106781186547,0.,-0.707106781186548));
#1520=DIRECTION('center_axis',(0.,-1.,0.));
#1521=DIRECTION('ref_axis',(0.707106781186548,0.,0.707106781186548));
#1522=DIRECTION('',(0.,1.,0.));
#1523=DIRECTION('center_axis',(0.,-1.,0.));
#1524=DIRECTION('ref_axis',(0.707106781186548,0.,0.707106781186548));
#1525=DIRECTION('',(0.,-1.,0.));
#1526=DIRECTION('center_axis',(0.,1.,0.));
#1527=DIRECTION('ref_axis',(-1.,0.,0.));
#1528=DIRECTION('',(0.,0.,1.));
#1529=DIRECTION('center_axis',(0.,-1.,0.));
#1530=DIRECTION('ref_axis',(0.707106781186547,0.,-0.707106781186548));
#1531=DIRECTION('',(0.,0.,-1.));
#1532=DIRECTION('',(1.,0.,0.));
#1533=DIRECTION('center_axis',(0.,-1.,0.));
#1534=DIRECTION('ref_axis',(1.,0.,0.));
#1535=DIRECTION('center_axis',(0.,-1.,0.));
#1536=DIRECTION('ref_axis',(1.,0.,0.));
#1537=DIRECTION('center_axis',(1.,0.,0.));
#1538=DIRECTION('ref_axis',(0.,1.,0.));
#1539=DIRECTION('',(0.,-1.,0.));
#1540=DIRECTION('center_axis',(0.,-1.,0.));
#1541=DIRECTION('ref_axis',(0.707106781186547,0.,-0.707106781186548));
#1542=DIRECTION('center_axis',(0.,-1.,0.));
#1543=DIRECTION('ref_axis',(1.,0.,0.));
#1544=DIRECTION('',(0.,-1.,0.));
#1545=DIRECTION('center_axis',(0.,-1.,0.));
#1546=DIRECTION('ref_axis',(1.,0.,0.));
#1547=DIRECTION('',(0.,-1.,0.));
#1548=DIRECTION('center_axis',(0.,1.,0.));
#1549=DIRECTION('ref_axis',(1.,0.,0.));
#1550=DIRECTION('center_axis',(0.,0.,1.));
#1551=DIRECTION('ref_axis',(-1.32960841272474E-16,1.,0.));
#1552=DIRECTION('center_axis',(0.,0.,1.));
#1553=DIRECTION('ref_axis',(0.59880239520742,-0.800896804522191,0.));
#1554=DIRECTION('center_axis',(0.,-1.,0.));
#1555=DIRECTION('ref_axis',(1.,0.,0.));
#1556=DIRECTION('',(1.,0.,0.));
#1557=DIRECTION('center_axis',(0.,0.,1.));
#1558=DIRECTION('ref_axis',(1.,0.,0.));
#1559=DIRECTION('center_axis',(0.932320541017462,-0.361632975262084,0.));
#1560=DIRECTION('ref_axis',(0.361632975262084,0.932320541017462,0.));
#1561=DIRECTION('',(-0.361632975262084,-0.932320541017462,0.));
#1562=DIRECTION('',(0.,0.,1.));
#1563=DIRECTION('',(-0.361632975262084,-0.932320541017462,0.));
#1564=DIRECTION('',(0.,0.,-1.));
#1565=DIRECTION('center_axis',(-0.932320541016072,-0.361632975265668,0.));
#1566=DIRECTION('ref_axis',(0.361632975265668,-0.932320541016072,0.));
#1567=DIRECTION('',(-0.361632975265668,0.932320541016072,0.));
#1568=DIRECTION('',(0.,0.,1.));
#1569=DIRECTION('',(-0.361632975265668,0.932320541016072,0.));
#1570=DIRECTION('',(0.,0.,1.));
#1571=DIRECTION('center_axis',(1.,2.16602395507646E-12,0.));
#1572=DIRECTION('ref_axis',(-2.16602395507646E-12,1.,0.));
#1573=DIRECTION('',(2.16602395507646E-12,-1.,0.));
#1574=DIRECTION('',(0.,0.,1.));
#1575=DIRECTION('',(0.,1.,0.));
#1576=DIRECTION('',(0.,0.,-1.));
#1577=DIRECTION('center_axis',(-1.,0.,0.));
#1578=DIRECTION('ref_axis',(0.,-1.,0.));
#1579=DIRECTION('',(0.,1.,0.));
#1580=DIRECTION('',(0.,0.,1.));
#1581=DIRECTION('',(0.,-1.,0.));
#1582=DIRECTION('',(0.,0.,-1.));
#1583=DIRECTION('center_axis',(0.,-1.,0.));
#1584=DIRECTION('ref_axis',(1.,0.,0.));
#1585=DIRECTION('',(-1.,0.,0.));
#1586=DIRECTION('',(0.,0.,1.));
#1587=DIRECTION('',(1.,0.,0.));
#1588=DIRECTION('',(0.,0.,-1.));
#1589=DIRECTION('center_axis',(0.,-1.,0.));
#1590=DIRECTION('ref_axis',(1.,0.,0.));
#1591=DIRECTION('',(-1.,0.,0.));
#1592=DIRECTION('',(0.,0.,1.));
#1593=DIRECTION('',(1.,0.,0.));
#1594=DIRECTION('center_axis',(1.,0.,0.));
#1595=DIRECTION('ref_axis',(0.,1.,0.));
#1596=DIRECTION('',(0.,-1.,0.));
#1597=DIRECTION('',(0.,0.,1.));
#1598=DIRECTION('',(0.,1.,0.));
#1599=DIRECTION('center_axis',(0.,0.,1.));
#1600=DIRECTION('ref_axis',(-0.528169014082578,0.849139265705596,0.));
#1601=DIRECTION('center_axis',(0.,0.,-1.));
#1602=DIRECTION('ref_axis',(-0.528169014082578,0.849139265705596,0.));
#1603=DIRECTION('',(0.,0.,-1.));
#1604=DIRECTION('center_axis',(0.,0.,-1.));
#1605=DIRECTION('ref_axis',(-0.528169014082578,0.849139265705596,0.));
#1606=DIRECTION('center_axis',(0.,0.,1.));
#1607=DIRECTION('ref_axis',(1.,0.,0.));
#1608=DIRECTION('center_axis',(0.,0.,-1.));
#1609=DIRECTION('ref_axis',(0.665157282547757,0.746703280743887,0.));
#1610=DIRECTION('',(1.,0.,0.));
#1611=DIRECTION('',(0.,1.,0.));
#1612=DIRECTION('',(-1.,0.,0.));
#1613=DIRECTION('center_axis',(0.,0.,1.));
#1614=DIRECTION('ref_axis',(0.59880239520742,-0.800896804522191,0.));
#1615=DIRECTION('',(1.,0.,0.));
#1616=DIRECTION('center_axis',(0.,0.,1.));
#1617=DIRECTION('ref_axis',(0.59880239520742,-0.800896804522191,0.));
#1618=DIRECTION('',(-1.,0.,0.));
#1619=DIRECTION('',(0.,-1.,0.));
#1620=DIRECTION('',(-1.,0.,0.));
#1621=DIRECTION('center_axis',(0.,0.,-1.));
#1622=DIRECTION('ref_axis',(-0.665157282547758,0.746703280743886,0.));
#1623=DIRECTION('center_axis',(0.,0.,-1.));
#1624=DIRECTION('ref_axis',(-0.528169014082578,0.849139265705596,0.));
#1625=DIRECTION('',(2.15903345372269E-16,-1.,0.));
#1626=DIRECTION('',(-1.,0.,0.));
#1627=DIRECTION('',(2.15903345372269E-16,1.,0.));
#1628=DIRECTION('center_axis',(-1.,-2.15903345372269E-16,0.));
#1629=DIRECTION('ref_axis',(2.15903345372269E-16,-1.,0.));
#1630=DIRECTION('',(2.15903345372269E-16,-1.,0.));
#1631=DIRECTION('',(0.,0.,1.));
#1632=DIRECTION('center_axis',(0.,0.707106781186547,0.707106781186548));
#1633=DIRECTION('ref_axis',(1.,0.,0.));
#1634=DIRECTION('',(0.,0.707106781186548,-0.707106781186547));
#1635=DIRECTION('',(1.,0.,0.));
#1636=DIRECTION('',(0.,-0.707106781186548,0.707106781186547));
#1637=DIRECTION('',(-1.,0.,0.));
#1638=DIRECTION('',(-1.,0.,0.));
#1639=DIRECTION('center_axis',(0.,0.,1.));
#1640=DIRECTION('ref_axis',(-1.,0.,0.));
#1641=DIRECTION('',(-1.,0.,0.));
#1642=DIRECTION('',(0.,-1.,0.));
#1643=DIRECTION('',(-1.,0.,0.));
#1644=DIRECTION('',(0.,-1.,0.));
#1645=DIRECTION('center_axis',(1.,0.,0.));
#1646=DIRECTION('ref_axis',(0.,0.,1.));
#1647=DIRECTION('',(0.,0.,1.));
#1648=DIRECTION('',(0.,0.,1.));
#1649=DIRECTION('center_axis',(-1.,0.,0.));
#1650=DIRECTION('ref_axis',(0.,0.,-1.));
#1651=DIRECTION('',(0.,0.,-1.));
#1652=DIRECTION('',(0.,0.,-1.));
#1653=DIRECTION('center_axis',(0.,-1.,0.));
#1654=DIRECTION('ref_axis',(0.,0.,-1.));
#1655=DIRECTION('center_axis',(0.,1.,0.));
#1656=DIRECTION('ref_axis',(-1.,0.,0.));
#1657=DIRECTION('center_axis',(0.,1.,0.));
#1658=DIRECTION('ref_axis',(-1.,0.,0.));
#1659=DIRECTION('',(-0.707106781186547,-0.707106781186548,8.65956056235493E-17));
#1660=DIRECTION('center_axis',(0.,-1.,0.));
#1661=DIRECTION('ref_axis',(-1.,0.,0.));
#1662=DIRECTION('center_axis',(0.,-1.,0.));
#1663=DIRECTION('ref_axis',(-1.,0.,0.));
#1664=DIRECTION('center_axis',(0.,1.,0.));
#1665=DIRECTION('ref_axis',(-1.,0.,0.));
#1666=DIRECTION('center_axis',(0.,1.,0.));
#1667=DIRECTION('ref_axis',(-1.,0.,0.));
#1668=DIRECTION('center_axis',(0.,1.,0.));
#1669=DIRECTION('ref_axis',(-1.,0.,0.));
#1670=DIRECTION('',(-0.672512479036504,0.,-0.740085782555087));
#1671=DIRECTION('',(-1.,0.,0.));
#1672=DIRECTION('',(0.,0.,1.));
#1673=DIRECTION('',(-1.,0.,0.));
#1674=DIRECTION('',(0.,0.,1.));
#1675=DIRECTION('center_axis',(0.,1.,0.));
#1676=DIRECTION('ref_axis',(-1.,0.,0.));
#1677=DIRECTION('center_axis',(0.,1.,0.));
#1678=DIRECTION('ref_axis',(-1.,0.,0.));
#1679=DIRECTION('',(0.,0.,1.));
#1680=DIRECTION('',(-1.,0.,0.));
#1681=DIRECTION('center_axis',(0.,1.,0.));
#1682=DIRECTION('ref_axis',(-1.,0.,0.));
#1683=DIRECTION('center_axis',(0.,1.,0.));
#1684=DIRECTION('ref_axis',(1.,0.,0.));
#1685=DIRECTION('center_axis',(0.,1.,0.));
#1686=DIRECTION('ref_axis',(1.,0.,0.));
#1687=DIRECTION('center_axis',(0.,1.,0.));
#1688=DIRECTION('ref_axis',(1.,0.,0.));
#1689=DIRECTION('',(0.,1.,0.));
#1690=DIRECTION('center_axis',(0.,1.,0.));
#1691=DIRECTION('ref_axis',(-1.,0.,0.));
#1692=DIRECTION('',(-0.707106781186547,-0.707106781186548,8.65956056235493E-17));
#1693=DIRECTION('center_axis',(0.,-1.,0.));
#1694=DIRECTION('ref_axis',(-1.,0.,0.));
#1695=DIRECTION('center_axis',(0.,-1.,0.));
#1696=DIRECTION('ref_axis',(-1.,0.,0.));
#1697=DIRECTION('center_axis',(0.,1.,0.));
#1698=DIRECTION('ref_axis',(1.,0.,0.));
#1699=DIRECTION('center_axis',(0.,1.,0.));
#1700=DIRECTION('ref_axis',(1.,0.,0.));
#1701=DIRECTION('center_axis',(0.,1.,0.));
#1702=DIRECTION('ref_axis',(1.,0.,0.));
#1703=DIRECTION('',(0.,1.,0.));
#1704=DIRECTION('center_axis',(1.,-2.15903345372269E-16,0.));
#1705=DIRECTION('ref_axis',(2.15903345372269E-16,1.,0.));
#1706=DIRECTION('',(2.15903345372269E-16,1.,0.));
#1707=DIRECTION('center_axis',(0.,0.,1.));
#1708=DIRECTION('ref_axis',(-0.528169014082578,0.849139265705596,0.));
#1709=DIRECTION('',(0.,0.,1.));
#1710=DIRECTION('center_axis',(0.,0.,-1.));
#1711=DIRECTION('ref_axis',(-0.528169014082578,0.849139265705596,0.));
#1712=DIRECTION('center_axis',(0.,0.,1.));
#1713=DIRECTION('ref_axis',(0.665157282547757,0.746703280743887,0.));
#1714=DIRECTION('center_axis',(0.,0.,1.));
#1715=DIRECTION('ref_axis',(0.665157282547757,0.746703280743887,0.));
#1716=DIRECTION('',(0.,0.,1.));
#1717=DIRECTION('center_axis',(0.,0.,-1.));
#1718=DIRECTION('ref_axis',(-0.665157282547758,0.746703280743886,0.));
#1719=DIRECTION('center_axis',(0.,0.,1.));
#1720=DIRECTION('ref_axis',(-0.665157282547758,0.746703280743886,0.));
#1721=DIRECTION('',(0.,0.,-1.));
#1722=DIRECTION('center_axis',(0.,1.,0.));
#1723=DIRECTION('ref_axis',(-0.707106781186548,0.,0.707106781186548));
#1724=DIRECTION('center_axis',(0.,-1.,0.));
#1725=DIRECTION('ref_axis',(-0.707106781186548,0.,0.707106781186548));
#1726=DIRECTION('',(0.,-1.,0.));
#1727=DIRECTION('center_axis',(0.,1.,0.));
#1728=DIRECTION('ref_axis',(-0.707106781186548,0.,0.707106781186548));
#1729=DIRECTION('center_axis',(-1.,0.,0.));
#1730=DIRECTION('ref_axis',(0.,-1.,0.));
#1731=DIRECTION('',(0.,0.,1.));
#1732=DIRECTION('',(0.,1.,0.));
#1733=DIRECTION('',(0.,0.,1.));
#1734=DIRECTION('center_axis',(0.,1.,0.));
#1735=DIRECTION('ref_axis',(-1.,0.,0.));
#1736=DIRECTION('',(1.,0.,0.));
#1737=DIRECTION('center_axis',(0.,-1.,0.));
#1738=DIRECTION('ref_axis',(-0.707106781186547,0.,-0.707106781186548));
#1739=DIRECTION('center_axis',(0.,-1.,0.));
#1740=DIRECTION('ref_axis',(1.,0.,0.));
#1741=DIRECTION('center_axis',(0.,1.,0.));
#1742=DIRECTION('ref_axis',(-0.707106781186547,0.,-0.707106781186548));
#1743=DIRECTION('',(0.,-1.,0.));
#1744=DIRECTION('center_axis',(0.,1.,0.));
#1745=DIRECTION('ref_axis',(-0.707106781186547,0.,-0.707106781186548));
#1746=DIRECTION('center_axis',(0.,0.,1.));
#1747=DIRECTION('ref_axis',(1.,0.,0.));
#1748=DIRECTION('',(-9.33742385042524E-12,1.,0.));
#1749=DIRECTION('center_axis',(0.,0.,1.));
#1750=DIRECTION('ref_axis',(0.59880239520742,-0.800896804522191,0.));
#1751=DIRECTION('',(-1.,0.,0.));
#1752=DIRECTION('center_axis',(0.,-1.,0.));
#1753=DIRECTION('ref_axis',(0.707106781186548,0.,0.707106781186548));
#1754=DIRECTION('center_axis',(0.,1.,0.));
#1755=DIRECTION('ref_axis',(0.707106781186548,0.,0.707106781186548));
#1756=DIRECTION('',(0.,1.,0.));
#1757=DIRECTION('center_axis',(0.,-1.,0.));
#1758=DIRECTION('ref_axis',(0.707106781186548,0.,0.707106781186548));
#1759=DIRECTION('center_axis',(0.,1.,0.));
#1760=DIRECTION('ref_axis',(-1.,0.,0.));
#1761=DIRECTION('',(0.,0.,1.));
#1762=DIRECTION('center_axis',(0.,-1.,0.));
#1763=DIRECTION('ref_axis',(0.707106781186547,0.,-0.707106781186548));
#1764=DIRECTION('',(1.,0.,0.));
#1765=DIRECTION('center_axis',(0.,-1.,0.));
#1766=DIRECTION('ref_axis',(1.,0.,0.));
#1767=DIRECTION('center_axis',(1.,0.,0.));
#1768=DIRECTION('ref_axis',(0.,1.,0.));
#1769=DIRECTION('',(0.,0.,1.));
#1770=DIRECTION('',(0.,-1.,0.));
#1771=DIRECTION('center_axis',(0.,-1.,0.));
#1772=DIRECTION('ref_axis',(0.707106781186547,0.,-0.707106781186548));
#1773=DIRECTION('center_axis',(0.,1.,0.));
#1774=DIRECTION('ref_axis',(0.707106781186547,0.,-0.707106781186548));
#1775=DIRECTION('',(0.,1.,0.));
#1776=DIRECTION('center_axis',(-1.,-9.33742385042524E-12,0.));
#1777=DIRECTION('ref_axis',(9.33742385042524E-12,-1.,0.));
#1778=DIRECTION('',(0.,1.,0.));
#1779=DIRECTION('',(0.,0.,1.));
#1780=DIRECTION('center_axis',(0.,-1.,0.));
#1781=DIRECTION('ref_axis',(1.,0.,0.));
#1782=DIRECTION('center_axis',(0.,-1.,0.));
#1783=DIRECTION('ref_axis',(-1.,0.,0.));
#1784=DIRECTION('',(1.,0.,0.));
#1785=DIRECTION('',(0.672512479036504,0.,0.740085782555087));
#1786=DIRECTION('center_axis',(0.,1.,0.));
#1787=DIRECTION('ref_axis',(1.,0.,0.));
#1788=DIRECTION('center_axis',(0.,1.,0.));
#1789=DIRECTION('ref_axis',(1.,0.,0.));
#1790=DIRECTION('center_axis',(0.,0.,-1.));
#1791=DIRECTION('ref_axis',(-1.,0.,0.));
#1792=DIRECTION('',(0.,-1.,0.));
#1793=DIRECTION('center_axis',(0.,1.,0.));
#1794=DIRECTION('ref_axis',(-1.,0.,0.));
#1795=DIRECTION('',(0.,1.,0.));
#1796=DIRECTION('center_axis',(-0.740085782555087,0.,0.672512479036504));
#1797=DIRECTION('ref_axis',(0.672512479036504,0.,0.740085782555087));
#1798=DIRECTION('center_axis',(0.,1.,0.));
#1799=DIRECTION('ref_axis',(1.,0.,0.));
#1800=DIRECTION('',(0.,1.,0.));
#1801=DIRECTION('center_axis',(0.,-1.,0.));
#1802=DIRECTION('ref_axis',(-1.,0.,0.));
#1803=DIRECTION('center_axis',(0.,-1.,0.));
#1804=DIRECTION('ref_axis',(-1.,0.,0.));
#1805=DIRECTION('center_axis',(0.,1.,0.));
#1806=DIRECTION('ref_axis',(-1.,0.,0.));
#1807=DIRECTION('',(-0.707106781186548,-0.707106781186547,8.65956056235494E-17));
#1808=DIRECTION('center_axis',(0.,0.,1.));
#1809=DIRECTION('ref_axis',(0.59880239520742,-0.800896804522191,0.));
#1810=DIRECTION('',(0.,0.,-1.));
#1811=DIRECTION('center_axis',(0.,0.,1.));
#1812=DIRECTION('ref_axis',(0.59880239520742,-0.800896804522191,0.));
#1813=DIRECTION('center_axis',(0.,0.,1.));
#1814=DIRECTION('ref_axis',(0.59880239520742,-0.800896804522191,0.));
#1815=DIRECTION('',(0.,0.,1.));
#1816=DIRECTION('center_axis',(0.,-1.,0.));
#1817=DIRECTION('ref_axis',(1.,0.,0.));
#1818=DIRECTION('',(-1.,0.,0.));
#1819=DIRECTION('center_axis',(0.,1.,0.));
#1820=DIRECTION('ref_axis',(1.,0.,0.));
#1821=DIRECTION('center_axis',(0.,-1.,0.));
#1822=DIRECTION('ref_axis',(1.,0.,0.));
#1823=DIRECTION('center_axis',(0.,1.,0.));
#1824=DIRECTION('ref_axis',(1.,0.,0.));
#1825=DIRECTION('center_axis',(0.,0.,1.));
#1826=DIRECTION('ref_axis',(1.,0.,0.));
#1827=DIRECTION('center_axis',(0.,-1.,0.));
#1828=DIRECTION('ref_axis',(1.,0.,0.));
#1829=DIRECTION('',(0.,-1.,0.));
#1830=DIRECTION('center_axis',(0.,-1.,0.));
#1831=DIRECTION('ref_axis',(1.,0.,0.));
#1832=DIRECTION('',(0.,-1.,0.));
#1833=CARTESIAN_POINT('',(0.,0.,0.));
#1834=CARTESIAN_POINT('Origin',(-15.0989238027086,1.75,0.));
#1835=CARTESIAN_POINT('',(-15.0989238027086,0.75,0.));
#1836=CARTESIAN_POINT('',(-14.1055735525304,1.63486842105263,0.));
#1837=CARTESIAN_POINT('Origin',(-15.0989238027086,1.75,0.));
#1838=CARTESIAN_POINT('',(-14.1055735525304,1.63486842105263,12.));
#1839=CARTESIAN_POINT('',(-14.1055735525304,1.63486842105263,0.));
#1840=CARTESIAN_POINT('',(-15.0989238027086,0.75,12.));
#1841=CARTESIAN_POINT('Origin',(-15.0989238027086,1.75,12.));
#1842=CARTESIAN_POINT('',(-15.0989238027086,0.75,0.));
#1843=CARTESIAN_POINT('Origin',(0.,0.,0.));
#1844=CARTESIAN_POINT('',(14.1055735525304,1.63486842105263,0.));
#1845=CARTESIAN_POINT('Origin',(0.,0.,0.));
#1846=CARTESIAN_POINT('',(14.1055735525304,1.63486842105263,12.));
#1847=CARTESIAN_POINT('',(14.1055735525304,1.63486842105263,0.));
#1848=CARTESIAN_POINT('Origin',(0.,0.,12.));
#1849=CARTESIAN_POINT('Origin',(1.11022302462516E-15,-1.50000000000437,
0.));
#1850=CARTESIAN_POINT('',(-18.,0.75,0.));
#1851=CARTESIAN_POINT('',(8.34157509107243,0.75,0.));
#1852=CARTESIAN_POINT('',(-18.,3.25,0.));
#1853=CARTESIAN_POINT('',(-18.,0.874999999997816,0.));
#1854=CARTESIAN_POINT('',(-16.3807051130286,3.25,0.));
#1855=CARTESIAN_POINT('',(-20.,3.25,0.));
#1856=CARTESIAN_POINT('',(16.3807051130286,3.25,0.));
#1857=CARTESIAN_POINT('Origin',(0.,0.,0.));
#1858=CARTESIAN_POINT('',(18.,3.25,0.));
#1859=CARTESIAN_POINT('',(-20.,3.25,0.));
#1860=CARTESIAN_POINT('',(18.,0.75,0.));
#1861=CARTESIAN_POINT('',(18.,-0.375000000002184,0.));
#1862=CARTESIAN_POINT('',(15.0989238027086,0.75,0.));
#1863=CARTESIAN_POINT('',(8.34157509107243,0.75,0.));
#1864=CARTESIAN_POINT('Origin',(15.0989238027086,1.75,0.));
#1865=CARTESIAN_POINT('Origin',(15.0989238027086,1.75,0.));
#1866=CARTESIAN_POINT('',(15.0989238027086,0.75,12.));
#1867=CARTESIAN_POINT('Origin',(15.0989238027086,1.75,12.));
#1868=CARTESIAN_POINT('',(15.0989238027086,0.75,0.));
#1869=CARTESIAN_POINT('Origin',(16.6831501821449,0.75,0.));
#1870=CARTESIAN_POINT('',(20.,0.75,2.));
#1871=CARTESIAN_POINT('Origin',(18.,0.75,2.));
#1872=CARTESIAN_POINT('',(20.,0.75,10.));
#1873=CARTESIAN_POINT('',(20.,0.75,0.));
#1874=CARTESIAN_POINT('',(18.,0.75,12.));
#1875=CARTESIAN_POINT('Origin',(18.,0.75,10.));
#1876=CARTESIAN_POINT('',(8.34157509107243,0.75,12.));
#1877=CARTESIAN_POINT('',(17.1,0.75,6.));
#1878=CARTESIAN_POINT('Origin',(18.,0.75,6.));
#1879=CARTESIAN_POINT('Origin',(-18.,0.874999999997816,10.));
#1880=CARTESIAN_POINT('',(-18.,3.25,12.));
#1881=CARTESIAN_POINT('',(-20.,3.25,10.));
#1882=CARTESIAN_POINT('Origin',(-18.,3.25,10.));
#1883=CARTESIAN_POINT('',(-20.,0.75,10.));
#1884=CARTESIAN_POINT('',(-20.,0.874999999997816,10.));
#1885=CARTESIAN_POINT('',(-18.,0.75,12.));
#1886=CARTESIAN_POINT('Origin',(-18.,0.75,10.));
#1887=CARTESIAN_POINT('',(-18.,0.874999999997816,12.));
#1888=CARTESIAN_POINT('Origin',(-20.,3.25,0.));
#1889=CARTESIAN_POINT('',(-20.,3.25,2.));
#1890=CARTESIAN_POINT('',(-20.,3.25,0.));
#1891=CARTESIAN_POINT('',(-20.,0.75,2.));
#1892=CARTESIAN_POINT('',(-20.,0.874999999997816,2.));
#1893=CARTESIAN_POINT('',(-20.,0.75,0.));
#1894=CARTESIAN_POINT('Origin',(-16.3807051130286,3.25,0.));
#1895=CARTESIAN_POINT('',(-16.3807051130286,3.25,12.));
#1896=CARTESIAN_POINT('',(-8.19035255651428,3.25,12.));
#1897=CARTESIAN_POINT('',(-16.3807051130286,3.25,0.));
#1898=CARTESIAN_POINT('Origin',(-18.,3.25,2.));
#1899=CARTESIAN_POINT('',(-17.1,3.25,6.));
#1900=CARTESIAN_POINT('',(-18.9,3.25,6.));
#1901=CARTESIAN_POINT('Origin',(-18.,3.25,6.));
#1902=CARTESIAN_POINT('Origin',(-18.,3.25,6.));
#1903=CARTESIAN_POINT('Origin',(-18.,0.874999999997816,2.));
#1904=CARTESIAN_POINT('Origin',(-18.,0.75,2.));
#1905=CARTESIAN_POINT('Origin',(18.,-0.375000000002184,10.));
#1906=CARTESIAN_POINT('',(20.,3.25,10.));
#1907=CARTESIAN_POINT('',(20.,-0.375000000002184,10.));
#1908=CARTESIAN_POINT('',(18.,3.25,12.));
#1909=CARTESIAN_POINT('Origin',(18.,3.25,10.));
#1910=CARTESIAN_POINT('',(18.,-0.375000000002184,12.));
#1911=CARTESIAN_POINT('Origin',(20.,3.25,0.));
#1912=CARTESIAN_POINT('',(20.,3.25,2.));
#1913=CARTESIAN_POINT('',(20.,3.25,0.));
#1914=CARTESIAN_POINT('Origin',(18.,3.25,2.));
#1915=CARTESIAN_POINT('',(16.3807051130286,3.25,12.));
#1916=CARTESIAN_POINT('',(16.3807051130286,3.25,0.));
#1917=CARTESIAN_POINT('',(10.,3.25,12.));
#1918=CARTESIAN_POINT('',(18.9,3.25,6.));
#1919=CARTESIAN_POINT('',(17.1,3.25,6.));
#1920=CARTESIAN_POINT('Origin',(18.,3.25,6.));
#1921=CARTESIAN_POINT('Origin',(18.,3.25,6.));
#1922=CARTESIAN_POINT('Origin',(20.,0.75,0.));
#1923=CARTESIAN_POINT('',(20.,-0.375000000002184,2.));
#1924=CARTESIAN_POINT('Origin',(18.,-0.375000000002184,2.));
#1925=CARTESIAN_POINT('Origin',(18.,3.25,6.));
#1926=CARTESIAN_POINT('',(17.1,3.25,6.));
#1927=CARTESIAN_POINT('Origin',(-18.,3.25,6.));
#1928=CARTESIAN_POINT('',(-18.9,0.75,6.));
#1929=CARTESIAN_POINT('',(-18.9,3.25,6.));
#1930=CARTESIAN_POINT('Origin',(-18.,0.75,6.));
#1931=CARTESIAN_POINT('Origin',(0.,0.,0.));
#1932=CARTESIAN_POINT('Origin',(0.,0.,12.));
#1933=CARTESIAN_POINT('Origin',(-20.,0.75,0.));
#1934=CARTESIAN_POINT('',(8.34157509107243,0.75,12.));
#1935=CARTESIAN_POINT('Origin',(1.11022302462516E-15,-1.50000000000437,
12.));
#1936=CARTESIAN_POINT('Origin',(9.9999999999863,-19.7000000000087,0.));
#1937=CARTESIAN_POINT('',(14.2877460461717,-8.6458263295132,12.));
#1938=CARTESIAN_POINT('',(9.9999999999863,-19.7000000000087,12.));
#1939=CARTESIAN_POINT('',(10.2778583162399,-18.9836576489055,12.));
#1940=CARTESIAN_POINT('',(9.9999999999863,-19.7000000000087,0.));
#1941=CARTESIAN_POINT('',(9.9999999999863,-19.7000000000087,-10.));
#1942=CARTESIAN_POINT('',(14.2877460461717,-8.6458263295132,0.));
#1943=CARTESIAN_POINT('',(16.3807051130286,-3.25000000000001,0.));
#1944=CARTESIAN_POINT('',(14.2877460461717,-8.64582632951319,0.));
#1945=CARTESIAN_POINT('Origin',(-14.2877460461053,-8.64582632962303,0.));
#1946=CARTESIAN_POINT('',(-9.99999999991354,-19.7000000000087,12.));
#1947=CARTESIAN_POINT('',(-14.2877460461053,-8.64582632962303,12.));
#1948=CARTESIAN_POINT('',(-12.4217313392583,-13.4565708137329,12.));
#1949=CARTESIAN_POINT('',(-14.2877460461053,-8.64582632962303,0.));
#1950=CARTESIAN_POINT('',(-14.2877460461053,-8.64582632962307,0.));
#1951=CARTESIAN_POINT('',(-9.99999999991354,-19.7000000000087,0.));
#1952=CARTESIAN_POINT('',(-9.99999999991354,-19.7000000000087,0.));
#1953=CARTESIAN_POINT('',(-9.99999999991354,-19.7000000000087,0.));
#1954=CARTESIAN_POINT('Origin',(9.9999999999863,-19.7000000000087,0.));
#1955=CARTESIAN_POINT('',(9.9999999999863,-17.2000000000087,0.));
#1956=CARTESIAN_POINT('',(9.99999999998031,-16.9364565823872,0.));
#1957=CARTESIAN_POINT('',(9.9999999999863,-19.7000000000087,-1.03649167328473));
#1958=CARTESIAN_POINT('',(9.9999999999863,-19.7000000000087,-10.));
#1959=CARTESIAN_POINT('',(9.9999999999863,-17.2000000000087,-1.03649167328473));
#1960=CARTESIAN_POINT('',(9.9999999999863,-19.7000000000087,-1.03649167328473));
#1961=CARTESIAN_POINT('',(9.9999999999863,-17.2000000000087,-10.));
#1962=CARTESIAN_POINT('Origin',(-9.,0.,0.));
#1963=CARTESIAN_POINT('',(-9.,-14.,12.));
#1964=CARTESIAN_POINT('',(-9.,-10.9836241741968,12.));
#1965=CARTESIAN_POINT('',(-9.,-0.750000000002184,12.));
#1966=CARTESIAN_POINT('',(-9.,-14.,0.));
#1967=CARTESIAN_POINT('',(-9.,-14.,0.));
#1968=CARTESIAN_POINT('',(-9.,-10.9836241741968,0.));
#1969=CARTESIAN_POINT('',(-9.,-0.750000000002184,0.));
#1970=CARTESIAN_POINT('',(-9.,-10.9836241741968,0.));
#1971=CARTESIAN_POINT('Origin',(-9.,-14.,0.));
#1972=CARTESIAN_POINT('',(9.,-14.,12.));
#1973=CARTESIAN_POINT('',(7.5,-14.,12.));
#1974=CARTESIAN_POINT('',(-4.5,-14.,12.));
#1975=CARTESIAN_POINT('',(9.,-14.,0.));
#1976=CARTESIAN_POINT('',(9.,-14.,0.));
#1977=CARTESIAN_POINT('',(7.5,-14.,0.));
#1978=CARTESIAN_POINT('',(-4.5,-14.,0.));
#1979=CARTESIAN_POINT('',(7.5,-14.,0.));
#1980=CARTESIAN_POINT('Origin',(-9.,-14.,0.));
#1981=CARTESIAN_POINT('',(-7.5,-14.,12.));
#1982=CARTESIAN_POINT('',(-4.5,-14.,12.));
#1983=CARTESIAN_POINT('',(-7.5,-14.,0.));
#1984=CARTESIAN_POINT('',(-7.5,-14.,0.));
#1985=CARTESIAN_POINT('',(-4.5,-14.,0.));
#1986=CARTESIAN_POINT('Origin',(9.,-14.,0.));
#1987=CARTESIAN_POINT('',(9.,-10.9836241741968,12.));
#1988=CARTESIAN_POINT('',(9.,-7.75000000000218,12.));
#1989=CARTESIAN_POINT('',(9.,-10.9836241741968,0.));
#1990=CARTESIAN_POINT('',(9.,-10.9836241741968,0.));
#1991=CARTESIAN_POINT('',(9.,-7.75000000000218,0.));
#1992=CARTESIAN_POINT('Origin',(0.,0.,0.));
#1993=CARTESIAN_POINT('',(-14.1055735525304,-1.63486842105263,0.));
#1994=CARTESIAN_POINT('Origin',(0.,0.,0.));
#1995=CARTESIAN_POINT('',(-14.1055735525304,-1.63486842105263,12.));
#1996=CARTESIAN_POINT('',(-14.1055735525304,-1.63486842105263,0.));
#1997=CARTESIAN_POINT('Origin',(0.,0.,12.));
#1998=CARTESIAN_POINT('Origin',(1.11022302462516E-15,-1.50000000000437,
12.));
#1999=CARTESIAN_POINT('',(-15.0989238027086,-0.75,12.));
#2000=CARTESIAN_POINT('Origin',(-15.0989238027086,-1.75,12.));
#2001=CARTESIAN_POINT('',(-18.,-0.75,12.));
#2002=CARTESIAN_POINT('',(-8.34157509107243,-0.75,12.));
#2003=CARTESIAN_POINT('',(-18.,-3.25,12.));
#2004=CARTESIAN_POINT('',(-18.,-1.12500000000218,12.));
#2005=CARTESIAN_POINT('',(-16.3807051130286,-3.25,12.));
#2006=CARTESIAN_POINT('',(-10.,-3.25,12.));
#2007=CARTESIAN_POINT('Origin',(0.,0.,12.));
#2008=CARTESIAN_POINT('',(-9.99999999991354,-19.7000000000087,12.));
#2009=CARTESIAN_POINT('',(16.3807051130286,-3.25000000000001,12.));
#2010=CARTESIAN_POINT('Origin',(0.,0.,12.));
#2011=CARTESIAN_POINT('',(18.,-3.25,12.));
#2012=CARTESIAN_POINT('',(8.19035255651428,-3.25,12.));
#2013=CARTESIAN_POINT('',(18.,-0.75,12.));
#2014=CARTESIAN_POINT('',(18.,-2.37500000000218,12.));
#2015=CARTESIAN_POINT('',(15.0989238027086,-0.75,12.));
#2016=CARTESIAN_POINT('',(-8.34157509107243,-0.75,12.));
#2017=CARTESIAN_POINT('',(14.1055735525304,-1.63486842105263,12.));
#2018=CARTESIAN_POINT('Origin',(15.0989238027086,-1.75,12.));
#2019=CARTESIAN_POINT('Origin',(0.,0.,12.));
#2020=CARTESIAN_POINT('',(7.5,-17.2000000000058,12.));
#2021=CARTESIAN_POINT('',(7.5,-12.0577775730635,12.));
#2022=CARTESIAN_POINT('',(-7.5,-17.2000000000058,12.));
#2023=CARTESIAN_POINT('',(7.5,-17.2000000000058,12.));
#2024=CARTESIAN_POINT('',(-7.5,-17.2000000000058,12.));
#2025=CARTESIAN_POINT('Origin',(7.5,-12.0577775730635,0.));
#2026=CARTESIAN_POINT('',(7.5,-17.2000000000058,0.));
#2027=CARTESIAN_POINT('',(7.5,-12.0577775730635,0.));
#2028=CARTESIAN_POINT('',(7.5,-17.2000000000058,0.));
#2029=CARTESIAN_POINT('Origin',(2.,-17.7000000000058,-4.5));
#2030=CARTESIAN_POINT('',(-3.5,-17.2000000000058,-5.));
#2031=CARTESIAN_POINT('',(-3.5,-18.2000000000058,-4.));
#2032=CARTESIAN_POINT('',(-3.5,-19.7000000000058,-2.5));
#2033=CARTESIAN_POINT('',(3.5,-18.2000000000058,-4.));
#2034=CARTESIAN_POINT('',(3.5,-18.2000000000058,-4.));
#2035=CARTESIAN_POINT('',(3.5,-17.2000000000058,-5.));
#2036=CARTESIAN_POINT('',(3.5,-17.7000000000058,-4.5));
#2037=CARTESIAN_POINT('',(1.00000000008646,-17.2000000000058,-5.));
#2038=CARTESIAN_POINT('',(2.,-17.2000000000058,-5.));
#2039=CARTESIAN_POINT('',(2.,-17.2000000000058,-5.));
#2040=CARTESIAN_POINT('Origin',(3.5,-17.2000000000058,4.));
#2041=CARTESIAN_POINT('',(3.5,-17.2000000000058,4.));
#2042=CARTESIAN_POINT('',(-3.5,-17.2000000000058,4.));
#2043=CARTESIAN_POINT('',(5.5,-17.2000000000058,4.));
#2044=CARTESIAN_POINT('',(3.5,-18.2000000000058,4.));
#2045=CARTESIAN_POINT('',(3.5,-17.2000000000058,4.));
#2046=CARTESIAN_POINT('',(-3.5,-18.2000000000058,4.));
#2047=CARTESIAN_POINT('',(-3.5,-18.2000000000058,4.));
#2048=CARTESIAN_POINT('',(-3.5,-17.2000000000058,4.));
#2049=CARTESIAN_POINT('Origin',(3.5,-17.2000000000058,-4.));
#2050=CARTESIAN_POINT('',(3.5,-17.2000000000058,-2.));
#2051=CARTESIAN_POINT('',(3.5,-18.2000000000058,4.));
#2052=CARTESIAN_POINT('Origin',(-3.5,-17.2000000000058,4.));
#2053=CARTESIAN_POINT('',(-3.5,-17.2000000000058,2.));
#2054=CARTESIAN_POINT('',(-3.5,-18.2000000000058,-4.));
#2055=CARTESIAN_POINT('Origin',(-5.55111512312578E-16,-18.2000000000058,
0.));
#2056=CARTESIAN_POINT('Origin',(1.00000000008646,-17.7000000000058,-7.));
#2057=CARTESIAN_POINT('',(3.00000000008646,-17.2000000000058,-7.));
#2058=CARTESIAN_POINT('Origin',(1.00000000008646,-17.2000000000058,-7.));
#2059=CARTESIAN_POINT('',(2.00000000008646,-18.2000000000058,-7.));
#2060=CARTESIAN_POINT('',(2.50000000008646,-17.7000000000058,-7.));
#2061=CARTESIAN_POINT('',(8.64580629311718E-11,-18.2000000000058,-7.));
#2062=CARTESIAN_POINT('Origin',(1.00000000008646,-18.2000000000058,-7.));
#2063=CARTESIAN_POINT('Origin',(1.00000000008646,-18.2000000000058,-7.));
#2064=CARTESIAN_POINT('Origin',(1.00000000008646,-17.2000000000058,-7.));
#2065=CARTESIAN_POINT('Origin',(7.5,-17.2000000000058,0.));
#2066=CARTESIAN_POINT('',(9.46034313030681,-17.2000000000087,-1.79004991614601));
#2067=CARTESIAN_POINT('Origin',(6.50000000008646,-17.2000000000058,0.900000000000001));
#2068=CARTESIAN_POINT('',(2.00000000008646,-17.2000000000087,-10.));
#2069=CARTESIAN_POINT('',(5.73233546646039,-17.2000000000058,-5.89264363042471));
#2070=CARTESIAN_POINT('',(-9.99999999991354,-17.2000000000087,-10.));
#2071=CARTESIAN_POINT('',(-9.99999999991354,-17.2000000000087,-10.));
#2072=CARTESIAN_POINT('',(-9.99999999991354,-17.2000000000087,0.));
#2073=CARTESIAN_POINT('',(-9.99999999991354,-17.2000000000087,0.));
#2074=CARTESIAN_POINT('',(-7.5,-17.2000000000058,0.));
#2075=CARTESIAN_POINT('',(1.81904491469709E-11,-17.2000000000087,0.));
#2076=CARTESIAN_POINT('',(-7.5,-17.2000000000058,9.));
#2077=CARTESIAN_POINT('',(-7.5,-17.2000000000058,0.));
#2078=CARTESIAN_POINT('',(-2.49999999991354,-17.2000000000058,9.));
#2079=CARTESIAN_POINT('Origin',(-4.99999999991354,-17.2000000000058,9.));
#2080=CARTESIAN_POINT('Origin',(-4.99999999991354,-17.2000000000058,9.));
#2081=CARTESIAN_POINT('',(-7.5,-17.2000000000058,0.));
#2082=CARTESIAN_POINT('',(1.81904491469709E-11,-17.2000000000087,0.));
#2083=CARTESIAN_POINT('',(-2.99999999991354,-17.2000000000058,-7.));
#2084=CARTESIAN_POINT('Origin',(-4.99999999991354,-17.2000000000058,-7.));
#2085=CARTESIAN_POINT('Origin',(1.00000000008646,-19.7000000000087,-7.));
#2086=CARTESIAN_POINT('',(2.00000000008646,-19.7000000000087,-7.));
#2087=CARTESIAN_POINT('',(8.64580629311718E-11,-19.7000000000087,-7.));
#2088=CARTESIAN_POINT('Origin',(1.00000000008646,-19.7000000000087,-7.));
#2089=CARTESIAN_POINT('Origin',(1.00000000008646,-19.7000000000087,-7.));
#2090=CARTESIAN_POINT('',(8.64580629311718E-11,-19.7000000000087,-7.));
#2091=CARTESIAN_POINT('Origin',(-4.99999999991354,-17.7000000000058,-7.));
#2092=CARTESIAN_POINT('',(-3.99999999991354,-18.2000000000058,-7.));
#2093=CARTESIAN_POINT('',(-3.49999999991354,-17.7000000000058,-7.));
#2094=CARTESIAN_POINT('',(-5.99999999991354,-18.2000000000058,-7.));
#2095=CARTESIAN_POINT('Origin',(-4.99999999991354,-18.2000000000058,-7.));
#2096=CARTESIAN_POINT('Origin',(-4.99999999991354,-18.2000000000058,-7.));
#2097=CARTESIAN_POINT('Origin',(-4.99999999991354,-19.7000000000087,-7.));
#2098=CARTESIAN_POINT('',(-3.99999999991354,-19.7000000000087,-7.));
#2099=CARTESIAN_POINT('',(-5.99999999991354,-19.7000000000087,-7.));
#2100=CARTESIAN_POINT('Origin',(-4.99999999991354,-19.7000000000087,-7.));
#2101=CARTESIAN_POINT('Origin',(-4.99999999991354,-19.7000000000087,-7.));
#2102=CARTESIAN_POINT('',(-5.99999999991354,-19.7000000000087,-7.));
#2103=CARTESIAN_POINT('Origin',(-7.5,-17.2000000000058,0.));
#2104=CARTESIAN_POINT('',(-7.5,-17.2000000000058,0.));
#2105=CARTESIAN_POINT('Origin',(0.,0.,0.));
#2106=CARTESIAN_POINT('',(14.1055735525304,-1.63486842105263,0.));
#2107=CARTESIAN_POINT('',(14.1055735525304,-1.63486842105263,0.));
#2108=CARTESIAN_POINT('Origin',(0.,0.,0.));
#2109=CARTESIAN_POINT('Origin',(-15.0989238027086,-1.75,0.));
#2110=CARTESIAN_POINT('',(-15.0989238027086,-0.75,0.));
#2111=CARTESIAN_POINT('Origin',(-15.0989238027086,-1.75,0.));
#2112=CARTESIAN_POINT('',(-15.0989238027086,-0.75,0.));
#2113=CARTESIAN_POINT('Origin',(15.0989238027086,-1.75,0.));
#2114=CARTESIAN_POINT('',(15.0989238027086,-0.75,0.));
#2115=CARTESIAN_POINT('Origin',(15.0989238027086,-1.75,0.));
#2116=CARTESIAN_POINT('',(15.0989238027086,-0.75,0.));
#2117=CARTESIAN_POINT('Origin',(-18.,-1.12500000000218,10.));
#2118=CARTESIAN_POINT('',(-20.,-0.75,10.));
#2119=CARTESIAN_POINT('Origin',(-18.,-0.75,10.));
#2120=CARTESIAN_POINT('',(-20.,-3.25,10.));
#2121=CARTESIAN_POINT('',(-20.,-1.12500000000218,10.));
#2122=CARTESIAN_POINT('Origin',(-18.,-3.25,10.));
#2123=CARTESIAN_POINT('Origin',(-20.,-0.75,0.));
#2124=CARTESIAN_POINT('',(-20.,-0.75,2.));
#2125=CARTESIAN_POINT('',(-20.,-0.75,0.));
#2126=CARTESIAN_POINT('',(-20.,-3.25,2.));
#2127=CARTESIAN_POINT('',(-20.,-1.12500000000218,2.));
#2128=CARTESIAN_POINT('',(-20.,-3.25,0.));
#2129=CARTESIAN_POINT('Origin',(-16.6831501821449,-0.75,0.));
#2130=CARTESIAN_POINT('',(-18.,-0.75,0.));
#2131=CARTESIAN_POINT('',(-8.34157509107243,-0.75,0.));
#2132=CARTESIAN_POINT('Origin',(-18.,-0.75,2.));
#2133=CARTESIAN_POINT('',(-18.9,-0.75,6.));
#2134=CARTESIAN_POINT('Origin',(-18.,-0.75,6.));
#2135=CARTESIAN_POINT('Origin',(-18.,-1.12500000000218,2.));
#2136=CARTESIAN_POINT('',(-18.,-3.25,0.));
#2137=CARTESIAN_POINT('',(-18.,-1.12500000000218,0.));
#2138=CARTESIAN_POINT('Origin',(-18.,-3.25,2.));
#2139=CARTESIAN_POINT('Origin',(1.11022302462516E-15,-1.50000000000437,
0.));
#2140=CARTESIAN_POINT('',(-9.99999999996888,-13.773944900164,0.));
#2141=CARTESIAN_POINT('',(-16.3807051130286,-3.25,0.));
#2142=CARTESIAN_POINT('Origin',(0.,0.,0.));
#2143=CARTESIAN_POINT('',(20.,-3.25,0.));
#2144=CARTESIAN_POINT('Origin',(18.,-2.37500000000218,10.));
#2145=CARTESIAN_POINT('',(20.,-3.25,10.));
#2146=CARTESIAN_POINT('Origin',(18.,-3.25,10.));
#2147=CARTESIAN_POINT('',(20.,-0.75,10.));
#2148=CARTESIAN_POINT('',(20.,-2.37500000000218,10.));
#2149=CARTESIAN_POINT('Origin',(18.,-0.75,10.));
#2150=CARTESIAN_POINT('Origin',(20.,-0.75,0.));
#2151=CARTESIAN_POINT('',(20.,-0.75,2.));
#2152=CARTESIAN_POINT('',(20.,-0.75,0.));
#2153=CARTESIAN_POINT('',(18.,-0.75,0.));
#2154=CARTESIAN_POINT('Origin',(18.,-0.75,2.));
#2155=CARTESIAN_POINT('',(-8.34157509107243,-0.75,0.));
#2156=CARTESIAN_POINT('',(17.1,-0.75,6.));
#2157=CARTESIAN_POINT('Origin',(18.,-0.75,6.));
#2158=CARTESIAN_POINT('Origin',(20.,-3.25,0.));
#2159=CARTESIAN_POINT('',(20.,-3.25,2.));
#2160=CARTESIAN_POINT('',(20.,-3.25,0.));
#2161=CARTESIAN_POINT('',(20.,-2.37500000000218,2.));
#2162=CARTESIAN_POINT('Origin',(18.,-2.37500000000218,2.));
#2163=CARTESIAN_POINT('',(18.,-3.25,0.));
#2164=CARTESIAN_POINT('Origin',(18.,-3.25,2.));
#2165=CARTESIAN_POINT('',(18.,-2.37500000000218,0.));
#2166=CARTESIAN_POINT('Origin',(-9.9999999999726,-13.3749766355322,0.));
#2167=CARTESIAN_POINT('',(-9.99999999991354,-19.7000000000087,-10.));
#2168=CARTESIAN_POINT('',(-9.99999999991354,-19.7000000000087,-10.));
#2169=CARTESIAN_POINT('',(-9.99999999991354,-19.7000000000087,0.));
#2170=CARTESIAN_POINT('Origin',(-9.99999999991354,-19.7000000000087,0.));
#2171=CARTESIAN_POINT('',(9.46034313030681,-19.7000000000087,-1.79004991614601));
#2172=CARTESIAN_POINT('Origin',(6.50000000008646,-19.7000000000087,0.900000000000001));
#2173=CARTESIAN_POINT('',(2.00000000008646,-19.7000000000087,-10.));
#2174=CARTESIAN_POINT('',(-9.99999999991354,-19.7000000000087,-10.));
#2175=CARTESIAN_POINT('',(1.77494641495648,-19.7000000000087,-10.2476667182539));
#2176=CARTESIAN_POINT('',(-3.99999999991354,-19.7000000000087,9.));
#2177=CARTESIAN_POINT('',(-5.99999999991354,-19.7000000000087,9.));
#2178=CARTESIAN_POINT('Origin',(-4.99999999991354,-19.7000000000087,9.));
#2179=CARTESIAN_POINT('Origin',(-4.99999999991354,-19.7000000000087,9.));
#2180=CARTESIAN_POINT('Origin',(9.9999999999863,-19.7000000000087,-10.));
#2181=CARTESIAN_POINT('',(2.00000000008646,-19.7000000000087,-10.));
#2182=CARTESIAN_POINT('Origin',(6.50000000008646,-19.7000000000087,0.900000000000001));
#2183=CARTESIAN_POINT('',(9.46034313030681,-19.7000000000087,-1.79004991614601));
#2184=CARTESIAN_POINT('Origin',(2.00000000008646,-19.7000000000087,-10.));
#2185=CARTESIAN_POINT('Origin',(-4.99999999991354,-19.7000000000087,9.));
#2186=CARTESIAN_POINT('',(-5.99999999991354,-18.7000000000058,9.));
#2187=CARTESIAN_POINT('',(-5.99999999991354,-19.7000000000087,9.));
#2188=CARTESIAN_POINT('',(-3.99999999991354,-18.7000000000058,9.));
#2189=CARTESIAN_POINT('Origin',(-4.99999999991354,-18.7000000000058,9.));
#2190=CARTESIAN_POINT('Origin',(-4.99999999991354,-18.7000000000058,9.));
#2191=CARTESIAN_POINT('Origin',(-4.99999999991354,-17.9500000000058,9.));
#2192=CARTESIAN_POINT('',(-3.24999999991354,-17.9500000000058,9.));
#2193=CARTESIAN_POINT('Origin',(0.,0.,0.));
#2194=CARTESIAN_POINT('',(-16.3807051130286,-3.25,0.));
#2195=CARTESIAN_POINT('Origin',(0.,0.,0.));
#2196=CARTESIAN_POINT('',(16.3807051130286,-3.25000000000001,0.));
#2197=CARTESIAN_POINT('Origin',(0.,0.,0.));
#2198=CARTESIAN_POINT('',(16.3807051130286,-3.25,0.));
#2199=CARTESIAN_POINT('Origin',(16.3807051130286,-3.25,0.));
#2200=CARTESIAN_POINT('',(20.,-3.25,0.));
#2201=CARTESIAN_POINT('',(17.1,-3.25,6.));
#2202=CARTESIAN_POINT('Origin',(18.,-3.25,6.));
#2203=CARTESIAN_POINT('Origin',(-20.,-3.25,0.));
#2204=CARTESIAN_POINT('',(-18.9,-3.25,6.));
#2205=CARTESIAN_POINT('Origin',(-18.,-3.25,6.));
#2206=CARTESIAN_POINT('Origin',(1.11022302462516E-15,-1.50000000000437,
0.));
#2207=CARTESIAN_POINT('Origin',(-18.,3.25,6.));
#2208=CARTESIAN_POINT('',(-18.9,3.25,6.));
#2209=CARTESIAN_POINT('Origin',(18.,3.25,6.));
#2210=CARTESIAN_POINT('',(17.1,3.25,6.));
#2211=UNCERTAINTY_MEASURE_WITH_UNIT(LENGTH_MEASURE(0.01),#2215,
'DISTANCE_ACCURACY_VALUE',
'Maximum model space distance between geometric entities at asserted c
onnectivities');
#2212=UNCERTAINTY_MEASURE_WITH_UNIT(LENGTH_MEASURE(0.01),#2215,
'DISTANCE_ACCURACY_VALUE',
'Maximum model space distance between geometric entities at asserted c
onnectivities');
#2213=(
GEOMETRIC_REPRESENTATION_CONTEXT(3)
GLOBAL_UNCERTAINTY_ASSIGNED_CONTEXT((#2211))
GLOBAL_UNIT_ASSIGNED_CONTEXT((#2215,#2217,#2218))
REPRESENTATION_CONTEXT('','3D')
);
#2214=(
GEOMETRIC_REPRESENTATION_CONTEXT(3)
GLOBAL_UNCERTAINTY_ASSIGNED_CONTEXT((#2212))
GLOBAL_UNIT_ASSIGNED_CONTEXT((#2215,#2217,#2218))
REPRESENTATION_CONTEXT('','3D')
);
#2215=(
LENGTH_UNIT()
NAMED_UNIT(*)
SI_UNIT(.MILLI.,.METRE.)
);
#2216=(
LENGTH_UNIT()
NAMED_UNIT(*)
SI_UNIT(.CENTI.,.METRE.)
);
#2217=(
NAMED_UNIT(*)
PLANE_ANGLE_UNIT()
SI_UNIT($,.RADIAN.)
);
#2218=(
NAMED_UNIT(*)
SI_UNIT($,.STERADIAN.)
SOLID_ANGLE_UNIT()
);
#2219=SHAPE_DEFINITION_REPRESENTATION(#2220,#2221);
#2220=PRODUCT_DEFINITION_SHAPE('',$,#2223);
#2221=SHAPE_REPRESENTATION('',(#1318),#2213);
#2222=PRODUCT_DEFINITION_CONTEXT('part definition',#2227,'design');
#2223=PRODUCT_DEFINITION('motor holder','motor holder',#2224,#2222);
#2224=PRODUCT_DEFINITION_FORMATION('',$,#2229);
#2225=PRODUCT_RELATED_PRODUCT_CATEGORY('motor holder','motor holder',(#2229));
#2226=APPLICATION_PROTOCOL_DEFINITION('international standard',
'automotive_design',2009,#2227);
#2227=APPLICATION_CONTEXT(
'Core Data for Automotive Mechanical Design Process');
#2228=PRODUCT_CONTEXT('part definition',#2227,'mechanical');
#2229=PRODUCT('motor holder','motor holder',$,(#2228));
#2230=PRESENTATION_STYLE_ASSIGNMENT((#2231));
#2231=SURFACE_STYLE_USAGE(.BOTH.,#2234);
#2232=SURFACE_STYLE_RENDERING_WITH_PROPERTIES($,#2238,(#2233));
#2233=SURFACE_STYLE_TRANSPARENT(0.);
#2234=SURFACE_SIDE_STYLE('',(#2235,#2232));
#2235=SURFACE_STYLE_FILL_AREA(#2236);
#2236=FILL_AREA_STYLE('',(#2237));
#2237=FILL_AREA_STYLE_COLOUR('',#2238);
#2238=COLOUR_RGB('',0.749019607843137,0.749019607843137,0.749019607843137);
ENDSEC;
END-ISO-10303-21;
