ISO-10303-21;
HEADER;
/* Generated by software containing ST-Developer
 * from STEP Tools, Inc. (www.steptools.com) 
 */

FILE_DESCRIPTION(
/* description */ (''),
/* implementation_level */ '2;1');

FILE_NAME(
/* name */ 'C:\\Users\\drago\\OneDrive\\Ta\X2\0300\X0\i li\X\EA\X2\0323\X0\u
\\2axis CNC\\plate.stp',
/* time_stamp */ '2026-08-19T14:18:02+07:00',
/* author */ ('drago'),
/* organization */ (''),
/* preprocessor_version */ 'ST-DEVELOPER v18',
/* originating_system */ 'Autodesk Inventor 2020',
/* authorisation */ '');

FILE_SCHEMA (('AUTOMOTIVE_DESIGN { 1 0 10303 214 3 1 1 }'));
ENDSEC;

DATA;
#10=MECHANICAL_DESIGN_GEOMETRIC_PRESENTATION_REPRESENTATION('',(#13),#585);
#11=SHAPE_REPRESENTATION_RELATIONSHIP('SRR','None',#592,#12);
#12=ADVANCED_BREP_SHAPE_REPRESENTATION('',(#14),#584);
#13=STYLED_ITEM('',(#601),#14);
#14=MANIFOLD_SOLID_BREP('Solid1',#331);
#15=CYLINDRICAL_SURFACE('',#362,1.);
#16=CYLINDRICAL_SURFACE('',#366,1.);
#17=CYLINDRICAL_SURFACE('',#370,1.);
#18=CYLINDRICAL_SURFACE('',#374,1.);
#19=CYLINDRICAL_SURFACE('',#376,1.99999999999998);
#20=CYLINDRICAL_SURFACE('',#379,2.00000000000001);
#21=CYLINDRICAL_SURFACE('',#382,2.00000000000002);
#22=CYLINDRICAL_SURFACE('',#385,2.00000000000006);
#23=FACE_BOUND('',#57,.T.);
#24=FACE_BOUND('',#58,.T.);
#25=FACE_BOUND('',#59,.T.);
#26=FACE_BOUND('',#60,.T.);
#27=FACE_BOUND('',#77,.T.);
#28=FACE_BOUND('',#78,.T.);
#29=FACE_BOUND('',#79,.T.);
#30=FACE_BOUND('',#80,.T.);
#31=PLANE('',#354);
#32=PLANE('',#378);
#33=PLANE('',#381);
#34=PLANE('',#384);
#35=PLANE('',#387);
#36=PLANE('',#388);
#37=FACE_OUTER_BOUND('',#55,.T.);
#38=FACE_OUTER_BOUND('',#56,.T.);
#39=FACE_OUTER_BOUND('',#61,.T.);
#40=FACE_OUTER_BOUND('',#62,.T.);
#41=FACE_OUTER_BOUND('',#63,.T.);
#42=FACE_OUTER_BOUND('',#64,.T.);
#43=FACE_OUTER_BOUND('',#65,.T.);
#44=FACE_OUTER_BOUND('',#66,.T.);
#45=FACE_OUTER_BOUND('',#67,.T.);
#46=FACE_OUTER_BOUND('',#68,.T.);
#47=FACE_OUTER_BOUND('',#69,.T.);
#48=FACE_OUTER_BOUND('',#70,.T.);
#49=FACE_OUTER_BOUND('',#71,.T.);
#50=FACE_OUTER_BOUND('',#72,.T.);
#51=FACE_OUTER_BOUND('',#73,.T.);
#52=FACE_OUTER_BOUND('',#74,.T.);
#53=FACE_OUTER_BOUND('',#75,.T.);
#54=FACE_OUTER_BOUND('',#76,.T.);
#55=EDGE_LOOP('',(#221,#222,#223,#224));
#56=EDGE_LOOP('',(#225,#226,#227,#228,#229,#230,#231,#232));
#57=EDGE_LOOP('',(#233));
#58=EDGE_LOOP('',(#234));
#59=EDGE_LOOP('',(#235));
#60=EDGE_LOOP('',(#236));
#61=EDGE_LOOP('',(#237,#238,#239,#240));
#62=EDGE_LOOP('',(#241,#242,#243,#244));
#63=EDGE_LOOP('',(#245,#246,#247,#248));
#64=EDGE_LOOP('',(#249,#250,#251,#252));
#65=EDGE_LOOP('',(#253,#254,#255,#256));
#66=EDGE_LOOP('',(#257,#258,#259,#260));
#67=EDGE_LOOP('',(#261,#262,#263,#264));
#68=EDGE_LOOP('',(#265,#266,#267,#268));
#69=EDGE_LOOP('',(#269,#270,#271,#272));
#70=EDGE_LOOP('',(#273,#274,#275,#276));
#71=EDGE_LOOP('',(#277,#278,#279,#280));
#72=EDGE_LOOP('',(#281,#282,#283,#284));
#73=EDGE_LOOP('',(#285,#286,#287,#288));
#74=EDGE_LOOP('',(#289,#290,#291,#292));
#75=EDGE_LOOP('',(#293,#294,#295,#296));
#76=EDGE_LOOP('',(#297,#298,#299,#300,#301,#302,#303,#304));
#77=EDGE_LOOP('',(#305));
#78=EDGE_LOOP('',(#306));
#79=EDGE_LOOP('',(#307));
#80=EDGE_LOOP('',(#308));
#81=LINE('',#496,#105);
#82=LINE('',#501,#106);
#83=LINE('',#505,#107);
#84=LINE('',#509,#108);
#85=LINE('',#513,#109);
#86=LINE('',#523,#110);
#87=LINE('',#527,#111);
#88=LINE('',#531,#112);
#89=LINE('',#535,#113);
#90=LINE('',#539,#114);
#91=LINE('',#543,#115);
#92=LINE('',#547,#116);
#93=LINE('',#553,#117);
#94=LINE('',#554,#118);
#95=LINE('',#557,#119);
#96=LINE('',#558,#120);
#97=LINE('',#562,#121);
#98=LINE('',#565,#122);
#99=LINE('',#566,#123);
#100=LINE('',#570,#124);
#101=LINE('',#573,#125);
#102=LINE('',#574,#126);
#103=LINE('',#578,#127);
#104=LINE('',#580,#128);
#105=VECTOR('',#395,1.75);
#106=VECTOR('',#400,10.);
#107=VECTOR('',#403,10.);
#108=VECTOR('',#406,10.);
#109=VECTOR('',#409,10.);
#110=VECTOR('',#420,1.);
#111=VECTOR('',#425,1.75);
#112=VECTOR('',#430,1.);
#113=VECTOR('',#435,1.75);
#114=VECTOR('',#440,1.);
#115=VECTOR('',#445,1.75);
#116=VECTOR('',#450,1.);
#117=VECTOR('',#457,10.);
#118=VECTOR('',#458,10.);
#119=VECTOR('',#461,10.);
#120=VECTOR('',#462,10.);
#121=VECTOR('',#467,10.);
#122=VECTOR('',#470,10.);
#123=VECTOR('',#471,10.);
#124=VECTOR('',#476,10.);
#125=VECTOR('',#479,10.);
#126=VECTOR('',#480,10.);
#127=VECTOR('',#485,10.);
#128=VECTOR('',#488,10.);
#129=CIRCLE('',#352,2.5);
#130=CIRCLE('',#353,1.);
#131=CIRCLE('',#355,2.00000000000006);
#132=CIRCLE('',#356,2.00000000000002);
#133=CIRCLE('',#357,2.00000000000001);
#134=CIRCLE('',#358,1.99999999999998);
#135=CIRCLE('',#359,2.5);
#136=CIRCLE('',#360,2.5);
#137=CIRCLE('',#361,2.5);
#138=CIRCLE('',#363,1.);
#139=CIRCLE('',#365,1.);
#140=CIRCLE('',#367,1.);
#141=CIRCLE('',#369,1.);
#142=CIRCLE('',#371,1.);
#143=CIRCLE('',#373,1.);
#144=CIRCLE('',#375,1.);
#145=CIRCLE('',#377,1.99999999999998);
#146=CIRCLE('',#380,2.00000000000001);
#147=CIRCLE('',#383,2.00000000000002);
#148=CIRCLE('',#386,2.00000000000006);
#149=VERTEX_POINT('',#493);
#150=VERTEX_POINT('',#495);
#151=VERTEX_POINT('',#499);
#152=VERTEX_POINT('',#500);
#153=VERTEX_POINT('',#502);
#154=VERTEX_POINT('',#504);
#155=VERTEX_POINT('',#506);
#156=VERTEX_POINT('',#508);
#157=VERTEX_POINT('',#510);
#158=VERTEX_POINT('',#512);
#159=VERTEX_POINT('',#515);
#160=VERTEX_POINT('',#517);
#161=VERTEX_POINT('',#519);
#162=VERTEX_POINT('',#522);
#163=VERTEX_POINT('',#526);
#164=VERTEX_POINT('',#530);
#165=VERTEX_POINT('',#534);
#166=VERTEX_POINT('',#538);
#167=VERTEX_POINT('',#542);
#168=VERTEX_POINT('',#546);
#169=VERTEX_POINT('',#550);
#170=VERTEX_POINT('',#551);
#171=VERTEX_POINT('',#556);
#172=VERTEX_POINT('',#560);
#173=VERTEX_POINT('',#564);
#174=VERTEX_POINT('',#568);
#175=VERTEX_POINT('',#572);
#176=VERTEX_POINT('',#576);
#177=EDGE_CURVE('',#149,#149,#129,.T.);
#178=EDGE_CURVE('',#149,#150,#81,.T.);
#179=EDGE_CURVE('',#150,#150,#130,.T.);
#180=EDGE_CURVE('',#151,#152,#82,.T.);
#181=EDGE_CURVE('',#152,#153,#131,.T.);
#182=EDGE_CURVE('',#153,#154,#83,.T.);
#183=EDGE_CURVE('',#154,#155,#132,.T.);
#184=EDGE_CURVE('',#155,#156,#84,.T.);
#185=EDGE_CURVE('',#156,#157,#133,.T.);
#186=EDGE_CURVE('',#157,#158,#85,.T.);
#187=EDGE_CURVE('',#158,#151,#134,.T.);
#188=EDGE_CURVE('',#159,#159,#135,.T.);
#189=EDGE_CURVE('',#160,#160,#136,.T.);
#190=EDGE_CURVE('',#161,#161,#137,.T.);
#191=EDGE_CURVE('',#150,#162,#86,.T.);
#192=EDGE_CURVE('',#162,#162,#138,.T.);
#193=EDGE_CURVE('',#159,#163,#87,.T.);
#194=EDGE_CURVE('',#163,#163,#139,.T.);
#195=EDGE_CURVE('',#163,#164,#88,.T.);
#196=EDGE_CURVE('',#164,#164,#140,.T.);
#197=EDGE_CURVE('',#161,#165,#89,.T.);
#198=EDGE_CURVE('',#165,#165,#141,.T.);
#199=EDGE_CURVE('',#165,#166,#90,.T.);
#200=EDGE_CURVE('',#166,#166,#142,.T.);
#201=EDGE_CURVE('',#160,#167,#91,.T.);
#202=EDGE_CURVE('',#167,#167,#143,.T.);
#203=EDGE_CURVE('',#167,#168,#92,.T.);
#204=EDGE_CURVE('',#168,#168,#144,.T.);
#205=EDGE_CURVE('',#169,#170,#145,.T.);
#206=EDGE_CURVE('',#170,#151,#93,.T.);
#207=EDGE_CURVE('',#169,#158,#94,.T.);
#208=EDGE_CURVE('',#171,#169,#95,.T.);
#209=EDGE_CURVE('',#171,#157,#96,.T.);
#210=EDGE_CURVE('',#172,#171,#146,.T.);
#211=EDGE_CURVE('',#172,#156,#97,.T.);
#212=EDGE_CURVE('',#173,#172,#98,.T.);
#213=EDGE_CURVE('',#173,#155,#99,.T.);
#214=EDGE_CURVE('',#174,#173,#147,.T.);
#215=EDGE_CURVE('',#174,#154,#100,.T.);
#216=EDGE_CURVE('',#175,#174,#101,.T.);
#217=EDGE_CURVE('',#175,#153,#102,.T.);
#218=EDGE_CURVE('',#176,#175,#148,.T.);
#219=EDGE_CURVE('',#176,#152,#103,.T.);
#220=EDGE_CURVE('',#170,#176,#104,.T.);
#221=ORIENTED_EDGE('',*,*,#177,.T.);
#222=ORIENTED_EDGE('',*,*,#178,.T.);
#223=ORIENTED_EDGE('',*,*,#179,.T.);
#224=ORIENTED_EDGE('',*,*,#178,.F.);
#225=ORIENTED_EDGE('',*,*,#180,.T.);
#226=ORIENTED_EDGE('',*,*,#181,.T.);
#227=ORIENTED_EDGE('',*,*,#182,.T.);
#228=ORIENTED_EDGE('',*,*,#183,.T.);
#229=ORIENTED_EDGE('',*,*,#184,.T.);
#230=ORIENTED_EDGE('',*,*,#185,.T.);
#231=ORIENTED_EDGE('',*,*,#186,.T.);
#232=ORIENTED_EDGE('',*,*,#187,.T.);
#233=ORIENTED_EDGE('',*,*,#188,.F.);
#234=ORIENTED_EDGE('',*,*,#189,.F.);
#235=ORIENTED_EDGE('',*,*,#190,.F.);
#236=ORIENTED_EDGE('',*,*,#177,.F.);
#237=ORIENTED_EDGE('',*,*,#179,.F.);
#238=ORIENTED_EDGE('',*,*,#191,.T.);
#239=ORIENTED_EDGE('',*,*,#192,.T.);
#240=ORIENTED_EDGE('',*,*,#191,.F.);
#241=ORIENTED_EDGE('',*,*,#188,.T.);
#242=ORIENTED_EDGE('',*,*,#193,.T.);
#243=ORIENTED_EDGE('',*,*,#194,.T.);
#244=ORIENTED_EDGE('',*,*,#193,.F.);
#245=ORIENTED_EDGE('',*,*,#194,.F.);
#246=ORIENTED_EDGE('',*,*,#195,.T.);
#247=ORIENTED_EDGE('',*,*,#196,.T.);
#248=ORIENTED_EDGE('',*,*,#195,.F.);
#249=ORIENTED_EDGE('',*,*,#190,.T.);
#250=ORIENTED_EDGE('',*,*,#197,.T.);
#251=ORIENTED_EDGE('',*,*,#198,.T.);
#252=ORIENTED_EDGE('',*,*,#197,.F.);
#253=ORIENTED_EDGE('',*,*,#198,.F.);
#254=ORIENTED_EDGE('',*,*,#199,.T.);
#255=ORIENTED_EDGE('',*,*,#200,.T.);
#256=ORIENTED_EDGE('',*,*,#199,.F.);
#257=ORIENTED_EDGE('',*,*,#189,.T.);
#258=ORIENTED_EDGE('',*,*,#201,.T.);
#259=ORIENTED_EDGE('',*,*,#202,.T.);
#260=ORIENTED_EDGE('',*,*,#201,.F.);
#261=ORIENTED_EDGE('',*,*,#202,.F.);
#262=ORIENTED_EDGE('',*,*,#203,.T.);
#263=ORIENTED_EDGE('',*,*,#204,.T.);
#264=ORIENTED_EDGE('',*,*,#203,.F.);
#265=ORIENTED_EDGE('',*,*,#205,.T.);
#266=ORIENTED_EDGE('',*,*,#206,.T.);
#267=ORIENTED_EDGE('',*,*,#187,.F.);
#268=ORIENTED_EDGE('',*,*,#207,.F.);
#269=ORIENTED_EDGE('',*,*,#208,.T.);
#270=ORIENTED_EDGE('',*,*,#207,.T.);
#271=ORIENTED_EDGE('',*,*,#186,.F.);
#272=ORIENTED_EDGE('',*,*,#209,.F.);
#273=ORIENTED_EDGE('',*,*,#210,.T.);
#274=ORIENTED_EDGE('',*,*,#209,.T.);
#275=ORIENTED_EDGE('',*,*,#185,.F.);
#276=ORIENTED_EDGE('',*,*,#211,.F.);
#277=ORIENTED_EDGE('',*,*,#212,.T.);
#278=ORIENTED_EDGE('',*,*,#211,.T.);
#279=ORIENTED_EDGE('',*,*,#184,.F.);
#280=ORIENTED_EDGE('',*,*,#213,.F.);
#281=ORIENTED_EDGE('',*,*,#214,.T.);
#282=ORIENTED_EDGE('',*,*,#213,.T.);
#283=ORIENTED_EDGE('',*,*,#183,.F.);
#284=ORIENTED_EDGE('',*,*,#215,.F.);
#285=ORIENTED_EDGE('',*,*,#216,.T.);
#286=ORIENTED_EDGE('',*,*,#215,.T.);
#287=ORIENTED_EDGE('',*,*,#182,.F.);
#288=ORIENTED_EDGE('',*,*,#217,.F.);
#289=ORIENTED_EDGE('',*,*,#218,.T.);
#290=ORIENTED_EDGE('',*,*,#217,.T.);
#291=ORIENTED_EDGE('',*,*,#181,.F.);
#292=ORIENTED_EDGE('',*,*,#219,.F.);
#293=ORIENTED_EDGE('',*,*,#220,.T.);
#294=ORIENTED_EDGE('',*,*,#219,.T.);
#295=ORIENTED_EDGE('',*,*,#180,.F.);
#296=ORIENTED_EDGE('',*,*,#206,.F.);
#297=ORIENTED_EDGE('',*,*,#220,.F.);
#298=ORIENTED_EDGE('',*,*,#205,.F.);
#299=ORIENTED_EDGE('',*,*,#208,.F.);
#300=ORIENTED_EDGE('',*,*,#210,.F.);
#301=ORIENTED_EDGE('',*,*,#212,.F.);
#302=ORIENTED_EDGE('',*,*,#214,.F.);
#303=ORIENTED_EDGE('',*,*,#216,.F.);
#304=ORIENTED_EDGE('',*,*,#218,.F.);
#305=ORIENTED_EDGE('',*,*,#192,.F.);
#306=ORIENTED_EDGE('',*,*,#200,.F.);
#307=ORIENTED_EDGE('',*,*,#204,.F.);
#308=ORIENTED_EDGE('',*,*,#196,.F.);
#309=CONICAL_SURFACE('',#351,1.75,0.785398163397449);
#310=CONICAL_SURFACE('',#364,1.75,0.785398163397449);
#311=CONICAL_SURFACE('',#368,1.75,0.785398163397449);
#312=CONICAL_SURFACE('',#372,1.75,0.785398163397448);
#313=ADVANCED_FACE('',(#37),#309,.F.);
#314=ADVANCED_FACE('',(#38,#23,#24,#25,#26),#31,.T.);
#315=ADVANCED_FACE('',(#39),#15,.F.);
#316=ADVANCED_FACE('',(#40),#310,.F.);
#317=ADVANCED_FACE('',(#41),#16,.F.);
#318=ADVANCED_FACE('',(#42),#311,.F.);
#319=ADVANCED_FACE('',(#43),#17,.F.);
#320=ADVANCED_FACE('',(#44),#312,.F.);
#321=ADVANCED_FACE('',(#45),#18,.F.);
#322=ADVANCED_FACE('',(#46),#19,.T.);
#323=ADVANCED_FACE('',(#47),#32,.T.);
#324=ADVANCED_FACE('',(#48),#20,.T.);
#325=ADVANCED_FACE('',(#49),#33,.T.);
#326=ADVANCED_FACE('',(#50),#21,.T.);
#327=ADVANCED_FACE('',(#51),#34,.T.);
#328=ADVANCED_FACE('',(#52),#22,.T.);
#329=ADVANCED_FACE('',(#53),#35,.T.);
#330=ADVANCED_FACE('',(#54,#27,#28,#29,#30),#36,.F.);
#331=CLOSED_SHELL('',(#313,#314,#315,#316,#317,#318,#319,#320,#321,#322,
#323,#324,#325,#326,#327,#328,#329,#330));
#332=DERIVED_UNIT_ELEMENT(#334,1.);
#333=DERIVED_UNIT_ELEMENT(#587,3.);
#334=(
MASS_UNIT()
NAMED_UNIT(*)
SI_UNIT($,.GRAM.)
);
#335=DERIVED_UNIT((#332,#333));
#336=MEASURE_REPRESENTATION_ITEM('density measure',
POSITIVE_RATIO_MEASURE(7.15),#335);
#337=PROPERTY_DEFINITION_REPRESENTATION(#342,#339);
#338=PROPERTY_DEFINITION_REPRESENTATION(#343,#340);
#339=REPRESENTATION('material name',(#341),#584);
#340=REPRESENTATION('density',(#336),#584);
#341=DESCRIPTIVE_REPRESENTATION_ITEM('Iron, Cast','Iron, Cast');
#342=PROPERTY_DEFINITION('material property','material name',#594);
#343=PROPERTY_DEFINITION('material property','density of part',#594);
#344=DATE_TIME_ROLE('creation_date');
#345=APPLIED_DATE_AND_TIME_ASSIGNMENT(#346,#344,(#594));
#346=DATE_AND_TIME(#347,#348);
#347=CALENDAR_DATE(2026,10,7);
#348=LOCAL_TIME(5,51,11.,#349);
#349=COORDINATED_UNIVERSAL_TIME_OFFSET(0,0,.BEHIND.);
#350=AXIS2_PLACEMENT_3D('placement',#491,#389,#390);
#351=AXIS2_PLACEMENT_3D('',#492,#391,#392);
#352=AXIS2_PLACEMENT_3D('',#494,#393,#394);
#353=AXIS2_PLACEMENT_3D('',#497,#396,#397);
#354=AXIS2_PLACEMENT_3D('',#498,#398,#399);
#355=AXIS2_PLACEMENT_3D('',#503,#401,#402);
#356=AXIS2_PLACEMENT_3D('',#507,#404,#405);
#357=AXIS2_PLACEMENT_3D('',#511,#407,#408);
#358=AXIS2_PLACEMENT_3D('',#514,#410,#411);
#359=AXIS2_PLACEMENT_3D('',#516,#412,#413);
#360=AXIS2_PLACEMENT_3D('',#518,#414,#415);
#361=AXIS2_PLACEMENT_3D('',#520,#416,#417);
#362=AXIS2_PLACEMENT_3D('',#521,#418,#419);
#363=AXIS2_PLACEMENT_3D('',#524,#421,#422);
#364=AXIS2_PLACEMENT_3D('',#525,#423,#424);
#365=AXIS2_PLACEMENT_3D('',#528,#426,#427);
#366=AXIS2_PLACEMENT_3D('',#529,#428,#429);
#367=AXIS2_PLACEMENT_3D('',#532,#431,#432);
#368=AXIS2_PLACEMENT_3D('',#533,#433,#434);
#369=AXIS2_PLACEMENT_3D('',#536,#436,#437);
#370=AXIS2_PLACEMENT_3D('',#537,#438,#439);
#371=AXIS2_PLACEMENT_3D('',#540,#441,#442);
#372=AXIS2_PLACEMENT_3D('',#541,#443,#444);
#373=AXIS2_PLACEMENT_3D('',#544,#446,#447);
#374=AXIS2_PLACEMENT_3D('',#545,#448,#449);
#375=AXIS2_PLACEMENT_3D('',#548,#451,#452);
#376=AXIS2_PLACEMENT_3D('',#549,#453,#454);
#377=AXIS2_PLACEMENT_3D('',#552,#455,#456);
#378=AXIS2_PLACEMENT_3D('',#555,#459,#460);
#379=AXIS2_PLACEMENT_3D('',#559,#463,#464);
#380=AXIS2_PLACEMENT_3D('',#561,#465,#466);
#381=AXIS2_PLACEMENT_3D('',#563,#468,#469);
#382=AXIS2_PLACEMENT_3D('',#567,#472,#473);
#383=AXIS2_PLACEMENT_3D('',#569,#474,#475);
#384=AXIS2_PLACEMENT_3D('',#571,#477,#478);
#385=AXIS2_PLACEMENT_3D('',#575,#481,#482);
#386=AXIS2_PLACEMENT_3D('',#577,#483,#484);
#387=AXIS2_PLACEMENT_3D('',#579,#486,#487);
#388=AXIS2_PLACEMENT_3D('',#581,#489,#490);
#389=DIRECTION('axis',(0.,0.,1.));
#390=DIRECTION('refdir',(1.,0.,0.));
#391=DIRECTION('center_axis',(0.,0.,1.));
#392=DIRECTION('ref_axis',(-1.,0.,0.));
#393=DIRECTION('center_axis',(0.,0.,1.));
#394=DIRECTION('ref_axis',(-1.,0.,0.));
#395=DIRECTION('',(-0.707106781186548,-8.65956056235494E-17,-0.707106781186547));
#396=DIRECTION('center_axis',(0.,0.,-1.));
#397=DIRECTION('ref_axis',(-1.,0.,0.));
#398=DIRECTION('center_axis',(0.,0.,1.));
#399=DIRECTION('ref_axis',(1.,0.,0.));
#400=DIRECTION('',(0.,-1.,0.));
#401=DIRECTION('center_axis',(0.,0.,1.));
#402=DIRECTION('ref_axis',(-1.,-2.6645352591003E-14,0.));
#403=DIRECTION('',(1.,0.,0.));
#404=DIRECTION('center_axis',(0.,0.,1.));
#405=DIRECTION('ref_axis',(8.88178419700117E-15,-1.,0.));
#406=DIRECTION('',(0.,1.,0.));
#407=DIRECTION('center_axis',(0.,0.,1.));
#408=DIRECTION('ref_axis',(1.,0.,0.));
#409=DIRECTION('',(-1.,-7.04903507698512E-17,0.));
#410=DIRECTION('center_axis',(0.,0.,1.));
#411=DIRECTION('ref_axis',(8.88178419700132E-15,1.,0.));
#412=DIRECTION('center_axis',(0.,0.,1.));
#413=DIRECTION('ref_axis',(-1.,0.,0.));
#414=DIRECTION('center_axis',(0.,0.,1.));
#415=DIRECTION('ref_axis',(-1.,0.,0.));
#416=DIRECTION('center_axis',(0.,0.,1.));
#417=DIRECTION('ref_axis',(-1.,0.,0.));
#418=DIRECTION('center_axis',(0.,0.,1.));
#419=DIRECTION('ref_axis',(-1.,0.,0.));
#420=DIRECTION('',(0.,0.,-1.));
#421=DIRECTION('center_axis',(0.,0.,-1.));
#422=DIRECTION('ref_axis',(-1.,0.,0.));
#423=DIRECTION('center_axis',(0.,0.,1.));
#424=DIRECTION('ref_axis',(-1.,0.,0.));
#425=DIRECTION('',(-0.707106781186548,-8.65956056235494E-17,-0.707106781186547));
#426=DIRECTION('center_axis',(0.,0.,-1.));
#427=DIRECTION('ref_axis',(-1.,0.,0.));
#428=DIRECTION('center_axis',(0.,0.,1.));
#429=DIRECTION('ref_axis',(-1.,0.,0.));
#430=DIRECTION('',(0.,0.,-1.));
#431=DIRECTION('center_axis',(0.,0.,-1.));
#432=DIRECTION('ref_axis',(-1.,0.,0.));
#433=DIRECTION('center_axis',(0.,0.,1.));
#434=DIRECTION('ref_axis',(-1.,0.,0.));
#435=DIRECTION('',(-0.707106781186548,-8.65956056235494E-17,-0.707106781186547));
#436=DIRECTION('center_axis',(0.,0.,-1.));
#437=DIRECTION('ref_axis',(-1.,0.,0.));
#438=DIRECTION('center_axis',(0.,0.,1.));
#439=DIRECTION('ref_axis',(-1.,0.,0.));
#440=DIRECTION('',(0.,0.,-1.));
#441=DIRECTION('center_axis',(0.,0.,-1.));
#442=DIRECTION('ref_axis',(-1.,0.,0.));
#443=DIRECTION('center_axis',(0.,0.,1.));
#444=DIRECTION('ref_axis',(-1.,0.,0.));
#445=DIRECTION('',(-0.707106781186547,-8.65956056235493E-17,-0.707106781186548));
#446=DIRECTION('center_axis',(0.,0.,-1.));
#447=DIRECTION('ref_axis',(-1.,0.,0.));
#448=DIRECTION('center_axis',(0.,0.,1.));
#449=DIRECTION('ref_axis',(-1.,0.,0.));
#450=DIRECTION('',(0.,0.,-1.));
#451=DIRECTION('center_axis',(0.,0.,-1.));
#452=DIRECTION('ref_axis',(-1.,0.,0.));
#453=DIRECTION('center_axis',(0.,0.,1.));
#454=DIRECTION('ref_axis',(8.88178419700132E-15,1.,0.));
#455=DIRECTION('center_axis',(0.,0.,1.));
#456=DIRECTION('ref_axis',(8.88178419700132E-15,1.,0.));
#457=DIRECTION('',(0.,0.,1.));
#458=DIRECTION('',(0.,0.,1.));
#459=DIRECTION('center_axis',(-7.04903507698512E-17,1.,0.));
#460=DIRECTION('ref_axis',(-1.,-7.04903507698512E-17,0.));
#461=DIRECTION('',(-1.,-7.04903507698512E-17,0.));
#462=DIRECTION('',(0.,0.,1.));
#463=DIRECTION('center_axis',(0.,0.,1.));
#464=DIRECTION('ref_axis',(1.,0.,0.));
#465=DIRECTION('center_axis',(0.,0.,1.));
#466=DIRECTION('ref_axis',(1.,0.,0.));
#467=DIRECTION('',(0.,0.,1.));
#468=DIRECTION('center_axis',(1.,0.,0.));
#469=DIRECTION('ref_axis',(0.,1.,0.));
#470=DIRECTION('',(0.,1.,0.));
#471=DIRECTION('',(0.,0.,1.));
#472=DIRECTION('center_axis',(0.,0.,1.));
#473=DIRECTION('ref_axis',(8.88178419700117E-15,-1.,0.));
#474=DIRECTION('center_axis',(0.,0.,1.));
#475=DIRECTION('ref_axis',(8.88178419700117E-15,-1.,0.));
#476=DIRECTION('',(0.,0.,1.));
#477=DIRECTION('center_axis',(0.,-1.,0.));
#478=DIRECTION('ref_axis',(1.,0.,0.));
#479=DIRECTION('',(1.,0.,0.));
#480=DIRECTION('',(0.,0.,1.));
#481=DIRECTION('center_axis',(0.,0.,1.));
#482=DIRECTION('ref_axis',(-1.,-2.6645352591003E-14,0.));
#483=DIRECTION('center_axis',(0.,0.,1.));
#484=DIRECTION('ref_axis',(-1.,-2.6645352591003E-14,0.));
#485=DIRECTION('',(0.,0.,1.));
#486=DIRECTION('center_axis',(-1.,0.,0.));
#487=DIRECTION('ref_axis',(0.,-1.,0.));
#488=DIRECTION('',(0.,-1.,0.));
#489=DIRECTION('center_axis',(0.,0.,1.));
#490=DIRECTION('ref_axis',(1.,0.,0.));
#491=CARTESIAN_POINT('',(0.,0.,0.));
#492=CARTESIAN_POINT('Origin',(16.5,-4.,2.25));
#493=CARTESIAN_POINT('',(19.,-4.,3.));
#494=CARTESIAN_POINT('Origin',(16.5,-4.,3.));
#495=CARTESIAN_POINT('',(17.5,-4.,1.5));
#496=CARTESIAN_POINT('',(18.25,-4.,2.25));
#497=CARTESIAN_POINT('Origin',(16.5,-4.,1.5));
#498=CARTESIAN_POINT('Origin',(0.,4.44089209850063E-15,3.));
#499=CARTESIAN_POINT('',(-65.,63.,3.));
#500=CARTESIAN_POINT('',(-65.,-63.,3.));
#501=CARTESIAN_POINT('',(-65.,63.,3.));
#502=CARTESIAN_POINT('',(-63.,-65.,3.));
#503=CARTESIAN_POINT('Origin',(-62.9999999999999,-62.9999999999999,3.));
#504=CARTESIAN_POINT('',(63.,-65.,3.));
#505=CARTESIAN_POINT('',(-63.,-65.,3.));
#506=CARTESIAN_POINT('',(65.,-63.,3.));
#507=CARTESIAN_POINT('Origin',(63.,-63.,3.));
#508=CARTESIAN_POINT('',(65.,63.,3.));
#509=CARTESIAN_POINT('',(65.,-63.,3.));
#510=CARTESIAN_POINT('',(63.,65.,3.));
#511=CARTESIAN_POINT('Origin',(63.,63.,3.));
#512=CARTESIAN_POINT('',(-63.,65.,3.));
#513=CARTESIAN_POINT('',(63.,65.,3.));
#514=CARTESIAN_POINT('Origin',(-63.,63.,3.));
#515=CARTESIAN_POINT('',(19.,4.,3.));
#516=CARTESIAN_POINT('Origin',(16.5,4.,3.));
#517=CARTESIAN_POINT('',(-14.,4.,3.));
#518=CARTESIAN_POINT('Origin',(-16.5,4.,3.));
#519=CARTESIAN_POINT('',(-14.,-4.,3.));
#520=CARTESIAN_POINT('Origin',(-16.5,-4.,3.));
#521=CARTESIAN_POINT('Origin',(16.5,-4.,0.));
#522=CARTESIAN_POINT('',(17.5,-4.,0.));
#523=CARTESIAN_POINT('',(17.5,-4.,0.));
#524=CARTESIAN_POINT('Origin',(16.5,-4.,0.));
#525=CARTESIAN_POINT('Origin',(16.5,4.,2.25));
#526=CARTESIAN_POINT('',(17.5,4.,1.5));
#527=CARTESIAN_POINT('',(18.25,4.,2.25));
#528=CARTESIAN_POINT('Origin',(16.5,4.,1.5));
#529=CARTESIAN_POINT('Origin',(16.5,4.,0.));
#530=CARTESIAN_POINT('',(17.5,4.,0.));
#531=CARTESIAN_POINT('',(17.5,4.,0.));
#532=CARTESIAN_POINT('Origin',(16.5,4.,0.));
#533=CARTESIAN_POINT('Origin',(-16.5,-4.,2.25));
#534=CARTESIAN_POINT('',(-15.5,-4.,1.5));
#535=CARTESIAN_POINT('',(-14.75,-4.,2.25));
#536=CARTESIAN_POINT('Origin',(-16.5,-4.,1.5));
#537=CARTESIAN_POINT('Origin',(-16.5,-4.,0.));
#538=CARTESIAN_POINT('',(-15.5,-4.,0.));
#539=CARTESIAN_POINT('',(-15.5,-4.,0.));
#540=CARTESIAN_POINT('Origin',(-16.5,-4.,0.));
#541=CARTESIAN_POINT('Origin',(-16.5,4.,2.25));
#542=CARTESIAN_POINT('',(-15.5,4.,1.5));
#543=CARTESIAN_POINT('',(-14.75,4.,2.25));
#544=CARTESIAN_POINT('Origin',(-16.5,4.,1.5));
#545=CARTESIAN_POINT('Origin',(-16.5,4.,0.));
#546=CARTESIAN_POINT('',(-15.5,4.,0.));
#547=CARTESIAN_POINT('',(-15.5,4.,0.));
#548=CARTESIAN_POINT('Origin',(-16.5,4.,0.));
#549=CARTESIAN_POINT('Origin',(-63.,63.,0.));
#550=CARTESIAN_POINT('',(-63.,65.,0.));
#551=CARTESIAN_POINT('',(-65.,63.,0.));
#552=CARTESIAN_POINT('Origin',(-63.,63.,0.));
#553=CARTESIAN_POINT('',(-65.,63.,0.));
#554=CARTESIAN_POINT('',(-63.,65.,0.));
#555=CARTESIAN_POINT('Origin',(63.,65.,0.));
#556=CARTESIAN_POINT('',(63.,65.,0.));
#557=CARTESIAN_POINT('',(63.,65.,0.));
#558=CARTESIAN_POINT('',(63.,65.,0.));
#559=CARTESIAN_POINT('Origin',(63.,63.,0.));
#560=CARTESIAN_POINT('',(65.,63.,0.));
#561=CARTESIAN_POINT('Origin',(63.,63.,0.));
#562=CARTESIAN_POINT('',(65.,63.,0.));
#563=CARTESIAN_POINT('Origin',(65.,-63.,0.));
#564=CARTESIAN_POINT('',(65.,-63.,0.));
#565=CARTESIAN_POINT('',(65.,-63.,0.));
#566=CARTESIAN_POINT('',(65.,-63.,0.));
#567=CARTESIAN_POINT('Origin',(63.,-63.,0.));
#568=CARTESIAN_POINT('',(63.,-65.,0.));
#569=CARTESIAN_POINT('Origin',(63.,-63.,0.));
#570=CARTESIAN_POINT('',(63.,-65.,0.));
#571=CARTESIAN_POINT('Origin',(-63.,-65.,0.));
#572=CARTESIAN_POINT('',(-63.,-65.,0.));
#573=CARTESIAN_POINT('',(-63.,-65.,0.));
#574=CARTESIAN_POINT('',(-63.,-65.,0.));
#575=CARTESIAN_POINT('Origin',(-62.9999999999999,-62.9999999999999,0.));
#576=CARTESIAN_POINT('',(-65.,-63.,0.));
#577=CARTESIAN_POINT('Origin',(-62.9999999999999,-62.9999999999999,0.));
#578=CARTESIAN_POINT('',(-65.,-63.,0.));
#579=CARTESIAN_POINT('Origin',(-65.,63.,0.));
#580=CARTESIAN_POINT('',(-65.,63.,0.));
#581=CARTESIAN_POINT('Origin',(0.,4.44089209850063E-15,0.));
#582=UNCERTAINTY_MEASURE_WITH_UNIT(LENGTH_MEASURE(0.01),#586,
'DISTANCE_ACCURACY_VALUE',
'Maximum model space distance between geometric entities at asserted c
onnectivities');
#583=UNCERTAINTY_MEASURE_WITH_UNIT(LENGTH_MEASURE(0.01),#586,
'DISTANCE_ACCURACY_VALUE',
'Maximum model space distance between geometric entities at asserted c
onnectivities');
#584=(
GEOMETRIC_REPRESENTATION_CONTEXT(3)
GLOBAL_UNCERTAINTY_ASSIGNED_CONTEXT((#582))
GLOBAL_UNIT_ASSIGNED_CONTEXT((#586,#588,#589))
REPRESENTATION_CONTEXT('','3D')
);
#585=(
GEOMETRIC_REPRESENTATION_CONTEXT(3)
GLOBAL_UNCERTAINTY_ASSIGNED_CONTEXT((#583))
GLOBAL_UNIT_ASSIGNED_CONTEXT((#586,#588,#589))
REPRESENTATION_CONTEXT('','3D')
);
#586=(
LENGTH_UNIT()
NAMED_UNIT(*)
SI_UNIT(.MILLI.,.METRE.)
);
#587=(
LENGTH_UNIT()
NAMED_UNIT(*)
SI_UNIT(.CENTI.,.METRE.)
);
#588=(
NAMED_UNIT(*)
PLANE_ANGLE_UNIT()
SI_UNIT($,.RADIAN.)
);
#589=(
NAMED_UNIT(*)
SI_UNIT($,.STERADIAN.)
SOLID_ANGLE_UNIT()
);
#590=SHAPE_DEFINITION_REPRESENTATION(#591,#592);
#591=PRODUCT_DEFINITION_SHAPE('',$,#594);
#592=SHAPE_REPRESENTATION('',(#350),#584);
#593=PRODUCT_DEFINITION_CONTEXT('part definition',#598,'design');
#594=PRODUCT_DEFINITION('plate','plate',#595,#593);
#595=PRODUCT_DEFINITION_FORMATION('',$,#600);
#596=PRODUCT_RELATED_PRODUCT_CATEGORY('plate','plate',(#600));
#597=APPLICATION_PROTOCOL_DEFINITION('international standard',
'automotive_design',2009,#598);
#598=APPLICATION_CONTEXT(
'Core Data for Automotive Mechanical Design Process');
#599=PRODUCT_CONTEXT('part definition',#598,'mechanical');
#600=PRODUCT('plate','plate',$,(#599));
#601=PRESENTATION_STYLE_ASSIGNMENT((#602));
#602=SURFACE_STYLE_USAGE(.BOTH.,#605);
#603=SURFACE_STYLE_RENDERING_WITH_PROPERTIES($,#609,(#604));
#604=SURFACE_STYLE_TRANSPARENT(0.);
#605=SURFACE_SIDE_STYLE('',(#606,#603));
#606=SURFACE_STYLE_FILL_AREA(#607);
#607=FILL_AREA_STYLE('',(#608));
#608=FILL_AREA_STYLE_COLOUR('',#609);
#609=COLOUR_RGB('',0.647058823529412,0.67843137254902,0.694117647058824);
ENDSEC;
END-ISO-10303-21;
