ISO-10303-21;
HEADER;
/* Generated by software containing ST-Developer
 * from STEP Tools, Inc. (www.steptools.com) 
 */

FILE_DESCRIPTION(
/* description */ (''),
/* implementation_level */ '2;1');

FILE_NAME(
/* name */ 'C:\\Users\\drago\\OneDrive\\Ta\X2\0300\X0\i li\X\EA\X2\0323\X0\u
\\2axis CNC\\slider.stp',
/* time_stamp */ '2026-08-19T14:18:29+07:00',
/* author */ ('drago'),
/* organization */ (''),
/* preprocessor_version */ 'ST-DEVELOPER v18',
/* originating_system */ 'Autodesk Inventor 2020',
/* authorisation */ '');

FILE_SCHEMA (('AUTOMOTIVE_DESIGN { 1 0 10303 214 3 1 1 }'));
ENDSEC;

DATA;
#10=MECHANICAL_DESIGN_GEOMETRIC_PRESENTATION_REPRESENTATION('',(#13),#2209);
#11=SHAPE_REPRESENTATION_RELATIONSHIP('SRR','None',#2216,#12);
#12=ADVANCED_BREP_SHAPE_REPRESENTATION('',(#14),#2208);
#13=STYLED_ITEM('',(#2225),#14);
#14=MANIFOLD_SOLID_BREP('Solid1',#1239);
#15=CONICAL_SURFACE('',#1279,1.5,0.785398163397449);
#16=CONICAL_SURFACE('',#1285,1.5,0.785398163397449);
#17=CONICAL_SURFACE('',#1297,1.5,0.785398163397449);
#18=CONICAL_SURFACE('',#1308,1.5,0.785398163397449);
#19=CONICAL_SURFACE('',#1309,1.2,0.785398163397448);
#20=CONICAL_SURFACE('',#1318,1.2,0.785398163397448);
#21=CONICAL_SURFACE('',#1319,1.2,0.785398163397448);
#22=CONICAL_SURFACE('',#1334,1.2,0.785398163397448);
#23=CONICAL_SURFACE('',#1335,1.1,0.785398163397448);
#24=CONICAL_SURFACE('',#1340,1.1,0.785398163397448);
#25=CONICAL_SURFACE('',#1406,1.7,0.785398163397448);
#26=CONICAL_SURFACE('',#1409,1.7,0.785398163397448);
#27=CONICAL_SURFACE('',#1413,2.15,0.785398163397449);
#28=CONICAL_SURFACE('',#1417,2.15,0.785398163397449);
#29=CONICAL_SURFACE('',#1421,2.15,0.785398163397449);
#30=CONICAL_SURFACE('',#1425,2.15,0.785398163397449);
#31=FACE_BOUND('',#151,.T.);
#32=FACE_BOUND('',#153,.T.);
#33=FACE_BOUND('',#161,.T.);
#34=FACE_BOUND('',#163,.T.);
#35=FACE_BOUND('',#172,.T.);
#36=FACE_BOUND('',#173,.T.);
#37=FACE_BOUND('',#177,.T.);
#38=FACE_BOUND('',#178,.T.);
#39=FACE_BOUND('',#179,.T.);
#40=FACE_BOUND('',#180,.T.);
#41=FACE_BOUND('',#181,.T.);
#42=FACE_BOUND('',#182,.T.);
#43=FACE_BOUND('',#199,.T.);
#44=FACE_BOUND('',#200,.T.);
#45=FACE_BOUND('',#203,.T.);
#46=FACE_BOUND('',#212,.T.);
#47=FACE_BOUND('',#213,.T.);
#48=FACE_BOUND('',#214,.T.);
#49=FACE_BOUND('',#223,.T.);
#50=FACE_BOUND('',#224,.T.);
#51=FACE_BOUND('',#225,.T.);
#52=FACE_BOUND('',#226,.T.);
#53=FACE_BOUND('',#229,.T.);
#54=PLANE('',#1273);
#55=PLANE('',#1276);
#56=PLANE('',#1284);
#57=PLANE('',#1290);
#58=PLANE('',#1291);
#59=PLANE('',#1294);
#60=PLANE('',#1302);
#61=PLANE('',#1303);
#62=PLANE('',#1311);
#63=PLANE('',#1321);
#64=PLANE('',#1346);
#65=PLANE('',#1353);
#66=PLANE('',#1358);
#67=PLANE('',#1363);
#68=PLANE('',#1364);
#69=PLANE('',#1365);
#70=PLANE('',#1366);
#71=PLANE('',#1372);
#72=PLANE('',#1381);
#73=PLANE('',#1384);
#74=PLANE('',#1387);
#75=PLANE('',#1392);
#76=PLANE('',#1397);
#77=PLANE('',#1407);
#78=FACE_OUTER_BOUND('',#147,.T.);
#79=FACE_OUTER_BOUND('',#148,.T.);
#80=FACE_OUTER_BOUND('',#149,.T.);
#81=FACE_OUTER_BOUND('',#150,.T.);
#82=FACE_OUTER_BOUND('',#152,.T.);
#83=FACE_OUTER_BOUND('',#154,.T.);
#84=FACE_OUTER_BOUND('',#155,.T.);
#85=FACE_OUTER_BOUND('',#156,.T.);
#86=FACE_OUTER_BOUND('',#157,.T.);
#87=FACE_OUTER_BOUND('',#158,.T.);
#88=FACE_OUTER_BOUND('',#159,.T.);
#89=FACE_OUTER_BOUND('',#160,.T.);
#90=FACE_OUTER_BOUND('',#162,.T.);
#91=FACE_OUTER_BOUND('',#164,.T.);
#92=FACE_OUTER_BOUND('',#165,.T.);
#93=FACE_OUTER_BOUND('',#166,.T.);
#94=FACE_OUTER_BOUND('',#167,.T.);
#95=FACE_OUTER_BOUND('',#168,.T.);
#96=FACE_OUTER_BOUND('',#169,.T.);
#97=FACE_OUTER_BOUND('',#170,.T.);
#98=FACE_OUTER_BOUND('',#171,.T.);
#99=FACE_OUTER_BOUND('',#174,.T.);
#100=FACE_OUTER_BOUND('',#175,.T.);
#101=FACE_OUTER_BOUND('',#176,.T.);
#102=FACE_OUTER_BOUND('',#183,.T.);
#103=FACE_OUTER_BOUND('',#184,.T.);
#104=FACE_OUTER_BOUND('',#185,.T.);
#105=FACE_OUTER_BOUND('',#186,.T.);
#106=FACE_OUTER_BOUND('',#187,.T.);
#107=FACE_OUTER_BOUND('',#188,.T.);
#108=FACE_OUTER_BOUND('',#189,.T.);
#109=FACE_OUTER_BOUND('',#190,.T.);
#110=FACE_OUTER_BOUND('',#191,.T.);
#111=FACE_OUTER_BOUND('',#192,.T.);
#112=FACE_OUTER_BOUND('',#193,.T.);
#113=FACE_OUTER_BOUND('',#194,.T.);
#114=FACE_OUTER_BOUND('',#195,.T.);
#115=FACE_OUTER_BOUND('',#196,.T.);
#116=FACE_OUTER_BOUND('',#197,.T.);
#117=FACE_OUTER_BOUND('',#198,.T.);
#118=FACE_OUTER_BOUND('',#201,.T.);
#119=FACE_OUTER_BOUND('',#202,.T.);
#120=FACE_OUTER_BOUND('',#204,.T.);
#121=FACE_OUTER_BOUND('',#205,.T.);
#122=FACE_OUTER_BOUND('',#206,.T.);
#123=FACE_OUTER_BOUND('',#207,.T.);
#124=FACE_OUTER_BOUND('',#208,.T.);
#125=FACE_OUTER_BOUND('',#209,.T.);
#126=FACE_OUTER_BOUND('',#210,.T.);
#127=FACE_OUTER_BOUND('',#211,.T.);
#128=FACE_OUTER_BOUND('',#215,.T.);
#129=FACE_OUTER_BOUND('',#216,.T.);
#130=FACE_OUTER_BOUND('',#217,.T.);
#131=FACE_OUTER_BOUND('',#218,.T.);
#132=FACE_OUTER_BOUND('',#219,.T.);
#133=FACE_OUTER_BOUND('',#220,.T.);
#134=FACE_OUTER_BOUND('',#221,.T.);
#135=FACE_OUTER_BOUND('',#222,.T.);
#136=FACE_OUTER_BOUND('',#227,.T.);
#137=FACE_OUTER_BOUND('',#228,.T.);
#138=FACE_OUTER_BOUND('',#230,.T.);
#139=FACE_OUTER_BOUND('',#231,.T.);
#140=FACE_OUTER_BOUND('',#232,.T.);
#141=FACE_OUTER_BOUND('',#233,.T.);
#142=FACE_OUTER_BOUND('',#234,.T.);
#143=FACE_OUTER_BOUND('',#235,.T.);
#144=FACE_OUTER_BOUND('',#236,.T.);
#145=FACE_OUTER_BOUND('',#237,.T.);
#146=FACE_OUTER_BOUND('',#238,.T.);
#147=EDGE_LOOP('',(#789,#790,#791,#792,#793));
#148=EDGE_LOOP('',(#794,#795,#796,#797,#798,#799));
#149=EDGE_LOOP('',(#800,#801,#802,#803,#804,#805));
#150=EDGE_LOOP('',(#806));
#151=EDGE_LOOP('',(#807));
#152=EDGE_LOOP('',(#808));
#153=EDGE_LOOP('',(#809));
#154=EDGE_LOOP('',(#810,#811,#812,#813));
#155=EDGE_LOOP('',(#814,#815,#816,#817,#818));
#156=EDGE_LOOP('',(#819,#820));
#157=EDGE_LOOP('',(#821,#822,#823,#824));
#158=EDGE_LOOP('',(#825,#826,#827,#828,#829));
#159=EDGE_LOOP('',(#830,#831));
#160=EDGE_LOOP('',(#832));
#161=EDGE_LOOP('',(#833));
#162=EDGE_LOOP('',(#834));
#163=EDGE_LOOP('',(#835));
#164=EDGE_LOOP('',(#836,#837,#838,#839));
#165=EDGE_LOOP('',(#840,#841,#842,#843,#844));
#166=EDGE_LOOP('',(#845,#846));
#167=EDGE_LOOP('',(#847,#848));
#168=EDGE_LOOP('',(#849,#850,#851,#852,#853));
#169=EDGE_LOOP('',(#854,#855,#856,#857));
#170=EDGE_LOOP('',(#858,#859,#860,#861,#862));
#171=EDGE_LOOP('',(#863,#864,#865,#866,#867,#868,#869,#870));
#172=EDGE_LOOP('',(#871));
#173=EDGE_LOOP('',(#872));
#174=EDGE_LOOP('',(#873,#874,#875,#876,#877));
#175=EDGE_LOOP('',(#878,#879,#880,#881,#882));
#176=EDGE_LOOP('',(#883,#884,#885,#886,#887,#888,#889,#890,#891,#892));
#177=EDGE_LOOP('',(#893));
#178=EDGE_LOOP('',(#894));
#179=EDGE_LOOP('',(#895));
#180=EDGE_LOOP('',(#896));
#181=EDGE_LOOP('',(#897));
#182=EDGE_LOOP('',(#898));
#183=EDGE_LOOP('',(#899,#900,#901,#902,#903));
#184=EDGE_LOOP('',(#904,#905,#906,#907,#908));
#185=EDGE_LOOP('',(#909,#910,#911,#912,#913));
#186=EDGE_LOOP('',(#914,#915,#916,#917,#918));
#187=EDGE_LOOP('',(#919,#920,#921,#922,#923,#924));
#188=EDGE_LOOP('',(#925,#926));
#189=EDGE_LOOP('',(#927,#928,#929,#930));
#190=EDGE_LOOP('',(#931,#932,#933,#934));
#191=EDGE_LOOP('',(#935,#936,#937,#938));
#192=EDGE_LOOP('',(#939,#940,#941,#942));
#193=EDGE_LOOP('',(#943,#944,#945,#946));
#194=EDGE_LOOP('',(#947,#948,#949,#950,#951));
#195=EDGE_LOOP('',(#952,#953));
#196=EDGE_LOOP('',(#954,#955,#956,#957,#958));
#197=EDGE_LOOP('',(#959,#960));
#198=EDGE_LOOP('',(#961,#962,#963,#964));
#199=EDGE_LOOP('',(#965));
#200=EDGE_LOOP('',(#966));
#201=EDGE_LOOP('',(#967,#968,#969,#970));
#202=EDGE_LOOP('',(#971,#972,#973,#974,#975,#976,#977,#978,#979,#980,#981,
#982,#983));
#203=EDGE_LOOP('',(#984));
#204=EDGE_LOOP('',(#985,#986,#987,#988));
#205=EDGE_LOOP('',(#989,#990,#991,#992));
#206=EDGE_LOOP('',(#993,#994,#995,#996));
#207=EDGE_LOOP('',(#997,#998,#999,#1000));
#208=EDGE_LOOP('',(#1001,#1002,#1003,#1004));
#209=EDGE_LOOP('',(#1005,#1006,#1007,#1008,#1009));
#210=EDGE_LOOP('',(#1010,#1011,#1012,#1013,#1014));
#211=EDGE_LOOP('',(#1015,#1016,#1017,#1018,#1019,#1020,#1021,#1022));
#212=EDGE_LOOP('',(#1023));
#213=EDGE_LOOP('',(#1024,#1025));
#214=EDGE_LOOP('',(#1026,#1027));
#215=EDGE_LOOP('',(#1028,#1029,#1030,#1031,#1032,#1033));
#216=EDGE_LOOP('',(#1034,#1035,#1036,#1037));
#217=EDGE_LOOP('',(#1038,#1039,#1040,#1041));
#218=EDGE_LOOP('',(#1042,#1043,#1044,#1045));
#219=EDGE_LOOP('',(#1046,#1047,#1048,#1049));
#220=EDGE_LOOP('',(#1050,#1051,#1052,#1053));
#221=EDGE_LOOP('',(#1054,#1055,#1056,#1057));
#222=EDGE_LOOP('',(#1058,#1059,#1060,#1061,#1062,#1063,#1064,#1065));
#223=EDGE_LOOP('',(#1066,#1067));
#224=EDGE_LOOP('',(#1068,#1069));
#225=EDGE_LOOP('',(#1070,#1071));
#226=EDGE_LOOP('',(#1072,#1073));
#227=EDGE_LOOP('',(#1074,#1075,#1076,#1077));
#228=EDGE_LOOP('',(#1078,#1079,#1080,#1081,#1082,#1083,#1084,#1085,#1086,
#1087,#1088,#1089,#1090));
#229=EDGE_LOOP('',(#1091));
#230=EDGE_LOOP('',(#1092,#1093,#1094,#1095,#1096));
#231=EDGE_LOOP('',(#1097,#1098,#1099,#1100,#1101,#1102));
#232=EDGE_LOOP('',(#1103,#1104,#1105,#1106,#1107));
#233=EDGE_LOOP('',(#1108,#1109,#1110,#1111,#1112,#1113));
#234=EDGE_LOOP('',(#1114,#1115,#1116,#1117,#1118));
#235=EDGE_LOOP('',(#1119,#1120,#1121,#1122,#1123,#1124));
#236=EDGE_LOOP('',(#1125,#1126,#1127,#1128,#1129));
#237=EDGE_LOOP('',(#1130,#1131,#1132,#1133,#1134,#1135));
#238=EDGE_LOOP('',(#1136,#1137,#1138,#1139,#1140));
#239=LINE('',#1846,#317);
#240=LINE('',#1854,#318);
#241=LINE('',#1864,#319);
#242=LINE('',#1881,#320);
#243=LINE('',#1885,#321);
#244=LINE('',#1892,#322);
#245=LINE('',#1896,#323);
#246=LINE('',#1913,#324);
#247=LINE('',#1917,#325);
#248=LINE('',#1930,#326);
#249=LINE('',#1932,#327);
#250=LINE('',#1936,#328);
#251=LINE('',#1944,#329);
#252=LINE('',#1946,#330);
#253=LINE('',#1948,#331);
#254=LINE('',#1957,#332);
#255=LINE('',#1961,#333);
#256=LINE('',#1973,#334);
#257=LINE('',#1977,#335);
#258=LINE('',#1981,#336);
#259=LINE('',#1994,#337);
#260=LINE('',#1997,#338);
#261=LINE('',#2003,#339);
#262=LINE('',#2007,#340);
#263=LINE('',#2013,#341);
#264=LINE('',#2019,#342);
#265=LINE('',#2020,#343);
#266=LINE('',#2022,#344);
#267=LINE('',#2024,#345);
#268=LINE('',#2030,#346);
#269=LINE('',#2033,#347);
#270=LINE('',#2036,#348);
#271=LINE('',#2038,#349);
#272=LINE('',#2039,#350);
#273=LINE('',#2044,#351);
#274=LINE('',#2053,#352);
#275=LINE('',#2061,#353);
#276=LINE('',#2062,#354);
#277=LINE('',#2063,#355);
#278=LINE('',#2065,#356);
#279=LINE('',#2066,#357);
#280=LINE('',#2069,#358);
#281=LINE('',#2071,#359);
#282=LINE('',#2073,#360);
#283=LINE('',#2075,#361);
#284=LINE('',#2077,#362);
#285=LINE('',#2078,#363);
#286=LINE('',#2079,#364);
#287=LINE('',#2083,#365);
#288=LINE('',#2089,#366);
#289=LINE('',#2090,#367);
#290=LINE('',#2093,#368);
#291=LINE('',#2094,#369);
#292=LINE('',#2102,#370);
#293=LINE('',#2108,#371);
#294=LINE('',#2113,#372);
#295=LINE('',#2116,#373);
#296=LINE('',#2119,#374);
#297=LINE('',#2123,#375);
#298=LINE('',#2127,#376);
#299=LINE('',#2129,#377);
#300=LINE('',#2130,#378);
#301=LINE('',#2134,#379);
#302=LINE('',#2137,#380);
#303=LINE('',#2140,#381);
#304=LINE('',#2143,#382);
#305=LINE('',#2144,#383);
#306=LINE('',#2150,#384);
#307=LINE('',#2168,#385);
#308=LINE('',#2173,#386);
#309=LINE('',#2179,#387);
#310=LINE('',#2181,#388);
#311=LINE('',#2187,#389);
#312=LINE('',#2189,#390);
#313=LINE('',#2195,#391);
#314=LINE('',#2197,#392);
#315=LINE('',#2203,#393);
#316=LINE('',#2205,#394);
#317=VECTOR('',#1432,1.55);
#318=VECTOR('',#1441,1.0375);
#319=VECTOR('',#1452,1.0375);
#320=VECTOR('',#1473,1.5);
#321=VECTOR('',#1478,1.4);
#322=VECTOR('',#1487,1.5);
#323=VECTOR('',#1492,1.4);
#324=VECTOR('',#1513,1.5);
#325=VECTOR('',#1518,1.4);
#326=VECTOR('',#1535,1.4);
#327=VECTOR('',#1538,1.5);
#328=VECTOR('',#1543,1.2);
#329=VECTOR('',#1550,10.);
#330=VECTOR('',#1551,10.);
#331=VECTOR('',#1552,10.);
#332=VECTOR('',#1563,1.2);
#333=VECTOR('',#1568,1.2);
#334=VECTOR('',#1579,10.);
#335=VECTOR('',#1582,10.);
#336=VECTOR('',#1585,10.);
#337=VECTOR('',#1600,1.2);
#338=VECTOR('',#1603,1.1);
#339=VECTOR('',#1610,0.9);
#340=VECTOR('',#1615,1.1);
#341=VECTOR('',#1622,0.899999999999999);
#342=VECTOR('',#1631,1.);
#343=VECTOR('',#1632,1.);
#344=VECTOR('',#1635,1.);
#345=VECTOR('',#1638,1.);
#346=VECTOR('',#1643,10.);
#347=VECTOR('',#1646,10.);
#348=VECTOR('',#1649,10.);
#349=VECTOR('',#1650,10.);
#350=VECTOR('',#1651,10.);
#351=VECTOR('',#1656,0.900000000000001);
#352=VECTOR('',#1667,0.9);
#353=VECTOR('',#1676,10.);
#354=VECTOR('',#1677,10.);
#355=VECTOR('',#1678,10.);
#356=VECTOR('',#1681,10.);
#357=VECTOR('',#1682,10.);
#358=VECTOR('',#1685,10.);
#359=VECTOR('',#1686,10.);
#360=VECTOR('',#1687,10.);
#361=VECTOR('',#1688,10.);
#362=VECTOR('',#1689,10.);
#363=VECTOR('',#1690,10.);
#364=VECTOR('',#1691,10.);
#365=VECTOR('',#1696,10.);
#366=VECTOR('',#1703,10.);
#367=VECTOR('',#1704,10.);
#368=VECTOR('',#1707,10.);
#369=VECTOR('',#1708,10.);
#370=VECTOR('',#1719,0.9);
#371=VECTOR('',#1726,0.9);
#372=VECTOR('',#1731,10.);
#373=VECTOR('',#1734,10.);
#374=VECTOR('',#1737,10.);
#375=VECTOR('',#1740,10.);
#376=VECTOR('',#1745,10.);
#377=VECTOR('',#1746,10.);
#378=VECTOR('',#1747,10.);
#379=VECTOR('',#1752,10.);
#380=VECTOR('',#1755,10.);
#381=VECTOR('',#1758,10.);
#382=VECTOR('',#1761,10.);
#383=VECTOR('',#1762,10.);
#384=VECTOR('',#1773,10.);
#385=VECTOR('',#1792,1.7);
#386=VECTOR('',#1799,1.7);
#387=VECTOR('',#1806,2.25);
#388=VECTOR('',#1809,2.15);
#389=VECTOR('',#1816,2.25);
#390=VECTOR('',#1819,2.15);
#391=VECTOR('',#1826,2.25);
#392=VECTOR('',#1829,2.15);
#393=VECTOR('',#1836,2.25);
#394=VECTOR('',#1839,2.15);
#395=CIRCLE('',#1260,1.55);
#396=CIRCLE('',#1261,1.55);
#397=CIRCLE('',#1262,1.55);
#398=CIRCLE('',#1264,1.0375);
#399=CIRCLE('',#1265,1.0375);
#400=CIRCLE('',#1266,1.0375);
#401=CIRCLE('',#1267,1.0375);
#402=CIRCLE('',#1269,1.0375);
#403=CIRCLE('',#1270,1.0375);
#404=CIRCLE('',#1271,1.0375);
#405=CIRCLE('',#1272,1.0375);
#406=CIRCLE('',#1274,2.05);
#407=CIRCLE('',#1275,1.6);
#408=CIRCLE('',#1277,2.05);
#409=CIRCLE('',#1278,1.6);
#410=CIRCLE('',#1280,1.4);
#411=CIRCLE('',#1282,1.4);
#412=CIRCLE('',#1283,1.4);
#413=CIRCLE('',#1286,1.4);
#414=CIRCLE('',#1288,1.4);
#415=CIRCLE('',#1289,1.4);
#416=CIRCLE('',#1292,2.05);
#417=CIRCLE('',#1293,1.6);
#418=CIRCLE('',#1295,2.05);
#419=CIRCLE('',#1296,1.6);
#420=CIRCLE('',#1298,1.4);
#421=CIRCLE('',#1300,1.4);
#422=CIRCLE('',#1301,1.4);
#423=CIRCLE('',#1304,1.4);
#424=CIRCLE('',#1305,1.4);
#425=CIRCLE('',#1307,1.4);
#426=CIRCLE('',#1310,1.4);
#427=CIRCLE('',#1312,1.);
#428=CIRCLE('',#1313,2.5);
#429=CIRCLE('',#1314,2.5);
#430=CIRCLE('',#1315,1.);
#431=CIRCLE('',#1316,6.5);
#432=CIRCLE('',#1317,1.4);
#433=CIRCLE('',#1320,1.4);
#434=CIRCLE('',#1322,1.);
#435=CIRCLE('',#1323,6.5);
#436=CIRCLE('',#1324,1.);
#437=CIRCLE('',#1325,2.5);
#438=CIRCLE('',#1326,2.);
#439=CIRCLE('',#1327,2.);
#440=CIRCLE('',#1328,2.5);
#441=CIRCLE('',#1329,1.4);
#442=CIRCLE('',#1330,1.3);
#443=CIRCLE('',#1331,0.9);
#444=CIRCLE('',#1332,0.9);
#445=CIRCLE('',#1333,1.3);
#446=CIRCLE('',#1336,0.9);
#447=CIRCLE('',#1337,0.9);
#448=CIRCLE('',#1339,0.9);
#449=CIRCLE('',#1341,0.899999999999999);
#450=CIRCLE('',#1342,0.899999999999999);
#451=CIRCLE('',#1344,0.899999999999999);
#452=CIRCLE('',#1345,0.899999999999999);
#453=CIRCLE('',#1351,1.);
#454=CIRCLE('',#1352,1.);
#455=CIRCLE('',#1355,0.900000000000001);
#456=CIRCLE('',#1356,0.900000000000001);
#457=CIRCLE('',#1357,0.900000000000001);
#458=CIRCLE('',#1360,0.9);
#459=CIRCLE('',#1361,0.9);
#460=CIRCLE('',#1362,0.9);
#461=CIRCLE('',#1367,1.95);
#462=CIRCLE('',#1371,2.);
#463=CIRCLE('',#1374,2.);
#464=CIRCLE('',#1376,0.9);
#465=CIRCLE('',#1377,0.9);
#466=CIRCLE('',#1379,0.9);
#467=CIRCLE('',#1380,0.9);
#468=CIRCLE('',#1382,2.);
#469=CIRCLE('',#1383,2.);
#470=CIRCLE('',#1385,2.);
#471=CIRCLE('',#1386,2.);
#472=CIRCLE('',#1389,2.);
#473=CIRCLE('',#1391,2.);
#474=CIRCLE('',#1394,2.);
#475=CIRCLE('',#1396,2.);
#476=CIRCLE('',#1398,2.25);
#477=CIRCLE('',#1399,2.25);
#478=CIRCLE('',#1400,2.25);
#479=CIRCLE('',#1401,2.25);
#480=CIRCLE('',#1402,2.25);
#481=CIRCLE('',#1403,2.25);
#482=CIRCLE('',#1404,2.25);
#483=CIRCLE('',#1405,2.25);
#484=CIRCLE('',#1408,1.95);
#485=CIRCLE('',#1411,2.25);
#486=CIRCLE('',#1412,2.25);
#487=CIRCLE('',#1415,2.25);
#488=CIRCLE('',#1416,2.25);
#489=CIRCLE('',#1419,2.25);
#490=CIRCLE('',#1420,2.25);
#491=CIRCLE('',#1423,2.25);
#492=CIRCLE('',#1424,2.25);
#493=VERTEX_POINT('',#1842);
#494=VERTEX_POINT('',#1843);
#495=VERTEX_POINT('',#1845);
#496=VERTEX_POINT('',#1850);
#497=VERTEX_POINT('',#1851);
#498=VERTEX_POINT('',#1853);
#499=VERTEX_POINT('',#1855);
#500=VERTEX_POINT('',#1860);
#501=VERTEX_POINT('',#1861);
#502=VERTEX_POINT('',#1863);
#503=VERTEX_POINT('',#1865);
#504=VERTEX_POINT('',#1870);
#505=VERTEX_POINT('',#1872);
#506=VERTEX_POINT('',#1875);
#507=VERTEX_POINT('',#1877);
#508=VERTEX_POINT('',#1880);
#509=VERTEX_POINT('',#1884);
#510=VERTEX_POINT('',#1886);
#511=VERTEX_POINT('',#1891);
#512=VERTEX_POINT('',#1895);
#513=VERTEX_POINT('',#1897);
#514=VERTEX_POINT('',#1902);
#515=VERTEX_POINT('',#1904);
#516=VERTEX_POINT('',#1907);
#517=VERTEX_POINT('',#1909);
#518=VERTEX_POINT('',#1912);
#519=VERTEX_POINT('',#1916);
#520=VERTEX_POINT('',#1918);
#521=VERTEX_POINT('',#1923);
#522=VERTEX_POINT('',#1924);
#523=VERTEX_POINT('',#1928);
#524=VERTEX_POINT('',#1934);
#525=VERTEX_POINT('',#1938);
#526=VERTEX_POINT('',#1939);
#527=VERTEX_POINT('',#1941);
#528=VERTEX_POINT('',#1943);
#529=VERTEX_POINT('',#1945);
#530=VERTEX_POINT('',#1947);
#531=VERTEX_POINT('',#1949);
#532=VERTEX_POINT('',#1951);
#533=VERTEX_POINT('',#1954);
#534=VERTEX_POINT('',#1959);
#535=VERTEX_POINT('',#1963);
#536=VERTEX_POINT('',#1964);
#537=VERTEX_POINT('',#1966);
#538=VERTEX_POINT('',#1968);
#539=VERTEX_POINT('',#1970);
#540=VERTEX_POINT('',#1972);
#541=VERTEX_POINT('',#1974);
#542=VERTEX_POINT('',#1976);
#543=VERTEX_POINT('',#1978);
#544=VERTEX_POINT('',#1980);
#545=VERTEX_POINT('',#1983);
#546=VERTEX_POINT('',#1985);
#547=VERTEX_POINT('',#1987);
#548=VERTEX_POINT('',#1989);
#549=VERTEX_POINT('',#1991);
#550=VERTEX_POINT('',#1996);
#551=VERTEX_POINT('',#1998);
#552=VERTEX_POINT('',#2002);
#553=VERTEX_POINT('',#2006);
#554=VERTEX_POINT('',#2008);
#555=VERTEX_POINT('',#2012);
#556=VERTEX_POINT('',#2014);
#557=VERTEX_POINT('',#2026);
#558=VERTEX_POINT('',#2027);
#559=VERTEX_POINT('',#2029);
#560=VERTEX_POINT('',#2031);
#561=VERTEX_POINT('',#2035);
#562=VERTEX_POINT('',#2037);
#563=VERTEX_POINT('',#2041);
#564=VERTEX_POINT('',#2043);
#565=VERTEX_POINT('',#2045);
#566=VERTEX_POINT('',#2050);
#567=VERTEX_POINT('',#2052);
#568=VERTEX_POINT('',#2054);
#569=VERTEX_POINT('',#2059);
#570=VERTEX_POINT('',#2060);
#571=VERTEX_POINT('',#2068);
#572=VERTEX_POINT('',#2070);
#573=VERTEX_POINT('',#2072);
#574=VERTEX_POINT('',#2074);
#575=VERTEX_POINT('',#2076);
#576=VERTEX_POINT('',#2080);
#577=VERTEX_POINT('',#2086);
#578=VERTEX_POINT('',#2087);
#579=VERTEX_POINT('',#2092);
#580=VERTEX_POINT('',#2098);
#581=VERTEX_POINT('',#2099);
#582=VERTEX_POINT('',#2104);
#583=VERTEX_POINT('',#2105);
#584=VERTEX_POINT('',#2110);
#585=VERTEX_POINT('',#2112);
#586=VERTEX_POINT('',#2114);
#587=VERTEX_POINT('',#2118);
#588=VERTEX_POINT('',#2120);
#589=VERTEX_POINT('',#2122);
#590=VERTEX_POINT('',#2126);
#591=VERTEX_POINT('',#2128);
#592=VERTEX_POINT('',#2132);
#593=VERTEX_POINT('',#2136);
#594=VERTEX_POINT('',#2138);
#595=VERTEX_POINT('',#2142);
#596=VERTEX_POINT('',#2151);
#597=VERTEX_POINT('',#2152);
#598=VERTEX_POINT('',#2155);
#599=VERTEX_POINT('',#2156);
#600=VERTEX_POINT('',#2159);
#601=VERTEX_POINT('',#2160);
#602=VERTEX_POINT('',#2163);
#603=VERTEX_POINT('',#2164);
#604=VERTEX_POINT('',#2170);
#605=VERTEX_POINT('',#2175);
#606=VERTEX_POINT('',#2176);
#607=VERTEX_POINT('',#2183);
#608=VERTEX_POINT('',#2184);
#609=VERTEX_POINT('',#2191);
#610=VERTEX_POINT('',#2192);
#611=VERTEX_POINT('',#2199);
#612=VERTEX_POINT('',#2200);
#613=EDGE_CURVE('',#493,#494,#395,.T.);
#614=EDGE_CURVE('',#493,#495,#239,.T.);
#615=EDGE_CURVE('',#495,#495,#396,.T.);
#616=EDGE_CURVE('',#494,#493,#397,.T.);
#617=EDGE_CURVE('',#496,#497,#398,.T.);
#618=EDGE_CURVE('',#496,#498,#240,.T.);
#619=EDGE_CURVE('',#499,#498,#399,.T.);
#620=EDGE_CURVE('',#498,#499,#400,.T.);
#621=EDGE_CURVE('',#497,#496,#401,.T.);
#622=EDGE_CURVE('',#500,#501,#402,.T.);
#623=EDGE_CURVE('',#500,#502,#241,.T.);
#624=EDGE_CURVE('',#503,#502,#403,.T.);
#625=EDGE_CURVE('',#502,#503,#404,.T.);
#626=EDGE_CURVE('',#501,#500,#405,.T.);
#627=EDGE_CURVE('',#504,#504,#406,.T.);
#628=EDGE_CURVE('',#505,#505,#407,.T.);
#629=EDGE_CURVE('',#506,#506,#408,.T.);
#630=EDGE_CURVE('',#507,#507,#409,.T.);
#631=EDGE_CURVE('',#505,#508,#242,.T.);
#632=EDGE_CURVE('',#508,#508,#410,.T.);
#633=EDGE_CURVE('',#508,#509,#243,.T.);
#634=EDGE_CURVE('',#509,#510,#411,.T.);
#635=EDGE_CURVE('',#510,#509,#412,.T.);
#636=EDGE_CURVE('',#507,#511,#244,.T.);
#637=EDGE_CURVE('',#511,#511,#413,.T.);
#638=EDGE_CURVE('',#511,#512,#245,.T.);
#639=EDGE_CURVE('',#512,#513,#414,.T.);
#640=EDGE_CURVE('',#513,#512,#415,.T.);
#641=EDGE_CURVE('',#514,#514,#416,.T.);
#642=EDGE_CURVE('',#515,#515,#417,.T.);
#643=EDGE_CURVE('',#516,#516,#418,.T.);
#644=EDGE_CURVE('',#517,#517,#419,.T.);
#645=EDGE_CURVE('',#517,#518,#246,.T.);
#646=EDGE_CURVE('',#518,#518,#420,.T.);
#647=EDGE_CURVE('',#518,#519,#247,.T.);
#648=EDGE_CURVE('',#519,#520,#421,.T.);
#649=EDGE_CURVE('',#520,#519,#422,.T.);
#650=EDGE_CURVE('',#521,#522,#423,.T.);
#651=EDGE_CURVE('',#522,#521,#424,.T.);
#652=EDGE_CURVE('',#523,#523,#425,.T.);
#653=EDGE_CURVE('',#523,#522,#248,.T.);
#654=EDGE_CURVE('',#515,#523,#249,.T.);
#655=EDGE_CURVE('',#524,#524,#426,.T.);
#656=EDGE_CURVE('',#524,#499,#250,.T.);
#657=EDGE_CURVE('',#525,#526,#427,.T.);
#658=EDGE_CURVE('',#525,#527,#428,.T.);
#659=EDGE_CURVE('',#527,#528,#251,.T.);
#660=EDGE_CURVE('',#529,#528,#252,.T.);
#661=EDGE_CURVE('',#529,#530,#253,.T.);
#662=EDGE_CURVE('',#530,#531,#429,.T.);
#663=EDGE_CURVE('',#532,#531,#430,.T.);
#664=EDGE_CURVE('',#532,#526,#431,.T.);
#665=EDGE_CURVE('',#533,#533,#432,.T.);
#666=EDGE_CURVE('',#533,#503,#254,.T.);
#667=EDGE_CURVE('',#534,#534,#433,.T.);
#668=EDGE_CURVE('',#534,#497,#255,.T.);
#669=EDGE_CURVE('',#535,#536,#434,.T.);
#670=EDGE_CURVE('',#535,#537,#435,.T.);
#671=EDGE_CURVE('',#538,#537,#436,.T.);
#672=EDGE_CURVE('',#538,#539,#437,.T.);
#673=EDGE_CURVE('',#539,#540,#256,.T.);
#674=EDGE_CURVE('',#541,#540,#438,.T.);
#675=EDGE_CURVE('',#541,#542,#257,.T.);
#676=EDGE_CURVE('',#543,#542,#439,.T.);
#677=EDGE_CURVE('',#543,#544,#258,.T.);
#678=EDGE_CURVE('',#544,#536,#440,.T.);
#679=EDGE_CURVE('',#545,#545,#441,.T.);
#680=EDGE_CURVE('',#546,#546,#442,.T.);
#681=EDGE_CURVE('',#547,#547,#443,.T.);
#682=EDGE_CURVE('',#548,#548,#444,.T.);
#683=EDGE_CURVE('',#549,#549,#445,.T.);
#684=EDGE_CURVE('',#545,#501,#259,.T.);
#685=EDGE_CURVE('',#549,#550,#260,.T.);
#686=EDGE_CURVE('',#550,#551,#446,.T.);
#687=EDGE_CURVE('',#551,#550,#447,.T.);
#688=EDGE_CURVE('',#551,#552,#261,.T.);
#689=EDGE_CURVE('',#552,#552,#448,.T.);
#690=EDGE_CURVE('',#546,#553,#262,.T.);
#691=EDGE_CURVE('',#553,#554,#449,.T.);
#692=EDGE_CURVE('',#554,#553,#450,.T.);
#693=EDGE_CURVE('',#554,#555,#263,.T.);
#694=EDGE_CURVE('',#555,#556,#451,.T.);
#695=EDGE_CURVE('',#556,#555,#452,.T.);
#696=EDGE_CURVE('',#526,#535,#264,.T.);
#697=EDGE_CURVE('',#536,#525,#265,.T.);
#698=EDGE_CURVE('',#537,#532,#266,.T.);
#699=EDGE_CURVE('',#531,#538,#267,.T.);
#700=EDGE_CURVE('',#557,#558,#453,.T.);
#701=EDGE_CURVE('',#558,#559,#268,.T.);
#702=EDGE_CURVE('',#559,#560,#454,.T.);
#703=EDGE_CURVE('',#560,#557,#269,.T.);
#704=EDGE_CURVE('',#561,#558,#270,.T.);
#705=EDGE_CURVE('',#561,#562,#271,.T.);
#706=EDGE_CURVE('',#559,#562,#272,.T.);
#707=EDGE_CURVE('',#563,#563,#455,.T.);
#708=EDGE_CURVE('',#563,#564,#273,.T.);
#709=EDGE_CURVE('',#564,#565,#456,.T.);
#710=EDGE_CURVE('',#565,#564,#457,.T.);
#711=EDGE_CURVE('',#566,#566,#458,.T.);
#712=EDGE_CURVE('',#566,#567,#274,.T.);
#713=EDGE_CURVE('',#567,#568,#459,.T.);
#714=EDGE_CURVE('',#568,#567,#460,.T.);
#715=EDGE_CURVE('',#569,#570,#275,.T.);
#716=EDGE_CURVE('',#562,#569,#276,.T.);
#717=EDGE_CURVE('',#570,#561,#277,.T.);
#718=EDGE_CURVE('',#529,#570,#278,.T.);
#719=EDGE_CURVE('',#528,#569,#279,.T.);
#720=EDGE_CURVE('',#571,#557,#280,.T.);
#721=EDGE_CURVE('',#572,#571,#281,.T.);
#722=EDGE_CURVE('',#573,#572,#282,.T.);
#723=EDGE_CURVE('',#573,#574,#283,.T.);
#724=EDGE_CURVE('',#575,#574,#284,.T.);
#725=EDGE_CURVE('',#540,#575,#285,.T.);
#726=EDGE_CURVE('',#539,#530,#286,.T.);
#727=EDGE_CURVE('',#576,#576,#461,.T.);
#728=EDGE_CURVE('',#544,#527,#287,.T.);
#729=EDGE_CURVE('',#577,#578,#462,.T.);
#730=EDGE_CURVE('',#578,#543,#288,.T.);
#731=EDGE_CURVE('',#542,#577,#289,.T.);
#732=EDGE_CURVE('',#579,#541,#290,.T.);
#733=EDGE_CURVE('',#577,#579,#291,.T.);
#734=EDGE_CURVE('',#575,#579,#463,.T.);
#735=EDGE_CURVE('',#580,#581,#464,.T.);
#736=EDGE_CURVE('',#581,#580,#465,.T.);
#737=EDGE_CURVE('',#581,#547,#292,.T.);
#738=EDGE_CURVE('',#582,#583,#466,.T.);
#739=EDGE_CURVE('',#583,#582,#467,.T.);
#740=EDGE_CURVE('',#583,#548,#293,.T.);
#741=EDGE_CURVE('',#584,#574,#468,.T.);
#742=EDGE_CURVE('',#585,#584,#294,.T.);
#743=EDGE_CURVE('',#586,#585,#469,.T.);
#744=EDGE_CURVE('',#586,#578,#295,.T.);
#745=EDGE_CURVE('',#560,#587,#296,.T.);
#746=EDGE_CURVE('',#588,#587,#470,.T.);
#747=EDGE_CURVE('',#589,#588,#297,.T.);
#748=EDGE_CURVE('',#571,#589,#471,.T.);
#749=EDGE_CURVE('',#590,#584,#298,.T.);
#750=EDGE_CURVE('',#591,#590,#299,.T.);
#751=EDGE_CURVE('',#591,#585,#300,.T.);
#752=EDGE_CURVE('',#592,#591,#472,.T.);
#753=EDGE_CURVE('',#592,#586,#301,.T.);
#754=EDGE_CURVE('',#593,#587,#302,.T.);
#755=EDGE_CURVE('',#594,#593,#473,.T.);
#756=EDGE_CURVE('',#594,#588,#303,.T.);
#757=EDGE_CURVE('',#595,#594,#304,.T.);
#758=EDGE_CURVE('',#595,#589,#305,.T.);
#759=EDGE_CURVE('',#572,#595,#474,.T.);
#760=EDGE_CURVE('',#590,#573,#475,.T.);
#761=EDGE_CURVE('',#593,#592,#306,.T.);
#762=EDGE_CURVE('',#596,#597,#476,.T.);
#763=EDGE_CURVE('',#597,#596,#477,.T.);
#764=EDGE_CURVE('',#598,#599,#478,.T.);
#765=EDGE_CURVE('',#599,#598,#479,.T.);
#766=EDGE_CURVE('',#600,#601,#480,.T.);
#767=EDGE_CURVE('',#601,#600,#481,.T.);
#768=EDGE_CURVE('',#602,#603,#482,.T.);
#769=EDGE_CURVE('',#603,#602,#483,.T.);
#770=EDGE_CURVE('',#576,#495,#307,.T.);
#771=EDGE_CURVE('',#604,#604,#484,.T.);
#772=EDGE_CURVE('',#604,#494,#308,.T.);
#773=EDGE_CURVE('',#605,#606,#485,.T.);
#774=EDGE_CURVE('',#606,#605,#486,.T.);
#775=EDGE_CURVE('',#606,#601,#309,.T.);
#776=EDGE_CURVE('',#504,#605,#310,.T.);
#777=EDGE_CURVE('',#607,#608,#487,.T.);
#778=EDGE_CURVE('',#608,#607,#488,.T.);
#779=EDGE_CURVE('',#608,#597,#311,.T.);
#780=EDGE_CURVE('',#514,#607,#312,.T.);
#781=EDGE_CURVE('',#609,#610,#489,.T.);
#782=EDGE_CURVE('',#610,#609,#490,.T.);
#783=EDGE_CURVE('',#610,#603,#313,.T.);
#784=EDGE_CURVE('',#516,#609,#314,.T.);
#785=EDGE_CURVE('',#611,#612,#491,.T.);
#786=EDGE_CURVE('',#612,#611,#492,.T.);
#787=EDGE_CURVE('',#612,#599,#315,.T.);
#788=EDGE_CURVE('',#506,#611,#316,.T.);
#789=ORIENTED_EDGE('',*,*,#613,.F.);
#790=ORIENTED_EDGE('',*,*,#614,.T.);
#791=ORIENTED_EDGE('',*,*,#615,.F.);
#792=ORIENTED_EDGE('',*,*,#614,.F.);
#793=ORIENTED_EDGE('',*,*,#616,.F.);
#794=ORIENTED_EDGE('',*,*,#617,.F.);
#795=ORIENTED_EDGE('',*,*,#618,.T.);
#796=ORIENTED_EDGE('',*,*,#619,.F.);
#797=ORIENTED_EDGE('',*,*,#620,.F.);
#798=ORIENTED_EDGE('',*,*,#618,.F.);
#799=ORIENTED_EDGE('',*,*,#621,.F.);
#800=ORIENTED_EDGE('',*,*,#622,.F.);
#801=ORIENTED_EDGE('',*,*,#623,.T.);
#802=ORIENTED_EDGE('',*,*,#624,.F.);
#803=ORIENTED_EDGE('',*,*,#625,.F.);
#804=ORIENTED_EDGE('',*,*,#623,.F.);
#805=ORIENTED_EDGE('',*,*,#626,.F.);
#806=ORIENTED_EDGE('',*,*,#627,.F.);
#807=ORIENTED_EDGE('',*,*,#628,.F.);
#808=ORIENTED_EDGE('',*,*,#629,.F.);
#809=ORIENTED_EDGE('',*,*,#630,.F.);
#810=ORIENTED_EDGE('',*,*,#628,.T.);
#811=ORIENTED_EDGE('',*,*,#631,.T.);
#812=ORIENTED_EDGE('',*,*,#632,.T.);
#813=ORIENTED_EDGE('',*,*,#631,.F.);
#814=ORIENTED_EDGE('',*,*,#632,.F.);
#815=ORIENTED_EDGE('',*,*,#633,.T.);
#816=ORIENTED_EDGE('',*,*,#634,.T.);
#817=ORIENTED_EDGE('',*,*,#635,.T.);
#818=ORIENTED_EDGE('',*,*,#633,.F.);
#819=ORIENTED_EDGE('',*,*,#635,.F.);
#820=ORIENTED_EDGE('',*,*,#634,.F.);
#821=ORIENTED_EDGE('',*,*,#630,.T.);
#822=ORIENTED_EDGE('',*,*,#636,.T.);
#823=ORIENTED_EDGE('',*,*,#637,.T.);
#824=ORIENTED_EDGE('',*,*,#636,.F.);
#825=ORIENTED_EDGE('',*,*,#637,.F.);
#826=ORIENTED_EDGE('',*,*,#638,.T.);
#827=ORIENTED_EDGE('',*,*,#639,.T.);
#828=ORIENTED_EDGE('',*,*,#640,.T.);
#829=ORIENTED_EDGE('',*,*,#638,.F.);
#830=ORIENTED_EDGE('',*,*,#640,.F.);
#831=ORIENTED_EDGE('',*,*,#639,.F.);
#832=ORIENTED_EDGE('',*,*,#641,.F.);
#833=ORIENTED_EDGE('',*,*,#642,.F.);
#834=ORIENTED_EDGE('',*,*,#643,.F.);
#835=ORIENTED_EDGE('',*,*,#644,.F.);
#836=ORIENTED_EDGE('',*,*,#644,.T.);
#837=ORIENTED_EDGE('',*,*,#645,.T.);
#838=ORIENTED_EDGE('',*,*,#646,.T.);
#839=ORIENTED_EDGE('',*,*,#645,.F.);
#840=ORIENTED_EDGE('',*,*,#646,.F.);
#841=ORIENTED_EDGE('',*,*,#647,.T.);
#842=ORIENTED_EDGE('',*,*,#648,.T.);
#843=ORIENTED_EDGE('',*,*,#649,.T.);
#844=ORIENTED_EDGE('',*,*,#647,.F.);
#845=ORIENTED_EDGE('',*,*,#649,.F.);
#846=ORIENTED_EDGE('',*,*,#648,.F.);
#847=ORIENTED_EDGE('',*,*,#650,.F.);
#848=ORIENTED_EDGE('',*,*,#651,.F.);
#849=ORIENTED_EDGE('',*,*,#652,.F.);
#850=ORIENTED_EDGE('',*,*,#653,.T.);
#851=ORIENTED_EDGE('',*,*,#651,.T.);
#852=ORIENTED_EDGE('',*,*,#650,.T.);
#853=ORIENTED_EDGE('',*,*,#653,.F.);
#854=ORIENTED_EDGE('',*,*,#642,.T.);
#855=ORIENTED_EDGE('',*,*,#654,.T.);
#856=ORIENTED_EDGE('',*,*,#652,.T.);
#857=ORIENTED_EDGE('',*,*,#654,.F.);
#858=ORIENTED_EDGE('',*,*,#655,.T.);
#859=ORIENTED_EDGE('',*,*,#656,.T.);
#860=ORIENTED_EDGE('',*,*,#619,.T.);
#861=ORIENTED_EDGE('',*,*,#620,.T.);
#862=ORIENTED_EDGE('',*,*,#656,.F.);
#863=ORIENTED_EDGE('',*,*,#657,.F.);
#864=ORIENTED_EDGE('',*,*,#658,.T.);
#865=ORIENTED_EDGE('',*,*,#659,.T.);
#866=ORIENTED_EDGE('',*,*,#660,.F.);
#867=ORIENTED_EDGE('',*,*,#661,.T.);
#868=ORIENTED_EDGE('',*,*,#662,.T.);
#869=ORIENTED_EDGE('',*,*,#663,.F.);
#870=ORIENTED_EDGE('',*,*,#664,.T.);
#871=ORIENTED_EDGE('',*,*,#665,.F.);
#872=ORIENTED_EDGE('',*,*,#655,.F.);
#873=ORIENTED_EDGE('',*,*,#665,.T.);
#874=ORIENTED_EDGE('',*,*,#666,.T.);
#875=ORIENTED_EDGE('',*,*,#624,.T.);
#876=ORIENTED_EDGE('',*,*,#625,.T.);
#877=ORIENTED_EDGE('',*,*,#666,.F.);
#878=ORIENTED_EDGE('',*,*,#667,.T.);
#879=ORIENTED_EDGE('',*,*,#668,.T.);
#880=ORIENTED_EDGE('',*,*,#621,.T.);
#881=ORIENTED_EDGE('',*,*,#617,.T.);
#882=ORIENTED_EDGE('',*,*,#668,.F.);
#883=ORIENTED_EDGE('',*,*,#669,.F.);
#884=ORIENTED_EDGE('',*,*,#670,.T.);
#885=ORIENTED_EDGE('',*,*,#671,.F.);
#886=ORIENTED_EDGE('',*,*,#672,.T.);
#887=ORIENTED_EDGE('',*,*,#673,.T.);
#888=ORIENTED_EDGE('',*,*,#674,.F.);
#889=ORIENTED_EDGE('',*,*,#675,.T.);
#890=ORIENTED_EDGE('',*,*,#676,.F.);
#891=ORIENTED_EDGE('',*,*,#677,.T.);
#892=ORIENTED_EDGE('',*,*,#678,.T.);
#893=ORIENTED_EDGE('',*,*,#679,.F.);
#894=ORIENTED_EDGE('',*,*,#680,.F.);
#895=ORIENTED_EDGE('',*,*,#681,.T.);
#896=ORIENTED_EDGE('',*,*,#682,.T.);
#897=ORIENTED_EDGE('',*,*,#683,.F.);
#898=ORIENTED_EDGE('',*,*,#667,.F.);
#899=ORIENTED_EDGE('',*,*,#679,.T.);
#900=ORIENTED_EDGE('',*,*,#684,.T.);
#901=ORIENTED_EDGE('',*,*,#626,.T.);
#902=ORIENTED_EDGE('',*,*,#622,.T.);
#903=ORIENTED_EDGE('',*,*,#684,.F.);
#904=ORIENTED_EDGE('',*,*,#683,.T.);
#905=ORIENTED_EDGE('',*,*,#685,.T.);
#906=ORIENTED_EDGE('',*,*,#686,.T.);
#907=ORIENTED_EDGE('',*,*,#687,.T.);
#908=ORIENTED_EDGE('',*,*,#685,.F.);
#909=ORIENTED_EDGE('',*,*,#686,.F.);
#910=ORIENTED_EDGE('',*,*,#687,.F.);
#911=ORIENTED_EDGE('',*,*,#688,.T.);
#912=ORIENTED_EDGE('',*,*,#689,.F.);
#913=ORIENTED_EDGE('',*,*,#688,.F.);
#914=ORIENTED_EDGE('',*,*,#680,.T.);
#915=ORIENTED_EDGE('',*,*,#690,.T.);
#916=ORIENTED_EDGE('',*,*,#691,.T.);
#917=ORIENTED_EDGE('',*,*,#692,.T.);
#918=ORIENTED_EDGE('',*,*,#690,.F.);
#919=ORIENTED_EDGE('',*,*,#691,.F.);
#920=ORIENTED_EDGE('',*,*,#692,.F.);
#921=ORIENTED_EDGE('',*,*,#693,.T.);
#922=ORIENTED_EDGE('',*,*,#694,.T.);
#923=ORIENTED_EDGE('',*,*,#695,.T.);
#924=ORIENTED_EDGE('',*,*,#693,.F.);
#925=ORIENTED_EDGE('',*,*,#695,.F.);
#926=ORIENTED_EDGE('',*,*,#694,.F.);
#927=ORIENTED_EDGE('',*,*,#657,.T.);
#928=ORIENTED_EDGE('',*,*,#696,.T.);
#929=ORIENTED_EDGE('',*,*,#669,.T.);
#930=ORIENTED_EDGE('',*,*,#697,.T.);
#931=ORIENTED_EDGE('',*,*,#696,.F.);
#932=ORIENTED_EDGE('',*,*,#664,.F.);
#933=ORIENTED_EDGE('',*,*,#698,.F.);
#934=ORIENTED_EDGE('',*,*,#670,.F.);
#935=ORIENTED_EDGE('',*,*,#671,.T.);
#936=ORIENTED_EDGE('',*,*,#698,.T.);
#937=ORIENTED_EDGE('',*,*,#663,.T.);
#938=ORIENTED_EDGE('',*,*,#699,.T.);
#939=ORIENTED_EDGE('',*,*,#700,.T.);
#940=ORIENTED_EDGE('',*,*,#701,.T.);
#941=ORIENTED_EDGE('',*,*,#702,.T.);
#942=ORIENTED_EDGE('',*,*,#703,.T.);
#943=ORIENTED_EDGE('',*,*,#701,.F.);
#944=ORIENTED_EDGE('',*,*,#704,.F.);
#945=ORIENTED_EDGE('',*,*,#705,.T.);
#946=ORIENTED_EDGE('',*,*,#706,.F.);
#947=ORIENTED_EDGE('',*,*,#707,.F.);
#948=ORIENTED_EDGE('',*,*,#708,.T.);
#949=ORIENTED_EDGE('',*,*,#709,.T.);
#950=ORIENTED_EDGE('',*,*,#710,.T.);
#951=ORIENTED_EDGE('',*,*,#708,.F.);
#952=ORIENTED_EDGE('',*,*,#710,.F.);
#953=ORIENTED_EDGE('',*,*,#709,.F.);
#954=ORIENTED_EDGE('',*,*,#711,.F.);
#955=ORIENTED_EDGE('',*,*,#712,.T.);
#956=ORIENTED_EDGE('',*,*,#713,.T.);
#957=ORIENTED_EDGE('',*,*,#714,.T.);
#958=ORIENTED_EDGE('',*,*,#712,.F.);
#959=ORIENTED_EDGE('',*,*,#714,.F.);
#960=ORIENTED_EDGE('',*,*,#713,.F.);
#961=ORIENTED_EDGE('',*,*,#715,.F.);
#962=ORIENTED_EDGE('',*,*,#716,.F.);
#963=ORIENTED_EDGE('',*,*,#705,.F.);
#964=ORIENTED_EDGE('',*,*,#717,.F.);
#965=ORIENTED_EDGE('',*,*,#707,.T.);
#966=ORIENTED_EDGE('',*,*,#711,.T.);
#967=ORIENTED_EDGE('',*,*,#715,.T.);
#968=ORIENTED_EDGE('',*,*,#718,.F.);
#969=ORIENTED_EDGE('',*,*,#660,.T.);
#970=ORIENTED_EDGE('',*,*,#719,.T.);
#971=ORIENTED_EDGE('',*,*,#717,.T.);
#972=ORIENTED_EDGE('',*,*,#704,.T.);
#973=ORIENTED_EDGE('',*,*,#700,.F.);
#974=ORIENTED_EDGE('',*,*,#720,.F.);
#975=ORIENTED_EDGE('',*,*,#721,.F.);
#976=ORIENTED_EDGE('',*,*,#722,.F.);
#977=ORIENTED_EDGE('',*,*,#723,.T.);
#978=ORIENTED_EDGE('',*,*,#724,.F.);
#979=ORIENTED_EDGE('',*,*,#725,.F.);
#980=ORIENTED_EDGE('',*,*,#673,.F.);
#981=ORIENTED_EDGE('',*,*,#726,.T.);
#982=ORIENTED_EDGE('',*,*,#661,.F.);
#983=ORIENTED_EDGE('',*,*,#718,.T.);
#984=ORIENTED_EDGE('',*,*,#727,.F.);
#985=ORIENTED_EDGE('',*,*,#697,.F.);
#986=ORIENTED_EDGE('',*,*,#678,.F.);
#987=ORIENTED_EDGE('',*,*,#728,.T.);
#988=ORIENTED_EDGE('',*,*,#658,.F.);
#989=ORIENTED_EDGE('',*,*,#699,.F.);
#990=ORIENTED_EDGE('',*,*,#662,.F.);
#991=ORIENTED_EDGE('',*,*,#726,.F.);
#992=ORIENTED_EDGE('',*,*,#672,.F.);
#993=ORIENTED_EDGE('',*,*,#729,.T.);
#994=ORIENTED_EDGE('',*,*,#730,.T.);
#995=ORIENTED_EDGE('',*,*,#676,.T.);
#996=ORIENTED_EDGE('',*,*,#731,.T.);
#997=ORIENTED_EDGE('',*,*,#731,.F.);
#998=ORIENTED_EDGE('',*,*,#675,.F.);
#999=ORIENTED_EDGE('',*,*,#732,.F.);
#1000=ORIENTED_EDGE('',*,*,#733,.F.);
#1001=ORIENTED_EDGE('',*,*,#734,.T.);
#1002=ORIENTED_EDGE('',*,*,#732,.T.);
#1003=ORIENTED_EDGE('',*,*,#674,.T.);
#1004=ORIENTED_EDGE('',*,*,#725,.T.);
#1005=ORIENTED_EDGE('',*,*,#735,.F.);
#1006=ORIENTED_EDGE('',*,*,#736,.F.);
#1007=ORIENTED_EDGE('',*,*,#737,.T.);
#1008=ORIENTED_EDGE('',*,*,#681,.F.);
#1009=ORIENTED_EDGE('',*,*,#737,.F.);
#1010=ORIENTED_EDGE('',*,*,#738,.F.);
#1011=ORIENTED_EDGE('',*,*,#739,.F.);
#1012=ORIENTED_EDGE('',*,*,#740,.T.);
#1013=ORIENTED_EDGE('',*,*,#682,.F.);
#1014=ORIENTED_EDGE('',*,*,#740,.F.);
#1015=ORIENTED_EDGE('',*,*,#729,.F.);
#1016=ORIENTED_EDGE('',*,*,#733,.T.);
#1017=ORIENTED_EDGE('',*,*,#734,.F.);
#1018=ORIENTED_EDGE('',*,*,#724,.T.);
#1019=ORIENTED_EDGE('',*,*,#741,.F.);
#1020=ORIENTED_EDGE('',*,*,#742,.F.);
#1021=ORIENTED_EDGE('',*,*,#743,.F.);
#1022=ORIENTED_EDGE('',*,*,#744,.T.);
#1023=ORIENTED_EDGE('',*,*,#689,.T.);
#1024=ORIENTED_EDGE('',*,*,#735,.T.);
#1025=ORIENTED_EDGE('',*,*,#736,.T.);
#1026=ORIENTED_EDGE('',*,*,#738,.T.);
#1027=ORIENTED_EDGE('',*,*,#739,.T.);
#1028=ORIENTED_EDGE('',*,*,#703,.F.);
#1029=ORIENTED_EDGE('',*,*,#745,.T.);
#1030=ORIENTED_EDGE('',*,*,#746,.F.);
#1031=ORIENTED_EDGE('',*,*,#747,.F.);
#1032=ORIENTED_EDGE('',*,*,#748,.F.);
#1033=ORIENTED_EDGE('',*,*,#720,.T.);
#1034=ORIENTED_EDGE('',*,*,#742,.T.);
#1035=ORIENTED_EDGE('',*,*,#749,.F.);
#1036=ORIENTED_EDGE('',*,*,#750,.F.);
#1037=ORIENTED_EDGE('',*,*,#751,.T.);
#1038=ORIENTED_EDGE('',*,*,#743,.T.);
#1039=ORIENTED_EDGE('',*,*,#751,.F.);
#1040=ORIENTED_EDGE('',*,*,#752,.F.);
#1041=ORIENTED_EDGE('',*,*,#753,.T.);
#1042=ORIENTED_EDGE('',*,*,#746,.T.);
#1043=ORIENTED_EDGE('',*,*,#754,.F.);
#1044=ORIENTED_EDGE('',*,*,#755,.F.);
#1045=ORIENTED_EDGE('',*,*,#756,.T.);
#1046=ORIENTED_EDGE('',*,*,#747,.T.);
#1047=ORIENTED_EDGE('',*,*,#756,.F.);
#1048=ORIENTED_EDGE('',*,*,#757,.F.);
#1049=ORIENTED_EDGE('',*,*,#758,.T.);
#1050=ORIENTED_EDGE('',*,*,#748,.T.);
#1051=ORIENTED_EDGE('',*,*,#758,.F.);
#1052=ORIENTED_EDGE('',*,*,#759,.F.);
#1053=ORIENTED_EDGE('',*,*,#721,.T.);
#1054=ORIENTED_EDGE('',*,*,#741,.T.);
#1055=ORIENTED_EDGE('',*,*,#723,.F.);
#1056=ORIENTED_EDGE('',*,*,#760,.F.);
#1057=ORIENTED_EDGE('',*,*,#749,.T.);
#1058=ORIENTED_EDGE('',*,*,#750,.T.);
#1059=ORIENTED_EDGE('',*,*,#760,.T.);
#1060=ORIENTED_EDGE('',*,*,#722,.T.);
#1061=ORIENTED_EDGE('',*,*,#759,.T.);
#1062=ORIENTED_EDGE('',*,*,#757,.T.);
#1063=ORIENTED_EDGE('',*,*,#755,.T.);
#1064=ORIENTED_EDGE('',*,*,#761,.T.);
#1065=ORIENTED_EDGE('',*,*,#752,.T.);
#1066=ORIENTED_EDGE('',*,*,#762,.F.);
#1067=ORIENTED_EDGE('',*,*,#763,.F.);
#1068=ORIENTED_EDGE('',*,*,#764,.F.);
#1069=ORIENTED_EDGE('',*,*,#765,.F.);
#1070=ORIENTED_EDGE('',*,*,#766,.F.);
#1071=ORIENTED_EDGE('',*,*,#767,.F.);
#1072=ORIENTED_EDGE('',*,*,#768,.F.);
#1073=ORIENTED_EDGE('',*,*,#769,.F.);
#1074=ORIENTED_EDGE('',*,*,#727,.T.);
#1075=ORIENTED_EDGE('',*,*,#770,.T.);
#1076=ORIENTED_EDGE('',*,*,#615,.T.);
#1077=ORIENTED_EDGE('',*,*,#770,.F.);
#1078=ORIENTED_EDGE('',*,*,#716,.T.);
#1079=ORIENTED_EDGE('',*,*,#719,.F.);
#1080=ORIENTED_EDGE('',*,*,#659,.F.);
#1081=ORIENTED_EDGE('',*,*,#728,.F.);
#1082=ORIENTED_EDGE('',*,*,#677,.F.);
#1083=ORIENTED_EDGE('',*,*,#730,.F.);
#1084=ORIENTED_EDGE('',*,*,#744,.F.);
#1085=ORIENTED_EDGE('',*,*,#753,.F.);
#1086=ORIENTED_EDGE('',*,*,#761,.F.);
#1087=ORIENTED_EDGE('',*,*,#754,.T.);
#1088=ORIENTED_EDGE('',*,*,#745,.F.);
#1089=ORIENTED_EDGE('',*,*,#702,.F.);
#1090=ORIENTED_EDGE('',*,*,#706,.T.);
#1091=ORIENTED_EDGE('',*,*,#771,.F.);
#1092=ORIENTED_EDGE('',*,*,#771,.T.);
#1093=ORIENTED_EDGE('',*,*,#772,.T.);
#1094=ORIENTED_EDGE('',*,*,#616,.T.);
#1095=ORIENTED_EDGE('',*,*,#613,.T.);
#1096=ORIENTED_EDGE('',*,*,#772,.F.);
#1097=ORIENTED_EDGE('',*,*,#773,.F.);
#1098=ORIENTED_EDGE('',*,*,#774,.F.);
#1099=ORIENTED_EDGE('',*,*,#775,.T.);
#1100=ORIENTED_EDGE('',*,*,#767,.T.);
#1101=ORIENTED_EDGE('',*,*,#766,.T.);
#1102=ORIENTED_EDGE('',*,*,#775,.F.);
#1103=ORIENTED_EDGE('',*,*,#627,.T.);
#1104=ORIENTED_EDGE('',*,*,#776,.T.);
#1105=ORIENTED_EDGE('',*,*,#773,.T.);
#1106=ORIENTED_EDGE('',*,*,#774,.T.);
#1107=ORIENTED_EDGE('',*,*,#776,.F.);
#1108=ORIENTED_EDGE('',*,*,#777,.F.);
#1109=ORIENTED_EDGE('',*,*,#778,.F.);
#1110=ORIENTED_EDGE('',*,*,#779,.T.);
#1111=ORIENTED_EDGE('',*,*,#763,.T.);
#1112=ORIENTED_EDGE('',*,*,#762,.T.);
#1113=ORIENTED_EDGE('',*,*,#779,.F.);
#1114=ORIENTED_EDGE('',*,*,#641,.T.);
#1115=ORIENTED_EDGE('',*,*,#780,.T.);
#1116=ORIENTED_EDGE('',*,*,#777,.T.);
#1117=ORIENTED_EDGE('',*,*,#778,.T.);
#1118=ORIENTED_EDGE('',*,*,#780,.F.);
#1119=ORIENTED_EDGE('',*,*,#781,.F.);
#1120=ORIENTED_EDGE('',*,*,#782,.F.);
#1121=ORIENTED_EDGE('',*,*,#783,.T.);
#1122=ORIENTED_EDGE('',*,*,#769,.T.);
#1123=ORIENTED_EDGE('',*,*,#768,.T.);
#1124=ORIENTED_EDGE('',*,*,#783,.F.);
#1125=ORIENTED_EDGE('',*,*,#643,.T.);
#1126=ORIENTED_EDGE('',*,*,#784,.T.);
#1127=ORIENTED_EDGE('',*,*,#781,.T.);
#1128=ORIENTED_EDGE('',*,*,#782,.T.);
#1129=ORIENTED_EDGE('',*,*,#784,.F.);
#1130=ORIENTED_EDGE('',*,*,#785,.F.);
#1131=ORIENTED_EDGE('',*,*,#786,.F.);
#1132=ORIENTED_EDGE('',*,*,#787,.T.);
#1133=ORIENTED_EDGE('',*,*,#765,.T.);
#1134=ORIENTED_EDGE('',*,*,#764,.T.);
#1135=ORIENTED_EDGE('',*,*,#787,.F.);
#1136=ORIENTED_EDGE('',*,*,#629,.T.);
#1137=ORIENTED_EDGE('',*,*,#788,.T.);
#1138=ORIENTED_EDGE('',*,*,#785,.T.);
#1139=ORIENTED_EDGE('',*,*,#786,.T.);
#1140=ORIENTED_EDGE('',*,*,#788,.F.);
#1141=CYLINDRICAL_SURFACE('',#1259,1.55);
#1142=CYLINDRICAL_SURFACE('',#1263,1.0375);
#1143=CYLINDRICAL_SURFACE('',#1268,1.0375);
#1144=CYLINDRICAL_SURFACE('',#1281,1.4);
#1145=CYLINDRICAL_SURFACE('',#1287,1.4);
#1146=CYLINDRICAL_SURFACE('',#1299,1.4);
#1147=CYLINDRICAL_SURFACE('',#1306,1.4);
#1148=CYLINDRICAL_SURFACE('',#1338,0.9);
#1149=CYLINDRICAL_SURFACE('',#1343,0.899999999999999);
#1150=CYLINDRICAL_SURFACE('',#1347,1.);
#1151=CYLINDRICAL_SURFACE('',#1348,6.5);
#1152=CYLINDRICAL_SURFACE('',#1349,1.);
#1153=CYLINDRICAL_SURFACE('',#1350,1.);
#1154=CYLINDRICAL_SURFACE('',#1354,0.900000000000001);
#1155=CYLINDRICAL_SURFACE('',#1359,0.9);
#1156=CYLINDRICAL_SURFACE('',#1368,2.5);
#1157=CYLINDRICAL_SURFACE('',#1369,2.5);
#1158=CYLINDRICAL_SURFACE('',#1370,2.);
#1159=CYLINDRICAL_SURFACE('',#1373,2.);
#1160=CYLINDRICAL_SURFACE('',#1375,0.9);
#1161=CYLINDRICAL_SURFACE('',#1378,0.9);
#1162=CYLINDRICAL_SURFACE('',#1388,2.);
#1163=CYLINDRICAL_SURFACE('',#1390,2.);
#1164=CYLINDRICAL_SURFACE('',#1393,2.);
#1165=CYLINDRICAL_SURFACE('',#1395,2.);
#1166=CYLINDRICAL_SURFACE('',#1410,2.25);
#1167=CYLINDRICAL_SURFACE('',#1414,2.25);
#1168=CYLINDRICAL_SURFACE('',#1418,2.25);
#1169=CYLINDRICAL_SURFACE('',#1422,2.25);
#1170=ADVANCED_FACE('',(#78),#1141,.F.);
#1171=ADVANCED_FACE('',(#79),#1142,.F.);
#1172=ADVANCED_FACE('',(#80),#1143,.F.);
#1173=ADVANCED_FACE('',(#81,#31),#54,.T.);
#1174=ADVANCED_FACE('',(#82,#32),#55,.T.);
#1175=ADVANCED_FACE('',(#83),#15,.F.);
#1176=ADVANCED_FACE('',(#84),#1144,.F.);
#1177=ADVANCED_FACE('',(#85),#56,.F.);
#1178=ADVANCED_FACE('',(#86),#16,.F.);
#1179=ADVANCED_FACE('',(#87),#1145,.F.);
#1180=ADVANCED_FACE('',(#88),#57,.F.);
#1181=ADVANCED_FACE('',(#89,#33),#58,.T.);
#1182=ADVANCED_FACE('',(#90,#34),#59,.T.);
#1183=ADVANCED_FACE('',(#91),#17,.F.);
#1184=ADVANCED_FACE('',(#92),#1146,.F.);
#1185=ADVANCED_FACE('',(#93),#60,.F.);
#1186=ADVANCED_FACE('',(#94),#61,.F.);
#1187=ADVANCED_FACE('',(#95),#1147,.F.);
#1188=ADVANCED_FACE('',(#96),#18,.F.);
#1189=ADVANCED_FACE('',(#97),#19,.F.);
#1190=ADVANCED_FACE('',(#98,#35,#36),#62,.F.);
#1191=ADVANCED_FACE('',(#99),#20,.F.);
#1192=ADVANCED_FACE('',(#100),#21,.F.);
#1193=ADVANCED_FACE('',(#101,#37,#38,#39,#40,#41,#42),#63,.F.);
#1194=ADVANCED_FACE('',(#102),#22,.F.);
#1195=ADVANCED_FACE('',(#103),#23,.F.);
#1196=ADVANCED_FACE('',(#104),#1148,.F.);
#1197=ADVANCED_FACE('',(#105),#24,.F.);
#1198=ADVANCED_FACE('',(#106),#1149,.F.);
#1199=ADVANCED_FACE('',(#107),#64,.T.);
#1200=ADVANCED_FACE('',(#108),#1150,.T.);
#1201=ADVANCED_FACE('',(#109),#1151,.F.);
#1202=ADVANCED_FACE('',(#110),#1152,.T.);
#1203=ADVANCED_FACE('',(#111),#1153,.F.);
#1204=ADVANCED_FACE('',(#112),#65,.F.);
#1205=ADVANCED_FACE('',(#113),#1154,.F.);
#1206=ADVANCED_FACE('',(#114),#66,.T.);
#1207=ADVANCED_FACE('',(#115),#1155,.F.);
#1208=ADVANCED_FACE('',(#116),#67,.T.);
#1209=ADVANCED_FACE('',(#117,#43,#44),#68,.F.);
#1210=ADVANCED_FACE('',(#118),#69,.T.);
#1211=ADVANCED_FACE('',(#119,#45),#70,.T.);
#1212=ADVANCED_FACE('',(#120),#1156,.T.);
#1213=ADVANCED_FACE('',(#121),#1157,.T.);
#1214=ADVANCED_FACE('',(#122),#1158,.T.);
#1215=ADVANCED_FACE('',(#123),#71,.T.);
#1216=ADVANCED_FACE('',(#124),#1159,.T.);
#1217=ADVANCED_FACE('',(#125),#1160,.F.);
#1218=ADVANCED_FACE('',(#126),#1161,.F.);
#1219=ADVANCED_FACE('',(#127,#46,#47,#48),#72,.F.);
#1220=ADVANCED_FACE('',(#128),#73,.F.);
#1221=ADVANCED_FACE('',(#129),#74,.T.);
#1222=ADVANCED_FACE('',(#130),#1162,.T.);
#1223=ADVANCED_FACE('',(#131),#1163,.T.);
#1224=ADVANCED_FACE('',(#132),#75,.T.);
#1225=ADVANCED_FACE('',(#133),#1164,.T.);
#1226=ADVANCED_FACE('',(#134),#1165,.T.);
#1227=ADVANCED_FACE('',(#135,#49,#50,#51,#52),#76,.T.);
#1228=ADVANCED_FACE('',(#136),#25,.F.);
#1229=ADVANCED_FACE('',(#137,#53),#77,.T.);
#1230=ADVANCED_FACE('',(#138),#26,.F.);
#1231=ADVANCED_FACE('',(#139),#1166,.T.);
#1232=ADVANCED_FACE('',(#140),#27,.T.);
#1233=ADVANCED_FACE('',(#141),#1167,.T.);
#1234=ADVANCED_FACE('',(#142),#28,.T.);
#1235=ADVANCED_FACE('',(#143),#1168,.T.);
#1236=ADVANCED_FACE('',(#144),#29,.T.);
#1237=ADVANCED_FACE('',(#145),#1169,.T.);
#1238=ADVANCED_FACE('',(#146),#30,.T.);
#1239=CLOSED_SHELL('',(#1170,#1171,#1172,#1173,#1174,#1175,#1176,#1177,
#1178,#1179,#1180,#1181,#1182,#1183,#1184,#1185,#1186,#1187,#1188,#1189,
#1190,#1191,#1192,#1193,#1194,#1195,#1196,#1197,#1198,#1199,#1200,#1201,
#1202,#1203,#1204,#1205,#1206,#1207,#1208,#1209,#1210,#1211,#1212,#1213,
#1214,#1215,#1216,#1217,#1218,#1219,#1220,#1221,#1222,#1223,#1224,#1225,
#1226,#1227,#1228,#1229,#1230,#1231,#1232,#1233,#1234,#1235,#1236,#1237,
#1238));
#1240=DERIVED_UNIT_ELEMENT(#1242,1.);
#1241=DERIVED_UNIT_ELEMENT(#2211,3.);
#1242=(
MASS_UNIT()
NAMED_UNIT(*)
SI_UNIT($,.GRAM.)
);
#1243=DERIVED_UNIT((#1240,#1241));
#1244=MEASURE_REPRESENTATION_ITEM('density measure',
POSITIVE_RATIO_MEASURE(1.31),#1243);
#1245=PROPERTY_DEFINITION_REPRESENTATION(#1250,#1247);
#1246=PROPERTY_DEFINITION_REPRESENTATION(#1251,#1248);
#1247=REPRESENTATION('material name',(#1249),#2208);
#1248=REPRESENTATION('density',(#1244),#2208);
#1249=DESCRIPTIVE_REPRESENTATION_ITEM('PBT Plastic','PBT Plastic');
#1250=PROPERTY_DEFINITION('material property','material name',#2218);
#1251=PROPERTY_DEFINITION('material property','density of part',#2218);
#1252=DATE_TIME_ROLE('creation_date');
#1253=APPLIED_DATE_AND_TIME_ASSIGNMENT(#1254,#1252,(#2218));
#1254=DATE_AND_TIME(#1255,#1256);
#1255=CALENDAR_DATE(2026,7,7);
#1256=LOCAL_TIME(0,43,34.,#1257);
#1257=COORDINATED_UNIVERSAL_TIME_OFFSET(0,0,.BEHIND.);
#1258=AXIS2_PLACEMENT_3D('placement',#1840,#1426,#1427);
#1259=AXIS2_PLACEMENT_3D('',#1841,#1428,#1429);
#1260=AXIS2_PLACEMENT_3D('',#1844,#1430,#1431);
#1261=AXIS2_PLACEMENT_3D('',#1847,#1433,#1434);
#1262=AXIS2_PLACEMENT_3D('',#1848,#1435,#1436);
#1263=AXIS2_PLACEMENT_3D('',#1849,#1437,#1438);
#1264=AXIS2_PLACEMENT_3D('',#1852,#1439,#1440);
#1265=AXIS2_PLACEMENT_3D('',#1856,#1442,#1443);
#1266=AXIS2_PLACEMENT_3D('',#1857,#1444,#1445);
#1267=AXIS2_PLACEMENT_3D('',#1858,#1446,#1447);
#1268=AXIS2_PLACEMENT_3D('',#1859,#1448,#1449);
#1269=AXIS2_PLACEMENT_3D('',#1862,#1450,#1451);
#1270=AXIS2_PLACEMENT_3D('',#1866,#1453,#1454);
#1271=AXIS2_PLACEMENT_3D('',#1867,#1455,#1456);
#1272=AXIS2_PLACEMENT_3D('',#1868,#1457,#1458);
#1273=AXIS2_PLACEMENT_3D('',#1869,#1459,#1460);
#1274=AXIS2_PLACEMENT_3D('',#1871,#1461,#1462);
#1275=AXIS2_PLACEMENT_3D('',#1873,#1463,#1464);
#1276=AXIS2_PLACEMENT_3D('',#1874,#1465,#1466);
#1277=AXIS2_PLACEMENT_3D('',#1876,#1467,#1468);
#1278=AXIS2_PLACEMENT_3D('',#1878,#1469,#1470);
#1279=AXIS2_PLACEMENT_3D('',#1879,#1471,#1472);
#1280=AXIS2_PLACEMENT_3D('',#1882,#1474,#1475);
#1281=AXIS2_PLACEMENT_3D('',#1883,#1476,#1477);
#1282=AXIS2_PLACEMENT_3D('',#1887,#1479,#1480);
#1283=AXIS2_PLACEMENT_3D('',#1888,#1481,#1482);
#1284=AXIS2_PLACEMENT_3D('',#1889,#1483,#1484);
#1285=AXIS2_PLACEMENT_3D('',#1890,#1485,#1486);
#1286=AXIS2_PLACEMENT_3D('',#1893,#1488,#1489);
#1287=AXIS2_PLACEMENT_3D('',#1894,#1490,#1491);
#1288=AXIS2_PLACEMENT_3D('',#1898,#1493,#1494);
#1289=AXIS2_PLACEMENT_3D('',#1899,#1495,#1496);
#1290=AXIS2_PLACEMENT_3D('',#1900,#1497,#1498);
#1291=AXIS2_PLACEMENT_3D('',#1901,#1499,#1500);
#1292=AXIS2_PLACEMENT_3D('',#1903,#1501,#1502);
#1293=AXIS2_PLACEMENT_3D('',#1905,#1503,#1504);
#1294=AXIS2_PLACEMENT_3D('',#1906,#1505,#1506);
#1295=AXIS2_PLACEMENT_3D('',#1908,#1507,#1508);
#1296=AXIS2_PLACEMENT_3D('',#1910,#1509,#1510);
#1297=AXIS2_PLACEMENT_3D('',#1911,#1511,#1512);
#1298=AXIS2_PLACEMENT_3D('',#1914,#1514,#1515);
#1299=AXIS2_PLACEMENT_3D('',#1915,#1516,#1517);
#1300=AXIS2_PLACEMENT_3D('',#1919,#1519,#1520);
#1301=AXIS2_PLACEMENT_3D('',#1920,#1521,#1522);
#1302=AXIS2_PLACEMENT_3D('',#1921,#1523,#1524);
#1303=AXIS2_PLACEMENT_3D('',#1922,#1525,#1526);
#1304=AXIS2_PLACEMENT_3D('',#1925,#1527,#1528);
#1305=AXIS2_PLACEMENT_3D('',#1926,#1529,#1530);
#1306=AXIS2_PLACEMENT_3D('',#1927,#1531,#1532);
#1307=AXIS2_PLACEMENT_3D('',#1929,#1533,#1534);
#1308=AXIS2_PLACEMENT_3D('',#1931,#1536,#1537);
#1309=AXIS2_PLACEMENT_3D('',#1933,#1539,#1540);
#1310=AXIS2_PLACEMENT_3D('',#1935,#1541,#1542);
#1311=AXIS2_PLACEMENT_3D('',#1937,#1544,#1545);
#1312=AXIS2_PLACEMENT_3D('',#1940,#1546,#1547);
#1313=AXIS2_PLACEMENT_3D('',#1942,#1548,#1549);
#1314=AXIS2_PLACEMENT_3D('',#1950,#1553,#1554);
#1315=AXIS2_PLACEMENT_3D('',#1952,#1555,#1556);
#1316=AXIS2_PLACEMENT_3D('',#1953,#1557,#1558);
#1317=AXIS2_PLACEMENT_3D('',#1955,#1559,#1560);
#1318=AXIS2_PLACEMENT_3D('',#1956,#1561,#1562);
#1319=AXIS2_PLACEMENT_3D('',#1958,#1564,#1565);
#1320=AXIS2_PLACEMENT_3D('',#1960,#1566,#1567);
#1321=AXIS2_PLACEMENT_3D('',#1962,#1569,#1570);
#1322=AXIS2_PLACEMENT_3D('',#1965,#1571,#1572);
#1323=AXIS2_PLACEMENT_3D('',#1967,#1573,#1574);
#1324=AXIS2_PLACEMENT_3D('',#1969,#1575,#1576);
#1325=AXIS2_PLACEMENT_3D('',#1971,#1577,#1578);
#1326=AXIS2_PLACEMENT_3D('',#1975,#1580,#1581);
#1327=AXIS2_PLACEMENT_3D('',#1979,#1583,#1584);
#1328=AXIS2_PLACEMENT_3D('',#1982,#1586,#1587);
#1329=AXIS2_PLACEMENT_3D('',#1984,#1588,#1589);
#1330=AXIS2_PLACEMENT_3D('',#1986,#1590,#1591);
#1331=AXIS2_PLACEMENT_3D('',#1988,#1592,#1593);
#1332=AXIS2_PLACEMENT_3D('',#1990,#1594,#1595);
#1333=AXIS2_PLACEMENT_3D('',#1992,#1596,#1597);
#1334=AXIS2_PLACEMENT_3D('',#1993,#1598,#1599);
#1335=AXIS2_PLACEMENT_3D('',#1995,#1601,#1602);
#1336=AXIS2_PLACEMENT_3D('',#1999,#1604,#1605);
#1337=AXIS2_PLACEMENT_3D('',#2000,#1606,#1607);
#1338=AXIS2_PLACEMENT_3D('',#2001,#1608,#1609);
#1339=AXIS2_PLACEMENT_3D('',#2004,#1611,#1612);
#1340=AXIS2_PLACEMENT_3D('',#2005,#1613,#1614);
#1341=AXIS2_PLACEMENT_3D('',#2009,#1616,#1617);
#1342=AXIS2_PLACEMENT_3D('',#2010,#1618,#1619);
#1343=AXIS2_PLACEMENT_3D('',#2011,#1620,#1621);
#1344=AXIS2_PLACEMENT_3D('',#2015,#1623,#1624);
#1345=AXIS2_PLACEMENT_3D('',#2016,#1625,#1626);
#1346=AXIS2_PLACEMENT_3D('',#2017,#1627,#1628);
#1347=AXIS2_PLACEMENT_3D('',#2018,#1629,#1630);
#1348=AXIS2_PLACEMENT_3D('',#2021,#1633,#1634);
#1349=AXIS2_PLACEMENT_3D('',#2023,#1636,#1637);
#1350=AXIS2_PLACEMENT_3D('',#2025,#1639,#1640);
#1351=AXIS2_PLACEMENT_3D('',#2028,#1641,#1642);
#1352=AXIS2_PLACEMENT_3D('',#2032,#1644,#1645);
#1353=AXIS2_PLACEMENT_3D('',#2034,#1647,#1648);
#1354=AXIS2_PLACEMENT_3D('',#2040,#1652,#1653);
#1355=AXIS2_PLACEMENT_3D('',#2042,#1654,#1655);
#1356=AXIS2_PLACEMENT_3D('',#2046,#1657,#1658);
#1357=AXIS2_PLACEMENT_3D('',#2047,#1659,#1660);
#1358=AXIS2_PLACEMENT_3D('',#2048,#1661,#1662);
#1359=AXIS2_PLACEMENT_3D('',#2049,#1663,#1664);
#1360=AXIS2_PLACEMENT_3D('',#2051,#1665,#1666);
#1361=AXIS2_PLACEMENT_3D('',#2055,#1668,#1669);
#1362=AXIS2_PLACEMENT_3D('',#2056,#1670,#1671);
#1363=AXIS2_PLACEMENT_3D('',#2057,#1672,#1673);
#1364=AXIS2_PLACEMENT_3D('',#2058,#1674,#1675);
#1365=AXIS2_PLACEMENT_3D('',#2064,#1679,#1680);
#1366=AXIS2_PLACEMENT_3D('',#2067,#1683,#1684);
#1367=AXIS2_PLACEMENT_3D('',#2081,#1692,#1693);
#1368=AXIS2_PLACEMENT_3D('',#2082,#1694,#1695);
#1369=AXIS2_PLACEMENT_3D('',#2084,#1697,#1698);
#1370=AXIS2_PLACEMENT_3D('',#2085,#1699,#1700);
#1371=AXIS2_PLACEMENT_3D('',#2088,#1701,#1702);
#1372=AXIS2_PLACEMENT_3D('',#2091,#1705,#1706);
#1373=AXIS2_PLACEMENT_3D('',#2095,#1709,#1710);
#1374=AXIS2_PLACEMENT_3D('',#2096,#1711,#1712);
#1375=AXIS2_PLACEMENT_3D('',#2097,#1713,#1714);
#1376=AXIS2_PLACEMENT_3D('',#2100,#1715,#1716);
#1377=AXIS2_PLACEMENT_3D('',#2101,#1717,#1718);
#1378=AXIS2_PLACEMENT_3D('',#2103,#1720,#1721);
#1379=AXIS2_PLACEMENT_3D('',#2106,#1722,#1723);
#1380=AXIS2_PLACEMENT_3D('',#2107,#1724,#1725);
#1381=AXIS2_PLACEMENT_3D('',#2109,#1727,#1728);
#1382=AXIS2_PLACEMENT_3D('',#2111,#1729,#1730);
#1383=AXIS2_PLACEMENT_3D('',#2115,#1732,#1733);
#1384=AXIS2_PLACEMENT_3D('',#2117,#1735,#1736);
#1385=AXIS2_PLACEMENT_3D('',#2121,#1738,#1739);
#1386=AXIS2_PLACEMENT_3D('',#2124,#1741,#1742);
#1387=AXIS2_PLACEMENT_3D('',#2125,#1743,#1744);
#1388=AXIS2_PLACEMENT_3D('',#2131,#1748,#1749);
#1389=AXIS2_PLACEMENT_3D('',#2133,#1750,#1751);
#1390=AXIS2_PLACEMENT_3D('',#2135,#1753,#1754);
#1391=AXIS2_PLACEMENT_3D('',#2139,#1756,#1757);
#1392=AXIS2_PLACEMENT_3D('',#2141,#1759,#1760);
#1393=AXIS2_PLACEMENT_3D('',#2145,#1763,#1764);
#1394=AXIS2_PLACEMENT_3D('',#2146,#1765,#1766);
#1395=AXIS2_PLACEMENT_3D('',#2147,#1767,#1768);
#1396=AXIS2_PLACEMENT_3D('',#2148,#1769,#1770);
#1397=AXIS2_PLACEMENT_3D('',#2149,#1771,#1772);
#1398=AXIS2_PLACEMENT_3D('',#2153,#1774,#1775);
#1399=AXIS2_PLACEMENT_3D('',#2154,#1776,#1777);
#1400=AXIS2_PLACEMENT_3D('',#2157,#1778,#1779);
#1401=AXIS2_PLACEMENT_3D('',#2158,#1780,#1781);
#1402=AXIS2_PLACEMENT_3D('',#2161,#1782,#1783);
#1403=AXIS2_PLACEMENT_3D('',#2162,#1784,#1785);
#1404=AXIS2_PLACEMENT_3D('',#2165,#1786,#1787);
#1405=AXIS2_PLACEMENT_3D('',#2166,#1788,#1789);
#1406=AXIS2_PLACEMENT_3D('',#2167,#1790,#1791);
#1407=AXIS2_PLACEMENT_3D('',#2169,#1793,#1794);
#1408=AXIS2_PLACEMENT_3D('',#2171,#1795,#1796);
#1409=AXIS2_PLACEMENT_3D('',#2172,#1797,#1798);
#1410=AXIS2_PLACEMENT_3D('',#2174,#1800,#1801);
#1411=AXIS2_PLACEMENT_3D('',#2177,#1802,#1803);
#1412=AXIS2_PLACEMENT_3D('',#2178,#1804,#1805);
#1413=AXIS2_PLACEMENT_3D('',#2180,#1807,#1808);
#1414=AXIS2_PLACEMENT_3D('',#2182,#1810,#1811);
#1415=AXIS2_PLACEMENT_3D('',#2185,#1812,#1813);
#1416=AXIS2_PLACEMENT_3D('',#2186,#1814,#1815);
#1417=AXIS2_PLACEMENT_3D('',#2188,#1817,#1818);
#1418=AXIS2_PLACEMENT_3D('',#2190,#1820,#1821);
#1419=AXIS2_PLACEMENT_3D('',#2193,#1822,#1823);
#1420=AXIS2_PLACEMENT_3D('',#2194,#1824,#1825);
#1421=AXIS2_PLACEMENT_3D('',#2196,#1827,#1828);
#1422=AXIS2_PLACEMENT_3D('',#2198,#1830,#1831);
#1423=AXIS2_PLACEMENT_3D('',#2201,#1832,#1833);
#1424=AXIS2_PLACEMENT_3D('',#2202,#1834,#1835);
#1425=AXIS2_PLACEMENT_3D('',#2204,#1837,#1838);
#1426=DIRECTION('axis',(0.,0.,1.));
#1427=DIRECTION('refdir',(1.,0.,0.));
#1428=DIRECTION('center_axis',(-1.,0.,0.));
#1429=DIRECTION('ref_axis',(0.,0.,-1.));
#1430=DIRECTION('center_axis',(-1.,0.,0.));
#1431=DIRECTION('ref_axis',(0.,0.,-1.));
#1432=DIRECTION('',(-1.,0.,0.));
#1433=DIRECTION('center_axis',(1.,0.,0.));
#1434=DIRECTION('ref_axis',(0.,0.,-1.));
#1435=DIRECTION('center_axis',(-1.,0.,0.));
#1436=DIRECTION('ref_axis',(0.,0.,-1.));
#1437=DIRECTION('center_axis',(0.,0.,1.));
#1438=DIRECTION('ref_axis',(-1.,0.,0.));
#1439=DIRECTION('center_axis',(0.,0.,1.));
#1440=DIRECTION('ref_axis',(-1.,0.,0.));
#1441=DIRECTION('',(0.,0.,1.));
#1442=DIRECTION('center_axis',(0.,0.,-1.));
#1443=DIRECTION('ref_axis',(-1.,0.,0.));
#1444=DIRECTION('center_axis',(0.,0.,-1.));
#1445=DIRECTION('ref_axis',(-1.,0.,0.));
#1446=DIRECTION('center_axis',(0.,0.,1.));
#1447=DIRECTION('ref_axis',(-1.,0.,0.));
#1448=DIRECTION('center_axis',(0.,0.,1.));
#1449=DIRECTION('ref_axis',(-1.,0.,0.));
#1450=DIRECTION('center_axis',(0.,0.,1.));
#1451=DIRECTION('ref_axis',(-1.,0.,0.));
#1452=DIRECTION('',(0.,0.,1.));
#1453=DIRECTION('center_axis',(0.,0.,-1.));
#1454=DIRECTION('ref_axis',(-1.,0.,0.));
#1455=DIRECTION('center_axis',(0.,0.,-1.));
#1456=DIRECTION('ref_axis',(-1.,0.,0.));
#1457=DIRECTION('center_axis',(0.,0.,1.));
#1458=DIRECTION('ref_axis',(-1.,0.,0.));
#1459=DIRECTION('center_axis',(0.,0.,1.));
#1460=DIRECTION('ref_axis',(1.,0.,0.));
#1461=DIRECTION('center_axis',(0.,0.,-1.));
#1462=DIRECTION('ref_axis',(-1.,0.,0.));
#1463=DIRECTION('center_axis',(0.,0.,1.));
#1464=DIRECTION('ref_axis',(-1.,0.,0.));
#1465=DIRECTION('center_axis',(0.,0.,1.));
#1466=DIRECTION('ref_axis',(1.,0.,0.));
#1467=DIRECTION('center_axis',(0.,0.,-1.));
#1468=DIRECTION('ref_axis',(-1.,0.,0.));
#1469=DIRECTION('center_axis',(0.,0.,1.));
#1470=DIRECTION('ref_axis',(-1.,0.,0.));
#1471=DIRECTION('center_axis',(0.,0.,1.));
#1472=DIRECTION('ref_axis',(-1.,0.,0.));
#1473=DIRECTION('',(-0.707106781186548,-8.65956056235494E-17,-0.707106781186547));
#1474=DIRECTION('center_axis',(0.,0.,-1.));
#1475=DIRECTION('ref_axis',(-1.,0.,0.));
#1476=DIRECTION('center_axis',(0.,0.,1.));
#1477=DIRECTION('ref_axis',(-1.,0.,0.));
#1478=DIRECTION('',(0.,0.,-1.));
#1479=DIRECTION('center_axis',(0.,0.,-1.));
#1480=DIRECTION('ref_axis',(-1.,0.,0.));
#1481=DIRECTION('center_axis',(0.,0.,-1.));
#1482=DIRECTION('ref_axis',(-1.,0.,0.));
#1483=DIRECTION('center_axis',(0.,0.,-1.));
#1484=DIRECTION('ref_axis',(-1.,0.,0.));
#1485=DIRECTION('center_axis',(0.,0.,1.));
#1486=DIRECTION('ref_axis',(-1.,0.,0.));
#1487=DIRECTION('',(-0.707106781186548,-8.65956056235494E-17,-0.707106781186547));
#1488=DIRECTION('center_axis',(0.,0.,-1.));
#1489=DIRECTION('ref_axis',(-1.,0.,0.));
#1490=DIRECTION('center_axis',(0.,0.,1.));
#1491=DIRECTION('ref_axis',(-1.,0.,0.));
#1492=DIRECTION('',(0.,0.,-1.));
#1493=DIRECTION('center_axis',(0.,0.,-1.));
#1494=DIRECTION('ref_axis',(-1.,0.,0.));
#1495=DIRECTION('center_axis',(0.,0.,-1.));
#1496=DIRECTION('ref_axis',(-1.,0.,0.));
#1497=DIRECTION('center_axis',(0.,0.,-1.));
#1498=DIRECTION('ref_axis',(-1.,0.,0.));
#1499=DIRECTION('center_axis',(0.,0.,1.));
#1500=DIRECTION('ref_axis',(1.,0.,0.));
#1501=DIRECTION('center_axis',(0.,0.,-1.));
#1502=DIRECTION('ref_axis',(-1.,0.,0.));
#1503=DIRECTION('center_axis',(0.,0.,1.));
#1504=DIRECTION('ref_axis',(-1.,0.,0.));
#1505=DIRECTION('center_axis',(0.,0.,1.));
#1506=DIRECTION('ref_axis',(1.,0.,0.));
#1507=DIRECTION('center_axis',(0.,0.,-1.));
#1508=DIRECTION('ref_axis',(-1.,0.,0.));
#1509=DIRECTION('center_axis',(0.,0.,1.));
#1510=DIRECTION('ref_axis',(-1.,0.,0.));
#1511=DIRECTION('center_axis',(0.,0.,1.));
#1512=DIRECTION('ref_axis',(-1.,0.,0.));
#1513=DIRECTION('',(-0.707106781186548,-8.65956056235494E-17,-0.707106781186547));
#1514=DIRECTION('center_axis',(0.,0.,-1.));
#1515=DIRECTION('ref_axis',(-1.,0.,0.));
#1516=DIRECTION('center_axis',(0.,0.,1.));
#1517=DIRECTION('ref_axis',(-1.,0.,0.));
#1518=DIRECTION('',(0.,0.,-1.));
#1519=DIRECTION('center_axis',(0.,0.,-1.));
#1520=DIRECTION('ref_axis',(-1.,0.,0.));
#1521=DIRECTION('center_axis',(0.,0.,-1.));
#1522=DIRECTION('ref_axis',(-1.,0.,0.));
#1523=DIRECTION('center_axis',(0.,0.,-1.));
#1524=DIRECTION('ref_axis',(-1.,0.,0.));
#1525=DIRECTION('center_axis',(0.,0.,-1.));
#1526=DIRECTION('ref_axis',(-1.,0.,0.));
#1527=DIRECTION('center_axis',(0.,0.,-1.));
#1528=DIRECTION('ref_axis',(-1.,0.,0.));
#1529=DIRECTION('center_axis',(0.,0.,-1.));
#1530=DIRECTION('ref_axis',(-1.,0.,0.));
#1531=DIRECTION('center_axis',(0.,0.,1.));
#1532=DIRECTION('ref_axis',(-1.,0.,0.));
#1533=DIRECTION('center_axis',(0.,0.,-1.));
#1534=DIRECTION('ref_axis',(-1.,0.,0.));
#1535=DIRECTION('',(0.,0.,-1.));
#1536=DIRECTION('center_axis',(0.,0.,1.));
#1537=DIRECTION('ref_axis',(-1.,0.,0.));
#1538=DIRECTION('',(-0.707106781186548,-8.65956056235494E-17,-0.707106781186547));
#1539=DIRECTION('center_axis',(0.,0.,1.));
#1540=DIRECTION('ref_axis',(1.,0.,0.));
#1541=DIRECTION('center_axis',(0.,0.,1.));
#1542=DIRECTION('ref_axis',(1.,0.,0.));
#1543=DIRECTION('',(0.707106781186547,8.65956056235493E-17,-0.707106781186547));
#1544=DIRECTION('center_axis',(0.,0.,-1.));
#1545=DIRECTION('ref_axis',(-1.,0.,0.));
#1546=DIRECTION('center_axis',(0.,0.,-1.));
#1547=DIRECTION('ref_axis',(-0.213623969505945,0.976915963454648,0.));
#1548=DIRECTION('center_axis',(0.,0.,1.));
#1549=DIRECTION('ref_axis',(-1.,0.,0.));
#1550=DIRECTION('',(0.,1.,0.));
#1551=DIRECTION('',(1.,0.,0.));
#1552=DIRECTION('',(0.,-1.,0.));
#1553=DIRECTION('center_axis',(0.,0.,1.));
#1554=DIRECTION('ref_axis',(-1.,0.,0.));
#1555=DIRECTION('center_axis',(0.,0.,-1.));
#1556=DIRECTION('ref_axis',(0.213623969505945,0.976915963454648,0.));
#1557=DIRECTION('center_axis',(0.,0.,-1.));
#1558=DIRECTION('ref_axis',(-1.,0.,0.));
#1559=DIRECTION('center_axis',(0.,0.,1.));
#1560=DIRECTION('ref_axis',(1.,0.,0.));
#1561=DIRECTION('center_axis',(0.,0.,1.));
#1562=DIRECTION('ref_axis',(1.,0.,0.));
#1563=DIRECTION('',(0.707106781186547,8.65956056235493E-17,-0.707106781186547));
#1564=DIRECTION('center_axis',(0.,0.,-1.));
#1565=DIRECTION('ref_axis',(1.,0.,0.));
#1566=DIRECTION('center_axis',(0.,0.,-1.));
#1567=DIRECTION('ref_axis',(1.,0.,0.));
#1568=DIRECTION('',(0.707106781186547,-8.65956056235493E-17,0.707106781186547));
#1569=DIRECTION('center_axis',(0.,0.,1.));
#1570=DIRECTION('ref_axis',(1.,0.,0.));
#1571=DIRECTION('center_axis',(0.,0.,1.));
#1572=DIRECTION('ref_axis',(-0.213623969505945,0.976915963454648,0.));
#1573=DIRECTION('center_axis',(0.,0.,1.));
#1574=DIRECTION('ref_axis',(-1.,0.,0.));
#1575=DIRECTION('center_axis',(0.,0.,1.));
#1576=DIRECTION('ref_axis',(0.213623969505945,0.976915963454648,0.));
#1577=DIRECTION('center_axis',(0.,0.,-1.));
#1578=DIRECTION('ref_axis',(-1.,0.,0.));
#1579=DIRECTION('',(0.,1.,0.));
#1580=DIRECTION('center_axis',(0.,0.,1.));
#1581=DIRECTION('ref_axis',(-0.707106781186548,0.707106781186548,0.));
#1582=DIRECTION('',(1.,0.,0.));
#1583=DIRECTION('center_axis',(0.,0.,1.));
#1584=DIRECTION('ref_axis',(0.707106781186548,0.707106781186547,0.));
#1585=DIRECTION('',(0.,-1.,0.));
#1586=DIRECTION('center_axis',(0.,0.,-1.));
#1587=DIRECTION('ref_axis',(-1.,0.,0.));
#1588=DIRECTION('center_axis',(0.,0.,-1.));
#1589=DIRECTION('ref_axis',(1.,0.,0.));
#1590=DIRECTION('center_axis',(0.,0.,-1.));
#1591=DIRECTION('ref_axis',(1.,0.,0.));
#1592=DIRECTION('center_axis',(0.,0.,1.));
#1593=DIRECTION('ref_axis',(1.,0.,0.));
#1594=DIRECTION('center_axis',(0.,0.,1.));
#1595=DIRECTION('ref_axis',(1.,0.,0.));
#1596=DIRECTION('center_axis',(0.,0.,-1.));
#1597=DIRECTION('ref_axis',(1.,0.,0.));
#1598=DIRECTION('center_axis',(0.,0.,-1.));
#1599=DIRECTION('ref_axis',(1.,0.,0.));
#1600=DIRECTION('',(0.707106781186547,-8.65956056235493E-17,0.707106781186547));
#1601=DIRECTION('center_axis',(0.,0.,-1.));
#1602=DIRECTION('ref_axis',(1.,0.,0.));
#1603=DIRECTION('',(0.707106781186548,-8.65956056235493E-17,0.707106781186548));
#1604=DIRECTION('center_axis',(0.,0.,1.));
#1605=DIRECTION('ref_axis',(1.,0.,0.));
#1606=DIRECTION('center_axis',(0.,0.,1.));
#1607=DIRECTION('ref_axis',(1.,0.,0.));
#1608=DIRECTION('center_axis',(0.,0.,1.));
#1609=DIRECTION('ref_axis',(-1.,0.,0.));
#1610=DIRECTION('',(0.,0.,1.));
#1611=DIRECTION('center_axis',(0.,0.,-1.));
#1612=DIRECTION('ref_axis',(-1.,0.,0.));
#1613=DIRECTION('center_axis',(0.,0.,-1.));
#1614=DIRECTION('ref_axis',(1.,0.,0.));
#1615=DIRECTION('',(0.707106781186548,-8.65956056235493E-17,0.707106781186548));
#1616=DIRECTION('center_axis',(0.,0.,1.));
#1617=DIRECTION('ref_axis',(1.,0.,0.));
#1618=DIRECTION('center_axis',(0.,0.,1.));
#1619=DIRECTION('ref_axis',(1.,0.,0.));
#1620=DIRECTION('center_axis',(0.,0.,1.));
#1621=DIRECTION('ref_axis',(-1.,0.,0.));
#1622=DIRECTION('',(0.,0.,1.));
#1623=DIRECTION('center_axis',(0.,0.,1.));
#1624=DIRECTION('ref_axis',(-1.,0.,0.));
#1625=DIRECTION('center_axis',(0.,0.,1.));
#1626=DIRECTION('ref_axis',(-1.,0.,0.));
#1627=DIRECTION('center_axis',(0.,0.,-1.));
#1628=DIRECTION('ref_axis',(-1.,0.,0.));
#1629=DIRECTION('center_axis',(0.,0.,-1.));
#1630=DIRECTION('ref_axis',(-0.213623969505945,0.976915963454648,0.));
#1631=DIRECTION('',(0.,0.,-1.));
#1632=DIRECTION('',(0.,0.,1.));
#1633=DIRECTION('center_axis',(0.,0.,1.));
#1634=DIRECTION('ref_axis',(-1.,0.,0.));
#1635=DIRECTION('',(0.,0.,1.));
#1636=DIRECTION('center_axis',(0.,0.,1.));
#1637=DIRECTION('ref_axis',(0.213623969505945,0.976915963454648,0.));
#1638=DIRECTION('',(0.,0.,-1.));
#1639=DIRECTION('center_axis',(1.,0.,0.));
#1640=DIRECTION('ref_axis',(0.,-0.707106781186548,-0.707106781186547));
#1641=DIRECTION('center_axis',(-1.,0.,0.));
#1642=DIRECTION('ref_axis',(0.,-0.707106781186548,-0.707106781186547));
#1643=DIRECTION('',(1.,0.,0.));
#1644=DIRECTION('center_axis',(1.,0.,0.));
#1645=DIRECTION('ref_axis',(0.,-0.707106781186548,-0.707106781186547));
#1646=DIRECTION('',(-1.,0.,0.));
#1647=DIRECTION('center_axis',(0.,-1.,0.));
#1648=DIRECTION('ref_axis',(-1.,0.,0.));
#1649=DIRECTION('',(0.,0.,-1.));
#1650=DIRECTION('',(1.,0.,0.));
#1651=DIRECTION('',(0.,0.,1.));
#1652=DIRECTION('center_axis',(0.,0.,-1.));
#1653=DIRECTION('ref_axis',(1.,0.,0.));
#1654=DIRECTION('center_axis',(0.,0.,-1.));
#1655=DIRECTION('ref_axis',(1.,0.,0.));
#1656=DIRECTION('',(0.,0.,-1.));
#1657=DIRECTION('center_axis',(0.,0.,-1.));
#1658=DIRECTION('ref_axis',(1.,0.,0.));
#1659=DIRECTION('center_axis',(0.,0.,-1.));
#1660=DIRECTION('ref_axis',(1.,0.,0.));
#1661=DIRECTION('center_axis',(0.,0.,1.));
#1662=DIRECTION('ref_axis',(1.,0.,0.));
#1663=DIRECTION('center_axis',(0.,0.,-1.));
#1664=DIRECTION('ref_axis',(1.,0.,0.));
#1665=DIRECTION('center_axis',(0.,0.,-1.));
#1666=DIRECTION('ref_axis',(1.,0.,0.));
#1667=DIRECTION('',(0.,0.,-1.));
#1668=DIRECTION('center_axis',(0.,0.,-1.));
#1669=DIRECTION('ref_axis',(1.,0.,0.));
#1670=DIRECTION('center_axis',(0.,0.,-1.));
#1671=DIRECTION('ref_axis',(1.,0.,0.));
#1672=DIRECTION('center_axis',(0.,0.,1.));
#1673=DIRECTION('ref_axis',(1.,0.,0.));
#1674=DIRECTION('center_axis',(0.,0.,-1.));
#1675=DIRECTION('ref_axis',(-1.,0.,0.));
#1676=DIRECTION('',(-1.,0.,0.));
#1677=DIRECTION('',(0.,-1.,0.));
#1678=DIRECTION('',(0.,1.,0.));
#1679=DIRECTION('center_axis',(0.,-1.,0.));
#1680=DIRECTION('ref_axis',(1.,0.,0.));
#1681=DIRECTION('',(0.,0.,1.));
#1682=DIRECTION('',(0.,0.,1.));
#1683=DIRECTION('center_axis',(-1.,0.,0.));
#1684=DIRECTION('ref_axis',(0.,1.,0.));
#1685=DIRECTION('',(0.,-1.,0.));
#1686=DIRECTION('',(0.,0.,-1.));
#1687=DIRECTION('',(0.,-1.,0.));
#1688=DIRECTION('',(0.,0.,-1.));
#1689=DIRECTION('',(7.65671051465625E-17,-1.,0.));
#1690=DIRECTION('',(0.,0.,1.));
#1691=DIRECTION('',(0.,0.,1.));
#1692=DIRECTION('center_axis',(-1.,0.,0.));
#1693=DIRECTION('ref_axis',(0.,0.,-1.));
#1694=DIRECTION('center_axis',(0.,0.,1.));
#1695=DIRECTION('ref_axis',(-1.,0.,0.));
#1696=DIRECTION('',(0.,0.,1.));
#1697=DIRECTION('center_axis',(0.,0.,1.));
#1698=DIRECTION('ref_axis',(-1.,0.,0.));
#1699=DIRECTION('center_axis',(0.,0.,1.));
#1700=DIRECTION('ref_axis',(0.707106781186548,0.707106781186547,0.));
#1701=DIRECTION('center_axis',(0.,0.,-1.));
#1702=DIRECTION('ref_axis',(0.707106781186548,0.707106781186547,0.));
#1703=DIRECTION('',(0.,0.,-1.));
#1704=DIRECTION('',(0.,0.,1.));
#1705=DIRECTION('center_axis',(0.,1.,0.));
#1706=DIRECTION('ref_axis',(-1.,0.,0.));
#1707=DIRECTION('',(0.,0.,-1.));
#1708=DIRECTION('',(-1.,0.,0.));
#1709=DIRECTION('center_axis',(0.,0.,1.));
#1710=DIRECTION('ref_axis',(-0.707106781186548,0.707106781186548,0.));
#1711=DIRECTION('center_axis',(0.,0.,-1.));
#1712=DIRECTION('ref_axis',(-0.707106781186548,0.707106781186548,0.));
#1713=DIRECTION('center_axis',(0.,0.,-1.));
#1714=DIRECTION('ref_axis',(1.,0.,0.));
#1715=DIRECTION('center_axis',(0.,0.,-1.));
#1716=DIRECTION('ref_axis',(1.,0.,0.));
#1717=DIRECTION('center_axis',(0.,0.,-1.));
#1718=DIRECTION('ref_axis',(1.,0.,0.));
#1719=DIRECTION('',(0.,0.,-1.));
#1720=DIRECTION('center_axis',(0.,0.,-1.));
#1721=DIRECTION('ref_axis',(1.,0.,0.));
#1722=DIRECTION('center_axis',(0.,0.,-1.));
#1723=DIRECTION('ref_axis',(1.,0.,0.));
#1724=DIRECTION('center_axis',(0.,0.,-1.));
#1725=DIRECTION('ref_axis',(1.,0.,0.));
#1726=DIRECTION('',(0.,0.,-1.));
#1727=DIRECTION('center_axis',(0.,0.,-1.));
#1728=DIRECTION('ref_axis',(-1.,0.,0.));
#1729=DIRECTION('center_axis',(0.,0.,1.));
#1730=DIRECTION('ref_axis',(5.55111512312578E-16,1.,0.));
#1731=DIRECTION('',(-1.,-1.11022302462516E-16,0.));
#1732=DIRECTION('center_axis',(0.,0.,1.));
#1733=DIRECTION('ref_axis',(1.,1.66533453693773E-15,0.));
#1734=DIRECTION('',(0.,1.,0.));
#1735=DIRECTION('center_axis',(0.,0.,-1.));
#1736=DIRECTION('ref_axis',(-1.,0.,0.));
#1737=DIRECTION('',(0.,1.,0.));
#1738=DIRECTION('center_axis',(0.,0.,1.));
#1739=DIRECTION('ref_axis',(-1.11022302462516E-15,-1.,0.));
#1740=DIRECTION('',(1.,0.,0.));
#1741=DIRECTION('center_axis',(0.,0.,1.));
#1742=DIRECTION('ref_axis',(-1.,5.55111512312578E-16,0.));
#1743=DIRECTION('center_axis',(-1.11022302462516E-16,1.,0.));
#1744=DIRECTION('ref_axis',(1.,1.11022302462516E-16,0.));
#1745=DIRECTION('',(0.,0.,-1.));
#1746=DIRECTION('',(-1.,-1.11022302462516E-16,0.));
#1747=DIRECTION('',(0.,0.,-1.));
#1748=DIRECTION('center_axis',(0.,0.,-1.));
#1749=DIRECTION('ref_axis',(1.,1.66533453693773E-15,0.));
#1750=DIRECTION('center_axis',(0.,0.,1.));
#1751=DIRECTION('ref_axis',(1.,1.66533453693773E-15,0.));
#1752=DIRECTION('',(0.,0.,-1.));
#1753=DIRECTION('center_axis',(0.,0.,-1.));
#1754=DIRECTION('ref_axis',(-1.11022302462516E-15,-1.,0.));
#1755=DIRECTION('',(0.,0.,-1.));
#1756=DIRECTION('center_axis',(0.,0.,1.));
#1757=DIRECTION('ref_axis',(-1.11022302462516E-15,-1.,0.));
#1758=DIRECTION('',(0.,0.,-1.));
#1759=DIRECTION('center_axis',(0.,-1.,0.));
#1760=DIRECTION('ref_axis',(-1.,0.,0.));
#1761=DIRECTION('',(1.,0.,0.));
#1762=DIRECTION('',(0.,0.,-1.));
#1763=DIRECTION('center_axis',(0.,0.,-1.));
#1764=DIRECTION('ref_axis',(-1.,5.55111512312578E-16,0.));
#1765=DIRECTION('center_axis',(0.,0.,1.));
#1766=DIRECTION('ref_axis',(-1.,5.55111512312578E-16,0.));
#1767=DIRECTION('center_axis',(0.,0.,-1.));
#1768=DIRECTION('ref_axis',(5.55111512312578E-16,1.,0.));
#1769=DIRECTION('center_axis',(0.,0.,1.));
#1770=DIRECTION('ref_axis',(5.55111512312578E-16,1.,0.));
#1771=DIRECTION('center_axis',(0.,0.,1.));
#1772=DIRECTION('ref_axis',(1.,0.,0.));
#1773=DIRECTION('',(0.,1.,0.));
#1774=DIRECTION('center_axis',(0.,0.,1.));
#1775=DIRECTION('ref_axis',(1.,0.,0.));
#1776=DIRECTION('center_axis',(0.,0.,1.));
#1777=DIRECTION('ref_axis',(1.,0.,0.));
#1778=DIRECTION('center_axis',(0.,0.,1.));
#1779=DIRECTION('ref_axis',(1.,0.,0.));
#1780=DIRECTION('center_axis',(0.,0.,1.));
#1781=DIRECTION('ref_axis',(1.,0.,0.));
#1782=DIRECTION('center_axis',(0.,0.,1.));
#1783=DIRECTION('ref_axis',(1.,0.,0.));
#1784=DIRECTION('center_axis',(0.,0.,1.));
#1785=DIRECTION('ref_axis',(1.,0.,0.));
#1786=DIRECTION('center_axis',(0.,0.,1.));
#1787=DIRECTION('ref_axis',(1.,0.,0.));
#1788=DIRECTION('center_axis',(0.,0.,1.));
#1789=DIRECTION('ref_axis',(1.,0.,0.));
#1790=DIRECTION('center_axis',(-1.,0.,0.));
#1791=DIRECTION('ref_axis',(0.,0.,-1.));
#1792=DIRECTION('',(0.707106781186548,-8.65956056235493E-17,-0.707106781186548));
#1793=DIRECTION('center_axis',(1.,0.,0.));
#1794=DIRECTION('ref_axis',(0.,-1.,0.));
#1795=DIRECTION('center_axis',(1.,0.,0.));
#1796=DIRECTION('ref_axis',(0.,0.,1.));
#1797=DIRECTION('center_axis',(1.,0.,0.));
#1798=DIRECTION('ref_axis',(0.,0.,1.));
#1799=DIRECTION('',(-0.707106781186548,-8.65956056235493E-17,0.707106781186547));
#1800=DIRECTION('center_axis',(0.,0.,1.));
#1801=DIRECTION('ref_axis',(1.,0.,0.));
#1802=DIRECTION('center_axis',(0.,0.,1.));
#1803=DIRECTION('ref_axis',(-1.,0.,0.));
#1804=DIRECTION('center_axis',(0.,0.,1.));
#1805=DIRECTION('ref_axis',(-1.,0.,0.));
#1806=DIRECTION('',(0.,0.,-1.));
#1807=DIRECTION('center_axis',(0.,0.,-1.));
#1808=DIRECTION('ref_axis',(-1.,0.,0.));
#1809=DIRECTION('',(0.707106781186548,8.65956056235493E-17,-0.707106781186547));
#1810=DIRECTION('center_axis',(0.,0.,1.));
#1811=DIRECTION('ref_axis',(1.,0.,0.));
#1812=DIRECTION('center_axis',(0.,0.,1.));
#1813=DIRECTION('ref_axis',(-1.,0.,0.));
#1814=DIRECTION('center_axis',(0.,0.,1.));
#1815=DIRECTION('ref_axis',(-1.,0.,0.));
#1816=DIRECTION('',(0.,0.,-1.));
#1817=DIRECTION('center_axis',(0.,0.,-1.));
#1818=DIRECTION('ref_axis',(-1.,0.,0.));
#1819=DIRECTION('',(0.707106781186548,8.65956056235494E-17,-0.707106781186547));
#1820=DIRECTION('center_axis',(0.,0.,1.));
#1821=DIRECTION('ref_axis',(1.,0.,0.));
#1822=DIRECTION('center_axis',(0.,0.,1.));
#1823=DIRECTION('ref_axis',(-1.,0.,0.));
#1824=DIRECTION('center_axis',(0.,0.,1.));
#1825=DIRECTION('ref_axis',(-1.,0.,0.));
#1826=DIRECTION('',(0.,0.,-1.));
#1827=DIRECTION('center_axis',(0.,0.,-1.));
#1828=DIRECTION('ref_axis',(-1.,0.,0.));
#1829=DIRECTION('',(0.707106781186548,8.65956056235494E-17,-0.707106781186547));
#1830=DIRECTION('center_axis',(0.,0.,1.));
#1831=DIRECTION('ref_axis',(1.,0.,0.));
#1832=DIRECTION('center_axis',(0.,0.,1.));
#1833=DIRECTION('ref_axis',(-1.,0.,0.));
#1834=DIRECTION('center_axis',(0.,0.,1.));
#1835=DIRECTION('ref_axis',(-1.,0.,0.));
#1836=DIRECTION('',(0.,0.,-1.));
#1837=DIRECTION('center_axis',(0.,0.,-1.));
#1838=DIRECTION('ref_axis',(-1.,0.,0.));
#1839=DIRECTION('',(0.707106781186548,8.65956056235494E-17,-0.707106781186547));
#1840=CARTESIAN_POINT('',(0.,0.,0.));
#1841=CARTESIAN_POINT('Origin',(7.,0.,-5.));
#1842=CARTESIAN_POINT('',(6.6,1.8982025386784E-16,-3.45));
#1843=CARTESIAN_POINT('',(6.6,1.8982025386784E-16,-6.55));
#1844=CARTESIAN_POINT('Origin',(6.6,0.,-5.));
#1845=CARTESIAN_POINT('',(-6.6,-1.8982025386784E-16,-3.45));
#1846=CARTESIAN_POINT('',(7.,1.8982025386784E-16,-3.45));
#1847=CARTESIAN_POINT('Origin',(-6.6,0.,-5.));
#1848=CARTESIAN_POINT('Origin',(6.6,0.,-5.));
#1849=CARTESIAN_POINT('Origin',(-4.5,-20.,-10.));
#1850=CARTESIAN_POINT('',(-3.4625,-20.,-9.6375));
#1851=CARTESIAN_POINT('',(-5.5375,-20.,-9.6375));
#1852=CARTESIAN_POINT('Origin',(-4.5,-20.,-9.6375));
#1853=CARTESIAN_POINT('',(-3.4625,-20.,-7.3625));
#1854=CARTESIAN_POINT('',(-3.4625,-20.,-10.));
#1855=CARTESIAN_POINT('',(-5.5375,-20.,-7.3625));
#1856=CARTESIAN_POINT('Origin',(-4.5,-20.,-7.3625));
#1857=CARTESIAN_POINT('Origin',(-4.5,-20.,-7.3625));
#1858=CARTESIAN_POINT('Origin',(-4.5,-20.,-9.6375));
#1859=CARTESIAN_POINT('Origin',(4.5,-20.,-10.));
#1860=CARTESIAN_POINT('',(5.5375,-20.,-9.6375));
#1861=CARTESIAN_POINT('',(3.4625,-20.,-9.6375));
#1862=CARTESIAN_POINT('Origin',(4.5,-20.,-9.6375));
#1863=CARTESIAN_POINT('',(5.5375,-20.,-7.3625));
#1864=CARTESIAN_POINT('',(5.5375,-20.,-10.));
#1865=CARTESIAN_POINT('',(3.4625,-20.,-7.3625));
#1866=CARTESIAN_POINT('Origin',(4.5,-20.,-7.3625));
#1867=CARTESIAN_POINT('Origin',(4.5,-20.,-7.3625));
#1868=CARTESIAN_POINT('Origin',(4.5,-20.,-9.6375));
#1869=CARTESIAN_POINT('Origin',(4.25,-3.95,1.));
#1870=CARTESIAN_POINT('',(6.3,-3.95,1.));
#1871=CARTESIAN_POINT('Origin',(4.25,-3.95,1.));
#1872=CARTESIAN_POINT('',(5.85,-3.95,1.));
#1873=CARTESIAN_POINT('Origin',(4.25,-3.95,1.));
#1874=CARTESIAN_POINT('Origin',(4.25,3.95,1.));
#1875=CARTESIAN_POINT('',(6.3,3.95,1.));
#1876=CARTESIAN_POINT('Origin',(4.25,3.95,1.));
#1877=CARTESIAN_POINT('',(5.85,3.95,1.));
#1878=CARTESIAN_POINT('Origin',(4.25,3.95,1.));
#1879=CARTESIAN_POINT('Origin',(4.25,-3.95,0.9));
#1880=CARTESIAN_POINT('',(5.65,-3.95,0.8));
#1881=CARTESIAN_POINT('',(5.75,-3.95,0.9));
#1882=CARTESIAN_POINT('Origin',(4.25,-3.95,0.8));
#1883=CARTESIAN_POINT('Origin',(4.25,-3.95,0.));
#1884=CARTESIAN_POINT('',(5.65,-3.95,-4.));
#1885=CARTESIAN_POINT('',(5.65,-3.95,0.));
#1886=CARTESIAN_POINT('',(2.85,-3.95,-4.));
#1887=CARTESIAN_POINT('Origin',(4.25,-3.95,-4.));
#1888=CARTESIAN_POINT('Origin',(4.25,-3.95,-4.));
#1889=CARTESIAN_POINT('Origin',(4.25,-3.95,-4.));
#1890=CARTESIAN_POINT('Origin',(4.25,3.95,0.9));
#1891=CARTESIAN_POINT('',(5.65,3.95,0.8));
#1892=CARTESIAN_POINT('',(5.75,3.95,0.9));
#1893=CARTESIAN_POINT('Origin',(4.25,3.95,0.8));
#1894=CARTESIAN_POINT('Origin',(4.25,3.95,0.));
#1895=CARTESIAN_POINT('',(5.65,3.95,-4.));
#1896=CARTESIAN_POINT('',(5.65,3.95,0.));
#1897=CARTESIAN_POINT('',(2.85,3.95,-4.));
#1898=CARTESIAN_POINT('Origin',(4.25,3.95,-4.));
#1899=CARTESIAN_POINT('Origin',(4.25,3.95,-4.));
#1900=CARTESIAN_POINT('Origin',(4.25,3.95,-4.));
#1901=CARTESIAN_POINT('Origin',(-4.25,-3.95,1.));
#1902=CARTESIAN_POINT('',(-2.2,-3.95,1.));
#1903=CARTESIAN_POINT('Origin',(-4.25,-3.95,1.));
#1904=CARTESIAN_POINT('',(-2.65,-3.95,1.));
#1905=CARTESIAN_POINT('Origin',(-4.25,-3.95,1.));
#1906=CARTESIAN_POINT('Origin',(-4.25,3.95,1.));
#1907=CARTESIAN_POINT('',(-2.2,3.95,1.));
#1908=CARTESIAN_POINT('Origin',(-4.25,3.95,1.));
#1909=CARTESIAN_POINT('',(-2.65,3.95,1.));
#1910=CARTESIAN_POINT('Origin',(-4.25,3.95,1.));
#1911=CARTESIAN_POINT('Origin',(-4.25,3.95,0.9));
#1912=CARTESIAN_POINT('',(-2.85,3.95,0.8));
#1913=CARTESIAN_POINT('',(-2.75,3.95,0.9));
#1914=CARTESIAN_POINT('Origin',(-4.25,3.95,0.8));
#1915=CARTESIAN_POINT('Origin',(-4.25,3.95,0.));
#1916=CARTESIAN_POINT('',(-2.85,3.95,-4.));
#1917=CARTESIAN_POINT('',(-2.85,3.95,0.));
#1918=CARTESIAN_POINT('',(-5.65,3.95,-4.));
#1919=CARTESIAN_POINT('Origin',(-4.25,3.95,-4.));
#1920=CARTESIAN_POINT('Origin',(-4.25,3.95,-4.));
#1921=CARTESIAN_POINT('Origin',(-4.25,3.95,-4.));
#1922=CARTESIAN_POINT('Origin',(-4.25,-3.95,-4.));
#1923=CARTESIAN_POINT('',(-5.65,-3.95,-4.));
#1924=CARTESIAN_POINT('',(-2.85,-3.95,-4.));
#1925=CARTESIAN_POINT('Origin',(-4.25,-3.95,-4.));
#1926=CARTESIAN_POINT('Origin',(-4.25,-3.95,-4.));
#1927=CARTESIAN_POINT('Origin',(-4.25,-3.95,0.));
#1928=CARTESIAN_POINT('',(-2.85,-3.95,0.8));
#1929=CARTESIAN_POINT('Origin',(-4.25,-3.95,0.8));
#1930=CARTESIAN_POINT('',(-2.85,-3.95,0.));
#1931=CARTESIAN_POINT('Origin',(-4.25,-3.95,0.9));
#1932=CARTESIAN_POINT('',(-2.75,-3.95,0.9));
#1933=CARTESIAN_POINT('Origin',(-4.5,-20.,-7.2));
#1934=CARTESIAN_POINT('',(-5.9,-20.,-7.));
#1935=CARTESIAN_POINT('Origin',(-4.5,-20.,-7.));
#1936=CARTESIAN_POINT('',(-5.7,-20.,-7.2));
#1937=CARTESIAN_POINT('Origin',(0.,-19.75,-7.));
#1938=CARTESIAN_POINT('',(5.03405992376486,-22.4422899086366,-7.));
#1939=CARTESIAN_POINT('',(4.17771116035773,-22.2314710926148,-7.));
#1940=CARTESIAN_POINT('Origin',(4.82043595425892,-21.465373945182,-7.));
#1941=CARTESIAN_POINT('',(7.,-20.,-7.));
#1942=CARTESIAN_POINT('Origin',(4.5,-20.,-7.));
#1943=CARTESIAN_POINT('',(7.,-17.,-7.));
#1944=CARTESIAN_POINT('',(7.,-17.,-7.));
#1945=CARTESIAN_POINT('',(-7.,-17.,-7.));
#1946=CARTESIAN_POINT('',(-3.5,-17.,-7.));
#1947=CARTESIAN_POINT('',(-7.,-20.,-7.));
#1948=CARTESIAN_POINT('',(-7.,-20.,-7.));
#1949=CARTESIAN_POINT('',(-5.03405992376486,-22.4422899086366,-7.));
#1950=CARTESIAN_POINT('Origin',(-4.5,-20.,-7.));
#1951=CARTESIAN_POINT('',(-4.17771116035773,-22.2314710926148,-7.));
#1952=CARTESIAN_POINT('Origin',(-4.82043595425892,-21.465373945182,-7.));
#1953=CARTESIAN_POINT('Origin',(0.,-27.211102550928,-7.));
#1954=CARTESIAN_POINT('',(3.1,-20.,-7.));
#1955=CARTESIAN_POINT('Origin',(4.5,-20.,-7.));
#1956=CARTESIAN_POINT('Origin',(4.5,-20.,-7.2));
#1957=CARTESIAN_POINT('',(3.3,-20.,-7.2));
#1958=CARTESIAN_POINT('Origin',(-4.5,-20.,-9.8));
#1959=CARTESIAN_POINT('',(-5.9,-20.,-10.));
#1960=CARTESIAN_POINT('Origin',(-4.5,-20.,-10.));
#1961=CARTESIAN_POINT('',(-5.7,-20.,-9.8));
#1962=CARTESIAN_POINT('Origin',(0.,0.,-10.));
#1963=CARTESIAN_POINT('',(4.17771116035773,-22.2314710926148,-10.));
#1964=CARTESIAN_POINT('',(5.03405992376486,-22.4422899086366,-10.));
#1965=CARTESIAN_POINT('Origin',(4.82043595425892,-21.465373945182,-10.));
#1966=CARTESIAN_POINT('',(-4.17771116035773,-22.2314710926148,-10.));
#1967=CARTESIAN_POINT('Origin',(0.,-27.211102550928,-10.));
#1968=CARTESIAN_POINT('',(-5.03405992376486,-22.4422899086366,-10.));
#1969=CARTESIAN_POINT('Origin',(-4.82043595425892,-21.465373945182,-10.));
#1970=CARTESIAN_POINT('',(-7.,-20.,-10.));
#1971=CARTESIAN_POINT('Origin',(-4.5,-20.,-10.));
#1972=CARTESIAN_POINT('',(-7.,17.5,-10.));
#1973=CARTESIAN_POINT('',(-7.,-17.,-10.));
#1974=CARTESIAN_POINT('',(-5.,19.5,-10.));
#1975=CARTESIAN_POINT('Origin',(-5.,17.5,-10.));
#1976=CARTESIAN_POINT('',(5.,19.5,-10.));
#1977=CARTESIAN_POINT('',(-7.,19.5,-10.));
#1978=CARTESIAN_POINT('',(7.,17.5,-10.));
#1979=CARTESIAN_POINT('Origin',(5.,17.5,-10.));
#1980=CARTESIAN_POINT('',(7.,-20.,-10.));
#1981=CARTESIAN_POINT('',(7.,19.5,-10.));
#1982=CARTESIAN_POINT('Origin',(4.5,-20.,-10.));
#1983=CARTESIAN_POINT('',(3.1,-20.,-10.));
#1984=CARTESIAN_POINT('Origin',(4.5,-20.,-10.));
#1985=CARTESIAN_POINT('',(2.7,-15.,-10.));
#1986=CARTESIAN_POINT('Origin',(4.,-15.,-10.));
#1987=CARTESIAN_POINT('',(-0.9,14.5,-10.));
#1988=CARTESIAN_POINT('Origin',(0.,14.5,-10.));
#1989=CARTESIAN_POINT('',(-0.9,9.5,-10.));
#1990=CARTESIAN_POINT('Origin',(0.,9.5,-10.));
#1991=CARTESIAN_POINT('',(2.65,17.25,-10.));
#1992=CARTESIAN_POINT('Origin',(3.95,17.25,-10.));
#1993=CARTESIAN_POINT('Origin',(4.5,-20.,-9.8));
#1994=CARTESIAN_POINT('',(3.3,-20.,-9.8));
#1995=CARTESIAN_POINT('Origin',(3.95,17.25,-9.8));
#1996=CARTESIAN_POINT('',(3.05,17.25,-9.6));
#1997=CARTESIAN_POINT('',(2.85,17.25,-9.8));
#1998=CARTESIAN_POINT('',(4.85,17.25,-9.6));
#1999=CARTESIAN_POINT('Origin',(3.95,17.25,-9.6));
#2000=CARTESIAN_POINT('Origin',(3.95,17.25,-9.6));
#2001=CARTESIAN_POINT('Origin',(3.95,17.25,-10.));
#2002=CARTESIAN_POINT('',(4.85,17.25,-6.5));
#2003=CARTESIAN_POINT('',(4.85,17.25,-10.));
#2004=CARTESIAN_POINT('Origin',(3.95,17.25,-6.5));
#2005=CARTESIAN_POINT('Origin',(4.,-15.,-9.8));
#2006=CARTESIAN_POINT('',(3.1,-15.,-9.6));
#2007=CARTESIAN_POINT('',(2.9,-15.,-9.8));
#2008=CARTESIAN_POINT('',(4.9,-15.,-9.6));
#2009=CARTESIAN_POINT('Origin',(4.,-15.,-9.6));
#2010=CARTESIAN_POINT('Origin',(4.,-15.,-9.6));
#2011=CARTESIAN_POINT('Origin',(4.,-15.,-10.));
#2012=CARTESIAN_POINT('',(4.9,-15.,-4.));
#2013=CARTESIAN_POINT('',(4.9,-15.,-10.));
#2014=CARTESIAN_POINT('',(3.1,-15.,-4.));
#2015=CARTESIAN_POINT('Origin',(4.,-15.,-4.));
#2016=CARTESIAN_POINT('Origin',(4.,-15.,-4.));
#2017=CARTESIAN_POINT('Origin',(4.,-15.,-4.));
#2018=CARTESIAN_POINT('Origin',(4.82043595425892,-21.465373945182,-10.));
#2019=CARTESIAN_POINT('',(4.17771116035773,-22.2314710926148,-10.));
#2020=CARTESIAN_POINT('',(5.03405992376486,-22.4422899086366,-10.));
#2021=CARTESIAN_POINT('Origin',(0.,-27.211102550928,-10.));
#2022=CARTESIAN_POINT('',(-4.17771116035773,-22.2314710926148,-10.));
#2023=CARTESIAN_POINT('Origin',(-4.82043595425892,-21.465373945182,-10.));
#2024=CARTESIAN_POINT('',(-5.03405992376486,-22.4422899086366,-10.));
#2025=CARTESIAN_POINT('Origin',(3.5,-10.4,-0.999999999999999));
#2026=CARTESIAN_POINT('',(-7.,-10.4,-2.));
#2027=CARTESIAN_POINT('',(-7.,-11.4,-1.));
#2028=CARTESIAN_POINT('Origin',(-7.,-10.4,-0.999999999999999));
#2029=CARTESIAN_POINT('',(7.,-11.4,-1.));
#2030=CARTESIAN_POINT('',(3.5,-11.4,-0.999999999999999));
#2031=CARTESIAN_POINT('',(7.,-10.4,-2.));
#2032=CARTESIAN_POINT('Origin',(7.,-10.4,-0.999999999999999));
#2033=CARTESIAN_POINT('',(3.5,-10.4,-2.));
#2034=CARTESIAN_POINT('Origin',(7.,-11.4,10.));
#2035=CARTESIAN_POINT('',(-7.,-11.4,7.));
#2036=CARTESIAN_POINT('',(-7.,-11.4,5.));
#2037=CARTESIAN_POINT('',(7.,-11.4,7.));
#2038=CARTESIAN_POINT('',(3.5,-11.4,7.));
#2039=CARTESIAN_POINT('',(7.,-11.4,5.));
#2040=CARTESIAN_POINT('Origin',(-4.5,-14.2,10.));
#2041=CARTESIAN_POINT('',(-5.4,-14.2,7.));
#2042=CARTESIAN_POINT('Origin',(-4.5,-14.2,7.));
#2043=CARTESIAN_POINT('',(-5.4,-14.2,-2.));
#2044=CARTESIAN_POINT('',(-5.4,-14.2,10.));
#2045=CARTESIAN_POINT('',(-3.6,-14.2,-2.));
#2046=CARTESIAN_POINT('Origin',(-4.5,-14.2,-2.));
#2047=CARTESIAN_POINT('Origin',(-4.5,-14.2,-2.));
#2048=CARTESIAN_POINT('Origin',(-4.5,-14.2,-2.));
#2049=CARTESIAN_POINT('Origin',(4.5,-14.2,10.));
#2050=CARTESIAN_POINT('',(3.6,-14.2,7.));
#2051=CARTESIAN_POINT('Origin',(4.5,-14.2,7.));
#2052=CARTESIAN_POINT('',(3.6,-14.2,-2.));
#2053=CARTESIAN_POINT('',(3.6,-14.2,10.));
#2054=CARTESIAN_POINT('',(5.4,-14.2,-2.));
#2055=CARTESIAN_POINT('Origin',(4.5,-14.2,-2.));
#2056=CARTESIAN_POINT('Origin',(4.5,-14.2,-2.));
#2057=CARTESIAN_POINT('Origin',(4.5,-14.2,-2.));
#2058=CARTESIAN_POINT('Origin',(0.,-14.2,7.));
#2059=CARTESIAN_POINT('',(7.,-17.,7.));
#2060=CARTESIAN_POINT('',(-7.,-17.,7.));
#2061=CARTESIAN_POINT('',(-3.5,-17.,7.));
#2062=CARTESIAN_POINT('',(7.,-4.6,7.));
#2063=CARTESIAN_POINT('',(-7.,-9.6,7.));
#2064=CARTESIAN_POINT('Origin',(-7.,-17.,-10.));
#2065=CARTESIAN_POINT('',(-7.,-17.,-10.));
#2066=CARTESIAN_POINT('',(7.,-17.,-10.));
#2067=CARTESIAN_POINT('Origin',(-7.,-5.,0.));
#2068=CARTESIAN_POINT('',(-7.,-5.,-2.));
#2069=CARTESIAN_POINT('',(-7.,-17.,-2.));
#2070=CARTESIAN_POINT('',(-7.,-5.,0.));
#2071=CARTESIAN_POINT('',(-7.,-5.,0.));
#2072=CARTESIAN_POINT('',(-7.,5.,0.));
#2073=CARTESIAN_POINT('',(-7.,5.,0.));
#2074=CARTESIAN_POINT('',(-7.,5.,-6.5));
#2075=CARTESIAN_POINT('',(-7.,5.,0.));
#2076=CARTESIAN_POINT('',(-7.,17.5,-6.5));
#2077=CARTESIAN_POINT('',(-7.,5.,-6.5));
#2078=CARTESIAN_POINT('',(-7.,17.5,-5.));
#2079=CARTESIAN_POINT('',(-7.,-20.,-10.));
#2080=CARTESIAN_POINT('',(-7.,2.38806125833734E-16,-3.05));
#2081=CARTESIAN_POINT('Origin',(-7.,0.,-5.));
#2082=CARTESIAN_POINT('Origin',(4.5,-20.,-10.));
#2083=CARTESIAN_POINT('',(7.,-20.,-10.));
#2084=CARTESIAN_POINT('Origin',(-4.5,-20.,-10.));
#2085=CARTESIAN_POINT('Origin',(5.,17.5,-5.));
#2086=CARTESIAN_POINT('',(5.,19.5,-6.5));
#2087=CARTESIAN_POINT('',(7.,17.5,-6.5));
#2088=CARTESIAN_POINT('Origin',(5.,17.5,-6.5));
#2089=CARTESIAN_POINT('',(7.,17.5,-5.));
#2090=CARTESIAN_POINT('',(5.,19.5,-5.));
#2091=CARTESIAN_POINT('Origin',(7.,19.5,-10.));
#2092=CARTESIAN_POINT('',(-5.,19.5,-6.5));
#2093=CARTESIAN_POINT('',(-5.,19.5,-5.));
#2094=CARTESIAN_POINT('',(-7.,19.5,-6.5));
#2095=CARTESIAN_POINT('Origin',(-5.,17.5,-5.));
#2096=CARTESIAN_POINT('Origin',(-5.,17.5,-6.5));
#2097=CARTESIAN_POINT('Origin',(0.,14.5,-6.5));
#2098=CARTESIAN_POINT('',(0.9,14.5,-6.5));
#2099=CARTESIAN_POINT('',(-0.9,14.5,-6.5));
#2100=CARTESIAN_POINT('Origin',(0.,14.5,-6.5));
#2101=CARTESIAN_POINT('Origin',(0.,14.5,-6.5));
#2102=CARTESIAN_POINT('',(-0.9,14.5,-6.5));
#2103=CARTESIAN_POINT('Origin',(0.,9.5,-6.5));
#2104=CARTESIAN_POINT('',(0.9,9.5,-6.5));
#2105=CARTESIAN_POINT('',(-0.9,9.5,-6.5));
#2106=CARTESIAN_POINT('Origin',(0.,9.5,-6.5));
#2107=CARTESIAN_POINT('Origin',(0.,9.5,-6.5));
#2108=CARTESIAN_POINT('',(-0.9,9.5,-6.5));
#2109=CARTESIAN_POINT('Origin',(0.,12.25,-6.5));
#2110=CARTESIAN_POINT('',(-5.,7.,-6.5));
#2111=CARTESIAN_POINT('Origin',(-5.,5.,-6.5));
#2112=CARTESIAN_POINT('',(5.,7.,-6.5));
#2113=CARTESIAN_POINT('',(-2.5,7.,-6.5));
#2114=CARTESIAN_POINT('',(7.,5.,-6.5));
#2115=CARTESIAN_POINT('Origin',(5.,5.,-6.5));
#2116=CARTESIAN_POINT('',(7.,19.5,-6.5));
#2117=CARTESIAN_POINT('Origin',(0.,-11.,-2.));
#2118=CARTESIAN_POINT('',(7.,-5.,-2.));
#2119=CARTESIAN_POINT('',(7.,0.,-2.));
#2120=CARTESIAN_POINT('',(5.,-7.,-2.));
#2121=CARTESIAN_POINT('Origin',(5.,-5.,-2.));
#2122=CARTESIAN_POINT('',(-5.,-7.,-2.));
#2123=CARTESIAN_POINT('',(2.5,-7.,-2.));
#2124=CARTESIAN_POINT('Origin',(-5.,-5.,-2.));
#2125=CARTESIAN_POINT('Origin',(-5.,7.,0.));
#2126=CARTESIAN_POINT('',(-5.,7.,0.));
#2127=CARTESIAN_POINT('',(-5.,7.,0.));
#2128=CARTESIAN_POINT('',(5.,7.,0.));
#2129=CARTESIAN_POINT('',(5.,7.,0.));
#2130=CARTESIAN_POINT('',(5.,7.,0.));
#2131=CARTESIAN_POINT('Origin',(5.,5.,0.));
#2132=CARTESIAN_POINT('',(7.,5.,0.));
#2133=CARTESIAN_POINT('Origin',(5.,5.,0.));
#2134=CARTESIAN_POINT('',(7.,5.,0.));
#2135=CARTESIAN_POINT('Origin',(5.,-5.,0.));
#2136=CARTESIAN_POINT('',(7.,-5.,0.));
#2137=CARTESIAN_POINT('',(7.,-5.,0.));
#2138=CARTESIAN_POINT('',(5.,-7.,0.));
#2139=CARTESIAN_POINT('Origin',(5.,-5.,0.));
#2140=CARTESIAN_POINT('',(5.,-7.,0.));
#2141=CARTESIAN_POINT('Origin',(5.,-7.,0.));
#2142=CARTESIAN_POINT('',(-5.,-7.,0.));
#2143=CARTESIAN_POINT('',(-5.,-7.,0.));
#2144=CARTESIAN_POINT('',(-5.,-7.,0.));
#2145=CARTESIAN_POINT('Origin',(-5.,-5.,0.));
#2146=CARTESIAN_POINT('Origin',(-5.,-5.,0.));
#2147=CARTESIAN_POINT('Origin',(-5.,5.,0.));
#2148=CARTESIAN_POINT('Origin',(-5.,5.,0.));
#2149=CARTESIAN_POINT('Origin',(0.,0.,0.));
#2150=CARTESIAN_POINT('',(7.,-5.,0.));
#2151=CARTESIAN_POINT('',(-2.,-3.95,0.));
#2152=CARTESIAN_POINT('',(-6.5,-3.95,0.));
#2153=CARTESIAN_POINT('Origin',(-4.25,-3.95,0.));
#2154=CARTESIAN_POINT('Origin',(-4.25,-3.95,0.));
#2155=CARTESIAN_POINT('',(6.5,3.95,0.));
#2156=CARTESIAN_POINT('',(2.,3.95,0.));
#2157=CARTESIAN_POINT('Origin',(4.25,3.95,0.));
#2158=CARTESIAN_POINT('Origin',(4.25,3.95,0.));
#2159=CARTESIAN_POINT('',(6.5,-3.95,0.));
#2160=CARTESIAN_POINT('',(2.,-3.95,0.));
#2161=CARTESIAN_POINT('Origin',(4.25,-3.95,0.));
#2162=CARTESIAN_POINT('Origin',(4.25,-3.95,0.));
#2163=CARTESIAN_POINT('',(-2.,3.95,0.));
#2164=CARTESIAN_POINT('',(-6.5,3.95,0.));
#2165=CARTESIAN_POINT('Origin',(-4.25,3.95,0.));
#2166=CARTESIAN_POINT('Origin',(-4.25,3.95,0.));
#2167=CARTESIAN_POINT('Origin',(-6.75,0.,-5.));
#2168=CARTESIAN_POINT('',(-6.75,2.0818995585505E-16,-3.3));
#2169=CARTESIAN_POINT('Origin',(7.,5.,0.));
#2170=CARTESIAN_POINT('',(7.,2.38806125833734E-16,-6.95));
#2171=CARTESIAN_POINT('Origin',(7.,0.,-5.));
#2172=CARTESIAN_POINT('Origin',(6.75,0.,-5.));
#2173=CARTESIAN_POINT('',(6.75,2.0818995585505E-16,-6.7));
#2174=CARTESIAN_POINT('Origin',(4.25,-3.95,0.));
#2175=CARTESIAN_POINT('',(6.5,-3.95,0.8));
#2176=CARTESIAN_POINT('',(2.,-3.95,0.8));
#2177=CARTESIAN_POINT('Origin',(4.25,-3.95,0.8));
#2178=CARTESIAN_POINT('Origin',(4.25,-3.95,0.8));
#2179=CARTESIAN_POINT('',(2.,-3.95,0.));
#2180=CARTESIAN_POINT('Origin',(4.25,-3.95,0.9));
#2181=CARTESIAN_POINT('',(6.4,-3.95,0.9));
#2182=CARTESIAN_POINT('Origin',(-4.25,-3.95,0.));
#2183=CARTESIAN_POINT('',(-2.,-3.95,0.8));
#2184=CARTESIAN_POINT('',(-6.5,-3.95,0.8));
#2185=CARTESIAN_POINT('Origin',(-4.25,-3.95,0.8));
#2186=CARTESIAN_POINT('Origin',(-4.25,-3.95,0.8));
#2187=CARTESIAN_POINT('',(-6.5,-3.95,0.));
#2188=CARTESIAN_POINT('Origin',(-4.25,-3.95,0.9));
#2189=CARTESIAN_POINT('',(-2.1,-3.95,0.9));
#2190=CARTESIAN_POINT('Origin',(-4.25,3.95,0.));
#2191=CARTESIAN_POINT('',(-2.,3.95,0.8));
#2192=CARTESIAN_POINT('',(-6.5,3.95,0.8));
#2193=CARTESIAN_POINT('Origin',(-4.25,3.95,0.8));
#2194=CARTESIAN_POINT('Origin',(-4.25,3.95,0.8));
#2195=CARTESIAN_POINT('',(-6.5,3.95,0.));
#2196=CARTESIAN_POINT('Origin',(-4.25,3.95,0.9));
#2197=CARTESIAN_POINT('',(-2.1,3.95,0.9));
#2198=CARTESIAN_POINT('Origin',(4.25,3.95,0.));
#2199=CARTESIAN_POINT('',(6.5,3.95,0.8));
#2200=CARTESIAN_POINT('',(2.,3.95,0.8));
#2201=CARTESIAN_POINT('Origin',(4.25,3.95,0.8));
#2202=CARTESIAN_POINT('Origin',(4.25,3.95,0.8));
#2203=CARTESIAN_POINT('',(2.,3.95,0.));
#2204=CARTESIAN_POINT('Origin',(4.25,3.95,0.9));
#2205=CARTESIAN_POINT('',(6.4,3.95,0.9));
#2206=UNCERTAINTY_MEASURE_WITH_UNIT(LENGTH_MEASURE(0.01),#2210,
'DISTANCE_ACCURACY_VALUE',
'Maximum model space distance between geometric entities at asserted c
onnectivities');
#2207=UNCERTAINTY_MEASURE_WITH_UNIT(LENGTH_MEASURE(0.01),#2210,
'DISTANCE_ACCURACY_VALUE',
'Maximum model space distance between geometric entities at asserted c
onnectivities');
#2208=(
GEOMETRIC_REPRESENTATION_CONTEXT(3)
GLOBAL_UNCERTAINTY_ASSIGNED_CONTEXT((#2206))
GLOBAL_UNIT_ASSIGNED_CONTEXT((#2210,#2212,#2213))
REPRESENTATION_CONTEXT('','3D')
);
#2209=(
GEOMETRIC_REPRESENTATION_CONTEXT(3)
GLOBAL_UNCERTAINTY_ASSIGNED_CONTEXT((#2207))
GLOBAL_UNIT_ASSIGNED_CONTEXT((#2210,#2212,#2213))
REPRESENTATION_CONTEXT('','3D')
);
#2210=(
LENGTH_UNIT()
NAMED_UNIT(*)
SI_UNIT(.MILLI.,.METRE.)
);
#2211=(
LENGTH_UNIT()
NAMED_UNIT(*)
SI_UNIT(.CENTI.,.METRE.)
);
#2212=(
NAMED_UNIT(*)
PLANE_ANGLE_UNIT()
SI_UNIT($,.RADIAN.)
);
#2213=(
NAMED_UNIT(*)
SI_UNIT($,.STERADIAN.)
SOLID_ANGLE_UNIT()
);
#2214=SHAPE_DEFINITION_REPRESENTATION(#2215,#2216);
#2215=PRODUCT_DEFINITION_SHAPE('',$,#2218);
#2216=SHAPE_REPRESENTATION('',(#1258),#2208);
#2217=PRODUCT_DEFINITION_CONTEXT('part definition',#2222,'design');
#2218=PRODUCT_DEFINITION('slider','slider',#2219,#2217);
#2219=PRODUCT_DEFINITION_FORMATION('',$,#2224);
#2220=PRODUCT_RELATED_PRODUCT_CATEGORY('slider','slider',(#2224));
#2221=APPLICATION_PROTOCOL_DEFINITION('international standard',
'automotive_design',2009,#2222);
#2222=APPLICATION_CONTEXT(
'Core Data for Automotive Mechanical Design Process');
#2223=PRODUCT_CONTEXT('part definition',#2222,'mechanical');
#2224=PRODUCT('slider','slider',$,(#2223));
#2225=PRESENTATION_STYLE_ASSIGNMENT((#2226));
#2226=SURFACE_STYLE_USAGE(.BOTH.,#2229);
#2227=SURFACE_STYLE_RENDERING_WITH_PROPERTIES($,#2233,(#2228));
#2228=SURFACE_STYLE_TRANSPARENT(0.);
#2229=SURFACE_SIDE_STYLE('',(#2230,#2227));
#2230=SURFACE_STYLE_FILL_AREA(#2231);
#2231=FILL_AREA_STYLE('',(#2232));
#2232=FILL_AREA_STYLE_COLOUR('',#2233);
#2233=COLOUR_RGB('',0.92156862745098,0.92156862745098,0.92156862745098);
ENDSEC;
END-ISO-10303-21;
