ISO-10303-21;
HEADER;
/* Generated by software containing ST-Developer
 * from STEP Tools, Inc. (www.steptools.com) 
 */

FILE_DESCRIPTION(
/* description */ (''),
/* implementation_level */ '2;1');

FILE_NAME(
/* name */ 
'C:\\Users\\drago\\OneDrive\\Ta\X2\0300\X0\i li\X\EA\X2\0323\X0\u\\2ax
is CNC\\slider Y.stp',
/* time_stamp */ '2026-08-19T14:17:40+07:00',
/* author */ ('drago'),
/* organization */ (''),
/* preprocessor_version */ 'ST-DEVELOPER v18',
/* originating_system */ 'Autodesk Inventor 2020',
/* authorisation */ '');

FILE_SCHEMA (('AUTOMOTIVE_DESIGN { 1 0 10303 214 3 1 1 }'));
ENDSEC;

DATA;
#10=MECHANICAL_DESIGN_GEOMETRIC_PRESENTATION_REPRESENTATION('',(#13),#1714);
#11=SHAPE_REPRESENTATION_RELATIONSHIP('SRR','None',#1721,#12);
#12=ADVANCED_BREP_SHAPE_REPRESENTATION('',(#14),#1713);
#13=STYLED_ITEM('',(#1730),#14);
#14=MANIFOLD_SOLID_BREP('Solid1',#959);
#15=CONICAL_SURFACE('',#1026,1.5,0.785398163397449);
#16=CONICAL_SURFACE('',#1032,1.5,0.785398163397449);
#17=CONICAL_SURFACE('',#1044,1.5,0.785398163397449);
#18=CONICAL_SURFACE('',#1055,1.5,0.785398163397449);
#19=CONICAL_SURFACE('',#1089,1.7,0.785398163397448);
#20=CONICAL_SURFACE('',#1092,1.7,0.785398163397448);
#21=CONICAL_SURFACE('',#1096,2.15,0.785398163397449);
#22=CONICAL_SURFACE('',#1100,2.15,0.785398163397449);
#23=CONICAL_SURFACE('',#1104,2.15,0.785398163397449);
#24=CONICAL_SURFACE('',#1108,2.15,0.785398163397449);
#25=CYLINDRICAL_SURFACE('',#994,1.525);
#26=CYLINDRICAL_SURFACE('',#998,0.9);
#27=CYLINDRICAL_SURFACE('',#1001,0.899999999999998);
#28=CYLINDRICAL_SURFACE('',#1004,0.899999999999999);
#29=CYLINDRICAL_SURFACE('',#1007,0.899999999999999);
#30=CYLINDRICAL_SURFACE('',#1015,2.);
#31=CYLINDRICAL_SURFACE('',#1017,2.);
#32=CYLINDRICAL_SURFACE('',#1028,1.4);
#33=CYLINDRICAL_SURFACE('',#1034,1.4);
#34=CYLINDRICAL_SURFACE('',#1046,1.4);
#35=CYLINDRICAL_SURFACE('',#1053,1.4);
#36=CYLINDRICAL_SURFACE('',#1056,2.);
#37=CYLINDRICAL_SURFACE('',#1059,2.);
#38=CYLINDRICAL_SURFACE('',#1061,0.9);
#39=CYLINDRICAL_SURFACE('',#1064,0.9);
#40=CYLINDRICAL_SURFACE('',#1071,2.);
#41=CYLINDRICAL_SURFACE('',#1073,2.);
#42=CYLINDRICAL_SURFACE('',#1076,2.);
#43=CYLINDRICAL_SURFACE('',#1078,2.);
#44=CYLINDRICAL_SURFACE('',#1093,2.25);
#45=CYLINDRICAL_SURFACE('',#1097,2.25);
#46=CYLINDRICAL_SURFACE('',#1101,2.25);
#47=CYLINDRICAL_SURFACE('',#1105,2.25);
#48=FACE_BOUND('',#122,.T.);
#49=FACE_BOUND('',#123,.T.);
#50=FACE_BOUND('',#124,.T.);
#51=FACE_BOUND('',#125,.T.);
#52=FACE_BOUND('',#126,.T.);
#53=FACE_BOUND('',#127,.T.);
#54=FACE_BOUND('',#134,.T.);
#55=FACE_BOUND('',#135,.T.);
#56=FACE_BOUND('',#140,.T.);
#57=FACE_BOUND('',#142,.T.);
#58=FACE_BOUND('',#144,.T.);
#59=FACE_BOUND('',#152,.T.);
#60=FACE_BOUND('',#154,.T.);
#61=FACE_BOUND('',#167,.T.);
#62=FACE_BOUND('',#168,.T.);
#63=FACE_BOUND('',#169,.T.);
#64=FACE_BOUND('',#170,.T.);
#65=FACE_BOUND('',#178,.T.);
#66=FACE_BOUND('',#179,.T.);
#67=FACE_BOUND('',#180,.T.);
#68=FACE_BOUND('',#181,.T.);
#69=FACE_BOUND('',#184,.T.);
#70=FACE_OUTER_BOUND('',#121,.T.);
#71=FACE_OUTER_BOUND('',#128,.T.);
#72=FACE_OUTER_BOUND('',#129,.T.);
#73=FACE_OUTER_BOUND('',#130,.T.);
#74=FACE_OUTER_BOUND('',#131,.T.);
#75=FACE_OUTER_BOUND('',#132,.T.);
#76=FACE_OUTER_BOUND('',#133,.T.);
#77=FACE_OUTER_BOUND('',#136,.T.);
#78=FACE_OUTER_BOUND('',#137,.T.);
#79=FACE_OUTER_BOUND('',#138,.T.);
#80=FACE_OUTER_BOUND('',#139,.T.);
#81=FACE_OUTER_BOUND('',#141,.T.);
#82=FACE_OUTER_BOUND('',#143,.T.);
#83=FACE_OUTER_BOUND('',#145,.T.);
#84=FACE_OUTER_BOUND('',#146,.T.);
#85=FACE_OUTER_BOUND('',#147,.T.);
#86=FACE_OUTER_BOUND('',#148,.T.);
#87=FACE_OUTER_BOUND('',#149,.T.);
#88=FACE_OUTER_BOUND('',#150,.T.);
#89=FACE_OUTER_BOUND('',#151,.T.);
#90=FACE_OUTER_BOUND('',#153,.T.);
#91=FACE_OUTER_BOUND('',#155,.T.);
#92=FACE_OUTER_BOUND('',#156,.T.);
#93=FACE_OUTER_BOUND('',#157,.T.);
#94=FACE_OUTER_BOUND('',#158,.T.);
#95=FACE_OUTER_BOUND('',#159,.T.);
#96=FACE_OUTER_BOUND('',#160,.T.);
#97=FACE_OUTER_BOUND('',#161,.T.);
#98=FACE_OUTER_BOUND('',#162,.T.);
#99=FACE_OUTER_BOUND('',#163,.T.);
#100=FACE_OUTER_BOUND('',#164,.T.);
#101=FACE_OUTER_BOUND('',#165,.T.);
#102=FACE_OUTER_BOUND('',#166,.T.);
#103=FACE_OUTER_BOUND('',#171,.T.);
#104=FACE_OUTER_BOUND('',#172,.T.);
#105=FACE_OUTER_BOUND('',#173,.T.);
#106=FACE_OUTER_BOUND('',#174,.T.);
#107=FACE_OUTER_BOUND('',#175,.T.);
#108=FACE_OUTER_BOUND('',#176,.T.);
#109=FACE_OUTER_BOUND('',#177,.T.);
#110=FACE_OUTER_BOUND('',#182,.T.);
#111=FACE_OUTER_BOUND('',#183,.T.);
#112=FACE_OUTER_BOUND('',#185,.T.);
#113=FACE_OUTER_BOUND('',#186,.T.);
#114=FACE_OUTER_BOUND('',#187,.T.);
#115=FACE_OUTER_BOUND('',#188,.T.);
#116=FACE_OUTER_BOUND('',#189,.T.);
#117=FACE_OUTER_BOUND('',#190,.T.);
#118=FACE_OUTER_BOUND('',#191,.T.);
#119=FACE_OUTER_BOUND('',#192,.T.);
#120=FACE_OUTER_BOUND('',#193,.T.);
#121=EDGE_LOOP('',(#618,#619,#620,#621,#622,#623,#624,#625));
#122=EDGE_LOOP('',(#626,#627));
#123=EDGE_LOOP('',(#628,#629));
#124=EDGE_LOOP('',(#630,#631));
#125=EDGE_LOOP('',(#632,#633));
#126=EDGE_LOOP('',(#634));
#127=EDGE_LOOP('',(#635));
#128=EDGE_LOOP('',(#636,#637,#638,#639,#640));
#129=EDGE_LOOP('',(#641,#642,#643,#644,#645,#646));
#130=EDGE_LOOP('',(#647,#648,#649,#650,#651,#652));
#131=EDGE_LOOP('',(#653,#654,#655,#656,#657,#658));
#132=EDGE_LOOP('',(#659,#660,#661,#662,#663,#664));
#133=EDGE_LOOP('',(#665,#666,#667,#668,#669,#670,#671,#672));
#134=EDGE_LOOP('',(#673,#674));
#135=EDGE_LOOP('',(#675,#676));
#136=EDGE_LOOP('',(#677,#678,#679,#680));
#137=EDGE_LOOP('',(#681,#682,#683,#684));
#138=EDGE_LOOP('',(#685,#686,#687,#688));
#139=EDGE_LOOP('',(#689,#690,#691,#692,#693,#694,#695,#696));
#140=EDGE_LOOP('',(#697));
#141=EDGE_LOOP('',(#698));
#142=EDGE_LOOP('',(#699));
#143=EDGE_LOOP('',(#700));
#144=EDGE_LOOP('',(#701));
#145=EDGE_LOOP('',(#702,#703,#704,#705));
#146=EDGE_LOOP('',(#706,#707,#708,#709,#710));
#147=EDGE_LOOP('',(#711,#712));
#148=EDGE_LOOP('',(#713,#714,#715,#716));
#149=EDGE_LOOP('',(#717,#718,#719,#720,#721));
#150=EDGE_LOOP('',(#722,#723));
#151=EDGE_LOOP('',(#724));
#152=EDGE_LOOP('',(#725));
#153=EDGE_LOOP('',(#726));
#154=EDGE_LOOP('',(#727));
#155=EDGE_LOOP('',(#728,#729,#730,#731));
#156=EDGE_LOOP('',(#732,#733,#734,#735,#736));
#157=EDGE_LOOP('',(#737,#738));
#158=EDGE_LOOP('',(#739,#740));
#159=EDGE_LOOP('',(#741,#742,#743,#744,#745));
#160=EDGE_LOOP('',(#746,#747,#748,#749));
#161=EDGE_LOOP('',(#750,#751,#752,#753));
#162=EDGE_LOOP('',(#754,#755,#756,#757));
#163=EDGE_LOOP('',(#758,#759,#760,#761));
#164=EDGE_LOOP('',(#762,#763,#764,#765,#766));
#165=EDGE_LOOP('',(#767,#768,#769,#770,#771));
#166=EDGE_LOOP('',(#772,#773,#774,#775,#776,#777,#778,#779));
#167=EDGE_LOOP('',(#780,#781));
#168=EDGE_LOOP('',(#782,#783));
#169=EDGE_LOOP('',(#784,#785));
#170=EDGE_LOOP('',(#786,#787));
#171=EDGE_LOOP('',(#788,#789,#790,#791));
#172=EDGE_LOOP('',(#792,#793,#794,#795));
#173=EDGE_LOOP('',(#796,#797,#798,#799));
#174=EDGE_LOOP('',(#800,#801,#802,#803));
#175=EDGE_LOOP('',(#804,#805,#806,#807));
#176=EDGE_LOOP('',(#808,#809,#810,#811));
#177=EDGE_LOOP('',(#812,#813,#814,#815,#816,#817,#818,#819));
#178=EDGE_LOOP('',(#820,#821));
#179=EDGE_LOOP('',(#822,#823));
#180=EDGE_LOOP('',(#824,#825));
#181=EDGE_LOOP('',(#826,#827));
#182=EDGE_LOOP('',(#828,#829,#830,#831,#832));
#183=EDGE_LOOP('',(#833,#834,#835,#836,#837,#838,#839,#840));
#184=EDGE_LOOP('',(#841));
#185=EDGE_LOOP('',(#842,#843,#844,#845));
#186=EDGE_LOOP('',(#846,#847,#848,#849,#850,#851));
#187=EDGE_LOOP('',(#852,#853,#854,#855,#856));
#188=EDGE_LOOP('',(#857,#858,#859,#860,#861,#862));
#189=EDGE_LOOP('',(#863,#864,#865,#866,#867));
#190=EDGE_LOOP('',(#868,#869,#870,#871,#872,#873));
#191=EDGE_LOOP('',(#874,#875,#876,#877,#878));
#192=EDGE_LOOP('',(#879,#880,#881,#882,#883,#884));
#193=EDGE_LOOP('',(#885,#886,#887,#888,#889));
#194=CIRCLE('',#980,2.);
#195=CIRCLE('',#981,2.);
#196=CIRCLE('',#982,2.);
#197=CIRCLE('',#983,2.);
#198=CIRCLE('',#984,0.9);
#199=CIRCLE('',#985,0.9);
#200=CIRCLE('',#986,0.899999999999998);
#201=CIRCLE('',#987,0.899999999999998);
#202=CIRCLE('',#988,0.899999999999999);
#203=CIRCLE('',#989,0.899999999999999);
#204=CIRCLE('',#990,0.899999999999999);
#205=CIRCLE('',#991,0.899999999999999);
#206=CIRCLE('',#992,0.9);
#207=CIRCLE('',#993,0.9);
#208=CIRCLE('',#995,1.525);
#209=CIRCLE('',#996,1.525);
#210=CIRCLE('',#997,1.525);
#211=CIRCLE('',#999,0.9);
#212=CIRCLE('',#1000,0.9);
#213=CIRCLE('',#1002,0.899999999999998);
#214=CIRCLE('',#1003,0.899999999999998);
#215=CIRCLE('',#1005,0.899999999999999);
#216=CIRCLE('',#1006,0.899999999999999);
#217=CIRCLE('',#1008,0.899999999999999);
#218=CIRCLE('',#1009,0.899999999999999);
#219=CIRCLE('',#1011,2.);
#220=CIRCLE('',#1012,2.);
#221=CIRCLE('',#1013,2.);
#222=CIRCLE('',#1014,2.);
#223=CIRCLE('',#1019,1.95);
#224=CIRCLE('',#1021,2.05);
#225=CIRCLE('',#1022,1.6);
#226=CIRCLE('',#1024,2.05);
#227=CIRCLE('',#1025,1.6);
#228=CIRCLE('',#1027,1.4);
#229=CIRCLE('',#1029,1.4);
#230=CIRCLE('',#1030,1.4);
#231=CIRCLE('',#1033,1.4);
#232=CIRCLE('',#1035,1.4);
#233=CIRCLE('',#1036,1.4);
#234=CIRCLE('',#1039,2.05);
#235=CIRCLE('',#1040,1.6);
#236=CIRCLE('',#1042,2.05);
#237=CIRCLE('',#1043,1.6);
#238=CIRCLE('',#1045,1.4);
#239=CIRCLE('',#1047,1.4);
#240=CIRCLE('',#1048,1.4);
#241=CIRCLE('',#1051,1.4);
#242=CIRCLE('',#1052,1.4);
#243=CIRCLE('',#1054,1.4);
#244=CIRCLE('',#1057,2.);
#245=CIRCLE('',#1060,2.);
#246=CIRCLE('',#1062,0.9);
#247=CIRCLE('',#1063,0.9);
#248=CIRCLE('',#1065,0.9);
#249=CIRCLE('',#1066,0.9);
#250=CIRCLE('',#1068,2.);
#251=CIRCLE('',#1069,2.);
#252=CIRCLE('',#1072,2.);
#253=CIRCLE('',#1074,2.);
#254=CIRCLE('',#1077,2.);
#255=CIRCLE('',#1079,2.);
#256=CIRCLE('',#1081,2.25);
#257=CIRCLE('',#1082,2.25);
#258=CIRCLE('',#1083,2.25);
#259=CIRCLE('',#1084,2.25);
#260=CIRCLE('',#1085,2.25);
#261=CIRCLE('',#1086,2.25);
#262=CIRCLE('',#1087,2.25);
#263=CIRCLE('',#1088,2.25);
#264=CIRCLE('',#1091,1.95);
#265=CIRCLE('',#1094,2.25);
#266=CIRCLE('',#1095,2.25);
#267=CIRCLE('',#1098,2.25);
#268=CIRCLE('',#1099,2.25);
#269=CIRCLE('',#1102,2.25);
#270=CIRCLE('',#1103,2.25);
#271=CIRCLE('',#1106,2.25);
#272=CIRCLE('',#1107,2.25);
#273=LINE('',#1432,#330);
#274=LINE('',#1436,#331);
#275=LINE('',#1440,#332);
#276=LINE('',#1444,#333);
#277=LINE('',#1471,#334);
#278=LINE('',#1476,#335);
#279=LINE('',#1482,#336);
#280=LINE('',#1488,#337);
#281=LINE('',#1494,#338);
#282=LINE('',#1503,#339);
#283=LINE('',#1507,#340);
#284=LINE('',#1511,#341);
#285=LINE('',#1514,#342);
#286=LINE('',#1516,#343);
#287=LINE('',#1517,#344);
#288=LINE('',#1519,#345);
#289=LINE('',#1521,#346);
#290=LINE('',#1524,#347);
#291=LINE('',#1526,#348);
#292=LINE('',#1528,#349);
#293=LINE('',#1530,#350);
#294=LINE('',#1531,#351);
#295=LINE('',#1546,#352);
#296=LINE('',#1550,#353);
#297=LINE('',#1557,#354);
#298=LINE('',#1561,#355);
#299=LINE('',#1578,#356);
#300=LINE('',#1582,#357);
#301=LINE('',#1595,#358);
#302=LINE('',#1597,#359);
#303=LINE('',#1602,#360);
#304=LINE('',#1603,#361);
#305=LINE('',#1606,#362);
#306=LINE('',#1607,#363);
#307=LINE('',#1615,#364);
#308=LINE('',#1621,#365);
#309=LINE('',#1626,#366);
#310=LINE('',#1629,#367);
#311=LINE('',#1632,#368);
#312=LINE('',#1634,#369);
#313=LINE('',#1635,#370);
#314=LINE('',#1639,#371);
#315=LINE('',#1642,#372);
#316=LINE('',#1645,#373);
#317=LINE('',#1648,#374);
#318=LINE('',#1649,#375);
#319=LINE('',#1655,#376);
#320=LINE('',#1673,#377);
#321=LINE('',#1678,#378);
#322=LINE('',#1684,#379);
#323=LINE('',#1686,#380);
#324=LINE('',#1692,#381);
#325=LINE('',#1694,#382);
#326=LINE('',#1700,#383);
#327=LINE('',#1702,#384);
#328=LINE('',#1708,#385);
#329=LINE('',#1710,#386);
#330=VECTOR('',#1113,10.);
#331=VECTOR('',#1116,10.);
#332=VECTOR('',#1119,10.);
#333=VECTOR('',#1122,10.);
#334=VECTOR('',#1149,1.525);
#335=VECTOR('',#1156,0.9);
#336=VECTOR('',#1163,0.899999999999998);
#337=VECTOR('',#1170,0.899999999999999);
#338=VECTOR('',#1177,0.899999999999999);
#339=VECTOR('',#1186,10.);
#340=VECTOR('',#1189,10.);
#341=VECTOR('',#1192,10.);
#342=VECTOR('',#1195,10.);
#343=VECTOR('',#1198,10.);
#344=VECTOR('',#1199,10.);
#345=VECTOR('',#1202,10.);
#346=VECTOR('',#1205,10.);
#347=VECTOR('',#1208,10.);
#348=VECTOR('',#1209,10.);
#349=VECTOR('',#1210,10.);
#350=VECTOR('',#1211,10.);
#351=VECTOR('',#1212,10.);
#352=VECTOR('',#1229,1.5);
#353=VECTOR('',#1234,1.4);
#354=VECTOR('',#1243,1.5);
#355=VECTOR('',#1248,1.4);
#356=VECTOR('',#1269,1.5);
#357=VECTOR('',#1274,1.4);
#358=VECTOR('',#1291,1.4);
#359=VECTOR('',#1294,1.5);
#360=VECTOR('',#1299,10.);
#361=VECTOR('',#1300,10.);
#362=VECTOR('',#1303,10.);
#363=VECTOR('',#1304,10.);
#364=VECTOR('',#1315,0.9);
#365=VECTOR('',#1322,0.9);
#366=VECTOR('',#1327,10.);
#367=VECTOR('',#1330,10.);
#368=VECTOR('',#1333,10.);
#369=VECTOR('',#1334,10.);
#370=VECTOR('',#1335,10.);
#371=VECTOR('',#1340,10.);
#372=VECTOR('',#1343,10.);
#373=VECTOR('',#1346,10.);
#374=VECTOR('',#1349,10.);
#375=VECTOR('',#1350,10.);
#376=VECTOR('',#1361,10.);
#377=VECTOR('',#1380,1.7);
#378=VECTOR('',#1387,1.7);
#379=VECTOR('',#1394,2.25);
#380=VECTOR('',#1397,2.15);
#381=VECTOR('',#1404,2.25);
#382=VECTOR('',#1407,2.15);
#383=VECTOR('',#1414,2.25);
#384=VECTOR('',#1417,2.15);
#385=VECTOR('',#1424,2.25);
#386=VECTOR('',#1427,2.15);
#387=VERTEX_POINT('',#1430);
#388=VERTEX_POINT('',#1431);
#389=VERTEX_POINT('',#1433);
#390=VERTEX_POINT('',#1435);
#391=VERTEX_POINT('',#1437);
#392=VERTEX_POINT('',#1439);
#393=VERTEX_POINT('',#1441);
#394=VERTEX_POINT('',#1443);
#395=VERTEX_POINT('',#1446);
#396=VERTEX_POINT('',#1447);
#397=VERTEX_POINT('',#1450);
#398=VERTEX_POINT('',#1451);
#399=VERTEX_POINT('',#1454);
#400=VERTEX_POINT('',#1455);
#401=VERTEX_POINT('',#1458);
#402=VERTEX_POINT('',#1459);
#403=VERTEX_POINT('',#1462);
#404=VERTEX_POINT('',#1464);
#405=VERTEX_POINT('',#1467);
#406=VERTEX_POINT('',#1468);
#407=VERTEX_POINT('',#1470);
#408=VERTEX_POINT('',#1475);
#409=VERTEX_POINT('',#1477);
#410=VERTEX_POINT('',#1481);
#411=VERTEX_POINT('',#1483);
#412=VERTEX_POINT('',#1487);
#413=VERTEX_POINT('',#1489);
#414=VERTEX_POINT('',#1493);
#415=VERTEX_POINT('',#1495);
#416=VERTEX_POINT('',#1499);
#417=VERTEX_POINT('',#1500);
#418=VERTEX_POINT('',#1502);
#419=VERTEX_POINT('',#1504);
#420=VERTEX_POINT('',#1506);
#421=VERTEX_POINT('',#1508);
#422=VERTEX_POINT('',#1510);
#423=VERTEX_POINT('',#1512);
#424=VERTEX_POINT('',#1523);
#425=VERTEX_POINT('',#1525);
#426=VERTEX_POINT('',#1527);
#427=VERTEX_POINT('',#1529);
#428=VERTEX_POINT('',#1532);
#429=VERTEX_POINT('',#1535);
#430=VERTEX_POINT('',#1537);
#431=VERTEX_POINT('',#1540);
#432=VERTEX_POINT('',#1542);
#433=VERTEX_POINT('',#1545);
#434=VERTEX_POINT('',#1549);
#435=VERTEX_POINT('',#1551);
#436=VERTEX_POINT('',#1556);
#437=VERTEX_POINT('',#1560);
#438=VERTEX_POINT('',#1562);
#439=VERTEX_POINT('',#1567);
#440=VERTEX_POINT('',#1569);
#441=VERTEX_POINT('',#1572);
#442=VERTEX_POINT('',#1574);
#443=VERTEX_POINT('',#1577);
#444=VERTEX_POINT('',#1581);
#445=VERTEX_POINT('',#1583);
#446=VERTEX_POINT('',#1588);
#447=VERTEX_POINT('',#1589);
#448=VERTEX_POINT('',#1593);
#449=VERTEX_POINT('',#1599);
#450=VERTEX_POINT('',#1600);
#451=VERTEX_POINT('',#1605);
#452=VERTEX_POINT('',#1611);
#453=VERTEX_POINT('',#1612);
#454=VERTEX_POINT('',#1617);
#455=VERTEX_POINT('',#1618);
#456=VERTEX_POINT('',#1623);
#457=VERTEX_POINT('',#1625);
#458=VERTEX_POINT('',#1627);
#459=VERTEX_POINT('',#1631);
#460=VERTEX_POINT('',#1633);
#461=VERTEX_POINT('',#1637);
#462=VERTEX_POINT('',#1641);
#463=VERTEX_POINT('',#1643);
#464=VERTEX_POINT('',#1647);
#465=VERTEX_POINT('',#1656);
#466=VERTEX_POINT('',#1657);
#467=VERTEX_POINT('',#1660);
#468=VERTEX_POINT('',#1661);
#469=VERTEX_POINT('',#1664);
#470=VERTEX_POINT('',#1665);
#471=VERTEX_POINT('',#1668);
#472=VERTEX_POINT('',#1669);
#473=VERTEX_POINT('',#1675);
#474=VERTEX_POINT('',#1680);
#475=VERTEX_POINT('',#1681);
#476=VERTEX_POINT('',#1688);
#477=VERTEX_POINT('',#1689);
#478=VERTEX_POINT('',#1696);
#479=VERTEX_POINT('',#1697);
#480=VERTEX_POINT('',#1704);
#481=VERTEX_POINT('',#1705);
#482=EDGE_CURVE('',#387,#388,#273,.T.);
#483=EDGE_CURVE('',#388,#389,#194,.T.);
#484=EDGE_CURVE('',#389,#390,#274,.T.);
#485=EDGE_CURVE('',#390,#391,#195,.T.);
#486=EDGE_CURVE('',#391,#392,#275,.T.);
#487=EDGE_CURVE('',#392,#393,#196,.T.);
#488=EDGE_CURVE('',#393,#394,#276,.T.);
#489=EDGE_CURVE('',#394,#387,#197,.T.);
#490=EDGE_CURVE('',#395,#396,#198,.T.);
#491=EDGE_CURVE('',#396,#395,#199,.T.);
#492=EDGE_CURVE('',#397,#398,#200,.T.);
#493=EDGE_CURVE('',#398,#397,#201,.T.);
#494=EDGE_CURVE('',#399,#400,#202,.T.);
#495=EDGE_CURVE('',#400,#399,#203,.T.);
#496=EDGE_CURVE('',#401,#402,#204,.T.);
#497=EDGE_CURVE('',#402,#401,#205,.T.);
#498=EDGE_CURVE('',#403,#403,#206,.T.);
#499=EDGE_CURVE('',#404,#404,#207,.T.);
#500=EDGE_CURVE('',#405,#406,#208,.T.);
#501=EDGE_CURVE('',#405,#407,#277,.T.);
#502=EDGE_CURVE('',#407,#407,#209,.T.);
#503=EDGE_CURVE('',#406,#405,#210,.T.);
#504=EDGE_CURVE('',#396,#408,#278,.T.);
#505=EDGE_CURVE('',#409,#408,#211,.T.);
#506=EDGE_CURVE('',#408,#409,#212,.T.);
#507=EDGE_CURVE('',#398,#410,#279,.T.);
#508=EDGE_CURVE('',#411,#410,#213,.T.);
#509=EDGE_CURVE('',#410,#411,#214,.T.);
#510=EDGE_CURVE('',#400,#412,#280,.T.);
#511=EDGE_CURVE('',#413,#412,#215,.T.);
#512=EDGE_CURVE('',#412,#413,#216,.T.);
#513=EDGE_CURVE('',#402,#414,#281,.T.);
#514=EDGE_CURVE('',#415,#414,#217,.T.);
#515=EDGE_CURVE('',#414,#415,#218,.T.);
#516=EDGE_CURVE('',#416,#417,#219,.T.);
#517=EDGE_CURVE('',#418,#416,#282,.T.);
#518=EDGE_CURVE('',#419,#418,#220,.T.);
#519=EDGE_CURVE('',#419,#420,#283,.T.);
#520=EDGE_CURVE('',#420,#421,#221,.T.);
#521=EDGE_CURVE('',#421,#422,#284,.T.);
#522=EDGE_CURVE('',#422,#423,#222,.T.);
#523=EDGE_CURVE('',#423,#417,#285,.T.);
#524=EDGE_CURVE('',#422,#387,#286,.T.);
#525=EDGE_CURVE('',#423,#394,#287,.T.);
#526=EDGE_CURVE('',#421,#388,#288,.T.);
#527=EDGE_CURVE('',#420,#389,#289,.T.);
#528=EDGE_CURVE('',#424,#419,#290,.T.);
#529=EDGE_CURVE('',#425,#424,#291,.T.);
#530=EDGE_CURVE('',#425,#426,#292,.T.);
#531=EDGE_CURVE('',#427,#426,#293,.T.);
#532=EDGE_CURVE('',#390,#427,#294,.T.);
#533=EDGE_CURVE('',#428,#428,#223,.T.);
#534=EDGE_CURVE('',#429,#429,#224,.T.);
#535=EDGE_CURVE('',#430,#430,#225,.T.);
#536=EDGE_CURVE('',#431,#431,#226,.T.);
#537=EDGE_CURVE('',#432,#432,#227,.T.);
#538=EDGE_CURVE('',#430,#433,#295,.T.);
#539=EDGE_CURVE('',#433,#433,#228,.T.);
#540=EDGE_CURVE('',#433,#434,#296,.T.);
#541=EDGE_CURVE('',#434,#435,#229,.T.);
#542=EDGE_CURVE('',#435,#434,#230,.T.);
#543=EDGE_CURVE('',#432,#436,#297,.T.);
#544=EDGE_CURVE('',#436,#436,#231,.T.);
#545=EDGE_CURVE('',#436,#437,#298,.T.);
#546=EDGE_CURVE('',#437,#438,#232,.T.);
#547=EDGE_CURVE('',#438,#437,#233,.T.);
#548=EDGE_CURVE('',#439,#439,#234,.T.);
#549=EDGE_CURVE('',#440,#440,#235,.T.);
#550=EDGE_CURVE('',#441,#441,#236,.T.);
#551=EDGE_CURVE('',#442,#442,#237,.T.);
#552=EDGE_CURVE('',#442,#443,#299,.T.);
#553=EDGE_CURVE('',#443,#443,#238,.T.);
#554=EDGE_CURVE('',#443,#444,#300,.T.);
#555=EDGE_CURVE('',#444,#445,#239,.T.);
#556=EDGE_CURVE('',#445,#444,#240,.T.);
#557=EDGE_CURVE('',#446,#447,#241,.T.);
#558=EDGE_CURVE('',#447,#446,#242,.T.);
#559=EDGE_CURVE('',#448,#448,#243,.T.);
#560=EDGE_CURVE('',#448,#447,#301,.T.);
#561=EDGE_CURVE('',#440,#448,#302,.T.);
#562=EDGE_CURVE('',#449,#450,#244,.T.);
#563=EDGE_CURVE('',#450,#393,#303,.T.);
#564=EDGE_CURVE('',#392,#449,#304,.T.);
#565=EDGE_CURVE('',#451,#391,#305,.T.);
#566=EDGE_CURVE('',#449,#451,#306,.T.);
#567=EDGE_CURVE('',#427,#451,#245,.T.);
#568=EDGE_CURVE('',#452,#453,#246,.T.);
#569=EDGE_CURVE('',#453,#452,#247,.T.);
#570=EDGE_CURVE('',#453,#403,#307,.T.);
#571=EDGE_CURVE('',#454,#455,#248,.T.);
#572=EDGE_CURVE('',#455,#454,#249,.T.);
#573=EDGE_CURVE('',#455,#404,#308,.T.);
#574=EDGE_CURVE('',#456,#426,#250,.T.);
#575=EDGE_CURVE('',#457,#456,#309,.T.);
#576=EDGE_CURVE('',#458,#457,#251,.T.);
#577=EDGE_CURVE('',#458,#450,#310,.T.);
#578=EDGE_CURVE('',#459,#456,#311,.T.);
#579=EDGE_CURVE('',#460,#459,#312,.T.);
#580=EDGE_CURVE('',#460,#457,#313,.T.);
#581=EDGE_CURVE('',#461,#460,#252,.T.);
#582=EDGE_CURVE('',#461,#458,#314,.T.);
#583=EDGE_CURVE('',#462,#417,#315,.T.);
#584=EDGE_CURVE('',#463,#462,#253,.T.);
#585=EDGE_CURVE('',#463,#416,#316,.T.);
#586=EDGE_CURVE('',#464,#463,#317,.T.);
#587=EDGE_CURVE('',#464,#418,#318,.T.);
#588=EDGE_CURVE('',#424,#464,#254,.T.);
#589=EDGE_CURVE('',#459,#425,#255,.T.);
#590=EDGE_CURVE('',#462,#461,#319,.T.);
#591=EDGE_CURVE('',#465,#466,#256,.T.);
#592=EDGE_CURVE('',#466,#465,#257,.T.);
#593=EDGE_CURVE('',#467,#468,#258,.T.);
#594=EDGE_CURVE('',#468,#467,#259,.T.);
#595=EDGE_CURVE('',#469,#470,#260,.T.);
#596=EDGE_CURVE('',#470,#469,#261,.T.);
#597=EDGE_CURVE('',#471,#472,#262,.T.);
#598=EDGE_CURVE('',#472,#471,#263,.T.);
#599=EDGE_CURVE('',#428,#406,#320,.T.);
#600=EDGE_CURVE('',#473,#473,#264,.T.);
#601=EDGE_CURVE('',#473,#407,#321,.T.);
#602=EDGE_CURVE('',#474,#475,#265,.T.);
#603=EDGE_CURVE('',#475,#474,#266,.T.);
#604=EDGE_CURVE('',#475,#470,#322,.T.);
#605=EDGE_CURVE('',#429,#474,#323,.T.);
#606=EDGE_CURVE('',#476,#477,#267,.T.);
#607=EDGE_CURVE('',#477,#476,#268,.T.);
#608=EDGE_CURVE('',#477,#466,#324,.T.);
#609=EDGE_CURVE('',#439,#476,#325,.T.);
#610=EDGE_CURVE('',#478,#479,#269,.T.);
#611=EDGE_CURVE('',#479,#478,#270,.T.);
#612=EDGE_CURVE('',#479,#472,#326,.T.);
#613=EDGE_CURVE('',#441,#478,#327,.T.);
#614=EDGE_CURVE('',#480,#481,#271,.T.);
#615=EDGE_CURVE('',#481,#480,#272,.T.);
#616=EDGE_CURVE('',#481,#468,#328,.T.);
#617=EDGE_CURVE('',#431,#480,#329,.T.);
#618=ORIENTED_EDGE('',*,*,#482,.T.);
#619=ORIENTED_EDGE('',*,*,#483,.T.);
#620=ORIENTED_EDGE('',*,*,#484,.T.);
#621=ORIENTED_EDGE('',*,*,#485,.T.);
#622=ORIENTED_EDGE('',*,*,#486,.T.);
#623=ORIENTED_EDGE('',*,*,#487,.T.);
#624=ORIENTED_EDGE('',*,*,#488,.T.);
#625=ORIENTED_EDGE('',*,*,#489,.T.);
#626=ORIENTED_EDGE('',*,*,#490,.T.);
#627=ORIENTED_EDGE('',*,*,#491,.T.);
#628=ORIENTED_EDGE('',*,*,#492,.T.);
#629=ORIENTED_EDGE('',*,*,#493,.T.);
#630=ORIENTED_EDGE('',*,*,#494,.T.);
#631=ORIENTED_EDGE('',*,*,#495,.T.);
#632=ORIENTED_EDGE('',*,*,#496,.T.);
#633=ORIENTED_EDGE('',*,*,#497,.T.);
#634=ORIENTED_EDGE('',*,*,#498,.T.);
#635=ORIENTED_EDGE('',*,*,#499,.T.);
#636=ORIENTED_EDGE('',*,*,#500,.F.);
#637=ORIENTED_EDGE('',*,*,#501,.T.);
#638=ORIENTED_EDGE('',*,*,#502,.F.);
#639=ORIENTED_EDGE('',*,*,#501,.F.);
#640=ORIENTED_EDGE('',*,*,#503,.F.);
#641=ORIENTED_EDGE('',*,*,#490,.F.);
#642=ORIENTED_EDGE('',*,*,#491,.F.);
#643=ORIENTED_EDGE('',*,*,#504,.T.);
#644=ORIENTED_EDGE('',*,*,#505,.F.);
#645=ORIENTED_EDGE('',*,*,#506,.F.);
#646=ORIENTED_EDGE('',*,*,#504,.F.);
#647=ORIENTED_EDGE('',*,*,#492,.F.);
#648=ORIENTED_EDGE('',*,*,#493,.F.);
#649=ORIENTED_EDGE('',*,*,#507,.T.);
#650=ORIENTED_EDGE('',*,*,#508,.F.);
#651=ORIENTED_EDGE('',*,*,#509,.F.);
#652=ORIENTED_EDGE('',*,*,#507,.F.);
#653=ORIENTED_EDGE('',*,*,#494,.F.);
#654=ORIENTED_EDGE('',*,*,#495,.F.);
#655=ORIENTED_EDGE('',*,*,#510,.T.);
#656=ORIENTED_EDGE('',*,*,#511,.F.);
#657=ORIENTED_EDGE('',*,*,#512,.F.);
#658=ORIENTED_EDGE('',*,*,#510,.F.);
#659=ORIENTED_EDGE('',*,*,#496,.F.);
#660=ORIENTED_EDGE('',*,*,#497,.F.);
#661=ORIENTED_EDGE('',*,*,#513,.T.);
#662=ORIENTED_EDGE('',*,*,#514,.F.);
#663=ORIENTED_EDGE('',*,*,#515,.F.);
#664=ORIENTED_EDGE('',*,*,#513,.F.);
#665=ORIENTED_EDGE('',*,*,#516,.F.);
#666=ORIENTED_EDGE('',*,*,#517,.F.);
#667=ORIENTED_EDGE('',*,*,#518,.F.);
#668=ORIENTED_EDGE('',*,*,#519,.T.);
#669=ORIENTED_EDGE('',*,*,#520,.T.);
#670=ORIENTED_EDGE('',*,*,#521,.T.);
#671=ORIENTED_EDGE('',*,*,#522,.T.);
#672=ORIENTED_EDGE('',*,*,#523,.T.);
#673=ORIENTED_EDGE('',*,*,#505,.T.);
#674=ORIENTED_EDGE('',*,*,#506,.T.);
#675=ORIENTED_EDGE('',*,*,#511,.T.);
#676=ORIENTED_EDGE('',*,*,#512,.T.);
#677=ORIENTED_EDGE('',*,*,#522,.F.);
#678=ORIENTED_EDGE('',*,*,#524,.T.);
#679=ORIENTED_EDGE('',*,*,#489,.F.);
#680=ORIENTED_EDGE('',*,*,#525,.F.);
#681=ORIENTED_EDGE('',*,*,#521,.F.);
#682=ORIENTED_EDGE('',*,*,#526,.T.);
#683=ORIENTED_EDGE('',*,*,#482,.F.);
#684=ORIENTED_EDGE('',*,*,#524,.F.);
#685=ORIENTED_EDGE('',*,*,#520,.F.);
#686=ORIENTED_EDGE('',*,*,#527,.T.);
#687=ORIENTED_EDGE('',*,*,#483,.F.);
#688=ORIENTED_EDGE('',*,*,#526,.F.);
#689=ORIENTED_EDGE('',*,*,#528,.F.);
#690=ORIENTED_EDGE('',*,*,#529,.F.);
#691=ORIENTED_EDGE('',*,*,#530,.T.);
#692=ORIENTED_EDGE('',*,*,#531,.F.);
#693=ORIENTED_EDGE('',*,*,#532,.F.);
#694=ORIENTED_EDGE('',*,*,#484,.F.);
#695=ORIENTED_EDGE('',*,*,#527,.F.);
#696=ORIENTED_EDGE('',*,*,#519,.F.);
#697=ORIENTED_EDGE('',*,*,#533,.F.);
#698=ORIENTED_EDGE('',*,*,#534,.F.);
#699=ORIENTED_EDGE('',*,*,#535,.F.);
#700=ORIENTED_EDGE('',*,*,#536,.F.);
#701=ORIENTED_EDGE('',*,*,#537,.F.);
#702=ORIENTED_EDGE('',*,*,#535,.T.);
#703=ORIENTED_EDGE('',*,*,#538,.T.);
#704=ORIENTED_EDGE('',*,*,#539,.T.);
#705=ORIENTED_EDGE('',*,*,#538,.F.);
#706=ORIENTED_EDGE('',*,*,#539,.F.);
#707=ORIENTED_EDGE('',*,*,#540,.T.);
#708=ORIENTED_EDGE('',*,*,#541,.T.);
#709=ORIENTED_EDGE('',*,*,#542,.T.);
#710=ORIENTED_EDGE('',*,*,#540,.F.);
#711=ORIENTED_EDGE('',*,*,#542,.F.);
#712=ORIENTED_EDGE('',*,*,#541,.F.);
#713=ORIENTED_EDGE('',*,*,#537,.T.);
#714=ORIENTED_EDGE('',*,*,#543,.T.);
#715=ORIENTED_EDGE('',*,*,#544,.T.);
#716=ORIENTED_EDGE('',*,*,#543,.F.);
#717=ORIENTED_EDGE('',*,*,#544,.F.);
#718=ORIENTED_EDGE('',*,*,#545,.T.);
#719=ORIENTED_EDGE('',*,*,#546,.T.);
#720=ORIENTED_EDGE('',*,*,#547,.T.);
#721=ORIENTED_EDGE('',*,*,#545,.F.);
#722=ORIENTED_EDGE('',*,*,#547,.F.);
#723=ORIENTED_EDGE('',*,*,#546,.F.);
#724=ORIENTED_EDGE('',*,*,#548,.F.);
#725=ORIENTED_EDGE('',*,*,#549,.F.);
#726=ORIENTED_EDGE('',*,*,#550,.F.);
#727=ORIENTED_EDGE('',*,*,#551,.F.);
#728=ORIENTED_EDGE('',*,*,#551,.T.);
#729=ORIENTED_EDGE('',*,*,#552,.T.);
#730=ORIENTED_EDGE('',*,*,#553,.T.);
#731=ORIENTED_EDGE('',*,*,#552,.F.);
#732=ORIENTED_EDGE('',*,*,#553,.F.);
#733=ORIENTED_EDGE('',*,*,#554,.T.);
#734=ORIENTED_EDGE('',*,*,#555,.T.);
#735=ORIENTED_EDGE('',*,*,#556,.T.);
#736=ORIENTED_EDGE('',*,*,#554,.F.);
#737=ORIENTED_EDGE('',*,*,#556,.F.);
#738=ORIENTED_EDGE('',*,*,#555,.F.);
#739=ORIENTED_EDGE('',*,*,#557,.F.);
#740=ORIENTED_EDGE('',*,*,#558,.F.);
#741=ORIENTED_EDGE('',*,*,#559,.F.);
#742=ORIENTED_EDGE('',*,*,#560,.T.);
#743=ORIENTED_EDGE('',*,*,#558,.T.);
#744=ORIENTED_EDGE('',*,*,#557,.T.);
#745=ORIENTED_EDGE('',*,*,#560,.F.);
#746=ORIENTED_EDGE('',*,*,#549,.T.);
#747=ORIENTED_EDGE('',*,*,#561,.T.);
#748=ORIENTED_EDGE('',*,*,#559,.T.);
#749=ORIENTED_EDGE('',*,*,#561,.F.);
#750=ORIENTED_EDGE('',*,*,#562,.T.);
#751=ORIENTED_EDGE('',*,*,#563,.T.);
#752=ORIENTED_EDGE('',*,*,#487,.F.);
#753=ORIENTED_EDGE('',*,*,#564,.T.);
#754=ORIENTED_EDGE('',*,*,#564,.F.);
#755=ORIENTED_EDGE('',*,*,#486,.F.);
#756=ORIENTED_EDGE('',*,*,#565,.F.);
#757=ORIENTED_EDGE('',*,*,#566,.F.);
#758=ORIENTED_EDGE('',*,*,#567,.T.);
#759=ORIENTED_EDGE('',*,*,#565,.T.);
#760=ORIENTED_EDGE('',*,*,#485,.F.);
#761=ORIENTED_EDGE('',*,*,#532,.T.);
#762=ORIENTED_EDGE('',*,*,#568,.F.);
#763=ORIENTED_EDGE('',*,*,#569,.F.);
#764=ORIENTED_EDGE('',*,*,#570,.T.);
#765=ORIENTED_EDGE('',*,*,#498,.F.);
#766=ORIENTED_EDGE('',*,*,#570,.F.);
#767=ORIENTED_EDGE('',*,*,#571,.F.);
#768=ORIENTED_EDGE('',*,*,#572,.F.);
#769=ORIENTED_EDGE('',*,*,#573,.T.);
#770=ORIENTED_EDGE('',*,*,#499,.F.);
#771=ORIENTED_EDGE('',*,*,#573,.F.);
#772=ORIENTED_EDGE('',*,*,#562,.F.);
#773=ORIENTED_EDGE('',*,*,#566,.T.);
#774=ORIENTED_EDGE('',*,*,#567,.F.);
#775=ORIENTED_EDGE('',*,*,#531,.T.);
#776=ORIENTED_EDGE('',*,*,#574,.F.);
#777=ORIENTED_EDGE('',*,*,#575,.F.);
#778=ORIENTED_EDGE('',*,*,#576,.F.);
#779=ORIENTED_EDGE('',*,*,#577,.T.);
#780=ORIENTED_EDGE('',*,*,#508,.T.);
#781=ORIENTED_EDGE('',*,*,#509,.T.);
#782=ORIENTED_EDGE('',*,*,#514,.T.);
#783=ORIENTED_EDGE('',*,*,#515,.T.);
#784=ORIENTED_EDGE('',*,*,#568,.T.);
#785=ORIENTED_EDGE('',*,*,#569,.T.);
#786=ORIENTED_EDGE('',*,*,#571,.T.);
#787=ORIENTED_EDGE('',*,*,#572,.T.);
#788=ORIENTED_EDGE('',*,*,#575,.T.);
#789=ORIENTED_EDGE('',*,*,#578,.F.);
#790=ORIENTED_EDGE('',*,*,#579,.F.);
#791=ORIENTED_EDGE('',*,*,#580,.T.);
#792=ORIENTED_EDGE('',*,*,#576,.T.);
#793=ORIENTED_EDGE('',*,*,#580,.F.);
#794=ORIENTED_EDGE('',*,*,#581,.F.);
#795=ORIENTED_EDGE('',*,*,#582,.T.);
#796=ORIENTED_EDGE('',*,*,#516,.T.);
#797=ORIENTED_EDGE('',*,*,#583,.F.);
#798=ORIENTED_EDGE('',*,*,#584,.F.);
#799=ORIENTED_EDGE('',*,*,#585,.T.);
#800=ORIENTED_EDGE('',*,*,#517,.T.);
#801=ORIENTED_EDGE('',*,*,#585,.F.);
#802=ORIENTED_EDGE('',*,*,#586,.F.);
#803=ORIENTED_EDGE('',*,*,#587,.T.);
#804=ORIENTED_EDGE('',*,*,#518,.T.);
#805=ORIENTED_EDGE('',*,*,#587,.F.);
#806=ORIENTED_EDGE('',*,*,#588,.F.);
#807=ORIENTED_EDGE('',*,*,#528,.T.);
#808=ORIENTED_EDGE('',*,*,#574,.T.);
#809=ORIENTED_EDGE('',*,*,#530,.F.);
#810=ORIENTED_EDGE('',*,*,#589,.F.);
#811=ORIENTED_EDGE('',*,*,#578,.T.);
#812=ORIENTED_EDGE('',*,*,#579,.T.);
#813=ORIENTED_EDGE('',*,*,#589,.T.);
#814=ORIENTED_EDGE('',*,*,#529,.T.);
#815=ORIENTED_EDGE('',*,*,#588,.T.);
#816=ORIENTED_EDGE('',*,*,#586,.T.);
#817=ORIENTED_EDGE('',*,*,#584,.T.);
#818=ORIENTED_EDGE('',*,*,#590,.T.);
#819=ORIENTED_EDGE('',*,*,#581,.T.);
#820=ORIENTED_EDGE('',*,*,#591,.F.);
#821=ORIENTED_EDGE('',*,*,#592,.F.);
#822=ORIENTED_EDGE('',*,*,#593,.F.);
#823=ORIENTED_EDGE('',*,*,#594,.F.);
#824=ORIENTED_EDGE('',*,*,#595,.F.);
#825=ORIENTED_EDGE('',*,*,#596,.F.);
#826=ORIENTED_EDGE('',*,*,#597,.F.);
#827=ORIENTED_EDGE('',*,*,#598,.F.);
#828=ORIENTED_EDGE('',*,*,#533,.T.);
#829=ORIENTED_EDGE('',*,*,#599,.T.);
#830=ORIENTED_EDGE('',*,*,#503,.T.);
#831=ORIENTED_EDGE('',*,*,#500,.T.);
#832=ORIENTED_EDGE('',*,*,#599,.F.);
#833=ORIENTED_EDGE('',*,*,#583,.T.);
#834=ORIENTED_EDGE('',*,*,#523,.F.);
#835=ORIENTED_EDGE('',*,*,#525,.T.);
#836=ORIENTED_EDGE('',*,*,#488,.F.);
#837=ORIENTED_EDGE('',*,*,#563,.F.);
#838=ORIENTED_EDGE('',*,*,#577,.F.);
#839=ORIENTED_EDGE('',*,*,#582,.F.);
#840=ORIENTED_EDGE('',*,*,#590,.F.);
#841=ORIENTED_EDGE('',*,*,#600,.F.);
#842=ORIENTED_EDGE('',*,*,#600,.T.);
#843=ORIENTED_EDGE('',*,*,#601,.T.);
#844=ORIENTED_EDGE('',*,*,#502,.T.);
#845=ORIENTED_EDGE('',*,*,#601,.F.);
#846=ORIENTED_EDGE('',*,*,#602,.F.);
#847=ORIENTED_EDGE('',*,*,#603,.F.);
#848=ORIENTED_EDGE('',*,*,#604,.T.);
#849=ORIENTED_EDGE('',*,*,#596,.T.);
#850=ORIENTED_EDGE('',*,*,#595,.T.);
#851=ORIENTED_EDGE('',*,*,#604,.F.);
#852=ORIENTED_EDGE('',*,*,#534,.T.);
#853=ORIENTED_EDGE('',*,*,#605,.T.);
#854=ORIENTED_EDGE('',*,*,#602,.T.);
#855=ORIENTED_EDGE('',*,*,#603,.T.);
#856=ORIENTED_EDGE('',*,*,#605,.F.);
#857=ORIENTED_EDGE('',*,*,#606,.F.);
#858=ORIENTED_EDGE('',*,*,#607,.F.);
#859=ORIENTED_EDGE('',*,*,#608,.T.);
#860=ORIENTED_EDGE('',*,*,#592,.T.);
#861=ORIENTED_EDGE('',*,*,#591,.T.);
#862=ORIENTED_EDGE('',*,*,#608,.F.);
#863=ORIENTED_EDGE('',*,*,#548,.T.);
#864=ORIENTED_EDGE('',*,*,#609,.T.);
#865=ORIENTED_EDGE('',*,*,#606,.T.);
#866=ORIENTED_EDGE('',*,*,#607,.T.);
#867=ORIENTED_EDGE('',*,*,#609,.F.);
#868=ORIENTED_EDGE('',*,*,#610,.F.);
#869=ORIENTED_EDGE('',*,*,#611,.F.);
#870=ORIENTED_EDGE('',*,*,#612,.T.);
#871=ORIENTED_EDGE('',*,*,#598,.T.);
#872=ORIENTED_EDGE('',*,*,#597,.T.);
#873=ORIENTED_EDGE('',*,*,#612,.F.);
#874=ORIENTED_EDGE('',*,*,#550,.T.);
#875=ORIENTED_EDGE('',*,*,#613,.T.);
#876=ORIENTED_EDGE('',*,*,#610,.T.);
#877=ORIENTED_EDGE('',*,*,#611,.T.);
#878=ORIENTED_EDGE('',*,*,#613,.F.);
#879=ORIENTED_EDGE('',*,*,#614,.F.);
#880=ORIENTED_EDGE('',*,*,#615,.F.);
#881=ORIENTED_EDGE('',*,*,#616,.T.);
#882=ORIENTED_EDGE('',*,*,#594,.T.);
#883=ORIENTED_EDGE('',*,*,#593,.T.);
#884=ORIENTED_EDGE('',*,*,#616,.F.);
#885=ORIENTED_EDGE('',*,*,#536,.T.);
#886=ORIENTED_EDGE('',*,*,#617,.T.);
#887=ORIENTED_EDGE('',*,*,#614,.T.);
#888=ORIENTED_EDGE('',*,*,#615,.T.);
#889=ORIENTED_EDGE('',*,*,#617,.F.);
#890=PLANE('',#979);
#891=PLANE('',#1010);
#892=PLANE('',#1016);
#893=PLANE('',#1018);
#894=PLANE('',#1020);
#895=PLANE('',#1023);
#896=PLANE('',#1031);
#897=PLANE('',#1037);
#898=PLANE('',#1038);
#899=PLANE('',#1041);
#900=PLANE('',#1049);
#901=PLANE('',#1050);
#902=PLANE('',#1058);
#903=PLANE('',#1067);
#904=PLANE('',#1070);
#905=PLANE('',#1075);
#906=PLANE('',#1080);
#907=PLANE('',#1090);
#908=ADVANCED_FACE('',(#70,#48,#49,#50,#51,#52,#53),#890,.T.);
#909=ADVANCED_FACE('',(#71),#25,.F.);
#910=ADVANCED_FACE('',(#72),#26,.F.);
#911=ADVANCED_FACE('',(#73),#27,.F.);
#912=ADVANCED_FACE('',(#74),#28,.F.);
#913=ADVANCED_FACE('',(#75),#29,.F.);
#914=ADVANCED_FACE('',(#76,#54,#55),#891,.F.);
#915=ADVANCED_FACE('',(#77),#30,.T.);
#916=ADVANCED_FACE('',(#78),#892,.T.);
#917=ADVANCED_FACE('',(#79),#31,.T.);
#918=ADVANCED_FACE('',(#80,#56),#893,.T.);
#919=ADVANCED_FACE('',(#81,#57),#894,.T.);
#920=ADVANCED_FACE('',(#82,#58),#895,.T.);
#921=ADVANCED_FACE('',(#83),#15,.F.);
#922=ADVANCED_FACE('',(#84),#32,.F.);
#923=ADVANCED_FACE('',(#85),#896,.F.);
#924=ADVANCED_FACE('',(#86),#16,.F.);
#925=ADVANCED_FACE('',(#87),#33,.F.);
#926=ADVANCED_FACE('',(#88),#897,.F.);
#927=ADVANCED_FACE('',(#89,#59),#898,.T.);
#928=ADVANCED_FACE('',(#90,#60),#899,.T.);
#929=ADVANCED_FACE('',(#91),#17,.F.);
#930=ADVANCED_FACE('',(#92),#34,.F.);
#931=ADVANCED_FACE('',(#93),#900,.F.);
#932=ADVANCED_FACE('',(#94),#901,.F.);
#933=ADVANCED_FACE('',(#95),#35,.F.);
#934=ADVANCED_FACE('',(#96),#18,.F.);
#935=ADVANCED_FACE('',(#97),#36,.T.);
#936=ADVANCED_FACE('',(#98),#902,.T.);
#937=ADVANCED_FACE('',(#99),#37,.T.);
#938=ADVANCED_FACE('',(#100),#38,.F.);
#939=ADVANCED_FACE('',(#101),#39,.F.);
#940=ADVANCED_FACE('',(#102,#61,#62,#63,#64),#903,.F.);
#941=ADVANCED_FACE('',(#103),#904,.T.);
#942=ADVANCED_FACE('',(#104),#40,.T.);
#943=ADVANCED_FACE('',(#105),#41,.T.);
#944=ADVANCED_FACE('',(#106),#905,.T.);
#945=ADVANCED_FACE('',(#107),#42,.T.);
#946=ADVANCED_FACE('',(#108),#43,.T.);
#947=ADVANCED_FACE('',(#109,#65,#66,#67,#68),#906,.T.);
#948=ADVANCED_FACE('',(#110),#19,.F.);
#949=ADVANCED_FACE('',(#111,#69),#907,.T.);
#950=ADVANCED_FACE('',(#112),#20,.F.);
#951=ADVANCED_FACE('',(#113),#44,.T.);
#952=ADVANCED_FACE('',(#114),#21,.T.);
#953=ADVANCED_FACE('',(#115),#45,.T.);
#954=ADVANCED_FACE('',(#116),#22,.T.);
#955=ADVANCED_FACE('',(#117),#46,.T.);
#956=ADVANCED_FACE('',(#118),#23,.T.);
#957=ADVANCED_FACE('',(#119),#47,.T.);
#958=ADVANCED_FACE('',(#120),#24,.T.);
#959=CLOSED_SHELL('',(#908,#909,#910,#911,#912,#913,#914,#915,#916,#917,
#918,#919,#920,#921,#922,#923,#924,#925,#926,#927,#928,#929,#930,#931,#932,
#933,#934,#935,#936,#937,#938,#939,#940,#941,#942,#943,#944,#945,#946,#947,
#948,#949,#950,#951,#952,#953,#954,#955,#956,#957,#958));
#960=DERIVED_UNIT_ELEMENT(#962,1.);
#961=DERIVED_UNIT_ELEMENT(#1716,3.);
#962=(
MASS_UNIT()
NAMED_UNIT(*)
SI_UNIT($,.GRAM.)
);
#963=DERIVED_UNIT((#960,#961));
#964=MEASURE_REPRESENTATION_ITEM('density measure',
POSITIVE_RATIO_MEASURE(7.85),#963);
#965=PROPERTY_DEFINITION_REPRESENTATION(#970,#967);
#966=PROPERTY_DEFINITION_REPRESENTATION(#971,#968);
#967=REPRESENTATION('material name',(#969),#1713);
#968=REPRESENTATION('density',(#964),#1713);
#969=DESCRIPTIVE_REPRESENTATION_ITEM('Steel','Steel');
#970=PROPERTY_DEFINITION('material property','material name',#1723);
#971=PROPERTY_DEFINITION('material property','density of part',#1723);
#972=DATE_TIME_ROLE('creation_date');
#973=APPLIED_DATE_AND_TIME_ASSIGNMENT(#974,#972,(#1723));
#974=DATE_AND_TIME(#975,#976);
#975=CALENDAR_DATE(2026,7,7);
#976=LOCAL_TIME(0,43,34.,#977);
#977=COORDINATED_UNIVERSAL_TIME_OFFSET(0,0,.BEHIND.);
#978=AXIS2_PLACEMENT_3D('placement',#1428,#1109,#1110);
#979=AXIS2_PLACEMENT_3D('',#1429,#1111,#1112);
#980=AXIS2_PLACEMENT_3D('',#1434,#1114,#1115);
#981=AXIS2_PLACEMENT_3D('',#1438,#1117,#1118);
#982=AXIS2_PLACEMENT_3D('',#1442,#1120,#1121);
#983=AXIS2_PLACEMENT_3D('',#1445,#1123,#1124);
#984=AXIS2_PLACEMENT_3D('',#1448,#1125,#1126);
#985=AXIS2_PLACEMENT_3D('',#1449,#1127,#1128);
#986=AXIS2_PLACEMENT_3D('',#1452,#1129,#1130);
#987=AXIS2_PLACEMENT_3D('',#1453,#1131,#1132);
#988=AXIS2_PLACEMENT_3D('',#1456,#1133,#1134);
#989=AXIS2_PLACEMENT_3D('',#1457,#1135,#1136);
#990=AXIS2_PLACEMENT_3D('',#1460,#1137,#1138);
#991=AXIS2_PLACEMENT_3D('',#1461,#1139,#1140);
#992=AXIS2_PLACEMENT_3D('',#1463,#1141,#1142);
#993=AXIS2_PLACEMENT_3D('',#1465,#1143,#1144);
#994=AXIS2_PLACEMENT_3D('',#1466,#1145,#1146);
#995=AXIS2_PLACEMENT_3D('',#1469,#1147,#1148);
#996=AXIS2_PLACEMENT_3D('',#1472,#1150,#1151);
#997=AXIS2_PLACEMENT_3D('',#1473,#1152,#1153);
#998=AXIS2_PLACEMENT_3D('',#1474,#1154,#1155);
#999=AXIS2_PLACEMENT_3D('',#1478,#1157,#1158);
#1000=AXIS2_PLACEMENT_3D('',#1479,#1159,#1160);
#1001=AXIS2_PLACEMENT_3D('',#1480,#1161,#1162);
#1002=AXIS2_PLACEMENT_3D('',#1484,#1164,#1165);
#1003=AXIS2_PLACEMENT_3D('',#1485,#1166,#1167);
#1004=AXIS2_PLACEMENT_3D('',#1486,#1168,#1169);
#1005=AXIS2_PLACEMENT_3D('',#1490,#1171,#1172);
#1006=AXIS2_PLACEMENT_3D('',#1491,#1173,#1174);
#1007=AXIS2_PLACEMENT_3D('',#1492,#1175,#1176);
#1008=AXIS2_PLACEMENT_3D('',#1496,#1178,#1179);
#1009=AXIS2_PLACEMENT_3D('',#1497,#1180,#1181);
#1010=AXIS2_PLACEMENT_3D('',#1498,#1182,#1183);
#1011=AXIS2_PLACEMENT_3D('',#1501,#1184,#1185);
#1012=AXIS2_PLACEMENT_3D('',#1505,#1187,#1188);
#1013=AXIS2_PLACEMENT_3D('',#1509,#1190,#1191);
#1014=AXIS2_PLACEMENT_3D('',#1513,#1193,#1194);
#1015=AXIS2_PLACEMENT_3D('',#1515,#1196,#1197);
#1016=AXIS2_PLACEMENT_3D('',#1518,#1200,#1201);
#1017=AXIS2_PLACEMENT_3D('',#1520,#1203,#1204);
#1018=AXIS2_PLACEMENT_3D('',#1522,#1206,#1207);
#1019=AXIS2_PLACEMENT_3D('',#1533,#1213,#1214);
#1020=AXIS2_PLACEMENT_3D('',#1534,#1215,#1216);
#1021=AXIS2_PLACEMENT_3D('',#1536,#1217,#1218);
#1022=AXIS2_PLACEMENT_3D('',#1538,#1219,#1220);
#1023=AXIS2_PLACEMENT_3D('',#1539,#1221,#1222);
#1024=AXIS2_PLACEMENT_3D('',#1541,#1223,#1224);
#1025=AXIS2_PLACEMENT_3D('',#1543,#1225,#1226);
#1026=AXIS2_PLACEMENT_3D('',#1544,#1227,#1228);
#1027=AXIS2_PLACEMENT_3D('',#1547,#1230,#1231);
#1028=AXIS2_PLACEMENT_3D('',#1548,#1232,#1233);
#1029=AXIS2_PLACEMENT_3D('',#1552,#1235,#1236);
#1030=AXIS2_PLACEMENT_3D('',#1553,#1237,#1238);
#1031=AXIS2_PLACEMENT_3D('',#1554,#1239,#1240);
#1032=AXIS2_PLACEMENT_3D('',#1555,#1241,#1242);
#1033=AXIS2_PLACEMENT_3D('',#1558,#1244,#1245);
#1034=AXIS2_PLACEMENT_3D('',#1559,#1246,#1247);
#1035=AXIS2_PLACEMENT_3D('',#1563,#1249,#1250);
#1036=AXIS2_PLACEMENT_3D('',#1564,#1251,#1252);
#1037=AXIS2_PLACEMENT_3D('',#1565,#1253,#1254);
#1038=AXIS2_PLACEMENT_3D('',#1566,#1255,#1256);
#1039=AXIS2_PLACEMENT_3D('',#1568,#1257,#1258);
#1040=AXIS2_PLACEMENT_3D('',#1570,#1259,#1260);
#1041=AXIS2_PLACEMENT_3D('',#1571,#1261,#1262);
#1042=AXIS2_PLACEMENT_3D('',#1573,#1263,#1264);
#1043=AXIS2_PLACEMENT_3D('',#1575,#1265,#1266);
#1044=AXIS2_PLACEMENT_3D('',#1576,#1267,#1268);
#1045=AXIS2_PLACEMENT_3D('',#1579,#1270,#1271);
#1046=AXIS2_PLACEMENT_3D('',#1580,#1272,#1273);
#1047=AXIS2_PLACEMENT_3D('',#1584,#1275,#1276);
#1048=AXIS2_PLACEMENT_3D('',#1585,#1277,#1278);
#1049=AXIS2_PLACEMENT_3D('',#1586,#1279,#1280);
#1050=AXIS2_PLACEMENT_3D('',#1587,#1281,#1282);
#1051=AXIS2_PLACEMENT_3D('',#1590,#1283,#1284);
#1052=AXIS2_PLACEMENT_3D('',#1591,#1285,#1286);
#1053=AXIS2_PLACEMENT_3D('',#1592,#1287,#1288);
#1054=AXIS2_PLACEMENT_3D('',#1594,#1289,#1290);
#1055=AXIS2_PLACEMENT_3D('',#1596,#1292,#1293);
#1056=AXIS2_PLACEMENT_3D('',#1598,#1295,#1296);
#1057=AXIS2_PLACEMENT_3D('',#1601,#1297,#1298);
#1058=AXIS2_PLACEMENT_3D('',#1604,#1301,#1302);
#1059=AXIS2_PLACEMENT_3D('',#1608,#1305,#1306);
#1060=AXIS2_PLACEMENT_3D('',#1609,#1307,#1308);
#1061=AXIS2_PLACEMENT_3D('',#1610,#1309,#1310);
#1062=AXIS2_PLACEMENT_3D('',#1613,#1311,#1312);
#1063=AXIS2_PLACEMENT_3D('',#1614,#1313,#1314);
#1064=AXIS2_PLACEMENT_3D('',#1616,#1316,#1317);
#1065=AXIS2_PLACEMENT_3D('',#1619,#1318,#1319);
#1066=AXIS2_PLACEMENT_3D('',#1620,#1320,#1321);
#1067=AXIS2_PLACEMENT_3D('',#1622,#1323,#1324);
#1068=AXIS2_PLACEMENT_3D('',#1624,#1325,#1326);
#1069=AXIS2_PLACEMENT_3D('',#1628,#1328,#1329);
#1070=AXIS2_PLACEMENT_3D('',#1630,#1331,#1332);
#1071=AXIS2_PLACEMENT_3D('',#1636,#1336,#1337);
#1072=AXIS2_PLACEMENT_3D('',#1638,#1338,#1339);
#1073=AXIS2_PLACEMENT_3D('',#1640,#1341,#1342);
#1074=AXIS2_PLACEMENT_3D('',#1644,#1344,#1345);
#1075=AXIS2_PLACEMENT_3D('',#1646,#1347,#1348);
#1076=AXIS2_PLACEMENT_3D('',#1650,#1351,#1352);
#1077=AXIS2_PLACEMENT_3D('',#1651,#1353,#1354);
#1078=AXIS2_PLACEMENT_3D('',#1652,#1355,#1356);
#1079=AXIS2_PLACEMENT_3D('',#1653,#1357,#1358);
#1080=AXIS2_PLACEMENT_3D('',#1654,#1359,#1360);
#1081=AXIS2_PLACEMENT_3D('',#1658,#1362,#1363);
#1082=AXIS2_PLACEMENT_3D('',#1659,#1364,#1365);
#1083=AXIS2_PLACEMENT_3D('',#1662,#1366,#1367);
#1084=AXIS2_PLACEMENT_3D('',#1663,#1368,#1369);
#1085=AXIS2_PLACEMENT_3D('',#1666,#1370,#1371);
#1086=AXIS2_PLACEMENT_3D('',#1667,#1372,#1373);
#1087=AXIS2_PLACEMENT_3D('',#1670,#1374,#1375);
#1088=AXIS2_PLACEMENT_3D('',#1671,#1376,#1377);
#1089=AXIS2_PLACEMENT_3D('',#1672,#1378,#1379);
#1090=AXIS2_PLACEMENT_3D('',#1674,#1381,#1382);
#1091=AXIS2_PLACEMENT_3D('',#1676,#1383,#1384);
#1092=AXIS2_PLACEMENT_3D('',#1677,#1385,#1386);
#1093=AXIS2_PLACEMENT_3D('',#1679,#1388,#1389);
#1094=AXIS2_PLACEMENT_3D('',#1682,#1390,#1391);
#1095=AXIS2_PLACEMENT_3D('',#1683,#1392,#1393);
#1096=AXIS2_PLACEMENT_3D('',#1685,#1395,#1396);
#1097=AXIS2_PLACEMENT_3D('',#1687,#1398,#1399);
#1098=AXIS2_PLACEMENT_3D('',#1690,#1400,#1401);
#1099=AXIS2_PLACEMENT_3D('',#1691,#1402,#1403);
#1100=AXIS2_PLACEMENT_3D('',#1693,#1405,#1406);
#1101=AXIS2_PLACEMENT_3D('',#1695,#1408,#1409);
#1102=AXIS2_PLACEMENT_3D('',#1698,#1410,#1411);
#1103=AXIS2_PLACEMENT_3D('',#1699,#1412,#1413);
#1104=AXIS2_PLACEMENT_3D('',#1701,#1415,#1416);
#1105=AXIS2_PLACEMENT_3D('',#1703,#1418,#1419);
#1106=AXIS2_PLACEMENT_3D('',#1706,#1420,#1421);
#1107=AXIS2_PLACEMENT_3D('',#1707,#1422,#1423);
#1108=AXIS2_PLACEMENT_3D('',#1709,#1425,#1426);
#1109=DIRECTION('axis',(0.,0.,1.));
#1110=DIRECTION('refdir',(1.,0.,0.));
#1111=DIRECTION('center_axis',(0.,0.,-1.));
#1112=DIRECTION('ref_axis',(-1.,0.,0.));
#1113=DIRECTION('',(-1.,0.,0.));
#1114=DIRECTION('center_axis',(0.,0.,-1.));
#1115=DIRECTION('ref_axis',(0.,-1.,0.));
#1116=DIRECTION('',(0.,1.,0.));
#1117=DIRECTION('center_axis',(0.,0.,-1.));
#1118=DIRECTION('ref_axis',(-1.,0.,0.));
#1119=DIRECTION('',(1.,0.,0.));
#1120=DIRECTION('center_axis',(0.,0.,-1.));
#1121=DIRECTION('ref_axis',(5.55111512312578E-16,1.,0.));
#1122=DIRECTION('',(3.1720657846433E-17,-1.,0.));
#1123=DIRECTION('center_axis',(0.,0.,-1.));
#1124=DIRECTION('ref_axis',(1.,0.,0.));
#1125=DIRECTION('center_axis',(0.,0.,1.));
#1126=DIRECTION('ref_axis',(1.,0.,0.));
#1127=DIRECTION('center_axis',(0.,0.,1.));
#1128=DIRECTION('ref_axis',(1.,0.,0.));
#1129=DIRECTION('center_axis',(0.,0.,1.));
#1130=DIRECTION('ref_axis',(1.,0.,0.));
#1131=DIRECTION('center_axis',(0.,0.,1.));
#1132=DIRECTION('ref_axis',(1.,0.,0.));
#1133=DIRECTION('center_axis',(0.,0.,1.));
#1134=DIRECTION('ref_axis',(1.,0.,0.));
#1135=DIRECTION('center_axis',(0.,0.,1.));
#1136=DIRECTION('ref_axis',(1.,0.,0.));
#1137=DIRECTION('center_axis',(0.,0.,1.));
#1138=DIRECTION('ref_axis',(1.,0.,0.));
#1139=DIRECTION('center_axis',(0.,0.,1.));
#1140=DIRECTION('ref_axis',(1.,0.,0.));
#1141=DIRECTION('center_axis',(0.,0.,1.));
#1142=DIRECTION('ref_axis',(1.,0.,0.));
#1143=DIRECTION('center_axis',(0.,0.,1.));
#1144=DIRECTION('ref_axis',(1.,0.,0.));
#1145=DIRECTION('center_axis',(1.,0.,0.));
#1146=DIRECTION('ref_axis',(0.,0.,1.));
#1147=DIRECTION('center_axis',(1.,0.,0.));
#1148=DIRECTION('ref_axis',(0.,0.,1.));
#1149=DIRECTION('',(1.,0.,0.));
#1150=DIRECTION('center_axis',(-1.,0.,0.));
#1151=DIRECTION('ref_axis',(0.,0.,1.));
#1152=DIRECTION('center_axis',(1.,0.,0.));
#1153=DIRECTION('ref_axis',(0.,0.,1.));
#1154=DIRECTION('center_axis',(0.,0.,1.));
#1155=DIRECTION('ref_axis',(-1.,0.,0.));
#1156=DIRECTION('',(0.,0.,1.));
#1157=DIRECTION('center_axis',(0.,0.,-1.));
#1158=DIRECTION('ref_axis',(-1.,0.,0.));
#1159=DIRECTION('center_axis',(0.,0.,-1.));
#1160=DIRECTION('ref_axis',(-1.,0.,0.));
#1161=DIRECTION('center_axis',(0.,0.,1.));
#1162=DIRECTION('ref_axis',(-1.,0.,0.));
#1163=DIRECTION('',(0.,0.,1.));
#1164=DIRECTION('center_axis',(0.,0.,-1.));
#1165=DIRECTION('ref_axis',(-1.,0.,0.));
#1166=DIRECTION('center_axis',(0.,0.,-1.));
#1167=DIRECTION('ref_axis',(-1.,0.,0.));
#1168=DIRECTION('center_axis',(0.,0.,1.));
#1169=DIRECTION('ref_axis',(-1.,0.,0.));
#1170=DIRECTION('',(0.,0.,1.));
#1171=DIRECTION('center_axis',(0.,0.,-1.));
#1172=DIRECTION('ref_axis',(-1.,0.,0.));
#1173=DIRECTION('center_axis',(0.,0.,-1.));
#1174=DIRECTION('ref_axis',(-1.,0.,0.));
#1175=DIRECTION('center_axis',(0.,0.,1.));
#1176=DIRECTION('ref_axis',(-1.,0.,0.));
#1177=DIRECTION('',(0.,0.,1.));
#1178=DIRECTION('center_axis',(0.,0.,-1.));
#1179=DIRECTION('ref_axis',(-1.,0.,0.));
#1180=DIRECTION('center_axis',(0.,0.,-1.));
#1181=DIRECTION('ref_axis',(-1.,0.,0.));
#1182=DIRECTION('center_axis',(0.,0.,-1.));
#1183=DIRECTION('ref_axis',(-1.,0.,0.));
#1184=DIRECTION('center_axis',(0.,0.,1.));
#1185=DIRECTION('ref_axis',(-1.11022302462516E-15,-1.,0.));
#1186=DIRECTION('',(1.,0.,0.));
#1187=DIRECTION('center_axis',(0.,0.,1.));
#1188=DIRECTION('ref_axis',(-1.,5.55111512312578E-16,0.));
#1189=DIRECTION('',(0.,-1.,0.));
#1190=DIRECTION('center_axis',(0.,0.,1.));
#1191=DIRECTION('ref_axis',(0.,-1.,0.));
#1192=DIRECTION('',(1.,0.,0.));
#1193=DIRECTION('center_axis',(0.,0.,1.));
#1194=DIRECTION('ref_axis',(1.,0.,0.));
#1195=DIRECTION('',(-8.88178419700125E-17,1.,0.));
#1196=DIRECTION('center_axis',(0.,0.,1.));
#1197=DIRECTION('ref_axis',(1.,0.,0.));
#1198=DIRECTION('',(0.,0.,-1.));
#1199=DIRECTION('',(0.,0.,-1.));
#1200=DIRECTION('center_axis',(0.,-1.,0.));
#1201=DIRECTION('ref_axis',(1.,0.,0.));
#1202=DIRECTION('',(0.,0.,-1.));
#1203=DIRECTION('center_axis',(0.,0.,1.));
#1204=DIRECTION('ref_axis',(0.,-1.,0.));
#1205=DIRECTION('',(0.,0.,-1.));
#1206=DIRECTION('center_axis',(-1.,0.,0.));
#1207=DIRECTION('ref_axis',(0.,1.,0.));
#1208=DIRECTION('',(0.,0.,-1.));
#1209=DIRECTION('',(0.,-1.,0.));
#1210=DIRECTION('',(0.,0.,-1.));
#1211=DIRECTION('',(7.65671051465625E-17,-1.,0.));
#1212=DIRECTION('',(0.,0.,1.));
#1213=DIRECTION('center_axis',(-1.,0.,0.));
#1214=DIRECTION('ref_axis',(0.,0.,-1.));
#1215=DIRECTION('center_axis',(0.,0.,1.));
#1216=DIRECTION('ref_axis',(1.,0.,0.));
#1217=DIRECTION('center_axis',(0.,0.,-1.));
#1218=DIRECTION('ref_axis',(-1.,0.,0.));
#1219=DIRECTION('center_axis',(0.,0.,1.));
#1220=DIRECTION('ref_axis',(-1.,0.,0.));
#1221=DIRECTION('center_axis',(0.,0.,1.));
#1222=DIRECTION('ref_axis',(1.,0.,0.));
#1223=DIRECTION('center_axis',(0.,0.,-1.));
#1224=DIRECTION('ref_axis',(-1.,0.,0.));
#1225=DIRECTION('center_axis',(0.,0.,1.));
#1226=DIRECTION('ref_axis',(-1.,0.,0.));
#1227=DIRECTION('center_axis',(0.,0.,1.));
#1228=DIRECTION('ref_axis',(-1.,0.,0.));
#1229=DIRECTION('',(-0.707106781186548,-8.65956056235494E-17,-0.707106781186547));
#1230=DIRECTION('center_axis',(0.,0.,-1.));
#1231=DIRECTION('ref_axis',(-1.,0.,0.));
#1232=DIRECTION('center_axis',(0.,0.,1.));
#1233=DIRECTION('ref_axis',(-1.,0.,0.));
#1234=DIRECTION('',(0.,0.,-1.));
#1235=DIRECTION('center_axis',(0.,0.,-1.));
#1236=DIRECTION('ref_axis',(-1.,0.,0.));
#1237=DIRECTION('center_axis',(0.,0.,-1.));
#1238=DIRECTION('ref_axis',(-1.,0.,0.));
#1239=DIRECTION('center_axis',(0.,0.,-1.));
#1240=DIRECTION('ref_axis',(-1.,0.,0.));
#1241=DIRECTION('center_axis',(0.,0.,1.));
#1242=DIRECTION('ref_axis',(-1.,0.,0.));
#1243=DIRECTION('',(-0.707106781186548,-8.65956056235494E-17,-0.707106781186547));
#1244=DIRECTION('center_axis',(0.,0.,-1.));
#1245=DIRECTION('ref_axis',(-1.,0.,0.));
#1246=DIRECTION('center_axis',(0.,0.,1.));
#1247=DIRECTION('ref_axis',(-1.,0.,0.));
#1248=DIRECTION('',(0.,0.,-1.));
#1249=DIRECTION('center_axis',(0.,0.,-1.));
#1250=DIRECTION('ref_axis',(-1.,0.,0.));
#1251=DIRECTION('center_axis',(0.,0.,-1.));
#1252=DIRECTION('ref_axis',(-1.,0.,0.));
#1253=DIRECTION('center_axis',(0.,0.,-1.));
#1254=DIRECTION('ref_axis',(-1.,0.,0.));
#1255=DIRECTION('center_axis',(0.,0.,1.));
#1256=DIRECTION('ref_axis',(1.,0.,0.));
#1257=DIRECTION('center_axis',(0.,0.,-1.));
#1258=DIRECTION('ref_axis',(-1.,0.,0.));
#1259=DIRECTION('center_axis',(0.,0.,1.));
#1260=DIRECTION('ref_axis',(-1.,0.,0.));
#1261=DIRECTION('center_axis',(0.,0.,1.));
#1262=DIRECTION('ref_axis',(1.,0.,0.));
#1263=DIRECTION('center_axis',(0.,0.,-1.));
#1264=DIRECTION('ref_axis',(-1.,0.,0.));
#1265=DIRECTION('center_axis',(0.,0.,1.));
#1266=DIRECTION('ref_axis',(-1.,0.,0.));
#1267=DIRECTION('center_axis',(0.,0.,1.));
#1268=DIRECTION('ref_axis',(-1.,0.,0.));
#1269=DIRECTION('',(-0.707106781186548,-8.65956056235494E-17,-0.707106781186547));
#1270=DIRECTION('center_axis',(0.,0.,-1.));
#1271=DIRECTION('ref_axis',(-1.,0.,0.));
#1272=DIRECTION('center_axis',(0.,0.,1.));
#1273=DIRECTION('ref_axis',(-1.,0.,0.));
#1274=DIRECTION('',(0.,0.,-1.));
#1275=DIRECTION('center_axis',(0.,0.,-1.));
#1276=DIRECTION('ref_axis',(-1.,0.,0.));
#1277=DIRECTION('center_axis',(0.,0.,-1.));
#1278=DIRECTION('ref_axis',(-1.,0.,0.));
#1279=DIRECTION('center_axis',(0.,0.,-1.));
#1280=DIRECTION('ref_axis',(-1.,0.,0.));
#1281=DIRECTION('center_axis',(0.,0.,-1.));
#1282=DIRECTION('ref_axis',(-1.,0.,0.));
#1283=DIRECTION('center_axis',(0.,0.,-1.));
#1284=DIRECTION('ref_axis',(-1.,0.,0.));
#1285=DIRECTION('center_axis',(0.,0.,-1.));
#1286=DIRECTION('ref_axis',(-1.,0.,0.));
#1287=DIRECTION('center_axis',(0.,0.,1.));
#1288=DIRECTION('ref_axis',(-1.,0.,0.));
#1289=DIRECTION('center_axis',(0.,0.,-1.));
#1290=DIRECTION('ref_axis',(-1.,0.,0.));
#1291=DIRECTION('',(0.,0.,-1.));
#1292=DIRECTION('center_axis',(0.,0.,1.));
#1293=DIRECTION('ref_axis',(-1.,0.,0.));
#1294=DIRECTION('',(-0.707106781186548,-8.65956056235494E-17,-0.707106781186547));
#1295=DIRECTION('center_axis',(0.,0.,1.));
#1296=DIRECTION('ref_axis',(0.707106781186548,0.707106781186547,0.));
#1297=DIRECTION('center_axis',(0.,0.,-1.));
#1298=DIRECTION('ref_axis',(0.707106781186548,0.707106781186547,0.));
#1299=DIRECTION('',(0.,0.,-1.));
#1300=DIRECTION('',(0.,0.,1.));
#1301=DIRECTION('center_axis',(0.,1.,0.));
#1302=DIRECTION('ref_axis',(-1.,0.,0.));
#1303=DIRECTION('',(0.,0.,-1.));
#1304=DIRECTION('',(-1.,0.,0.));
#1305=DIRECTION('center_axis',(0.,0.,1.));
#1306=DIRECTION('ref_axis',(-0.707106781186548,0.707106781186548,0.));
#1307=DIRECTION('center_axis',(0.,0.,-1.));
#1308=DIRECTION('ref_axis',(-0.707106781186548,0.707106781186548,0.));
#1309=DIRECTION('center_axis',(0.,0.,-1.));
#1310=DIRECTION('ref_axis',(1.,0.,0.));
#1311=DIRECTION('center_axis',(0.,0.,-1.));
#1312=DIRECTION('ref_axis',(1.,0.,0.));
#1313=DIRECTION('center_axis',(0.,0.,-1.));
#1314=DIRECTION('ref_axis',(1.,0.,0.));
#1315=DIRECTION('',(0.,0.,-1.));
#1316=DIRECTION('center_axis',(0.,0.,-1.));
#1317=DIRECTION('ref_axis',(1.,0.,0.));
#1318=DIRECTION('center_axis',(0.,0.,-1.));
#1319=DIRECTION('ref_axis',(1.,0.,0.));
#1320=DIRECTION('center_axis',(0.,0.,-1.));
#1321=DIRECTION('ref_axis',(1.,0.,0.));
#1322=DIRECTION('',(0.,0.,-1.));
#1323=DIRECTION('center_axis',(0.,0.,-1.));
#1324=DIRECTION('ref_axis',(-1.,0.,0.));
#1325=DIRECTION('center_axis',(0.,0.,1.));
#1326=DIRECTION('ref_axis',(5.55111512312578E-16,1.,0.));
#1327=DIRECTION('',(-1.,-1.11022302462516E-16,0.));
#1328=DIRECTION('center_axis',(0.,0.,1.));
#1329=DIRECTION('ref_axis',(1.,1.66533453693773E-15,0.));
#1330=DIRECTION('',(0.,1.,0.));
#1331=DIRECTION('center_axis',(-1.11022302462516E-16,1.,0.));
#1332=DIRECTION('ref_axis',(1.,1.11022302462516E-16,0.));
#1333=DIRECTION('',(0.,0.,-1.));
#1334=DIRECTION('',(-1.,-1.11022302462516E-16,0.));
#1335=DIRECTION('',(0.,0.,-1.));
#1336=DIRECTION('center_axis',(0.,0.,-1.));
#1337=DIRECTION('ref_axis',(1.,1.66533453693773E-15,0.));
#1338=DIRECTION('center_axis',(0.,0.,1.));
#1339=DIRECTION('ref_axis',(1.,1.66533453693773E-15,0.));
#1340=DIRECTION('',(0.,0.,-1.));
#1341=DIRECTION('center_axis',(0.,0.,-1.));
#1342=DIRECTION('ref_axis',(-1.11022302462516E-15,-1.,0.));
#1343=DIRECTION('',(0.,0.,-1.));
#1344=DIRECTION('center_axis',(0.,0.,1.));
#1345=DIRECTION('ref_axis',(-1.11022302462516E-15,-1.,0.));
#1346=DIRECTION('',(0.,0.,-1.));
#1347=DIRECTION('center_axis',(0.,-1.,0.));
#1348=DIRECTION('ref_axis',(-1.,0.,0.));
#1349=DIRECTION('',(1.,0.,0.));
#1350=DIRECTION('',(0.,0.,-1.));
#1351=DIRECTION('center_axis',(0.,0.,-1.));
#1352=DIRECTION('ref_axis',(-1.,5.55111512312578E-16,0.));
#1353=DIRECTION('center_axis',(0.,0.,1.));
#1354=DIRECTION('ref_axis',(-1.,5.55111512312578E-16,0.));
#1355=DIRECTION('center_axis',(0.,0.,-1.));
#1356=DIRECTION('ref_axis',(5.55111512312578E-16,1.,0.));
#1357=DIRECTION('center_axis',(0.,0.,1.));
#1358=DIRECTION('ref_axis',(5.55111512312578E-16,1.,0.));
#1359=DIRECTION('center_axis',(0.,0.,1.));
#1360=DIRECTION('ref_axis',(1.,0.,0.));
#1361=DIRECTION('',(0.,1.,0.));
#1362=DIRECTION('center_axis',(0.,0.,1.));
#1363=DIRECTION('ref_axis',(1.,0.,0.));
#1364=DIRECTION('center_axis',(0.,0.,1.));
#1365=DIRECTION('ref_axis',(1.,0.,0.));
#1366=DIRECTION('center_axis',(0.,0.,1.));
#1367=DIRECTION('ref_axis',(1.,0.,0.));
#1368=DIRECTION('center_axis',(0.,0.,1.));
#1369=DIRECTION('ref_axis',(1.,0.,0.));
#1370=DIRECTION('center_axis',(0.,0.,1.));
#1371=DIRECTION('ref_axis',(1.,0.,0.));
#1372=DIRECTION('center_axis',(0.,0.,1.));
#1373=DIRECTION('ref_axis',(1.,0.,0.));
#1374=DIRECTION('center_axis',(0.,0.,1.));
#1375=DIRECTION('ref_axis',(1.,0.,0.));
#1376=DIRECTION('center_axis',(0.,0.,1.));
#1377=DIRECTION('ref_axis',(1.,0.,0.));
#1378=DIRECTION('center_axis',(-1.,0.,0.));
#1379=DIRECTION('ref_axis',(0.,0.,-1.));
#1380=DIRECTION('',(0.707106781186548,-8.65956056235493E-17,-0.707106781186548));
#1381=DIRECTION('center_axis',(1.,0.,0.));
#1382=DIRECTION('ref_axis',(0.,-1.,0.));
#1383=DIRECTION('center_axis',(1.,0.,0.));
#1384=DIRECTION('ref_axis',(0.,0.,1.));
#1385=DIRECTION('center_axis',(1.,0.,0.));
#1386=DIRECTION('ref_axis',(0.,0.,1.));
#1387=DIRECTION('',(-0.707106781186548,-8.65956056235493E-17,0.707106781186547));
#1388=DIRECTION('center_axis',(0.,0.,1.));
#1389=DIRECTION('ref_axis',(1.,0.,0.));
#1390=DIRECTION('center_axis',(0.,0.,1.));
#1391=DIRECTION('ref_axis',(-1.,0.,0.));
#1392=DIRECTION('center_axis',(0.,0.,1.));
#1393=DIRECTION('ref_axis',(-1.,0.,0.));
#1394=DIRECTION('',(0.,0.,-1.));
#1395=DIRECTION('center_axis',(0.,0.,-1.));
#1396=DIRECTION('ref_axis',(-1.,0.,0.));
#1397=DIRECTION('',(0.707106781186548,8.65956056235493E-17,-0.707106781186547));
#1398=DIRECTION('center_axis',(0.,0.,1.));
#1399=DIRECTION('ref_axis',(1.,0.,0.));
#1400=DIRECTION('center_axis',(0.,0.,1.));
#1401=DIRECTION('ref_axis',(-1.,0.,0.));
#1402=DIRECTION('center_axis',(0.,0.,1.));
#1403=DIRECTION('ref_axis',(-1.,0.,0.));
#1404=DIRECTION('',(0.,0.,-1.));
#1405=DIRECTION('center_axis',(0.,0.,-1.));
#1406=DIRECTION('ref_axis',(-1.,0.,0.));
#1407=DIRECTION('',(0.707106781186548,8.65956056235494E-17,-0.707106781186547));
#1408=DIRECTION('center_axis',(0.,0.,1.));
#1409=DIRECTION('ref_axis',(1.,0.,0.));
#1410=DIRECTION('center_axis',(0.,0.,1.));
#1411=DIRECTION('ref_axis',(-1.,0.,0.));
#1412=DIRECTION('center_axis',(0.,0.,1.));
#1413=DIRECTION('ref_axis',(-1.,0.,0.));
#1414=DIRECTION('',(0.,0.,-1.));
#1415=DIRECTION('center_axis',(0.,0.,-1.));
#1416=DIRECTION('ref_axis',(-1.,0.,0.));
#1417=DIRECTION('',(0.707106781186548,8.65956056235494E-17,-0.707106781186547));
#1418=DIRECTION('center_axis',(0.,0.,1.));
#1419=DIRECTION('ref_axis',(1.,0.,0.));
#1420=DIRECTION('center_axis',(0.,0.,1.));
#1421=DIRECTION('ref_axis',(-1.,0.,0.));
#1422=DIRECTION('center_axis',(0.,0.,1.));
#1423=DIRECTION('ref_axis',(-1.,0.,0.));
#1424=DIRECTION('',(0.,0.,-1.));
#1425=DIRECTION('center_axis',(0.,0.,-1.));
#1426=DIRECTION('ref_axis',(-1.,0.,0.));
#1427=DIRECTION('',(0.707106781186548,8.65956056235494E-17,-0.707106781186547));
#1428=CARTESIAN_POINT('',(0.,0.,0.));
#1429=CARTESIAN_POINT('Origin',(5.55111512312578E-16,0.,-20.));
#1430=CARTESIAN_POINT('',(5.,-19.5,-20.));
#1431=CARTESIAN_POINT('',(-5.,-19.5,-20.));
#1432=CARTESIAN_POINT('',(5.,-19.5,-20.));
#1433=CARTESIAN_POINT('',(-7.,-17.5,-20.));
#1434=CARTESIAN_POINT('Origin',(-5.,-17.5,-20.));
#1435=CARTESIAN_POINT('',(-7.,17.5,-20.));
#1436=CARTESIAN_POINT('',(-7.,-17.5,-20.));
#1437=CARTESIAN_POINT('',(-5.,19.5,-20.));
#1438=CARTESIAN_POINT('Origin',(-5.,17.5,-20.));
#1439=CARTESIAN_POINT('',(5.,19.5,-20.));
#1440=CARTESIAN_POINT('',(-5.,19.5,-20.));
#1441=CARTESIAN_POINT('',(7.,17.5,-20.));
#1442=CARTESIAN_POINT('Origin',(5.,17.5,-20.));
#1443=CARTESIAN_POINT('',(7.,-17.5,-20.));
#1444=CARTESIAN_POINT('',(7.,17.5,-20.));
#1445=CARTESIAN_POINT('Origin',(5.,-17.5,-20.));
#1446=CARTESIAN_POINT('',(3.0999999999709,-16.4999999999709,-20.));
#1447=CARTESIAN_POINT('',(4.8999999999709,-16.4999999999709,-20.));
#1448=CARTESIAN_POINT('Origin',(3.9999999999709,-16.4999999999709,-20.));
#1449=CARTESIAN_POINT('Origin',(3.9999999999709,-16.4999999999709,-20.));
#1450=CARTESIAN_POINT('',(-4.89999999997089,16.4999999999709,-20.));
#1451=CARTESIAN_POINT('',(-3.0999999999709,16.4999999999709,-20.));
#1452=CARTESIAN_POINT('Origin',(-3.9999999999709,16.4999999999709,-20.));
#1453=CARTESIAN_POINT('Origin',(-3.9999999999709,16.4999999999709,-20.));
#1454=CARTESIAN_POINT('',(-4.8999999999709,-16.4999999999709,-20.));
#1455=CARTESIAN_POINT('',(-3.0999999999709,-16.4999999999709,-20.));
#1456=CARTESIAN_POINT('Origin',(-3.9999999999709,-16.4999999999709,-20.));
#1457=CARTESIAN_POINT('Origin',(-3.9999999999709,-16.4999999999709,-20.));
#1458=CARTESIAN_POINT('',(3.0999999999709,16.4999999999709,-20.));
#1459=CARTESIAN_POINT('',(4.89999999997089,16.4999999999709,-20.));
#1460=CARTESIAN_POINT('Origin',(3.9999999999709,16.4999999999709,-20.));
#1461=CARTESIAN_POINT('Origin',(3.9999999999709,16.4999999999709,-20.));
#1462=CARTESIAN_POINT('',(-0.9,14.5,-20.));
#1463=CARTESIAN_POINT('Origin',(0.,14.5,-20.));
#1464=CARTESIAN_POINT('',(-0.9,9.5,-20.));
#1465=CARTESIAN_POINT('Origin',(0.,9.5,-20.));
#1466=CARTESIAN_POINT('Origin',(-7.,0.,-5.));
#1467=CARTESIAN_POINT('',(-6.575,1.86758636869971E-16,-6.525));
#1468=CARTESIAN_POINT('',(-6.575,1.86758636869971E-16,-3.475));
#1469=CARTESIAN_POINT('Origin',(-6.575,0.,-5.));
#1470=CARTESIAN_POINT('',(6.575,-1.86758636869971E-16,-6.525));
#1471=CARTESIAN_POINT('',(-7.,1.86758636869971E-16,-6.525));
#1472=CARTESIAN_POINT('Origin',(6.575,0.,-5.));
#1473=CARTESIAN_POINT('Origin',(-6.575,0.,-5.));
#1474=CARTESIAN_POINT('Origin',(3.9999999999709,-16.4999999999709,-10.));
#1475=CARTESIAN_POINT('',(4.8999999999709,-16.4999999999709,-6.5));
#1476=CARTESIAN_POINT('',(4.8999999999709,-16.4999999999709,-10.));
#1477=CARTESIAN_POINT('',(3.0999999999709,-16.4999999999709,-6.5));
#1478=CARTESIAN_POINT('Origin',(3.9999999999709,-16.4999999999709,-6.5));
#1479=CARTESIAN_POINT('Origin',(3.9999999999709,-16.4999999999709,-6.5));
#1480=CARTESIAN_POINT('Origin',(-3.9999999999709,16.4999999999709,-10.));
#1481=CARTESIAN_POINT('',(-3.0999999999709,16.4999999999709,-6.5));
#1482=CARTESIAN_POINT('',(-3.0999999999709,16.4999999999709,-10.));
#1483=CARTESIAN_POINT('',(-4.89999999997089,16.4999999999709,-6.5));
#1484=CARTESIAN_POINT('Origin',(-3.9999999999709,16.4999999999709,-6.5));
#1485=CARTESIAN_POINT('Origin',(-3.9999999999709,16.4999999999709,-6.5));
#1486=CARTESIAN_POINT('Origin',(-3.9999999999709,-16.4999999999709,-10.));
#1487=CARTESIAN_POINT('',(-3.0999999999709,-16.4999999999709,-6.5));
#1488=CARTESIAN_POINT('',(-3.0999999999709,-16.4999999999709,-10.));
#1489=CARTESIAN_POINT('',(-4.8999999999709,-16.4999999999709,-6.5));
#1490=CARTESIAN_POINT('Origin',(-3.9999999999709,-16.4999999999709,-6.5));
#1491=CARTESIAN_POINT('Origin',(-3.9999999999709,-16.4999999999709,-6.5));
#1492=CARTESIAN_POINT('Origin',(3.9999999999709,16.4999999999709,-10.));
#1493=CARTESIAN_POINT('',(4.89999999997089,16.4999999999709,-6.5));
#1494=CARTESIAN_POINT('',(4.89999999997089,16.4999999999709,-10.));
#1495=CARTESIAN_POINT('',(3.0999999999709,16.4999999999709,-6.5));
#1496=CARTESIAN_POINT('Origin',(3.9999999999709,16.4999999999709,-6.5));
#1497=CARTESIAN_POINT('Origin',(3.9999999999709,16.4999999999709,-6.5));
#1498=CARTESIAN_POINT('Origin',(5.55111512312578E-16,-12.25,-6.5));
#1499=CARTESIAN_POINT('',(5.,-7.,-6.5));
#1500=CARTESIAN_POINT('',(7.,-5.,-6.5));
#1501=CARTESIAN_POINT('Origin',(5.,-5.,-6.5));
#1502=CARTESIAN_POINT('',(-5.,-7.,-6.5));
#1503=CARTESIAN_POINT('',(2.5,-7.,-6.5));
#1504=CARTESIAN_POINT('',(-7.,-5.,-6.5));
#1505=CARTESIAN_POINT('Origin',(-5.,-5.,-6.5));
#1506=CARTESIAN_POINT('',(-7.,-17.5,-6.5));
#1507=CARTESIAN_POINT('',(-7.,-8.625,-6.5));
#1508=CARTESIAN_POINT('',(-5.,-19.5,-6.5));
#1509=CARTESIAN_POINT('Origin',(-5.,-17.5,-6.5));
#1510=CARTESIAN_POINT('',(5.,-19.5,-6.5));
#1511=CARTESIAN_POINT('',(-2.5,-19.5,-6.5));
#1512=CARTESIAN_POINT('',(7.,-17.5,-6.5));
#1513=CARTESIAN_POINT('Origin',(5.,-17.5,-6.5));
#1514=CARTESIAN_POINT('',(7.,-14.875,-6.5));
#1515=CARTESIAN_POINT('Origin',(5.,-17.5,-10.));
#1516=CARTESIAN_POINT('',(5.,-19.5,-10.));
#1517=CARTESIAN_POINT('',(7.,-17.5,-10.));
#1518=CARTESIAN_POINT('Origin',(-5.,-19.5,-10.));
#1519=CARTESIAN_POINT('',(-5.,-19.5,-10.));
#1520=CARTESIAN_POINT('Origin',(-5.,-17.5,-10.));
#1521=CARTESIAN_POINT('',(-7.,-17.5,-10.));
#1522=CARTESIAN_POINT('Origin',(-7.,-5.,0.));
#1523=CARTESIAN_POINT('',(-7.,-5.,0.));
#1524=CARTESIAN_POINT('',(-7.,-5.,0.));
#1525=CARTESIAN_POINT('',(-7.,5.,0.));
#1526=CARTESIAN_POINT('',(-7.,5.,0.));
#1527=CARTESIAN_POINT('',(-7.,5.,-6.5));
#1528=CARTESIAN_POINT('',(-7.,5.,0.));
#1529=CARTESIAN_POINT('',(-7.,17.5,-6.5));
#1530=CARTESIAN_POINT('',(-7.,5.,-6.5));
#1531=CARTESIAN_POINT('',(-7.,17.5,-5.));
#1532=CARTESIAN_POINT('',(-7.,2.38806125833734E-16,-3.05));
#1533=CARTESIAN_POINT('Origin',(-7.,0.,-5.));
#1534=CARTESIAN_POINT('Origin',(4.25,-3.95,1.));
#1535=CARTESIAN_POINT('',(6.3,-3.95,1.));
#1536=CARTESIAN_POINT('Origin',(4.25,-3.95,1.));
#1537=CARTESIAN_POINT('',(5.85,-3.95,1.));
#1538=CARTESIAN_POINT('Origin',(4.25,-3.95,1.));
#1539=CARTESIAN_POINT('Origin',(4.25,3.95,1.));
#1540=CARTESIAN_POINT('',(6.3,3.95,1.));
#1541=CARTESIAN_POINT('Origin',(4.25,3.95,1.));
#1542=CARTESIAN_POINT('',(5.85,3.95,1.));
#1543=CARTESIAN_POINT('Origin',(4.25,3.95,1.));
#1544=CARTESIAN_POINT('Origin',(4.25,-3.95,0.9));
#1545=CARTESIAN_POINT('',(5.65,-3.95,0.8));
#1546=CARTESIAN_POINT('',(5.75,-3.95,0.9));
#1547=CARTESIAN_POINT('Origin',(4.25,-3.95,0.8));
#1548=CARTESIAN_POINT('Origin',(4.25,-3.95,0.));
#1549=CARTESIAN_POINT('',(5.65,-3.95,-4.));
#1550=CARTESIAN_POINT('',(5.65,-3.95,0.));
#1551=CARTESIAN_POINT('',(2.85,-3.95,-4.));
#1552=CARTESIAN_POINT('Origin',(4.25,-3.95,-4.));
#1553=CARTESIAN_POINT('Origin',(4.25,-3.95,-4.));
#1554=CARTESIAN_POINT('Origin',(4.25,-3.95,-4.));
#1555=CARTESIAN_POINT('Origin',(4.25,3.95,0.9));
#1556=CARTESIAN_POINT('',(5.65,3.95,0.8));
#1557=CARTESIAN_POINT('',(5.75,3.95,0.9));
#1558=CARTESIAN_POINT('Origin',(4.25,3.95,0.8));
#1559=CARTESIAN_POINT('Origin',(4.25,3.95,0.));
#1560=CARTESIAN_POINT('',(5.65,3.95,-4.));
#1561=CARTESIAN_POINT('',(5.65,3.95,0.));
#1562=CARTESIAN_POINT('',(2.85,3.95,-4.));
#1563=CARTESIAN_POINT('Origin',(4.25,3.95,-4.));
#1564=CARTESIAN_POINT('Origin',(4.25,3.95,-4.));
#1565=CARTESIAN_POINT('Origin',(4.25,3.95,-4.));
#1566=CARTESIAN_POINT('Origin',(-4.25,-3.95,1.));
#1567=CARTESIAN_POINT('',(-2.2,-3.95,1.));
#1568=CARTESIAN_POINT('Origin',(-4.25,-3.95,1.));
#1569=CARTESIAN_POINT('',(-2.65,-3.95,1.));
#1570=CARTESIAN_POINT('Origin',(-4.25,-3.95,1.));
#1571=CARTESIAN_POINT('Origin',(-4.25,3.95,1.));
#1572=CARTESIAN_POINT('',(-2.2,3.95,1.));
#1573=CARTESIAN_POINT('Origin',(-4.25,3.95,1.));
#1574=CARTESIAN_POINT('',(-2.65,3.95,1.));
#1575=CARTESIAN_POINT('Origin',(-4.25,3.95,1.));
#1576=CARTESIAN_POINT('Origin',(-4.25,3.95,0.9));
#1577=CARTESIAN_POINT('',(-2.85,3.95,0.8));
#1578=CARTESIAN_POINT('',(-2.75,3.95,0.9));
#1579=CARTESIAN_POINT('Origin',(-4.25,3.95,0.8));
#1580=CARTESIAN_POINT('Origin',(-4.25,3.95,0.));
#1581=CARTESIAN_POINT('',(-2.85,3.95,-4.));
#1582=CARTESIAN_POINT('',(-2.85,3.95,0.));
#1583=CARTESIAN_POINT('',(-5.65,3.95,-4.));
#1584=CARTESIAN_POINT('Origin',(-4.25,3.95,-4.));
#1585=CARTESIAN_POINT('Origin',(-4.25,3.95,-4.));
#1586=CARTESIAN_POINT('Origin',(-4.25,3.95,-4.));
#1587=CARTESIAN_POINT('Origin',(-4.25,-3.95,-4.));
#1588=CARTESIAN_POINT('',(-5.65,-3.95,-4.));
#1589=CARTESIAN_POINT('',(-2.85,-3.95,-4.));
#1590=CARTESIAN_POINT('Origin',(-4.25,-3.95,-4.));
#1591=CARTESIAN_POINT('Origin',(-4.25,-3.95,-4.));
#1592=CARTESIAN_POINT('Origin',(-4.25,-3.95,0.));
#1593=CARTESIAN_POINT('',(-2.85,-3.95,0.8));
#1594=CARTESIAN_POINT('Origin',(-4.25,-3.95,0.8));
#1595=CARTESIAN_POINT('',(-2.85,-3.95,0.));
#1596=CARTESIAN_POINT('Origin',(-4.25,-3.95,0.9));
#1597=CARTESIAN_POINT('',(-2.75,-3.95,0.9));
#1598=CARTESIAN_POINT('Origin',(5.,17.5,-5.));
#1599=CARTESIAN_POINT('',(5.,19.5,-6.5));
#1600=CARTESIAN_POINT('',(7.,17.5,-6.5));
#1601=CARTESIAN_POINT('Origin',(5.,17.5,-6.5));
#1602=CARTESIAN_POINT('',(7.,17.5,-5.));
#1603=CARTESIAN_POINT('',(5.,19.5,-5.));
#1604=CARTESIAN_POINT('Origin',(7.,19.5,-10.));
#1605=CARTESIAN_POINT('',(-5.,19.5,-6.5));
#1606=CARTESIAN_POINT('',(-5.,19.5,-5.));
#1607=CARTESIAN_POINT('',(-7.,19.5,-6.5));
#1608=CARTESIAN_POINT('Origin',(-5.,17.5,-5.));
#1609=CARTESIAN_POINT('Origin',(-5.,17.5,-6.5));
#1610=CARTESIAN_POINT('Origin',(0.,14.5,-6.5));
#1611=CARTESIAN_POINT('',(0.9,14.5,-6.5));
#1612=CARTESIAN_POINT('',(-0.9,14.5,-6.5));
#1613=CARTESIAN_POINT('Origin',(0.,14.5,-6.5));
#1614=CARTESIAN_POINT('Origin',(0.,14.5,-6.5));
#1615=CARTESIAN_POINT('',(-0.9,14.5,-6.5));
#1616=CARTESIAN_POINT('Origin',(0.,9.5,-6.5));
#1617=CARTESIAN_POINT('',(0.9,9.5,-6.5));
#1618=CARTESIAN_POINT('',(-0.9,9.5,-6.5));
#1619=CARTESIAN_POINT('Origin',(0.,9.5,-6.5));
#1620=CARTESIAN_POINT('Origin',(0.,9.5,-6.5));
#1621=CARTESIAN_POINT('',(-0.9,9.5,-6.5));
#1622=CARTESIAN_POINT('Origin',(0.,12.25,-6.5));
#1623=CARTESIAN_POINT('',(-5.,7.,-6.5));
#1624=CARTESIAN_POINT('Origin',(-5.,5.,-6.5));
#1625=CARTESIAN_POINT('',(5.,7.,-6.5));
#1626=CARTESIAN_POINT('',(-2.5,7.,-6.5));
#1627=CARTESIAN_POINT('',(7.,5.,-6.5));
#1628=CARTESIAN_POINT('Origin',(5.,5.,-6.5));
#1629=CARTESIAN_POINT('',(7.,19.5,-6.5));
#1630=CARTESIAN_POINT('Origin',(-5.,7.,0.));
#1631=CARTESIAN_POINT('',(-5.,7.,0.));
#1632=CARTESIAN_POINT('',(-5.,7.,0.));
#1633=CARTESIAN_POINT('',(5.,7.,0.));
#1634=CARTESIAN_POINT('',(5.,7.,0.));
#1635=CARTESIAN_POINT('',(5.,7.,0.));
#1636=CARTESIAN_POINT('Origin',(5.,5.,0.));
#1637=CARTESIAN_POINT('',(7.,5.,0.));
#1638=CARTESIAN_POINT('Origin',(5.,5.,0.));
#1639=CARTESIAN_POINT('',(7.,5.,0.));
#1640=CARTESIAN_POINT('Origin',(5.,-5.,0.));
#1641=CARTESIAN_POINT('',(7.,-5.,0.));
#1642=CARTESIAN_POINT('',(7.,-5.,0.));
#1643=CARTESIAN_POINT('',(5.,-7.,0.));
#1644=CARTESIAN_POINT('Origin',(5.,-5.,0.));
#1645=CARTESIAN_POINT('',(5.,-7.,0.));
#1646=CARTESIAN_POINT('Origin',(5.,-7.,0.));
#1647=CARTESIAN_POINT('',(-5.,-7.,0.));
#1648=CARTESIAN_POINT('',(-5.,-7.,0.));
#1649=CARTESIAN_POINT('',(-5.,-7.,0.));
#1650=CARTESIAN_POINT('Origin',(-5.,-5.,0.));
#1651=CARTESIAN_POINT('Origin',(-5.,-5.,0.));
#1652=CARTESIAN_POINT('Origin',(-5.,5.,0.));
#1653=CARTESIAN_POINT('Origin',(-5.,5.,0.));
#1654=CARTESIAN_POINT('Origin',(0.,0.,0.));
#1655=CARTESIAN_POINT('',(7.,-5.,0.));
#1656=CARTESIAN_POINT('',(-2.,-3.95,0.));
#1657=CARTESIAN_POINT('',(-6.5,-3.95,0.));
#1658=CARTESIAN_POINT('Origin',(-4.25,-3.95,0.));
#1659=CARTESIAN_POINT('Origin',(-4.25,-3.95,0.));
#1660=CARTESIAN_POINT('',(6.5,3.95,0.));
#1661=CARTESIAN_POINT('',(2.,3.95,0.));
#1662=CARTESIAN_POINT('Origin',(4.25,3.95,0.));
#1663=CARTESIAN_POINT('Origin',(4.25,3.95,0.));
#1664=CARTESIAN_POINT('',(6.5,-3.95,0.));
#1665=CARTESIAN_POINT('',(2.,-3.95,0.));
#1666=CARTESIAN_POINT('Origin',(4.25,-3.95,0.));
#1667=CARTESIAN_POINT('Origin',(4.25,-3.95,0.));
#1668=CARTESIAN_POINT('',(-2.,3.95,0.));
#1669=CARTESIAN_POINT('',(-6.5,3.95,0.));
#1670=CARTESIAN_POINT('Origin',(-4.25,3.95,0.));
#1671=CARTESIAN_POINT('Origin',(-4.25,3.95,0.));
#1672=CARTESIAN_POINT('Origin',(-6.75,0.,-5.));
#1673=CARTESIAN_POINT('',(-6.75,2.0818995585505E-16,-3.3));
#1674=CARTESIAN_POINT('Origin',(7.,5.,0.));
#1675=CARTESIAN_POINT('',(7.,2.38806125833734E-16,-6.95));
#1676=CARTESIAN_POINT('Origin',(7.,0.,-5.));
#1677=CARTESIAN_POINT('Origin',(6.75,0.,-5.));
#1678=CARTESIAN_POINT('',(6.75,2.0818995585505E-16,-6.7));
#1679=CARTESIAN_POINT('Origin',(4.25,-3.95,0.));
#1680=CARTESIAN_POINT('',(6.5,-3.95,0.8));
#1681=CARTESIAN_POINT('',(2.,-3.95,0.8));
#1682=CARTESIAN_POINT('Origin',(4.25,-3.95,0.8));
#1683=CARTESIAN_POINT('Origin',(4.25,-3.95,0.8));
#1684=CARTESIAN_POINT('',(2.,-3.95,0.));
#1685=CARTESIAN_POINT('Origin',(4.25,-3.95,0.9));
#1686=CARTESIAN_POINT('',(6.4,-3.95,0.9));
#1687=CARTESIAN_POINT('Origin',(-4.25,-3.95,0.));
#1688=CARTESIAN_POINT('',(-2.,-3.95,0.8));
#1689=CARTESIAN_POINT('',(-6.5,-3.95,0.8));
#1690=CARTESIAN_POINT('Origin',(-4.25,-3.95,0.8));
#1691=CARTESIAN_POINT('Origin',(-4.25,-3.95,0.8));
#1692=CARTESIAN_POINT('',(-6.5,-3.95,0.));
#1693=CARTESIAN_POINT('Origin',(-4.25,-3.95,0.9));
#1694=CARTESIAN_POINT('',(-2.1,-3.95,0.9));
#1695=CARTESIAN_POINT('Origin',(-4.25,3.95,0.));
#1696=CARTESIAN_POINT('',(-2.,3.95,0.8));
#1697=CARTESIAN_POINT('',(-6.5,3.95,0.8));
#1698=CARTESIAN_POINT('Origin',(-4.25,3.95,0.8));
#1699=CARTESIAN_POINT('Origin',(-4.25,3.95,0.8));
#1700=CARTESIAN_POINT('',(-6.5,3.95,0.));
#1701=CARTESIAN_POINT('Origin',(-4.25,3.95,0.9));
#1702=CARTESIAN_POINT('',(-2.1,3.95,0.9));
#1703=CARTESIAN_POINT('Origin',(4.25,3.95,0.));
#1704=CARTESIAN_POINT('',(6.5,3.95,0.8));
#1705=CARTESIAN_POINT('',(2.,3.95,0.8));
#1706=CARTESIAN_POINT('Origin',(4.25,3.95,0.8));
#1707=CARTESIAN_POINT('Origin',(4.25,3.95,0.8));
#1708=CARTESIAN_POINT('',(2.,3.95,0.));
#1709=CARTESIAN_POINT('Origin',(4.25,3.95,0.9));
#1710=CARTESIAN_POINT('',(6.4,3.95,0.9));
#1711=UNCERTAINTY_MEASURE_WITH_UNIT(LENGTH_MEASURE(0.01),#1715,
'DISTANCE_ACCURACY_VALUE',
'Maximum model space distance between geometric entities at asserted c
onnectivities');
#1712=UNCERTAINTY_MEASURE_WITH_UNIT(LENGTH_MEASURE(0.01),#1715,
'DISTANCE_ACCURACY_VALUE',
'Maximum model space distance between geometric entities at asserted c
onnectivities');
#1713=(
GEOMETRIC_REPRESENTATION_CONTEXT(3)
GLOBAL_UNCERTAINTY_ASSIGNED_CONTEXT((#1711))
GLOBAL_UNIT_ASSIGNED_CONTEXT((#1715,#1717,#1718))
REPRESENTATION_CONTEXT('','3D')
);
#1714=(
GEOMETRIC_REPRESENTATION_CONTEXT(3)
GLOBAL_UNCERTAINTY_ASSIGNED_CONTEXT((#1712))
GLOBAL_UNIT_ASSIGNED_CONTEXT((#1715,#1717,#1718))
REPRESENTATION_CONTEXT('','3D')
);
#1715=(
LENGTH_UNIT()
NAMED_UNIT(*)
SI_UNIT(.MILLI.,.METRE.)
);
#1716=(
LENGTH_UNIT()
NAMED_UNIT(*)
SI_UNIT(.CENTI.,.METRE.)
);
#1717=(
NAMED_UNIT(*)
PLANE_ANGLE_UNIT()
SI_UNIT($,.RADIAN.)
);
#1718=(
NAMED_UNIT(*)
SI_UNIT($,.STERADIAN.)
SOLID_ANGLE_UNIT()
);
#1719=SHAPE_DEFINITION_REPRESENTATION(#1720,#1721);
#1720=PRODUCT_DEFINITION_SHAPE('',$,#1723);
#1721=SHAPE_REPRESENTATION('',(#978),#1713);
#1722=PRODUCT_DEFINITION_CONTEXT('part definition',#1727,'design');
#1723=PRODUCT_DEFINITION('slider','slider Y',#1724,#1722);
#1724=PRODUCT_DEFINITION_FORMATION('',$,#1729);
#1725=PRODUCT_RELATED_PRODUCT_CATEGORY('slider Y','slider Y',(#1729));
#1726=APPLICATION_PROTOCOL_DEFINITION('international standard',
'automotive_design',2009,#1727);
#1727=APPLICATION_CONTEXT(
'Core Data for Automotive Mechanical Design Process');
#1728=PRODUCT_CONTEXT('part definition',#1727,'mechanical');
#1729=PRODUCT('slider','slider Y',$,(#1728));
#1730=PRESENTATION_STYLE_ASSIGNMENT((#1731));
#1731=SURFACE_STYLE_USAGE(.BOTH.,#1734);
#1732=SURFACE_STYLE_RENDERING_WITH_PROPERTIES($,#1738,(#1733));
#1733=SURFACE_STYLE_TRANSPARENT(0.);
#1734=SURFACE_SIDE_STYLE('',(#1735,#1732));
#1735=SURFACE_STYLE_FILL_AREA(#1736);
#1736=FILL_AREA_STYLE('',(#1737));
#1737=FILL_AREA_STYLE_COLOUR('',#1738);
#1738=COLOUR_RGB('',0.184313725490196,0.623529411764706,0.764705882352941);
ENDSEC;
END-ISO-10303-21;
