ISO-10303-21;
HEADER;
/* Generated by software containing ST-Developer
 * from STEP Tools, Inc. (www.steptools.com) 
 */

FILE_DESCRIPTION(
/* description */ (''),
/* implementation_level */ '2;1');

FILE_NAME(
/* name */ 
'C:\\Users\\drago\\OneDrive\\Ta\X2\0300\X0\i li\X\EA\X2\0323\X0\u\\2ax
is CNC\\slide rail.stp',
/* time_stamp */ '2026-08-19T14:17:53+07:00',
/* author */ ('drago'),
/* organization */ (''),
/* preprocessor_version */ 'ST-DEVELOPER v18',
/* originating_system */ 'Autodesk Inventor 2020',
/* authorisation */ '');

FILE_SCHEMA (('AUTOMOTIVE_DESIGN { 1 0 10303 214 3 1 1 }'));
ENDSEC;

DATA;
#10=MECHANICAL_DESIGN_GEOMETRIC_PRESENTATION_REPRESENTATION('',(#13),#1988);
#11=SHAPE_REPRESENTATION_RELATIONSHIP('SRR','None',#1995,#12);
#12=ADVANCED_BREP_SHAPE_REPRESENTATION('',(#14),#1987);
#13=STYLED_ITEM('',(#2004),#14);
#14=MANIFOLD_SOLID_BREP('Solid1',#1164);
#15=ELLIPSE('',#1287,14.1261319248411,9.5);
#16=CYLINDRICAL_SURFACE('',#1190,0.9);
#17=CYLINDRICAL_SURFACE('',#1196,0.9);
#18=CYLINDRICAL_SURFACE('',#1219,1.);
#19=CYLINDRICAL_SURFACE('',#1221,1.);
#20=CYLINDRICAL_SURFACE('',#1223,1.);
#21=CYLINDRICAL_SURFACE('',#1225,1.);
#22=CYLINDRICAL_SURFACE('',#1233,1.45);
#23=CYLINDRICAL_SURFACE('',#1244,1.45);
#24=CYLINDRICAL_SURFACE('',#1260,0.9);
#25=CYLINDRICAL_SURFACE('',#1266,0.9);
#26=CYLINDRICAL_SURFACE('',#1272,0.9);
#27=CYLINDRICAL_SURFACE('',#1278,4.);
#28=CYLINDRICAL_SURFACE('',#1280,2.);
#29=CYLINDRICAL_SURFACE('',#1284,4.);
#30=CYLINDRICAL_SURFACE('',#1288,9.5);
#31=CYLINDRICAL_SURFACE('',#1298,1.4);
#32=FACE_BOUND('',#147,.T.);
#33=FACE_BOUND('',#148,.T.);
#34=FACE_BOUND('',#157,.T.);
#35=FACE_BOUND('',#158,.T.);
#36=FACE_BOUND('',#159,.T.);
#37=FACE_BOUND('',#160,.T.);
#38=FACE_BOUND('',#176,.T.);
#39=FACE_BOUND('',#179,.T.);
#40=FACE_BOUND('',#183,.T.);
#41=FACE_BOUND('',#186,.T.);
#42=FACE_BOUND('',#187,.T.);
#43=FACE_BOUND('',#188,.T.);
#44=FACE_BOUND('',#189,.T.);
#45=FACE_BOUND('',#202,.T.);
#46=FACE_BOUND('',#203,.T.);
#47=FACE_BOUND('',#204,.T.);
#48=FACE_BOUND('',#205,.T.);
#49=FACE_BOUND('',#206,.T.);
#50=FACE_BOUND('',#207,.T.);
#51=FACE_BOUND('',#214,.T.);
#52=FACE_BOUND('',#222,.T.);
#53=PLANE('',#1188);
#54=PLANE('',#1199);
#55=PLANE('',#1200);
#56=PLANE('',#1201);
#57=PLANE('',#1202);
#58=PLANE('',#1204);
#59=PLANE('',#1213);
#60=PLANE('',#1214);
#61=PLANE('',#1216);
#62=PLANE('',#1217);
#63=PLANE('',#1218);
#64=PLANE('',#1227);
#65=PLANE('',#1228);
#66=PLANE('',#1229);
#67=PLANE('',#1235);
#68=PLANE('',#1241);
#69=PLANE('',#1248);
#70=PLANE('',#1255);
#71=PLANE('',#1275);
#72=PLANE('',#1276);
#73=PLANE('',#1277);
#74=PLANE('',#1279);
#75=PLANE('',#1283);
#76=PLANE('',#1285);
#77=PLANE('',#1286);
#78=PLANE('',#1291);
#79=PLANE('',#1292);
#80=PLANE('',#1295);
#81=PLANE('',#1296);
#82=PLANE('',#1297);
#83=PLANE('',#1300);
#84=PLANE('',#1301);
#85=PLANE('',#1302);
#86=PLANE('',#1303);
#87=FACE_OUTER_BOUND('',#145,.T.);
#88=FACE_OUTER_BOUND('',#146,.T.);
#89=FACE_OUTER_BOUND('',#149,.T.);
#90=FACE_OUTER_BOUND('',#150,.T.);
#91=FACE_OUTER_BOUND('',#151,.T.);
#92=FACE_OUTER_BOUND('',#152,.T.);
#93=FACE_OUTER_BOUND('',#153,.T.);
#94=FACE_OUTER_BOUND('',#154,.T.);
#95=FACE_OUTER_BOUND('',#155,.T.);
#96=FACE_OUTER_BOUND('',#156,.T.);
#97=FACE_OUTER_BOUND('',#161,.T.);
#98=FACE_OUTER_BOUND('',#162,.T.);
#99=FACE_OUTER_BOUND('',#163,.T.);
#100=FACE_OUTER_BOUND('',#164,.T.);
#101=FACE_OUTER_BOUND('',#165,.T.);
#102=FACE_OUTER_BOUND('',#166,.T.);
#103=FACE_OUTER_BOUND('',#167,.T.);
#104=FACE_OUTER_BOUND('',#168,.T.);
#105=FACE_OUTER_BOUND('',#169,.T.);
#106=FACE_OUTER_BOUND('',#170,.T.);
#107=FACE_OUTER_BOUND('',#171,.T.);
#108=FACE_OUTER_BOUND('',#172,.T.);
#109=FACE_OUTER_BOUND('',#173,.T.);
#110=FACE_OUTER_BOUND('',#174,.T.);
#111=FACE_OUTER_BOUND('',#175,.T.);
#112=FACE_OUTER_BOUND('',#177,.T.);
#113=FACE_OUTER_BOUND('',#178,.T.);
#114=FACE_OUTER_BOUND('',#180,.T.);
#115=FACE_OUTER_BOUND('',#181,.T.);
#116=FACE_OUTER_BOUND('',#182,.T.);
#117=FACE_OUTER_BOUND('',#184,.T.);
#118=FACE_OUTER_BOUND('',#185,.T.);
#119=FACE_OUTER_BOUND('',#190,.T.);
#120=FACE_OUTER_BOUND('',#191,.T.);
#121=FACE_OUTER_BOUND('',#192,.T.);
#122=FACE_OUTER_BOUND('',#193,.T.);
#123=FACE_OUTER_BOUND('',#194,.T.);
#124=FACE_OUTER_BOUND('',#195,.T.);
#125=FACE_OUTER_BOUND('',#196,.T.);
#126=FACE_OUTER_BOUND('',#197,.T.);
#127=FACE_OUTER_BOUND('',#198,.T.);
#128=FACE_OUTER_BOUND('',#199,.T.);
#129=FACE_OUTER_BOUND('',#200,.T.);
#130=FACE_OUTER_BOUND('',#201,.T.);
#131=FACE_OUTER_BOUND('',#208,.T.);
#132=FACE_OUTER_BOUND('',#209,.T.);
#133=FACE_OUTER_BOUND('',#210,.T.);
#134=FACE_OUTER_BOUND('',#211,.T.);
#135=FACE_OUTER_BOUND('',#212,.T.);
#136=FACE_OUTER_BOUND('',#213,.T.);
#137=FACE_OUTER_BOUND('',#215,.T.);
#138=FACE_OUTER_BOUND('',#216,.T.);
#139=FACE_OUTER_BOUND('',#217,.T.);
#140=FACE_OUTER_BOUND('',#218,.T.);
#141=FACE_OUTER_BOUND('',#219,.T.);
#142=FACE_OUTER_BOUND('',#220,.T.);
#143=FACE_OUTER_BOUND('',#221,.T.);
#144=FACE_OUTER_BOUND('',#223,.T.);
#145=EDGE_LOOP('',(#768,#769,#770,#771,#772));
#146=EDGE_LOOP('',(#773,#774,#775,#776,#777,#778,#779,#780));
#147=EDGE_LOOP('',(#781));
#148=EDGE_LOOP('',(#782));
#149=EDGE_LOOP('',(#783,#784,#785,#786,#787,#788));
#150=EDGE_LOOP('',(#789,#790,#791,#792,#793));
#151=EDGE_LOOP('',(#794,#795,#796,#797,#798,#799));
#152=EDGE_LOOP('',(#800,#801));
#153=EDGE_LOOP('',(#802,#803));
#154=EDGE_LOOP('',(#804,#805,#806,#807));
#155=EDGE_LOOP('',(#808,#809,#810,#811,#812,#813,#814,#815,#816,#817,#818,
#819));
#156=EDGE_LOOP('',(#820,#821,#822,#823,#824,#825,#826,#827,#828,#829,#830,
#831));
#157=EDGE_LOOP('',(#832,#833));
#158=EDGE_LOOP('',(#834,#835));
#159=EDGE_LOOP('',(#836,#837));
#160=EDGE_LOOP('',(#838,#839));
#161=EDGE_LOOP('',(#840,#841,#842,#843));
#162=EDGE_LOOP('',(#844,#845,#846,#847,#848,#849,#850,#851,#852,#853,#854,
#855));
#163=EDGE_LOOP('',(#856,#857,#858,#859));
#164=EDGE_LOOP('',(#860,#861,#862,#863));
#165=EDGE_LOOP('',(#864,#865,#866,#867));
#166=EDGE_LOOP('',(#868,#869,#870,#871,#872));
#167=EDGE_LOOP('',(#873,#874,#875,#876,#877));
#168=EDGE_LOOP('',(#878,#879,#880,#881,#882));
#169=EDGE_LOOP('',(#883,#884,#885,#886,#887));
#170=EDGE_LOOP('',(#888,#889,#890,#891));
#171=EDGE_LOOP('',(#892,#893,#894,#895));
#172=EDGE_LOOP('',(#896,#897,#898,#899));
#173=EDGE_LOOP('',(#900,#901,#902,#903));
#174=EDGE_LOOP('',(#904,#905,#906,#907));
#175=EDGE_LOOP('',(#908,#909,#910,#911,#912,#913,#914));
#176=EDGE_LOOP('',(#915));
#177=EDGE_LOOP('',(#916,#917,#918,#919));
#178=EDGE_LOOP('',(#920,#921));
#179=EDGE_LOOP('',(#922));
#180=EDGE_LOOP('',(#923,#924,#925,#926));
#181=EDGE_LOOP('',(#927,#928,#929,#930));
#182=EDGE_LOOP('',(#931,#932));
#183=EDGE_LOOP('',(#933));
#184=EDGE_LOOP('',(#934,#935,#936,#937,#938));
#185=EDGE_LOOP('',(#939,#940,#941,#942,#943,#944,#945,#946));
#186=EDGE_LOOP('',(#947));
#187=EDGE_LOOP('',(#948));
#188=EDGE_LOOP('',(#949));
#189=EDGE_LOOP('',(#950));
#190=EDGE_LOOP('',(#951,#952,#953,#954,#955,#956));
#191=EDGE_LOOP('',(#957,#958,#959,#960,#961));
#192=EDGE_LOOP('',(#962,#963,#964,#965,#966,#967));
#193=EDGE_LOOP('',(#968,#969,#970,#971,#972));
#194=EDGE_LOOP('',(#973,#974,#975,#976,#977,#978));
#195=EDGE_LOOP('',(#979,#980));
#196=EDGE_LOOP('',(#981,#982));
#197=EDGE_LOOP('',(#983,#984));
#198=EDGE_LOOP('',(#985,#986,#987,#988,#989,#990,#991,#992,#993));
#199=EDGE_LOOP('',(#994,#995,#996,#997,#998,#999));
#200=EDGE_LOOP('',(#1000,#1001,#1002,#1003));
#201=EDGE_LOOP('',(#1004,#1005,#1006,#1007,#1008,#1009));
#202=EDGE_LOOP('',(#1010));
#203=EDGE_LOOP('',(#1011));
#204=EDGE_LOOP('',(#1012));
#205=EDGE_LOOP('',(#1013));
#206=EDGE_LOOP('',(#1014,#1015,#1016,#1017));
#207=EDGE_LOOP('',(#1018,#1019,#1020,#1021));
#208=EDGE_LOOP('',(#1022,#1023,#1024,#1025,#1026,#1027,#1028,#1029,#1030));
#209=EDGE_LOOP('',(#1031,#1032,#1033,#1034,#1035,#1036));
#210=EDGE_LOOP('',(#1037,#1038,#1039,#1040,#1041));
#211=EDGE_LOOP('',(#1042,#1043,#1044,#1045,#1046));
#212=EDGE_LOOP('',(#1047,#1048,#1049,#1050));
#213=EDGE_LOOP('',(#1051,#1052,#1053,#1054,#1055,#1056));
#214=EDGE_LOOP('',(#1057,#1058));
#215=EDGE_LOOP('',(#1059,#1060,#1061,#1062,#1063,#1064,#1065));
#216=EDGE_LOOP('',(#1066,#1067,#1068,#1069));
#217=EDGE_LOOP('',(#1070,#1071,#1072,#1073));
#218=EDGE_LOOP('',(#1074,#1075,#1076,#1077,#1078));
#219=EDGE_LOOP('',(#1079,#1080,#1081,#1082));
#220=EDGE_LOOP('',(#1083,#1084,#1085,#1086));
#221=EDGE_LOOP('',(#1087,#1088,#1089,#1090,#1091));
#222=EDGE_LOOP('',(#1092));
#223=EDGE_LOOP('',(#1093,#1094,#1095,#1096,#1097));
#224=LINE('',#1654,#327);
#225=LINE('',#1661,#328);
#226=LINE('',#1663,#329);
#227=LINE('',#1665,#330);
#228=LINE('',#1667,#331);
#229=LINE('',#1669,#332);
#230=LINE('',#1671,#333);
#231=LINE('',#1673,#334);
#232=LINE('',#1674,#335);
#233=LINE('',#1679,#336);
#234=LINE('',#1685,#337);
#235=LINE('',#1691,#338);
#236=LINE('',#1700,#339);
#237=LINE('',#1702,#340);
#238=LINE('',#1704,#341);
#239=LINE('',#1705,#342);
#240=LINE('',#1708,#343);
#241=LINE('',#1710,#344);
#242=LINE('',#1712,#345);
#243=LINE('',#1714,#346);
#244=LINE('',#1716,#347);
#245=LINE('',#1718,#348);
#246=LINE('',#1719,#349);
#247=LINE('',#1721,#350);
#248=LINE('',#1724,#351);
#249=LINE('',#1727,#352);
#250=LINE('',#1729,#353);
#251=LINE('',#1731,#354);
#252=LINE('',#1733,#355);
#253=LINE('',#1735,#356);
#254=LINE('',#1736,#357);
#255=LINE('',#1738,#358);
#256=LINE('',#1740,#359);
#257=LINE('',#1741,#360);
#258=LINE('',#1759,#361);
#259=LINE('',#1762,#362);
#260=LINE('',#1764,#363);
#261=LINE('',#1767,#364);
#262=LINE('',#1769,#365);
#263=LINE('',#1771,#366);
#264=LINE('',#1772,#367);
#265=LINE('',#1775,#368);
#266=LINE('',#1777,#369);
#267=LINE('',#1778,#370);
#268=LINE('',#1780,#371);
#269=LINE('',#1783,#372);
#270=LINE('',#1784,#373);
#271=LINE('',#1787,#374);
#272=LINE('',#1791,#375);
#273=LINE('',#1795,#376);
#274=LINE('',#1799,#377);
#275=LINE('',#1802,#378);
#276=LINE('',#1805,#379);
#277=LINE('',#1806,#380);
#278=LINE('',#1808,#381);
#279=LINE('',#1813,#382);
#280=LINE('',#1818,#383);
#281=LINE('',#1824,#384);
#282=LINE('',#1826,#385);
#283=LINE('',#1828,#386);
#284=LINE('',#1830,#387);
#285=LINE('',#1832,#388);
#286=LINE('',#1838,#389);
#287=LINE('',#1848,#390);
#288=LINE('',#1852,#391);
#289=LINE('',#1862,#392);
#290=LINE('',#1873,#393);
#291=LINE('',#1875,#394);
#292=LINE('',#1877,#395);
#293=LINE('',#1878,#396);
#294=LINE('',#1879,#397);
#295=LINE('',#1886,#398);
#296=LINE('',#1892,#399);
#297=LINE('',#1898,#400);
#298=LINE('',#1904,#401);
#299=LINE('',#1910,#402);
#300=LINE('',#1918,#403);
#301=LINE('',#1919,#404);
#302=LINE('',#1920,#405);
#303=LINE('',#1922,#406);
#304=LINE('',#1924,#407);
#305=LINE('',#1925,#408);
#306=LINE('',#1931,#409);
#307=LINE('',#1934,#410);
#308=LINE('',#1937,#411);
#309=LINE('',#1939,#412);
#310=LINE('',#1940,#413);
#311=LINE('',#1941,#414);
#312=LINE('',#1943,#415);
#313=LINE('',#1944,#416);
#314=LINE('',#1947,#417);
#315=LINE('',#1949,#418);
#316=LINE('',#1951,#419);
#317=LINE('',#1952,#420);
#318=LINE('',#1956,#421);
#319=LINE('',#1961,#422);
#320=LINE('',#1963,#423);
#321=LINE('',#1964,#424);
#322=LINE('',#1966,#425);
#323=LINE('',#1972,#426);
#324=LINE('',#1973,#427);
#325=LINE('',#1978,#428);
#326=LINE('',#1983,#429);
#327=VECTOR('',#1310,1.15);
#328=VECTOR('',#1317,10.);
#329=VECTOR('',#1318,10.);
#330=VECTOR('',#1319,10.);
#331=VECTOR('',#1320,10.);
#332=VECTOR('',#1321,10.);
#333=VECTOR('',#1322,10.);
#334=VECTOR('',#1323,10.);
#335=VECTOR('',#1324,10.);
#336=VECTOR('',#1329,0.9);
#337=VECTOR('',#1336,1.15);
#338=VECTOR('',#1343,0.9);
#339=VECTOR('',#1354,10.);
#340=VECTOR('',#1355,10.);
#341=VECTOR('',#1356,10.);
#342=VECTOR('',#1357,10.);
#343=VECTOR('',#1360,10.);
#344=VECTOR('',#1361,10.);
#345=VECTOR('',#1362,10.);
#346=VECTOR('',#1363,10.);
#347=VECTOR('',#1364,10.);
#348=VECTOR('',#1365,10.);
#349=VECTOR('',#1366,10.);
#350=VECTOR('',#1367,10.);
#351=VECTOR('',#1370,10.);
#352=VECTOR('',#1373,10.);
#353=VECTOR('',#1374,10.);
#354=VECTOR('',#1375,10.);
#355=VECTOR('',#1376,10.);
#356=VECTOR('',#1377,10.);
#357=VECTOR('',#1378,10.);
#358=VECTOR('',#1379,10.);
#359=VECTOR('',#1380,10.);
#360=VECTOR('',#1381,10.);
#361=VECTOR('',#1400,10.);
#362=VECTOR('',#1403,10.);
#363=VECTOR('',#1404,10.);
#364=VECTOR('',#1407,10.);
#365=VECTOR('',#1408,10.);
#366=VECTOR('',#1409,10.);
#367=VECTOR('',#1410,10.);
#368=VECTOR('',#1413,10.);
#369=VECTOR('',#1414,10.);
#370=VECTOR('',#1415,10.);
#371=VECTOR('',#1418,10.);
#372=VECTOR('',#1421,10.);
#373=VECTOR('',#1422,10.);
#374=VECTOR('',#1425,1.);
#375=VECTOR('',#1430,1.);
#376=VECTOR('',#1435,1.);
#377=VECTOR('',#1440,1.);
#378=VECTOR('',#1445,10.);
#379=VECTOR('',#1448,10.);
#380=VECTOR('',#1449,10.);
#381=VECTOR('',#1452,10.);
#382=VECTOR('',#1457,1.825);
#383=VECTOR('',#1464,1.45);
#384=VECTOR('',#1469,10.);
#385=VECTOR('',#1470,10.);
#386=VECTOR('',#1471,10.);
#387=VECTOR('',#1472,10.);
#388=VECTOR('',#1473,10.);
#389=VECTOR('',#1480,1.825);
#390=VECTOR('',#1493,1.45);
#391=VECTOR('',#1498,1.825);
#392=VECTOR('',#1509,1.15);
#393=VECTOR('',#1520,10.);
#394=VECTOR('',#1521,10.);
#395=VECTOR('',#1522,10.);
#396=VECTOR('',#1523,10.);
#397=VECTOR('',#1524,10.);
#398=VECTOR('',#1531,0.9);
#399=VECTOR('',#1538,1.15);
#400=VECTOR('',#1545,0.9);
#401=VECTOR('',#1552,1.15);
#402=VECTOR('',#1559,0.9);
#403=VECTOR('',#1572,10.);
#404=VECTOR('',#1573,4.);
#405=VECTOR('',#1574,10.);
#406=VECTOR('',#1577,10.);
#407=VECTOR('',#1578,10.);
#408=VECTOR('',#1579,10.);
#409=VECTOR('',#1584,10.);
#410=VECTOR('',#1587,10.);
#411=VECTOR('',#1590,10.);
#412=VECTOR('',#1591,10.);
#413=VECTOR('',#1592,10.);
#414=VECTOR('',#1593,10.);
#415=VECTOR('',#1596,4.);
#416=VECTOR('',#1597,10.);
#417=VECTOR('',#1600,10.);
#418=VECTOR('',#1601,10.);
#419=VECTOR('',#1602,10.);
#420=VECTOR('',#1603,10.);
#421=VECTOR('',#1608,10.);
#422=VECTOR('',#1617,10.);
#423=VECTOR('',#1618,10.);
#424=VECTOR('',#1619,10.);
#425=VECTOR('',#1622,10.);
#426=VECTOR('',#1629,10.);
#427=VECTOR('',#1630,10.);
#428=VECTOR('',#1637,1.4);
#429=VECTOR('',#1646,10.);
#430=CIRCLE('',#1185,1.40000000000001);
#431=CIRCLE('',#1186,0.9);
#432=CIRCLE('',#1187,0.9);
#433=CIRCLE('',#1189,1.4);
#434=CIRCLE('',#1191,0.9);
#435=CIRCLE('',#1192,0.9);
#436=CIRCLE('',#1194,0.9);
#437=CIRCLE('',#1195,0.9);
#438=CIRCLE('',#1197,0.9);
#439=CIRCLE('',#1198,0.9);
#440=CIRCLE('',#1203,4.);
#441=CIRCLE('',#1205,1.);
#442=CIRCLE('',#1206,1.);
#443=CIRCLE('',#1207,1.);
#444=CIRCLE('',#1208,1.);
#445=CIRCLE('',#1209,1.);
#446=CIRCLE('',#1210,1.);
#447=CIRCLE('',#1211,1.);
#448=CIRCLE('',#1212,1.);
#449=CIRCLE('',#1215,4.);
#450=CIRCLE('',#1220,1.);
#451=CIRCLE('',#1222,1.);
#452=CIRCLE('',#1224,1.);
#453=CIRCLE('',#1226,1.);
#454=CIRCLE('',#1231,1.45);
#455=CIRCLE('',#1232,2.2);
#456=CIRCLE('',#1234,1.45);
#457=CIRCLE('',#1236,4.);
#458=CIRCLE('',#1237,4.);
#459=CIRCLE('',#1239,1.45);
#460=CIRCLE('',#1240,2.2);
#461=CIRCLE('',#1242,4.);
#462=CIRCLE('',#1243,4.);
#463=CIRCLE('',#1245,1.45);
#464=CIRCLE('',#1247,2.2);
#465=CIRCLE('',#1249,4.);
#466=CIRCLE('',#1250,4.);
#467=CIRCLE('',#1252,1.4);
#468=CIRCLE('',#1253,0.9);
#469=CIRCLE('',#1254,0.9);
#470=CIRCLE('',#1256,4.);
#471=CIRCLE('',#1257,4.);
#472=CIRCLE('',#1258,1.4);
#473=CIRCLE('',#1259,1.4);
#474=CIRCLE('',#1261,0.9);
#475=CIRCLE('',#1262,0.9);
#476=CIRCLE('',#1264,0.9);
#477=CIRCLE('',#1265,0.9);
#478=CIRCLE('',#1267,0.9);
#479=CIRCLE('',#1268,0.9);
#480=CIRCLE('',#1270,0.9);
#481=CIRCLE('',#1271,0.9);
#482=CIRCLE('',#1273,0.9);
#483=CIRCLE('',#1274,0.9);
#484=CIRCLE('',#1281,2.);
#485=CIRCLE('',#1282,2.);
#486=CIRCLE('',#1289,9.5);
#487=CIRCLE('',#1290,9.5);
#488=CIRCLE('',#1293,1.4);
#489=CIRCLE('',#1294,1.4);
#490=CIRCLE('',#1299,1.4);
#491=VERTEX_POINT('',#1651);
#492=VERTEX_POINT('',#1653);
#493=VERTEX_POINT('',#1655);
#494=VERTEX_POINT('',#1659);
#495=VERTEX_POINT('',#1660);
#496=VERTEX_POINT('',#1662);
#497=VERTEX_POINT('',#1664);
#498=VERTEX_POINT('',#1666);
#499=VERTEX_POINT('',#1668);
#500=VERTEX_POINT('',#1670);
#501=VERTEX_POINT('',#1672);
#502=VERTEX_POINT('',#1675);
#503=VERTEX_POINT('',#1678);
#504=VERTEX_POINT('',#1680);
#505=VERTEX_POINT('',#1684);
#506=VERTEX_POINT('',#1686);
#507=VERTEX_POINT('',#1690);
#508=VERTEX_POINT('',#1692);
#509=VERTEX_POINT('',#1698);
#510=VERTEX_POINT('',#1699);
#511=VERTEX_POINT('',#1701);
#512=VERTEX_POINT('',#1703);
#513=VERTEX_POINT('',#1707);
#514=VERTEX_POINT('',#1709);
#515=VERTEX_POINT('',#1711);
#516=VERTEX_POINT('',#1713);
#517=VERTEX_POINT('',#1715);
#518=VERTEX_POINT('',#1717);
#519=VERTEX_POINT('',#1720);
#520=VERTEX_POINT('',#1722);
#521=VERTEX_POINT('',#1726);
#522=VERTEX_POINT('',#1728);
#523=VERTEX_POINT('',#1730);
#524=VERTEX_POINT('',#1732);
#525=VERTEX_POINT('',#1734);
#526=VERTEX_POINT('',#1737);
#527=VERTEX_POINT('',#1739);
#528=VERTEX_POINT('',#1742);
#529=VERTEX_POINT('',#1743);
#530=VERTEX_POINT('',#1746);
#531=VERTEX_POINT('',#1747);
#532=VERTEX_POINT('',#1750);
#533=VERTEX_POINT('',#1751);
#534=VERTEX_POINT('',#1754);
#535=VERTEX_POINT('',#1755);
#536=VERTEX_POINT('',#1761);
#537=VERTEX_POINT('',#1763);
#538=VERTEX_POINT('',#1765);
#539=VERTEX_POINT('',#1768);
#540=VERTEX_POINT('',#1770);
#541=VERTEX_POINT('',#1774);
#542=VERTEX_POINT('',#1776);
#543=VERTEX_POINT('',#1782);
#544=VERTEX_POINT('',#1786);
#545=VERTEX_POINT('',#1790);
#546=VERTEX_POINT('',#1794);
#547=VERTEX_POINT('',#1798);
#548=VERTEX_POINT('',#1804);
#549=VERTEX_POINT('',#1810);
#550=VERTEX_POINT('',#1812);
#551=VERTEX_POINT('',#1816);
#552=VERTEX_POINT('',#1820);
#553=VERTEX_POINT('',#1821);
#554=VERTEX_POINT('',#1823);
#555=VERTEX_POINT('',#1825);
#556=VERTEX_POINT('',#1827);
#557=VERTEX_POINT('',#1829);
#558=VERTEX_POINT('',#1831);
#559=VERTEX_POINT('',#1835);
#560=VERTEX_POINT('',#1837);
#561=VERTEX_POINT('',#1841);
#562=VERTEX_POINT('',#1842);
#563=VERTEX_POINT('',#1846);
#564=VERTEX_POINT('',#1850);
#565=VERTEX_POINT('',#1854);
#566=VERTEX_POINT('',#1855);
#567=VERTEX_POINT('',#1859);
#568=VERTEX_POINT('',#1861);
#569=VERTEX_POINT('',#1863);
#570=VERTEX_POINT('',#1867);
#571=VERTEX_POINT('',#1868);
#572=VERTEX_POINT('',#1870);
#573=VERTEX_POINT('',#1872);
#574=VERTEX_POINT('',#1874);
#575=VERTEX_POINT('',#1876);
#576=VERTEX_POINT('',#1880);
#577=VERTEX_POINT('',#1882);
#578=VERTEX_POINT('',#1885);
#579=VERTEX_POINT('',#1887);
#580=VERTEX_POINT('',#1891);
#581=VERTEX_POINT('',#1893);
#582=VERTEX_POINT('',#1897);
#583=VERTEX_POINT('',#1899);
#584=VERTEX_POINT('',#1903);
#585=VERTEX_POINT('',#1905);
#586=VERTEX_POINT('',#1909);
#587=VERTEX_POINT('',#1911);
#588=VERTEX_POINT('',#1923);
#589=VERTEX_POINT('',#1927);
#590=VERTEX_POINT('',#1928);
#591=VERTEX_POINT('',#1930);
#592=VERTEX_POINT('',#1932);
#593=VERTEX_POINT('',#1936);
#594=VERTEX_POINT('',#1938);
#595=VERTEX_POINT('',#1946);
#596=VERTEX_POINT('',#1948);
#597=VERTEX_POINT('',#1950);
#598=VERTEX_POINT('',#1954);
#599=VERTEX_POINT('',#1962);
#600=VERTEX_POINT('',#1967);
#601=VERTEX_POINT('',#1968);
#602=VERTEX_POINT('',#1977);
#603=EDGE_CURVE('',#491,#491,#430,.T.);
#604=EDGE_CURVE('',#491,#492,#224,.T.);
#605=EDGE_CURVE('',#492,#493,#431,.T.);
#606=EDGE_CURVE('',#493,#492,#432,.T.);
#607=EDGE_CURVE('',#494,#495,#225,.T.);
#608=EDGE_CURVE('',#494,#496,#226,.T.);
#609=EDGE_CURVE('',#496,#497,#227,.T.);
#610=EDGE_CURVE('',#498,#497,#228,.T.);
#611=EDGE_CURVE('',#498,#499,#229,.T.);
#612=EDGE_CURVE('',#499,#500,#230,.T.);
#613=EDGE_CURVE('',#500,#501,#231,.T.);
#614=EDGE_CURVE('',#495,#501,#232,.T.);
#615=EDGE_CURVE('',#502,#502,#433,.T.);
#616=EDGE_CURVE('',#493,#503,#233,.T.);
#617=EDGE_CURVE('',#503,#504,#434,.T.);
#618=EDGE_CURVE('',#504,#503,#435,.T.);
#619=EDGE_CURVE('',#502,#505,#234,.T.);
#620=EDGE_CURVE('',#505,#506,#436,.T.);
#621=EDGE_CURVE('',#506,#505,#437,.T.);
#622=EDGE_CURVE('',#506,#507,#235,.T.);
#623=EDGE_CURVE('',#507,#508,#438,.T.);
#624=EDGE_CURVE('',#508,#507,#439,.T.);
#625=EDGE_CURVE('',#509,#510,#236,.T.);
#626=EDGE_CURVE('',#511,#509,#237,.T.);
#627=EDGE_CURVE('',#512,#511,#238,.T.);
#628=EDGE_CURVE('',#512,#510,#239,.T.);
#629=EDGE_CURVE('',#512,#513,#240,.T.);
#630=EDGE_CURVE('',#511,#514,#241,.T.);
#631=EDGE_CURVE('',#514,#515,#242,.T.);
#632=EDGE_CURVE('',#516,#515,#243,.T.);
#633=EDGE_CURVE('',#517,#516,#244,.T.);
#634=EDGE_CURVE('',#517,#518,#245,.T.);
#635=EDGE_CURVE('',#518,#501,#246,.T.);
#636=EDGE_CURVE('',#500,#519,#247,.T.);
#637=EDGE_CURVE('',#520,#519,#440,.T.);
#638=EDGE_CURVE('',#520,#513,#248,.T.);
#639=EDGE_CURVE('',#521,#509,#249,.T.);
#640=EDGE_CURVE('',#522,#521,#250,.T.);
#641=EDGE_CURVE('',#523,#522,#251,.T.);
#642=EDGE_CURVE('',#524,#523,#252,.T.);
#643=EDGE_CURVE('',#525,#524,#253,.T.);
#644=EDGE_CURVE('',#525,#518,#254,.T.);
#645=EDGE_CURVE('',#526,#517,#255,.T.);
#646=EDGE_CURVE('',#527,#526,#256,.T.);
#647=EDGE_CURVE('',#514,#527,#257,.T.);
#648=EDGE_CURVE('',#528,#529,#441,.T.);
#649=EDGE_CURVE('',#529,#528,#442,.T.);
#650=EDGE_CURVE('',#530,#531,#443,.T.);
#651=EDGE_CURVE('',#531,#530,#444,.T.);
#652=EDGE_CURVE('',#532,#533,#445,.T.);
#653=EDGE_CURVE('',#533,#532,#446,.T.);
#654=EDGE_CURVE('',#534,#535,#447,.T.);
#655=EDGE_CURVE('',#535,#534,#448,.T.);
#656=EDGE_CURVE('',#495,#525,#258,.T.);
#657=EDGE_CURVE('',#536,#510,#259,.T.);
#658=EDGE_CURVE('',#536,#537,#260,.T.);
#659=EDGE_CURVE('',#538,#537,#449,.T.);
#660=EDGE_CURVE('',#538,#494,#261,.T.);
#661=EDGE_CURVE('',#524,#539,#262,.T.);
#662=EDGE_CURVE('',#540,#539,#263,.T.);
#663=EDGE_CURVE('',#521,#540,#264,.T.);
#664=EDGE_CURVE('',#526,#541,#265,.T.);
#665=EDGE_CURVE('',#542,#541,#266,.T.);
#666=EDGE_CURVE('',#527,#542,#267,.T.);
#667=EDGE_CURVE('',#541,#516,#268,.T.);
#668=EDGE_CURVE('',#523,#543,#269,.T.);
#669=EDGE_CURVE('',#539,#543,#270,.T.);
#670=EDGE_CURVE('',#529,#544,#271,.T.);
#671=EDGE_CURVE('',#544,#544,#450,.T.);
#672=EDGE_CURVE('',#531,#545,#272,.T.);
#673=EDGE_CURVE('',#545,#545,#451,.T.);
#674=EDGE_CURVE('',#533,#546,#273,.T.);
#675=EDGE_CURVE('',#546,#546,#452,.T.);
#676=EDGE_CURVE('',#535,#547,#274,.T.);
#677=EDGE_CURVE('',#547,#547,#453,.T.);
#678=EDGE_CURVE('',#515,#542,#275,.T.);
#679=EDGE_CURVE('',#522,#548,#276,.T.);
#680=EDGE_CURVE('',#543,#548,#277,.T.);
#681=EDGE_CURVE('',#548,#540,#278,.T.);
#682=EDGE_CURVE('',#549,#549,#454,.T.);
#683=EDGE_CURVE('',#549,#550,#279,.T.);
#684=EDGE_CURVE('',#550,#550,#455,.T.);
#685=EDGE_CURVE('',#551,#551,#456,.T.);
#686=EDGE_CURVE('',#551,#549,#280,.T.);
#687=EDGE_CURVE('',#552,#553,#457,.T.);
#688=EDGE_CURVE('',#554,#552,#281,.T.);
#689=EDGE_CURVE('',#555,#554,#282,.T.);
#690=EDGE_CURVE('',#556,#555,#283,.T.);
#691=EDGE_CURVE('',#557,#556,#284,.T.);
#692=EDGE_CURVE('',#558,#557,#285,.T.);
#693=EDGE_CURVE('',#553,#558,#458,.T.);
#694=EDGE_CURVE('',#559,#559,#459,.T.);
#695=EDGE_CURVE('',#559,#560,#286,.T.);
#696=EDGE_CURVE('',#560,#560,#460,.T.);
#697=EDGE_CURVE('',#561,#562,#461,.T.);
#698=EDGE_CURVE('',#562,#561,#462,.T.);
#699=EDGE_CURVE('',#563,#563,#463,.T.);
#700=EDGE_CURVE('',#563,#559,#287,.T.);
#701=EDGE_CURVE('',#564,#564,#464,.T.);
#702=EDGE_CURVE('',#564,#551,#288,.T.);
#703=EDGE_CURVE('',#565,#566,#465,.T.);
#704=EDGE_CURVE('',#566,#565,#466,.T.);
#705=EDGE_CURVE('',#567,#567,#467,.T.);
#706=EDGE_CURVE('',#567,#568,#289,.T.);
#707=EDGE_CURVE('',#568,#569,#468,.T.);
#708=EDGE_CURVE('',#569,#568,#469,.T.);
#709=EDGE_CURVE('',#570,#571,#470,.T.);
#710=EDGE_CURVE('',#571,#572,#471,.T.);
#711=EDGE_CURVE('',#573,#572,#290,.T.);
#712=EDGE_CURVE('',#574,#573,#291,.T.);
#713=EDGE_CURVE('',#575,#574,#292,.T.);
#714=EDGE_CURVE('',#497,#575,#293,.T.);
#715=EDGE_CURVE('',#496,#570,#294,.T.);
#716=EDGE_CURVE('',#576,#576,#472,.T.);
#717=EDGE_CURVE('',#577,#577,#473,.T.);
#718=EDGE_CURVE('',#569,#578,#295,.T.);
#719=EDGE_CURVE('',#578,#579,#474,.T.);
#720=EDGE_CURVE('',#579,#578,#475,.T.);
#721=EDGE_CURVE('',#576,#580,#296,.T.);
#722=EDGE_CURVE('',#580,#581,#476,.T.);
#723=EDGE_CURVE('',#581,#580,#477,.T.);
#724=EDGE_CURVE('',#581,#582,#297,.T.);
#725=EDGE_CURVE('',#582,#583,#478,.T.);
#726=EDGE_CURVE('',#583,#582,#479,.T.);
#727=EDGE_CURVE('',#577,#584,#298,.T.);
#728=EDGE_CURVE('',#584,#585,#480,.T.);
#729=EDGE_CURVE('',#585,#584,#481,.T.);
#730=EDGE_CURVE('',#585,#586,#299,.T.);
#731=EDGE_CURVE('',#586,#587,#482,.T.);
#732=EDGE_CURVE('',#587,#586,#483,.T.);
#733=EDGE_CURVE('',#537,#572,#300,.T.);
#734=EDGE_CURVE('',#571,#562,#301,.T.);
#735=EDGE_CURVE('',#538,#570,#302,.T.);
#736=EDGE_CURVE('',#552,#519,#303,.T.);
#737=EDGE_CURVE('',#499,#588,#304,.T.);
#738=EDGE_CURVE('',#588,#554,#305,.T.);
#739=EDGE_CURVE('',#589,#590,#484,.T.);
#740=EDGE_CURVE('',#590,#591,#306,.T.);
#741=EDGE_CURVE('',#591,#592,#485,.F.);
#742=EDGE_CURVE('',#592,#589,#307,.T.);
#743=EDGE_CURVE('',#592,#593,#308,.T.);
#744=EDGE_CURVE('',#593,#594,#309,.T.);
#745=EDGE_CURVE('',#594,#575,#310,.T.);
#746=EDGE_CURVE('',#574,#589,#311,.T.);
#747=EDGE_CURVE('',#566,#553,#312,.T.);
#748=EDGE_CURVE('',#558,#520,#313,.T.);
#749=EDGE_CURVE('',#595,#588,#314,.T.);
#750=EDGE_CURVE('',#596,#595,#315,.T.);
#751=EDGE_CURVE('',#597,#596,#316,.T.);
#752=EDGE_CURVE('',#555,#597,#317,.T.);
#753=EDGE_CURVE('',#557,#598,#15,.T.);
#754=EDGE_CURVE('',#513,#598,#318,.T.);
#755=EDGE_CURVE('',#598,#590,#486,.T.);
#756=EDGE_CURVE('',#556,#591,#487,.T.);
#757=EDGE_CURVE('',#595,#498,#319,.T.);
#758=EDGE_CURVE('',#599,#498,#320,.T.);
#759=EDGE_CURVE('',#596,#599,#321,.T.);
#760=EDGE_CURVE('',#593,#597,#322,.T.);
#761=EDGE_CURVE('',#600,#601,#488,.T.);
#762=EDGE_CURVE('',#601,#600,#489,.T.);
#763=EDGE_CURVE('',#573,#536,#323,.T.);
#764=EDGE_CURVE('',#536,#513,#324,.T.);
#765=EDGE_CURVE('',#601,#602,#325,.T.);
#766=EDGE_CURVE('',#602,#602,#490,.T.);
#767=EDGE_CURVE('',#599,#594,#326,.T.);
#768=ORIENTED_EDGE('',*,*,#603,.T.);
#769=ORIENTED_EDGE('',*,*,#604,.T.);
#770=ORIENTED_EDGE('',*,*,#605,.T.);
#771=ORIENTED_EDGE('',*,*,#606,.T.);
#772=ORIENTED_EDGE('',*,*,#604,.F.);
#773=ORIENTED_EDGE('',*,*,#607,.F.);
#774=ORIENTED_EDGE('',*,*,#608,.T.);
#775=ORIENTED_EDGE('',*,*,#609,.T.);
#776=ORIENTED_EDGE('',*,*,#610,.F.);
#777=ORIENTED_EDGE('',*,*,#611,.T.);
#778=ORIENTED_EDGE('',*,*,#612,.T.);
#779=ORIENTED_EDGE('',*,*,#613,.T.);
#780=ORIENTED_EDGE('',*,*,#614,.F.);
#781=ORIENTED_EDGE('',*,*,#615,.F.);
#782=ORIENTED_EDGE('',*,*,#603,.F.);
#783=ORIENTED_EDGE('',*,*,#605,.F.);
#784=ORIENTED_EDGE('',*,*,#606,.F.);
#785=ORIENTED_EDGE('',*,*,#616,.T.);
#786=ORIENTED_EDGE('',*,*,#617,.T.);
#787=ORIENTED_EDGE('',*,*,#618,.T.);
#788=ORIENTED_EDGE('',*,*,#616,.F.);
#789=ORIENTED_EDGE('',*,*,#615,.T.);
#790=ORIENTED_EDGE('',*,*,#619,.T.);
#791=ORIENTED_EDGE('',*,*,#620,.T.);
#792=ORIENTED_EDGE('',*,*,#621,.T.);
#793=ORIENTED_EDGE('',*,*,#619,.F.);
#794=ORIENTED_EDGE('',*,*,#620,.F.);
#795=ORIENTED_EDGE('',*,*,#621,.F.);
#796=ORIENTED_EDGE('',*,*,#622,.T.);
#797=ORIENTED_EDGE('',*,*,#623,.T.);
#798=ORIENTED_EDGE('',*,*,#624,.T.);
#799=ORIENTED_EDGE('',*,*,#622,.F.);
#800=ORIENTED_EDGE('',*,*,#624,.F.);
#801=ORIENTED_EDGE('',*,*,#623,.F.);
#802=ORIENTED_EDGE('',*,*,#618,.F.);
#803=ORIENTED_EDGE('',*,*,#617,.F.);
#804=ORIENTED_EDGE('',*,*,#625,.F.);
#805=ORIENTED_EDGE('',*,*,#626,.F.);
#806=ORIENTED_EDGE('',*,*,#627,.F.);
#807=ORIENTED_EDGE('',*,*,#628,.T.);
#808=ORIENTED_EDGE('',*,*,#629,.F.);
#809=ORIENTED_EDGE('',*,*,#627,.T.);
#810=ORIENTED_EDGE('',*,*,#630,.T.);
#811=ORIENTED_EDGE('',*,*,#631,.T.);
#812=ORIENTED_EDGE('',*,*,#632,.F.);
#813=ORIENTED_EDGE('',*,*,#633,.F.);
#814=ORIENTED_EDGE('',*,*,#634,.T.);
#815=ORIENTED_EDGE('',*,*,#635,.T.);
#816=ORIENTED_EDGE('',*,*,#613,.F.);
#817=ORIENTED_EDGE('',*,*,#636,.T.);
#818=ORIENTED_EDGE('',*,*,#637,.F.);
#819=ORIENTED_EDGE('',*,*,#638,.T.);
#820=ORIENTED_EDGE('',*,*,#626,.T.);
#821=ORIENTED_EDGE('',*,*,#639,.F.);
#822=ORIENTED_EDGE('',*,*,#640,.F.);
#823=ORIENTED_EDGE('',*,*,#641,.F.);
#824=ORIENTED_EDGE('',*,*,#642,.F.);
#825=ORIENTED_EDGE('',*,*,#643,.F.);
#826=ORIENTED_EDGE('',*,*,#644,.T.);
#827=ORIENTED_EDGE('',*,*,#634,.F.);
#828=ORIENTED_EDGE('',*,*,#645,.F.);
#829=ORIENTED_EDGE('',*,*,#646,.F.);
#830=ORIENTED_EDGE('',*,*,#647,.F.);
#831=ORIENTED_EDGE('',*,*,#630,.F.);
#832=ORIENTED_EDGE('',*,*,#648,.F.);
#833=ORIENTED_EDGE('',*,*,#649,.F.);
#834=ORIENTED_EDGE('',*,*,#650,.F.);
#835=ORIENTED_EDGE('',*,*,#651,.F.);
#836=ORIENTED_EDGE('',*,*,#652,.F.);
#837=ORIENTED_EDGE('',*,*,#653,.F.);
#838=ORIENTED_EDGE('',*,*,#654,.F.);
#839=ORIENTED_EDGE('',*,*,#655,.F.);
#840=ORIENTED_EDGE('',*,*,#635,.F.);
#841=ORIENTED_EDGE('',*,*,#644,.F.);
#842=ORIENTED_EDGE('',*,*,#656,.F.);
#843=ORIENTED_EDGE('',*,*,#614,.T.);
#844=ORIENTED_EDGE('',*,*,#657,.F.);
#845=ORIENTED_EDGE('',*,*,#658,.T.);
#846=ORIENTED_EDGE('',*,*,#659,.F.);
#847=ORIENTED_EDGE('',*,*,#660,.T.);
#848=ORIENTED_EDGE('',*,*,#607,.T.);
#849=ORIENTED_EDGE('',*,*,#656,.T.);
#850=ORIENTED_EDGE('',*,*,#643,.T.);
#851=ORIENTED_EDGE('',*,*,#661,.T.);
#852=ORIENTED_EDGE('',*,*,#662,.F.);
#853=ORIENTED_EDGE('',*,*,#663,.F.);
#854=ORIENTED_EDGE('',*,*,#639,.T.);
#855=ORIENTED_EDGE('',*,*,#625,.T.);
#856=ORIENTED_EDGE('',*,*,#646,.T.);
#857=ORIENTED_EDGE('',*,*,#664,.T.);
#858=ORIENTED_EDGE('',*,*,#665,.F.);
#859=ORIENTED_EDGE('',*,*,#666,.F.);
#860=ORIENTED_EDGE('',*,*,#645,.T.);
#861=ORIENTED_EDGE('',*,*,#633,.T.);
#862=ORIENTED_EDGE('',*,*,#667,.F.);
#863=ORIENTED_EDGE('',*,*,#664,.F.);
#864=ORIENTED_EDGE('',*,*,#642,.T.);
#865=ORIENTED_EDGE('',*,*,#668,.T.);
#866=ORIENTED_EDGE('',*,*,#669,.F.);
#867=ORIENTED_EDGE('',*,*,#661,.F.);
#868=ORIENTED_EDGE('',*,*,#648,.T.);
#869=ORIENTED_EDGE('',*,*,#670,.T.);
#870=ORIENTED_EDGE('',*,*,#671,.F.);
#871=ORIENTED_EDGE('',*,*,#670,.F.);
#872=ORIENTED_EDGE('',*,*,#649,.T.);
#873=ORIENTED_EDGE('',*,*,#650,.T.);
#874=ORIENTED_EDGE('',*,*,#672,.T.);
#875=ORIENTED_EDGE('',*,*,#673,.F.);
#876=ORIENTED_EDGE('',*,*,#672,.F.);
#877=ORIENTED_EDGE('',*,*,#651,.T.);
#878=ORIENTED_EDGE('',*,*,#652,.T.);
#879=ORIENTED_EDGE('',*,*,#674,.T.);
#880=ORIENTED_EDGE('',*,*,#675,.F.);
#881=ORIENTED_EDGE('',*,*,#674,.F.);
#882=ORIENTED_EDGE('',*,*,#653,.T.);
#883=ORIENTED_EDGE('',*,*,#654,.T.);
#884=ORIENTED_EDGE('',*,*,#676,.T.);
#885=ORIENTED_EDGE('',*,*,#677,.F.);
#886=ORIENTED_EDGE('',*,*,#676,.F.);
#887=ORIENTED_EDGE('',*,*,#655,.T.);
#888=ORIENTED_EDGE('',*,*,#647,.T.);
#889=ORIENTED_EDGE('',*,*,#666,.T.);
#890=ORIENTED_EDGE('',*,*,#678,.F.);
#891=ORIENTED_EDGE('',*,*,#631,.F.);
#892=ORIENTED_EDGE('',*,*,#641,.T.);
#893=ORIENTED_EDGE('',*,*,#679,.T.);
#894=ORIENTED_EDGE('',*,*,#680,.F.);
#895=ORIENTED_EDGE('',*,*,#668,.F.);
#896=ORIENTED_EDGE('',*,*,#640,.T.);
#897=ORIENTED_EDGE('',*,*,#663,.T.);
#898=ORIENTED_EDGE('',*,*,#681,.F.);
#899=ORIENTED_EDGE('',*,*,#679,.F.);
#900=ORIENTED_EDGE('',*,*,#682,.T.);
#901=ORIENTED_EDGE('',*,*,#683,.T.);
#902=ORIENTED_EDGE('',*,*,#684,.T.);
#903=ORIENTED_EDGE('',*,*,#683,.F.);
#904=ORIENTED_EDGE('',*,*,#685,.F.);
#905=ORIENTED_EDGE('',*,*,#686,.T.);
#906=ORIENTED_EDGE('',*,*,#682,.F.);
#907=ORIENTED_EDGE('',*,*,#686,.F.);
#908=ORIENTED_EDGE('',*,*,#687,.F.);
#909=ORIENTED_EDGE('',*,*,#688,.F.);
#910=ORIENTED_EDGE('',*,*,#689,.F.);
#911=ORIENTED_EDGE('',*,*,#690,.F.);
#912=ORIENTED_EDGE('',*,*,#691,.F.);
#913=ORIENTED_EDGE('',*,*,#692,.F.);
#914=ORIENTED_EDGE('',*,*,#693,.F.);
#915=ORIENTED_EDGE('',*,*,#684,.F.);
#916=ORIENTED_EDGE('',*,*,#694,.T.);
#917=ORIENTED_EDGE('',*,*,#695,.T.);
#918=ORIENTED_EDGE('',*,*,#696,.T.);
#919=ORIENTED_EDGE('',*,*,#695,.F.);
#920=ORIENTED_EDGE('',*,*,#697,.F.);
#921=ORIENTED_EDGE('',*,*,#698,.F.);
#922=ORIENTED_EDGE('',*,*,#696,.F.);
#923=ORIENTED_EDGE('',*,*,#699,.F.);
#924=ORIENTED_EDGE('',*,*,#700,.T.);
#925=ORIENTED_EDGE('',*,*,#694,.F.);
#926=ORIENTED_EDGE('',*,*,#700,.F.);
#927=ORIENTED_EDGE('',*,*,#701,.T.);
#928=ORIENTED_EDGE('',*,*,#702,.T.);
#929=ORIENTED_EDGE('',*,*,#685,.T.);
#930=ORIENTED_EDGE('',*,*,#702,.F.);
#931=ORIENTED_EDGE('',*,*,#703,.T.);
#932=ORIENTED_EDGE('',*,*,#704,.T.);
#933=ORIENTED_EDGE('',*,*,#701,.F.);
#934=ORIENTED_EDGE('',*,*,#705,.T.);
#935=ORIENTED_EDGE('',*,*,#706,.T.);
#936=ORIENTED_EDGE('',*,*,#707,.T.);
#937=ORIENTED_EDGE('',*,*,#708,.T.);
#938=ORIENTED_EDGE('',*,*,#706,.F.);
#939=ORIENTED_EDGE('',*,*,#709,.T.);
#940=ORIENTED_EDGE('',*,*,#710,.T.);
#941=ORIENTED_EDGE('',*,*,#711,.F.);
#942=ORIENTED_EDGE('',*,*,#712,.F.);
#943=ORIENTED_EDGE('',*,*,#713,.F.);
#944=ORIENTED_EDGE('',*,*,#714,.F.);
#945=ORIENTED_EDGE('',*,*,#609,.F.);
#946=ORIENTED_EDGE('',*,*,#715,.T.);
#947=ORIENTED_EDGE('',*,*,#716,.F.);
#948=ORIENTED_EDGE('',*,*,#699,.T.);
#949=ORIENTED_EDGE('',*,*,#717,.F.);
#950=ORIENTED_EDGE('',*,*,#705,.F.);
#951=ORIENTED_EDGE('',*,*,#707,.F.);
#952=ORIENTED_EDGE('',*,*,#708,.F.);
#953=ORIENTED_EDGE('',*,*,#718,.T.);
#954=ORIENTED_EDGE('',*,*,#719,.T.);
#955=ORIENTED_EDGE('',*,*,#720,.T.);
#956=ORIENTED_EDGE('',*,*,#718,.F.);
#957=ORIENTED_EDGE('',*,*,#716,.T.);
#958=ORIENTED_EDGE('',*,*,#721,.T.);
#959=ORIENTED_EDGE('',*,*,#722,.T.);
#960=ORIENTED_EDGE('',*,*,#723,.T.);
#961=ORIENTED_EDGE('',*,*,#721,.F.);
#962=ORIENTED_EDGE('',*,*,#722,.F.);
#963=ORIENTED_EDGE('',*,*,#723,.F.);
#964=ORIENTED_EDGE('',*,*,#724,.T.);
#965=ORIENTED_EDGE('',*,*,#725,.T.);
#966=ORIENTED_EDGE('',*,*,#726,.T.);
#967=ORIENTED_EDGE('',*,*,#724,.F.);
#968=ORIENTED_EDGE('',*,*,#717,.T.);
#969=ORIENTED_EDGE('',*,*,#727,.T.);
#970=ORIENTED_EDGE('',*,*,#728,.T.);
#971=ORIENTED_EDGE('',*,*,#729,.T.);
#972=ORIENTED_EDGE('',*,*,#727,.F.);
#973=ORIENTED_EDGE('',*,*,#728,.F.);
#974=ORIENTED_EDGE('',*,*,#729,.F.);
#975=ORIENTED_EDGE('',*,*,#730,.T.);
#976=ORIENTED_EDGE('',*,*,#731,.T.);
#977=ORIENTED_EDGE('',*,*,#732,.T.);
#978=ORIENTED_EDGE('',*,*,#730,.F.);
#979=ORIENTED_EDGE('',*,*,#720,.F.);
#980=ORIENTED_EDGE('',*,*,#719,.F.);
#981=ORIENTED_EDGE('',*,*,#732,.F.);
#982=ORIENTED_EDGE('',*,*,#731,.F.);
#983=ORIENTED_EDGE('',*,*,#726,.F.);
#984=ORIENTED_EDGE('',*,*,#725,.F.);
#985=ORIENTED_EDGE('',*,*,#659,.T.);
#986=ORIENTED_EDGE('',*,*,#733,.T.);
#987=ORIENTED_EDGE('',*,*,#710,.F.);
#988=ORIENTED_EDGE('',*,*,#734,.T.);
#989=ORIENTED_EDGE('',*,*,#698,.T.);
#990=ORIENTED_EDGE('',*,*,#697,.T.);
#991=ORIENTED_EDGE('',*,*,#734,.F.);
#992=ORIENTED_EDGE('',*,*,#709,.F.);
#993=ORIENTED_EDGE('',*,*,#735,.F.);
#994=ORIENTED_EDGE('',*,*,#736,.T.);
#995=ORIENTED_EDGE('',*,*,#636,.F.);
#996=ORIENTED_EDGE('',*,*,#612,.F.);
#997=ORIENTED_EDGE('',*,*,#737,.T.);
#998=ORIENTED_EDGE('',*,*,#738,.T.);
#999=ORIENTED_EDGE('',*,*,#688,.T.);
#1000=ORIENTED_EDGE('',*,*,#739,.T.);
#1001=ORIENTED_EDGE('',*,*,#740,.T.);
#1002=ORIENTED_EDGE('',*,*,#741,.T.);
#1003=ORIENTED_EDGE('',*,*,#742,.T.);
#1004=ORIENTED_EDGE('',*,*,#742,.F.);
#1005=ORIENTED_EDGE('',*,*,#743,.T.);
#1006=ORIENTED_EDGE('',*,*,#744,.T.);
#1007=ORIENTED_EDGE('',*,*,#745,.T.);
#1008=ORIENTED_EDGE('',*,*,#713,.T.);
#1009=ORIENTED_EDGE('',*,*,#746,.T.);
#1010=ORIENTED_EDGE('',*,*,#671,.T.);
#1011=ORIENTED_EDGE('',*,*,#673,.T.);
#1012=ORIENTED_EDGE('',*,*,#675,.T.);
#1013=ORIENTED_EDGE('',*,*,#677,.T.);
#1014=ORIENTED_EDGE('',*,*,#632,.T.);
#1015=ORIENTED_EDGE('',*,*,#678,.T.);
#1016=ORIENTED_EDGE('',*,*,#665,.T.);
#1017=ORIENTED_EDGE('',*,*,#667,.T.);
#1018=ORIENTED_EDGE('',*,*,#662,.T.);
#1019=ORIENTED_EDGE('',*,*,#669,.T.);
#1020=ORIENTED_EDGE('',*,*,#680,.T.);
#1021=ORIENTED_EDGE('',*,*,#681,.T.);
#1022=ORIENTED_EDGE('',*,*,#703,.F.);
#1023=ORIENTED_EDGE('',*,*,#704,.F.);
#1024=ORIENTED_EDGE('',*,*,#747,.T.);
#1025=ORIENTED_EDGE('',*,*,#693,.T.);
#1026=ORIENTED_EDGE('',*,*,#748,.T.);
#1027=ORIENTED_EDGE('',*,*,#637,.T.);
#1028=ORIENTED_EDGE('',*,*,#736,.F.);
#1029=ORIENTED_EDGE('',*,*,#687,.T.);
#1030=ORIENTED_EDGE('',*,*,#747,.F.);
#1031=ORIENTED_EDGE('',*,*,#738,.F.);
#1032=ORIENTED_EDGE('',*,*,#749,.F.);
#1033=ORIENTED_EDGE('',*,*,#750,.F.);
#1034=ORIENTED_EDGE('',*,*,#751,.F.);
#1035=ORIENTED_EDGE('',*,*,#752,.F.);
#1036=ORIENTED_EDGE('',*,*,#689,.T.);
#1037=ORIENTED_EDGE('',*,*,#692,.T.);
#1038=ORIENTED_EDGE('',*,*,#753,.T.);
#1039=ORIENTED_EDGE('',*,*,#754,.F.);
#1040=ORIENTED_EDGE('',*,*,#638,.F.);
#1041=ORIENTED_EDGE('',*,*,#748,.F.);
#1042=ORIENTED_EDGE('',*,*,#740,.F.);
#1043=ORIENTED_EDGE('',*,*,#755,.F.);
#1044=ORIENTED_EDGE('',*,*,#753,.F.);
#1045=ORIENTED_EDGE('',*,*,#691,.T.);
#1046=ORIENTED_EDGE('',*,*,#756,.T.);
#1047=ORIENTED_EDGE('',*,*,#750,.T.);
#1048=ORIENTED_EDGE('',*,*,#757,.T.);
#1049=ORIENTED_EDGE('',*,*,#758,.F.);
#1050=ORIENTED_EDGE('',*,*,#759,.F.);
#1051=ORIENTED_EDGE('',*,*,#752,.T.);
#1052=ORIENTED_EDGE('',*,*,#760,.F.);
#1053=ORIENTED_EDGE('',*,*,#743,.F.);
#1054=ORIENTED_EDGE('',*,*,#741,.F.);
#1055=ORIENTED_EDGE('',*,*,#756,.F.);
#1056=ORIENTED_EDGE('',*,*,#690,.T.);
#1057=ORIENTED_EDGE('',*,*,#761,.F.);
#1058=ORIENTED_EDGE('',*,*,#762,.F.);
#1059=ORIENTED_EDGE('',*,*,#739,.F.);
#1060=ORIENTED_EDGE('',*,*,#746,.F.);
#1061=ORIENTED_EDGE('',*,*,#712,.T.);
#1062=ORIENTED_EDGE('',*,*,#763,.T.);
#1063=ORIENTED_EDGE('',*,*,#764,.T.);
#1064=ORIENTED_EDGE('',*,*,#754,.T.);
#1065=ORIENTED_EDGE('',*,*,#755,.T.);
#1066=ORIENTED_EDGE('',*,*,#711,.T.);
#1067=ORIENTED_EDGE('',*,*,#733,.F.);
#1068=ORIENTED_EDGE('',*,*,#658,.F.);
#1069=ORIENTED_EDGE('',*,*,#763,.F.);
#1070=ORIENTED_EDGE('',*,*,#749,.T.);
#1071=ORIENTED_EDGE('',*,*,#737,.F.);
#1072=ORIENTED_EDGE('',*,*,#611,.F.);
#1073=ORIENTED_EDGE('',*,*,#757,.F.);
#1074=ORIENTED_EDGE('',*,*,#761,.T.);
#1075=ORIENTED_EDGE('',*,*,#765,.T.);
#1076=ORIENTED_EDGE('',*,*,#766,.F.);
#1077=ORIENTED_EDGE('',*,*,#765,.F.);
#1078=ORIENTED_EDGE('',*,*,#762,.T.);
#1079=ORIENTED_EDGE('',*,*,#735,.T.);
#1080=ORIENTED_EDGE('',*,*,#715,.F.);
#1081=ORIENTED_EDGE('',*,*,#608,.F.);
#1082=ORIENTED_EDGE('',*,*,#660,.F.);
#1083=ORIENTED_EDGE('',*,*,#629,.T.);
#1084=ORIENTED_EDGE('',*,*,#764,.F.);
#1085=ORIENTED_EDGE('',*,*,#657,.T.);
#1086=ORIENTED_EDGE('',*,*,#628,.F.);
#1087=ORIENTED_EDGE('',*,*,#714,.T.);
#1088=ORIENTED_EDGE('',*,*,#745,.F.);
#1089=ORIENTED_EDGE('',*,*,#767,.F.);
#1090=ORIENTED_EDGE('',*,*,#758,.T.);
#1091=ORIENTED_EDGE('',*,*,#610,.T.);
#1092=ORIENTED_EDGE('',*,*,#766,.T.);
#1093=ORIENTED_EDGE('',*,*,#751,.T.);
#1094=ORIENTED_EDGE('',*,*,#759,.T.);
#1095=ORIENTED_EDGE('',*,*,#767,.T.);
#1096=ORIENTED_EDGE('',*,*,#744,.F.);
#1097=ORIENTED_EDGE('',*,*,#760,.T.);
#1098=CONICAL_SURFACE('',#1184,1.15,0.785398163397455);
#1099=CONICAL_SURFACE('',#1193,1.15,0.785398163397449);
#1100=CONICAL_SURFACE('',#1230,1.825,0.785398163397448);
#1101=CONICAL_SURFACE('',#1238,1.825,0.785398163397453);
#1102=CONICAL_SURFACE('',#1246,1.825,0.785398163397448);
#1103=CONICAL_SURFACE('',#1251,1.15,0.785398163397442);
#1104=CONICAL_SURFACE('',#1263,1.15,0.785398163397442);
#1105=CONICAL_SURFACE('',#1269,1.15,0.785398163397441);
#1106=ADVANCED_FACE('',(#87),#1098,.F.);
#1107=ADVANCED_FACE('',(#88,#32,#33),#53,.T.);
#1108=ADVANCED_FACE('',(#89),#16,.F.);
#1109=ADVANCED_FACE('',(#90),#1099,.F.);
#1110=ADVANCED_FACE('',(#91),#17,.F.);
#1111=ADVANCED_FACE('',(#92),#54,.T.);
#1112=ADVANCED_FACE('',(#93),#55,.T.);
#1113=ADVANCED_FACE('',(#94),#56,.T.);
#1114=ADVANCED_FACE('',(#95),#57,.F.);
#1115=ADVANCED_FACE('',(#96,#34,#35,#36,#37),#58,.T.);
#1116=ADVANCED_FACE('',(#97),#59,.T.);
#1117=ADVANCED_FACE('',(#98),#60,.F.);
#1118=ADVANCED_FACE('',(#99),#61,.F.);
#1119=ADVANCED_FACE('',(#100),#62,.F.);
#1120=ADVANCED_FACE('',(#101),#63,.F.);
#1121=ADVANCED_FACE('',(#102),#18,.F.);
#1122=ADVANCED_FACE('',(#103),#19,.F.);
#1123=ADVANCED_FACE('',(#104),#20,.F.);
#1124=ADVANCED_FACE('',(#105),#21,.F.);
#1125=ADVANCED_FACE('',(#106),#64,.F.);
#1126=ADVANCED_FACE('',(#107),#65,.F.);
#1127=ADVANCED_FACE('',(#108),#66,.F.);
#1128=ADVANCED_FACE('',(#109),#1100,.F.);
#1129=ADVANCED_FACE('',(#110),#22,.F.);
#1130=ADVANCED_FACE('',(#111,#38),#67,.F.);
#1131=ADVANCED_FACE('',(#112),#1101,.F.);
#1132=ADVANCED_FACE('',(#113,#39),#68,.F.);
#1133=ADVANCED_FACE('',(#114),#23,.F.);
#1134=ADVANCED_FACE('',(#115),#1102,.F.);
#1135=ADVANCED_FACE('',(#116,#40),#69,.T.);
#1136=ADVANCED_FACE('',(#117),#1103,.F.);
#1137=ADVANCED_FACE('',(#118,#41,#42,#43,#44),#70,.F.);
#1138=ADVANCED_FACE('',(#119),#24,.F.);
#1139=ADVANCED_FACE('',(#120),#1104,.F.);
#1140=ADVANCED_FACE('',(#121),#25,.F.);
#1141=ADVANCED_FACE('',(#122),#1105,.F.);
#1142=ADVANCED_FACE('',(#123),#26,.F.);
#1143=ADVANCED_FACE('',(#124),#71,.T.);
#1144=ADVANCED_FACE('',(#125),#72,.T.);
#1145=ADVANCED_FACE('',(#126),#73,.T.);
#1146=ADVANCED_FACE('',(#127),#27,.T.);
#1147=ADVANCED_FACE('',(#128),#74,.F.);
#1148=ADVANCED_FACE('',(#129),#28,.T.);
#1149=ADVANCED_FACE('',(#130,#45,#46,#47,#48,#49,#50),#75,.T.);
#1150=ADVANCED_FACE('',(#131),#29,.T.);
#1151=ADVANCED_FACE('',(#132),#76,.F.);
#1152=ADVANCED_FACE('',(#133),#77,.T.);
#1153=ADVANCED_FACE('',(#134),#30,.F.);
#1154=ADVANCED_FACE('',(#135),#78,.T.);
#1155=ADVANCED_FACE('',(#136,#51),#79,.T.);
#1156=ADVANCED_FACE('',(#137),#80,.T.);
#1157=ADVANCED_FACE('',(#138),#81,.T.);
#1158=ADVANCED_FACE('',(#139),#82,.F.);
#1159=ADVANCED_FACE('',(#140),#31,.F.);
#1160=ADVANCED_FACE('',(#141),#83,.F.);
#1161=ADVANCED_FACE('',(#142),#84,.T.);
#1162=ADVANCED_FACE('',(#143,#52),#85,.T.);
#1163=ADVANCED_FACE('',(#144),#86,.F.);
#1164=CLOSED_SHELL('',(#1106,#1107,#1108,#1109,#1110,#1111,#1112,#1113,
#1114,#1115,#1116,#1117,#1118,#1119,#1120,#1121,#1122,#1123,#1124,#1125,
#1126,#1127,#1128,#1129,#1130,#1131,#1132,#1133,#1134,#1135,#1136,#1137,
#1138,#1139,#1140,#1141,#1142,#1143,#1144,#1145,#1146,#1147,#1148,#1149,
#1150,#1151,#1152,#1153,#1154,#1155,#1156,#1157,#1158,#1159,#1160,#1161,
#1162,#1163));
#1165=DERIVED_UNIT_ELEMENT(#1167,1.);
#1166=DERIVED_UNIT_ELEMENT(#1990,3.);
#1167=(
MASS_UNIT()
NAMED_UNIT(*)
SI_UNIT($,.GRAM.)
);
#1168=DERIVED_UNIT((#1165,#1166));
#1169=MEASURE_REPRESENTATION_ITEM('density measure',
POSITIVE_RATIO_MEASURE(7.85),#1168);
#1170=PROPERTY_DEFINITION_REPRESENTATION(#1175,#1172);
#1171=PROPERTY_DEFINITION_REPRESENTATION(#1176,#1173);
#1172=REPRESENTATION('material name',(#1174),#1987);
#1173=REPRESENTATION('density',(#1169),#1987);
#1174=DESCRIPTIVE_REPRESENTATION_ITEM('Steel','Steel');
#1175=PROPERTY_DEFINITION('material property','material name',#1997);
#1176=PROPERTY_DEFINITION('material property','density of part',#1997);
#1177=DATE_TIME_ROLE('creation_date');
#1178=APPLIED_DATE_AND_TIME_ASSIGNMENT(#1179,#1177,(#1997));
#1179=DATE_AND_TIME(#1180,#1181);
#1180=CALENDAR_DATE(2026,7,7);
#1181=LOCAL_TIME(1,16,27.,#1182);
#1182=COORDINATED_UNIVERSAL_TIME_OFFSET(0,0,.BEHIND.);
#1183=AXIS2_PLACEMENT_3D('placement',#1649,#1304,#1305);
#1184=AXIS2_PLACEMENT_3D('',#1650,#1306,#1307);
#1185=AXIS2_PLACEMENT_3D('',#1652,#1308,#1309);
#1186=AXIS2_PLACEMENT_3D('',#1656,#1311,#1312);
#1187=AXIS2_PLACEMENT_3D('',#1657,#1313,#1314);
#1188=AXIS2_PLACEMENT_3D('',#1658,#1315,#1316);
#1189=AXIS2_PLACEMENT_3D('',#1676,#1325,#1326);
#1190=AXIS2_PLACEMENT_3D('',#1677,#1327,#1328);
#1191=AXIS2_PLACEMENT_3D('',#1681,#1330,#1331);
#1192=AXIS2_PLACEMENT_3D('',#1682,#1332,#1333);
#1193=AXIS2_PLACEMENT_3D('',#1683,#1334,#1335);
#1194=AXIS2_PLACEMENT_3D('',#1687,#1337,#1338);
#1195=AXIS2_PLACEMENT_3D('',#1688,#1339,#1340);
#1196=AXIS2_PLACEMENT_3D('',#1689,#1341,#1342);
#1197=AXIS2_PLACEMENT_3D('',#1693,#1344,#1345);
#1198=AXIS2_PLACEMENT_3D('',#1694,#1346,#1347);
#1199=AXIS2_PLACEMENT_3D('',#1695,#1348,#1349);
#1200=AXIS2_PLACEMENT_3D('',#1696,#1350,#1351);
#1201=AXIS2_PLACEMENT_3D('',#1697,#1352,#1353);
#1202=AXIS2_PLACEMENT_3D('',#1706,#1358,#1359);
#1203=AXIS2_PLACEMENT_3D('',#1723,#1368,#1369);
#1204=AXIS2_PLACEMENT_3D('',#1725,#1371,#1372);
#1205=AXIS2_PLACEMENT_3D('',#1744,#1382,#1383);
#1206=AXIS2_PLACEMENT_3D('',#1745,#1384,#1385);
#1207=AXIS2_PLACEMENT_3D('',#1748,#1386,#1387);
#1208=AXIS2_PLACEMENT_3D('',#1749,#1388,#1389);
#1209=AXIS2_PLACEMENT_3D('',#1752,#1390,#1391);
#1210=AXIS2_PLACEMENT_3D('',#1753,#1392,#1393);
#1211=AXIS2_PLACEMENT_3D('',#1756,#1394,#1395);
#1212=AXIS2_PLACEMENT_3D('',#1757,#1396,#1397);
#1213=AXIS2_PLACEMENT_3D('',#1758,#1398,#1399);
#1214=AXIS2_PLACEMENT_3D('',#1760,#1401,#1402);
#1215=AXIS2_PLACEMENT_3D('',#1766,#1405,#1406);
#1216=AXIS2_PLACEMENT_3D('',#1773,#1411,#1412);
#1217=AXIS2_PLACEMENT_3D('',#1779,#1416,#1417);
#1218=AXIS2_PLACEMENT_3D('',#1781,#1419,#1420);
#1219=AXIS2_PLACEMENT_3D('',#1785,#1423,#1424);
#1220=AXIS2_PLACEMENT_3D('',#1788,#1426,#1427);
#1221=AXIS2_PLACEMENT_3D('',#1789,#1428,#1429);
#1222=AXIS2_PLACEMENT_3D('',#1792,#1431,#1432);
#1223=AXIS2_PLACEMENT_3D('',#1793,#1433,#1434);
#1224=AXIS2_PLACEMENT_3D('',#1796,#1436,#1437);
#1225=AXIS2_PLACEMENT_3D('',#1797,#1438,#1439);
#1226=AXIS2_PLACEMENT_3D('',#1800,#1441,#1442);
#1227=AXIS2_PLACEMENT_3D('',#1801,#1443,#1444);
#1228=AXIS2_PLACEMENT_3D('',#1803,#1446,#1447);
#1229=AXIS2_PLACEMENT_3D('',#1807,#1450,#1451);
#1230=AXIS2_PLACEMENT_3D('',#1809,#1453,#1454);
#1231=AXIS2_PLACEMENT_3D('',#1811,#1455,#1456);
#1232=AXIS2_PLACEMENT_3D('',#1814,#1458,#1459);
#1233=AXIS2_PLACEMENT_3D('',#1815,#1460,#1461);
#1234=AXIS2_PLACEMENT_3D('',#1817,#1462,#1463);
#1235=AXIS2_PLACEMENT_3D('',#1819,#1465,#1466);
#1236=AXIS2_PLACEMENT_3D('',#1822,#1467,#1468);
#1237=AXIS2_PLACEMENT_3D('',#1833,#1474,#1475);
#1238=AXIS2_PLACEMENT_3D('',#1834,#1476,#1477);
#1239=AXIS2_PLACEMENT_3D('',#1836,#1478,#1479);
#1240=AXIS2_PLACEMENT_3D('',#1839,#1481,#1482);
#1241=AXIS2_PLACEMENT_3D('',#1840,#1483,#1484);
#1242=AXIS2_PLACEMENT_3D('',#1843,#1485,#1486);
#1243=AXIS2_PLACEMENT_3D('',#1844,#1487,#1488);
#1244=AXIS2_PLACEMENT_3D('',#1845,#1489,#1490);
#1245=AXIS2_PLACEMENT_3D('',#1847,#1491,#1492);
#1246=AXIS2_PLACEMENT_3D('',#1849,#1494,#1495);
#1247=AXIS2_PLACEMENT_3D('',#1851,#1496,#1497);
#1248=AXIS2_PLACEMENT_3D('',#1853,#1499,#1500);
#1249=AXIS2_PLACEMENT_3D('',#1856,#1501,#1502);
#1250=AXIS2_PLACEMENT_3D('',#1857,#1503,#1504);
#1251=AXIS2_PLACEMENT_3D('',#1858,#1505,#1506);
#1252=AXIS2_PLACEMENT_3D('',#1860,#1507,#1508);
#1253=AXIS2_PLACEMENT_3D('',#1864,#1510,#1511);
#1254=AXIS2_PLACEMENT_3D('',#1865,#1512,#1513);
#1255=AXIS2_PLACEMENT_3D('',#1866,#1514,#1515);
#1256=AXIS2_PLACEMENT_3D('',#1869,#1516,#1517);
#1257=AXIS2_PLACEMENT_3D('',#1871,#1518,#1519);
#1258=AXIS2_PLACEMENT_3D('',#1881,#1525,#1526);
#1259=AXIS2_PLACEMENT_3D('',#1883,#1527,#1528);
#1260=AXIS2_PLACEMENT_3D('',#1884,#1529,#1530);
#1261=AXIS2_PLACEMENT_3D('',#1888,#1532,#1533);
#1262=AXIS2_PLACEMENT_3D('',#1889,#1534,#1535);
#1263=AXIS2_PLACEMENT_3D('',#1890,#1536,#1537);
#1264=AXIS2_PLACEMENT_3D('',#1894,#1539,#1540);
#1265=AXIS2_PLACEMENT_3D('',#1895,#1541,#1542);
#1266=AXIS2_PLACEMENT_3D('',#1896,#1543,#1544);
#1267=AXIS2_PLACEMENT_3D('',#1900,#1546,#1547);
#1268=AXIS2_PLACEMENT_3D('',#1901,#1548,#1549);
#1269=AXIS2_PLACEMENT_3D('',#1902,#1550,#1551);
#1270=AXIS2_PLACEMENT_3D('',#1906,#1553,#1554);
#1271=AXIS2_PLACEMENT_3D('',#1907,#1555,#1556);
#1272=AXIS2_PLACEMENT_3D('',#1908,#1557,#1558);
#1273=AXIS2_PLACEMENT_3D('',#1912,#1560,#1561);
#1274=AXIS2_PLACEMENT_3D('',#1913,#1562,#1563);
#1275=AXIS2_PLACEMENT_3D('',#1914,#1564,#1565);
#1276=AXIS2_PLACEMENT_3D('',#1915,#1566,#1567);
#1277=AXIS2_PLACEMENT_3D('',#1916,#1568,#1569);
#1278=AXIS2_PLACEMENT_3D('',#1917,#1570,#1571);
#1279=AXIS2_PLACEMENT_3D('',#1921,#1575,#1576);
#1280=AXIS2_PLACEMENT_3D('',#1926,#1580,#1581);
#1281=AXIS2_PLACEMENT_3D('',#1929,#1582,#1583);
#1282=AXIS2_PLACEMENT_3D('',#1933,#1585,#1586);
#1283=AXIS2_PLACEMENT_3D('',#1935,#1588,#1589);
#1284=AXIS2_PLACEMENT_3D('',#1942,#1594,#1595);
#1285=AXIS2_PLACEMENT_3D('',#1945,#1598,#1599);
#1286=AXIS2_PLACEMENT_3D('',#1953,#1604,#1605);
#1287=AXIS2_PLACEMENT_3D('',#1955,#1606,#1607);
#1288=AXIS2_PLACEMENT_3D('',#1957,#1609,#1610);
#1289=AXIS2_PLACEMENT_3D('',#1958,#1611,#1612);
#1290=AXIS2_PLACEMENT_3D('',#1959,#1613,#1614);
#1291=AXIS2_PLACEMENT_3D('',#1960,#1615,#1616);
#1292=AXIS2_PLACEMENT_3D('',#1965,#1620,#1621);
#1293=AXIS2_PLACEMENT_3D('',#1969,#1623,#1624);
#1294=AXIS2_PLACEMENT_3D('',#1970,#1625,#1626);
#1295=AXIS2_PLACEMENT_3D('',#1971,#1627,#1628);
#1296=AXIS2_PLACEMENT_3D('',#1974,#1631,#1632);
#1297=AXIS2_PLACEMENT_3D('',#1975,#1633,#1634);
#1298=AXIS2_PLACEMENT_3D('',#1976,#1635,#1636);
#1299=AXIS2_PLACEMENT_3D('',#1979,#1638,#1639);
#1300=AXIS2_PLACEMENT_3D('',#1980,#1640,#1641);
#1301=AXIS2_PLACEMENT_3D('',#1981,#1642,#1643);
#1302=AXIS2_PLACEMENT_3D('',#1982,#1644,#1645);
#1303=AXIS2_PLACEMENT_3D('',#1984,#1647,#1648);
#1304=DIRECTION('axis',(0.,0.,1.));
#1305=DIRECTION('refdir',(1.,0.,0.));
#1306=DIRECTION('center_axis',(-1.,0.,0.));
#1307=DIRECTION('ref_axis',(0.,0.,-1.));
#1308=DIRECTION('center_axis',(-1.,0.,0.));
#1309=DIRECTION('ref_axis',(0.,0.,-1.));
#1310=DIRECTION('',(0.707106781186542,-8.65956056235499E-17,-0.707106781186553));
#1311=DIRECTION('center_axis',(1.,0.,0.));
#1312=DIRECTION('ref_axis',(0.,0.,-1.));
#1313=DIRECTION('center_axis',(1.,0.,0.));
#1314=DIRECTION('ref_axis',(0.,0.,-1.));
#1315=DIRECTION('center_axis',(-1.,0.,0.));
#1316=DIRECTION('ref_axis',(0.,-1.,0.));
#1317=DIRECTION('',(0.,1.,0.));
#1318=DIRECTION('',(0.,0.,1.));
#1319=DIRECTION('',(0.,1.,0.));
#1320=DIRECTION('',(0.,0.,1.));
#1321=DIRECTION('',(0.,-1.,0.));
#1322=DIRECTION('',(0.,0.,1.));
#1323=DIRECTION('',(0.,1.,0.));
#1324=DIRECTION('',(0.,0.,-1.));
#1325=DIRECTION('center_axis',(-1.,0.,0.));
#1326=DIRECTION('ref_axis',(0.,0.,-1.));
#1327=DIRECTION('center_axis',(1.,0.,0.));
#1328=DIRECTION('ref_axis',(0.,0.,1.));
#1329=DIRECTION('',(1.,0.,0.));
#1330=DIRECTION('center_axis',(1.,0.,0.));
#1331=DIRECTION('ref_axis',(0.,0.,1.));
#1332=DIRECTION('center_axis',(1.,0.,0.));
#1333=DIRECTION('ref_axis',(0.,0.,1.));
#1334=DIRECTION('center_axis',(-1.,0.,0.));
#1335=DIRECTION('ref_axis',(0.,0.,-1.));
#1336=DIRECTION('',(0.707106781186547,-8.65956056235494E-17,-0.707106781186548));
#1337=DIRECTION('center_axis',(1.,0.,0.));
#1338=DIRECTION('ref_axis',(0.,0.,-1.));
#1339=DIRECTION('center_axis',(1.,0.,0.));
#1340=DIRECTION('ref_axis',(0.,0.,-1.));
#1341=DIRECTION('center_axis',(1.,0.,0.));
#1342=DIRECTION('ref_axis',(0.,0.,1.));
#1343=DIRECTION('',(1.,0.,0.));
#1344=DIRECTION('center_axis',(1.,0.,0.));
#1345=DIRECTION('ref_axis',(0.,0.,1.));
#1346=DIRECTION('center_axis',(1.,0.,0.));
#1347=DIRECTION('ref_axis',(0.,0.,1.));
#1348=DIRECTION('center_axis',(-1.,0.,0.));
#1349=DIRECTION('ref_axis',(0.,0.,1.));
#1350=DIRECTION('center_axis',(-1.,0.,0.));
#1351=DIRECTION('ref_axis',(0.,0.,1.));
#1352=DIRECTION('center_axis',(0.,1.,0.));
#1353=DIRECTION('ref_axis',(0.,0.,1.));
#1354=DIRECTION('',(-1.,0.,0.));
#1355=DIRECTION('',(0.,0.,1.));
#1356=DIRECTION('',(1.,0.,0.));
#1357=DIRECTION('',(0.,0.,1.));
#1358=DIRECTION('center_axis',(0.,0.,-1.));
#1359=DIRECTION('ref_axis',(-1.,0.,0.));
#1360=DIRECTION('',(0.,-1.,0.));
#1361=DIRECTION('',(0.,1.,0.));
#1362=DIRECTION('',(1.,0.,0.));
#1363=DIRECTION('',(0.,-1.,0.));
#1364=DIRECTION('',(1.,0.,0.));
#1365=DIRECTION('',(0.,1.,0.));
#1366=DIRECTION('',(-1.,0.,0.));
#1367=DIRECTION('',(-1.,0.,0.));
#1368=DIRECTION('center_axis',(0.,0.,1.));
#1369=DIRECTION('ref_axis',(1.,0.,0.));
#1370=DIRECTION('',(0.67251247903636,-0.740085782555218,0.));
#1371=DIRECTION('center_axis',(-1.,0.,0.));
#1372=DIRECTION('ref_axis',(0.,0.,1.));
#1373=DIRECTION('',(0.,-1.,-8.77213254024815E-15));
#1374=DIRECTION('',(0.,0.,1.));
#1375=DIRECTION('',(0.,-1.,0.));
#1376=DIRECTION('',(0.,0.,-1.));
#1377=DIRECTION('',(0.,-1.,0.));
#1378=DIRECTION('',(0.,0.,-1.));
#1379=DIRECTION('',(0.,0.,-1.));
#1380=DIRECTION('',(0.,1.,0.));
#1381=DIRECTION('',(0.,0.,1.));
#1382=DIRECTION('center_axis',(-1.,0.,0.));
#1383=DIRECTION('ref_axis',(0.,0.,1.));
#1384=DIRECTION('center_axis',(-1.,0.,0.));
#1385=DIRECTION('ref_axis',(0.,0.,1.));
#1386=DIRECTION('center_axis',(-1.,0.,0.));
#1387=DIRECTION('ref_axis',(0.,0.,1.));
#1388=DIRECTION('center_axis',(-1.,0.,0.));
#1389=DIRECTION('ref_axis',(0.,0.,1.));
#1390=DIRECTION('center_axis',(-1.,0.,0.));
#1391=DIRECTION('ref_axis',(0.,0.,1.));
#1392=DIRECTION('center_axis',(-1.,0.,0.));
#1393=DIRECTION('ref_axis',(0.,0.,1.));
#1394=DIRECTION('center_axis',(-1.,0.,0.));
#1395=DIRECTION('ref_axis',(0.,0.,1.));
#1396=DIRECTION('center_axis',(-1.,0.,0.));
#1397=DIRECTION('ref_axis',(0.,0.,1.));
#1398=DIRECTION('center_axis',(0.,-1.,0.));
#1399=DIRECTION('ref_axis',(0.,0.,-1.));
#1400=DIRECTION('',(1.,0.,0.));
#1401=DIRECTION('center_axis',(0.,0.,1.));
#1402=DIRECTION('ref_axis',(1.,0.,0.));
#1403=DIRECTION('',(0.,1.,0.));
#1404=DIRECTION('',(-0.67251247903636,0.740085782555218,0.));
#1405=DIRECTION('center_axis',(0.,0.,-1.));
#1406=DIRECTION('ref_axis',(1.,0.,0.));
#1407=DIRECTION('',(1.,0.,0.));
#1408=DIRECTION('',(1.,0.,0.));
#1409=DIRECTION('',(0.,1.,0.));
#1410=DIRECTION('',(1.,0.,0.));
#1411=DIRECTION('center_axis',(0.,0.,1.));
#1412=DIRECTION('ref_axis',(0.,-1.,0.));
#1413=DIRECTION('',(1.,0.,0.));
#1414=DIRECTION('',(0.,1.,0.));
#1415=DIRECTION('',(1.,0.,0.));
#1416=DIRECTION('center_axis',(0.,1.,0.));
#1417=DIRECTION('ref_axis',(0.,0.,1.));
#1418=DIRECTION('',(0.,0.,-1.));
#1419=DIRECTION('center_axis',(0.,1.,0.));
#1420=DIRECTION('ref_axis',(0.,0.,1.));
#1421=DIRECTION('',(1.,0.,0.));
#1422=DIRECTION('',(0.,0.,-1.));
#1423=DIRECTION('center_axis',(1.,0.,0.));
#1424=DIRECTION('ref_axis',(0.,0.,1.));
#1425=DIRECTION('',(1.,0.,0.));
#1426=DIRECTION('center_axis',(-1.,0.,0.));
#1427=DIRECTION('ref_axis',(0.,0.,1.));
#1428=DIRECTION('center_axis',(1.,0.,0.));
#1429=DIRECTION('ref_axis',(0.,0.,1.));
#1430=DIRECTION('',(1.,0.,0.));
#1431=DIRECTION('center_axis',(-1.,0.,0.));
#1432=DIRECTION('ref_axis',(0.,0.,1.));
#1433=DIRECTION('center_axis',(1.,0.,0.));
#1434=DIRECTION('ref_axis',(0.,0.,1.));
#1435=DIRECTION('',(1.,0.,0.));
#1436=DIRECTION('center_axis',(-1.,0.,0.));
#1437=DIRECTION('ref_axis',(0.,0.,1.));
#1438=DIRECTION('center_axis',(1.,0.,0.));
#1439=DIRECTION('ref_axis',(0.,0.,1.));
#1440=DIRECTION('',(1.,0.,0.));
#1441=DIRECTION('center_axis',(-1.,0.,0.));
#1442=DIRECTION('ref_axis',(0.,0.,1.));
#1443=DIRECTION('center_axis',(0.,-1.,0.));
#1444=DIRECTION('ref_axis',(0.,0.,-1.));
#1445=DIRECTION('',(0.,0.,1.));
#1446=DIRECTION('center_axis',(0.,0.,-1.));
#1447=DIRECTION('ref_axis',(0.,1.,0.));
#1448=DIRECTION('',(1.,0.,0.));
#1449=DIRECTION('',(0.,-1.,0.));
#1450=DIRECTION('center_axis',(0.,-1.,0.));
#1451=DIRECTION('ref_axis',(0.,0.,-1.));
#1452=DIRECTION('',(0.,0.,1.));
#1453=DIRECTION('center_axis',(0.,0.,-1.));
#1454=DIRECTION('ref_axis',(-1.,0.,0.));
#1455=DIRECTION('center_axis',(0.,0.,1.));
#1456=DIRECTION('ref_axis',(-1.,0.,0.));
#1457=DIRECTION('',(0.707106781186548,8.65956056235493E-17,-0.707106781186548));
#1458=DIRECTION('center_axis',(0.,0.,-1.));
#1459=DIRECTION('ref_axis',(-1.,0.,0.));
#1460=DIRECTION('center_axis',(0.,0.,1.));
#1461=DIRECTION('ref_axis',(-1.,0.,0.));
#1462=DIRECTION('center_axis',(0.,0.,-1.));
#1463=DIRECTION('ref_axis',(-1.,0.,0.));
#1464=DIRECTION('',(0.,0.,-1.));
#1465=DIRECTION('center_axis',(0.,0.,1.));
#1466=DIRECTION('ref_axis',(1.,0.,0.));
#1467=DIRECTION('center_axis',(0.,0.,1.));
#1468=DIRECTION('ref_axis',(1.,0.,0.));
#1469=DIRECTION('',(-1.,0.,0.));
#1470=DIRECTION('',(2.91045665891008E-12,1.,0.));
#1471=DIRECTION('',(1.,-2.91038027011581E-12,0.));
#1472=DIRECTION('',(2.91026462188408E-12,1.,0.));
#1473=DIRECTION('',(0.67251247903636,-0.740085782555218,0.));
#1474=DIRECTION('center_axis',(0.,0.,1.));
#1475=DIRECTION('ref_axis',(1.,0.,0.));
#1476=DIRECTION('center_axis',(0.,0.,-1.));
#1477=DIRECTION('ref_axis',(-1.,0.,0.));
#1478=DIRECTION('center_axis',(0.,0.,1.));
#1479=DIRECTION('ref_axis',(-1.,0.,0.));
#1480=DIRECTION('',(0.707106781186551,8.65956056235497E-17,-0.707106781186544));
#1481=DIRECTION('center_axis',(0.,0.,-1.));
#1482=DIRECTION('ref_axis',(-1.,0.,0.));
#1483=DIRECTION('center_axis',(0.,0.,1.));
#1484=DIRECTION('ref_axis',(1.,0.,0.));
#1485=DIRECTION('center_axis',(0.,0.,1.));
#1486=DIRECTION('ref_axis',(1.,0.,0.));
#1487=DIRECTION('center_axis',(0.,0.,1.));
#1488=DIRECTION('ref_axis',(1.,0.,0.));
#1489=DIRECTION('center_axis',(0.,0.,1.));
#1490=DIRECTION('ref_axis',(-1.,0.,0.));
#1491=DIRECTION('center_axis',(0.,0.,-1.));
#1492=DIRECTION('ref_axis',(1.,0.,0.));
#1493=DIRECTION('',(0.,0.,-1.));
#1494=DIRECTION('center_axis',(0.,0.,1.));
#1495=DIRECTION('ref_axis',(-1.,0.,0.));
#1496=DIRECTION('center_axis',(0.,0.,1.));
#1497=DIRECTION('ref_axis',(-1.,0.,0.));
#1498=DIRECTION('',(-0.707106781186548,-8.65956056235493E-17,-0.707106781186548));
#1499=DIRECTION('center_axis',(0.,0.,1.));
#1500=DIRECTION('ref_axis',(1.,0.,0.));
#1501=DIRECTION('center_axis',(0.,0.,1.));
#1502=DIRECTION('ref_axis',(1.,0.,0.));
#1503=DIRECTION('center_axis',(0.,0.,1.));
#1504=DIRECTION('ref_axis',(1.,0.,0.));
#1505=DIRECTION('center_axis',(0.,0.,1.));
#1506=DIRECTION('ref_axis',(-1.,0.,0.));
#1507=DIRECTION('center_axis',(0.,0.,1.));
#1508=DIRECTION('ref_axis',(-1.,0.,0.));
#1509=DIRECTION('',(-0.707106781186543,-8.65956056235488E-17,-0.707106781186552));
#1510=DIRECTION('center_axis',(0.,0.,-1.));
#1511=DIRECTION('ref_axis',(-1.,0.,0.));
#1512=DIRECTION('center_axis',(0.,0.,-1.));
#1513=DIRECTION('ref_axis',(-1.,0.,0.));
#1514=DIRECTION('center_axis',(0.,0.,-1.));
#1515=DIRECTION('ref_axis',(0.,-1.,0.));
#1516=DIRECTION('center_axis',(0.,0.,1.));
#1517=DIRECTION('ref_axis',(-1.,0.,0.));
#1518=DIRECTION('center_axis',(0.,0.,1.));
#1519=DIRECTION('ref_axis',(-1.,0.,0.));
#1520=DIRECTION('',(-0.67251247903636,0.740085782555218,0.));
#1521=DIRECTION('',(-1.,2.91038027011581E-12,0.));
#1522=DIRECTION('',(0.,-1.,0.));
#1523=DIRECTION('',(1.,2.91100477056716E-12,0.));
#1524=DIRECTION('',(-1.,0.,0.));
#1525=DIRECTION('center_axis',(0.,0.,1.));
#1526=DIRECTION('ref_axis',(-1.,0.,0.));
#1527=DIRECTION('center_axis',(0.,0.,1.));
#1528=DIRECTION('ref_axis',(-1.,0.,0.));
#1529=DIRECTION('center_axis',(0.,0.,-1.));
#1530=DIRECTION('ref_axis',(1.,0.,0.));
#1531=DIRECTION('',(0.,0.,-1.));
#1532=DIRECTION('center_axis',(0.,0.,-1.));
#1533=DIRECTION('ref_axis',(1.,0.,0.));
#1534=DIRECTION('center_axis',(0.,0.,-1.));
#1535=DIRECTION('ref_axis',(1.,0.,0.));
#1536=DIRECTION('center_axis',(0.,0.,1.));
#1537=DIRECTION('ref_axis',(-1.,0.,0.));
#1538=DIRECTION('',(-0.707106781186543,-8.65956056235488E-17,-0.707106781186552));
#1539=DIRECTION('center_axis',(0.,0.,-1.));
#1540=DIRECTION('ref_axis',(-1.,0.,0.));
#1541=DIRECTION('center_axis',(0.,0.,-1.));
#1542=DIRECTION('ref_axis',(-1.,0.,0.));
#1543=DIRECTION('center_axis',(0.,0.,-1.));
#1544=DIRECTION('ref_axis',(1.,0.,0.));
#1545=DIRECTION('',(0.,0.,-1.));
#1546=DIRECTION('center_axis',(0.,0.,-1.));
#1547=DIRECTION('ref_axis',(1.,0.,0.));
#1548=DIRECTION('center_axis',(0.,0.,-1.));
#1549=DIRECTION('ref_axis',(1.,0.,0.));
#1550=DIRECTION('center_axis',(0.,0.,1.));
#1551=DIRECTION('ref_axis',(-1.,0.,0.));
#1552=DIRECTION('',(-0.707106781186542,-8.65956056235487E-17,-0.707106781186553));
#1553=DIRECTION('center_axis',(0.,0.,-1.));
#1554=DIRECTION('ref_axis',(-1.,0.,0.));
#1555=DIRECTION('center_axis',(0.,0.,-1.));
#1556=DIRECTION('ref_axis',(-1.,0.,0.));
#1557=DIRECTION('center_axis',(0.,0.,-1.));
#1558=DIRECTION('ref_axis',(1.,0.,0.));
#1559=DIRECTION('',(0.,0.,-1.));
#1560=DIRECTION('center_axis',(0.,0.,-1.));
#1561=DIRECTION('ref_axis',(1.,0.,0.));
#1562=DIRECTION('center_axis',(0.,0.,-1.));
#1563=DIRECTION('ref_axis',(1.,0.,0.));
#1564=DIRECTION('center_axis',(0.,0.,1.));
#1565=DIRECTION('ref_axis',(1.,0.,0.));
#1566=DIRECTION('center_axis',(0.,0.,1.));
#1567=DIRECTION('ref_axis',(1.,0.,0.));
#1568=DIRECTION('center_axis',(0.,0.,1.));
#1569=DIRECTION('ref_axis',(1.,0.,0.));
#1570=DIRECTION('center_axis',(0.,0.,1.));
#1571=DIRECTION('ref_axis',(1.,0.,0.));
#1572=DIRECTION('',(0.,0.,1.));
#1573=DIRECTION('',(0.,0.,-1.));
#1574=DIRECTION('',(0.,0.,1.));
#1575=DIRECTION('center_axis',(0.,-1.,0.));
#1576=DIRECTION('ref_axis',(0.,0.,1.));
#1577=DIRECTION('',(0.,0.,1.));
#1578=DIRECTION('',(-1.,0.,0.));
#1579=DIRECTION('',(0.,0.,1.));
#1580=DIRECTION('center_axis',(2.91026462188408E-12,1.,0.));
#1581=DIRECTION('ref_axis',(0.489009646919122,-1.42350941505067E-12,-0.872278375990163));
#1582=DIRECTION('center_axis',(2.91038027011581E-12,1.,0.));
#1583=DIRECTION('ref_axis',(0.489009646919122,-1.42350941505067E-12,-0.872278375990163));
#1584=DIRECTION('',(2.91026462188408E-12,1.,0.));
#1585=DIRECTION('center_axis',(2.91038027011581E-12,1.,0.));
#1586=DIRECTION('ref_axis',(0.489009646919122,-1.42350941505067E-12,-0.872278375990163));
#1587=DIRECTION('',(0.,-1.,0.));
#1588=DIRECTION('center_axis',(1.,0.,0.));
#1589=DIRECTION('ref_axis',(0.,0.,-1.));
#1590=DIRECTION('',(0.,0.,-1.));
#1591=DIRECTION('',(0.,1.,0.));
#1592=DIRECTION('',(0.,0.,1.));
#1593=DIRECTION('',(0.,0.,-1.));
#1594=DIRECTION('center_axis',(0.,0.,1.));
#1595=DIRECTION('ref_axis',(1.,0.,0.));
#1596=DIRECTION('',(0.,0.,-1.));
#1597=DIRECTION('',(0.,0.,1.));
#1598=DIRECTION('center_axis',(1.,-2.91041265162069E-12,0.));
#1599=DIRECTION('ref_axis',(0.,0.,1.));
#1600=DIRECTION('',(-2.91041265162069E-12,-1.,0.));
#1601=DIRECTION('',(0.,0.,1.));
#1602=DIRECTION('',(2.91041265162069E-12,1.,0.));
#1603=DIRECTION('',(0.,0.,-1.));
#1604=DIRECTION('center_axis',(-0.740085782555218,-0.67251247903636,0.));
#1605=DIRECTION('ref_axis',(0.67251247903636,-0.740085782555218,0.));
#1606=DIRECTION('center_axis',(0.740085782555218,0.67251247903636,0.));
#1607=DIRECTION('ref_axis',(0.67251247903636,-0.740085782555218,0.));
#1608=DIRECTION('',(0.,0.,-1.));
#1609=DIRECTION('center_axis',(2.91026462188408E-12,1.,0.));
#1610=DIRECTION('ref_axis',(1.,-2.91026462188408E-12,0.));
#1611=DIRECTION('center_axis',(2.91038027011581E-12,1.,0.));
#1612=DIRECTION('ref_axis',(1.,-2.91026462188408E-12,0.));
#1613=DIRECTION('center_axis',(2.91038027011581E-12,1.,0.));
#1614=DIRECTION('ref_axis',(1.,-2.91038027011581E-12,0.));
#1615=DIRECTION('center_axis',(-0.740085782555218,0.67251247903636,0.));
#1616=DIRECTION('ref_axis',(-0.67251247903636,-0.740085782555218,0.));
#1617=DIRECTION('',(0.67251247903636,0.740085782555218,0.));
#1618=DIRECTION('',(0.,0.,1.));
#1619=DIRECTION('',(0.67251247903636,0.740085782555218,0.));
#1620=DIRECTION('center_axis',(-2.91038027011581E-12,-1.,0.));
#1621=DIRECTION('ref_axis',(0.,0.,-1.));
#1622=DIRECTION('',(-1.,2.91038027011581E-12,0.));
#1623=DIRECTION('center_axis',(-2.91038027011581E-12,-1.,0.));
#1624=DIRECTION('ref_axis',(-1.,2.91038027011581E-12,0.));
#1625=DIRECTION('center_axis',(-2.91038027011581E-12,-1.,0.));
#1626=DIRECTION('ref_axis',(-1.,2.91038027011581E-12,0.));
#1627=DIRECTION('center_axis',(-2.91038027011581E-12,-1.,0.));
#1628=DIRECTION('ref_axis',(0.,0.,-1.));
#1629=DIRECTION('',(0.,0.,-1.));
#1630=DIRECTION('',(0.,0.,-1.));
#1631=DIRECTION('center_axis',(-0.740085782555218,-0.67251247903636,0.));
#1632=DIRECTION('ref_axis',(-0.67251247903636,0.740085782555218,0.));
#1633=DIRECTION('center_axis',(0.,0.,-1.));
#1634=DIRECTION('ref_axis',(0.,-1.,0.));
#1635=DIRECTION('center_axis',(2.91037725320542E-12,1.,0.));
#1636=DIRECTION('ref_axis',(1.,-2.91037725320542E-12,0.));
#1637=DIRECTION('',(2.91037725320542E-12,1.,0.));
#1638=DIRECTION('center_axis',(2.91100477056716E-12,-1.,0.));
#1639=DIRECTION('ref_axis',(1.,-2.91037725320542E-12,0.));
#1640=DIRECTION('center_axis',(0.,-1.,0.));
#1641=DIRECTION('ref_axis',(0.,0.,1.));
#1642=DIRECTION('center_axis',(-1.,0.,0.));
#1643=DIRECTION('ref_axis',(0.,-1.,0.));
#1644=DIRECTION('center_axis',(-2.91100477056716E-12,1.,0.));
#1645=DIRECTION('ref_axis',(0.,0.,1.));
#1646=DIRECTION('',(1.,0.,0.));
#1647=DIRECTION('center_axis',(0.,0.,1.));
#1648=DIRECTION('ref_axis',(1.,0.,0.));
#1649=CARTESIAN_POINT('',(0.,0.,0.));
#1650=CARTESIAN_POINT('Origin',(-0.25,12.2,164.7));
#1651=CARTESIAN_POINT('',(-0.5,12.2,166.1));
#1652=CARTESIAN_POINT('Origin',(-0.5,12.2,164.7));
#1653=CARTESIAN_POINT('',(-4.16333634234434E-16,12.2,165.6));
#1654=CARTESIAN_POINT('',(-0.25,12.2,165.85));
#1655=CARTESIAN_POINT('',(-4.16333634234434E-16,12.2,163.8));
#1656=CARTESIAN_POINT('Origin',(-4.16333634234434E-16,12.2,164.7));
#1657=CARTESIAN_POINT('Origin',(-4.16333634234434E-16,12.2,164.7));
#1658=CARTESIAN_POINT('Origin',(-0.5,14.9,0.));
#1659=CARTESIAN_POINT('',(-0.5,9.,162.));
#1660=CARTESIAN_POINT('',(-0.5,12.96,162.));
#1661=CARTESIAN_POINT('',(-0.5,8.725,162.));
#1662=CARTESIAN_POINT('',(-0.5,9.,172.));
#1663=CARTESIAN_POINT('',(-0.5,9.,162.));
#1664=CARTESIAN_POINT('',(-0.5,15.9000000000262,172.));
#1665=CARTESIAN_POINT('',(-0.5,9.,172.));
#1666=CARTESIAN_POINT('',(-0.5,15.9000000000262,8.));
#1667=CARTESIAN_POINT('',(-0.500000000002911,15.9,0.));
#1668=CARTESIAN_POINT('',(-0.5,9.,8.));
#1669=CARTESIAN_POINT('',(-0.5,15.9000000000262,8.));
#1670=CARTESIAN_POINT('',(-0.5,9.,18.));
#1671=CARTESIAN_POINT('',(-0.5,9.,13.));
#1672=CARTESIAN_POINT('',(-0.5,12.96,18.));
#1673=CARTESIAN_POINT('',(-0.5,13.9,18.));
#1674=CARTESIAN_POINT('',(-0.5,12.96,162.));
#1675=CARTESIAN_POINT('',(-0.5,12.2,16.7));
#1676=CARTESIAN_POINT('Origin',(-0.5,12.2,15.3));
#1677=CARTESIAN_POINT('Origin',(-0.5,12.2,164.7));
#1678=CARTESIAN_POINT('',(5.5,12.2,163.8));
#1679=CARTESIAN_POINT('',(-0.5,12.2,163.8));
#1680=CARTESIAN_POINT('',(5.5,12.2,165.6));
#1681=CARTESIAN_POINT('Origin',(5.5,12.2,164.7));
#1682=CARTESIAN_POINT('Origin',(5.5,12.2,164.7));
#1683=CARTESIAN_POINT('Origin',(-0.25,12.2,15.3));
#1684=CARTESIAN_POINT('',(-4.16333634234434E-16,12.2,16.2));
#1685=CARTESIAN_POINT('',(-0.25,12.2,16.45));
#1686=CARTESIAN_POINT('',(-4.16333634234434E-16,12.2,14.4));
#1687=CARTESIAN_POINT('Origin',(-4.16333634234434E-16,12.2,15.3));
#1688=CARTESIAN_POINT('Origin',(-4.16333634234434E-16,12.2,15.3));
#1689=CARTESIAN_POINT('Origin',(-0.5,12.2,15.3));
#1690=CARTESIAN_POINT('',(5.5,12.2,14.4));
#1691=CARTESIAN_POINT('',(-0.5,12.2,14.4));
#1692=CARTESIAN_POINT('',(5.5,12.2,16.2));
#1693=CARTESIAN_POINT('Origin',(5.5,12.2,15.3));
#1694=CARTESIAN_POINT('Origin',(5.5,12.2,15.3));
#1695=CARTESIAN_POINT('Origin',(5.5,12.2,15.3));
#1696=CARTESIAN_POINT('Origin',(5.5,12.2,164.7));
#1697=CARTESIAN_POINT('Origin',(3.375,-2.96,90.));
#1698=CARTESIAN_POINT('',(7.25,-2.96,162.));
#1699=CARTESIAN_POINT('',(-0.5,-2.96,162.));
#1700=CARTESIAN_POINT('',(1.32241421744478,-2.96,162.));
#1701=CARTESIAN_POINT('',(7.25,-2.96,18.));
#1702=CARTESIAN_POINT('',(7.25,-2.96,90.));
#1703=CARTESIAN_POINT('',(-0.5,-2.96,18.));
#1704=CARTESIAN_POINT('',(1.32241421744478,-2.96,18.));
#1705=CARTESIAN_POINT('',(-0.5,-2.96,18.));
#1706=CARTESIAN_POINT('Origin',(-0.730171565110436,5.,18.));
#1707=CARTESIAN_POINT('',(-0.500000000002911,-5.9,18.));
#1708=CARTESIAN_POINT('',(-0.5,1.05,18.));
#1709=CARTESIAN_POINT('',(7.25,1.,18.));
#1710=CARTESIAN_POINT('',(7.25,1.,18.));
#1711=CARTESIAN_POINT('',(9.5000000000291,1.,18.));
#1712=CARTESIAN_POINT('',(6.5,1.,18.));
#1713=CARTESIAN_POINT('',(9.5000000000291,9.,18.));
#1714=CARTESIAN_POINT('',(9.5000000000291,3.,18.));
#1715=CARTESIAN_POINT('',(7.25,9.,18.));
#1716=CARTESIAN_POINT('',(6.5,9.,18.));
#1717=CARTESIAN_POINT('',(7.25,12.96,18.));
#1718=CARTESIAN_POINT('',(7.25,13.05,18.));
#1719=CARTESIAN_POINT('',(1.32241421744478,12.96,18.));
#1720=CARTESIAN_POINT('',(-5.,9.,18.));
#1721=CARTESIAN_POINT('',(-0.615085782555218,9.,18.));
#1722=CARTESIAN_POINT('',(-7.96034313022087,2.30995008385456,18.));
#1723=CARTESIAN_POINT('Origin',(-5.,5.,18.));
#1724=CARTESIAN_POINT('',(-0.500000000002911,-5.9,18.));
#1725=CARTESIAN_POINT('Origin',(7.25,5.,90.));
#1726=CARTESIAN_POINT('',(7.25,1.,162.));
#1727=CARTESIAN_POINT('',(7.25,-3.05,162.));
#1728=CARTESIAN_POINT('',(7.25,1.,158.));
#1729=CARTESIAN_POINT('',(7.25,1.,126.));
#1730=CARTESIAN_POINT('',(7.25,9.,158.));
#1731=CARTESIAN_POINT('',(7.25,3.,158.));
#1732=CARTESIAN_POINT('',(7.25,9.,162.));
#1733=CARTESIAN_POINT('',(7.25,9.,124.));
#1734=CARTESIAN_POINT('',(7.25,12.96,162.));
#1735=CARTESIAN_POINT('',(7.25,9.,162.));
#1736=CARTESIAN_POINT('',(7.25,12.96,90.));
#1737=CARTESIAN_POINT('',(7.25,9.,22.));
#1738=CARTESIAN_POINT('',(7.25,9.,54.));
#1739=CARTESIAN_POINT('',(7.25,1.,22.));
#1740=CARTESIAN_POINT('',(7.25,7.,22.));
#1741=CARTESIAN_POINT('',(7.25,1.,56.));
#1742=CARTESIAN_POINT('',(7.25,-0.900000000000001,21.));
#1743=CARTESIAN_POINT('',(7.25,-0.9,19.));
#1744=CARTESIAN_POINT('Origin',(7.25,-0.9,20.));
#1745=CARTESIAN_POINT('Origin',(7.25,-0.9,20.));
#1746=CARTESIAN_POINT('',(7.25,10.9,161.));
#1747=CARTESIAN_POINT('',(7.25,10.9,159.));
#1748=CARTESIAN_POINT('Origin',(7.25,10.9,160.));
#1749=CARTESIAN_POINT('Origin',(7.25,10.9,160.));
#1750=CARTESIAN_POINT('',(7.25,10.9,21.));
#1751=CARTESIAN_POINT('',(7.25,10.9,19.));
#1752=CARTESIAN_POINT('Origin',(7.25,10.9,20.));
#1753=CARTESIAN_POINT('Origin',(7.25,10.9,20.));
#1754=CARTESIAN_POINT('',(7.25,-0.900000000000001,161.));
#1755=CARTESIAN_POINT('',(7.25,-0.9,159.));
#1756=CARTESIAN_POINT('Origin',(7.25,-0.9,160.));
#1757=CARTESIAN_POINT('Origin',(7.25,-0.9,160.));
#1758=CARTESIAN_POINT('Origin',(3.375,12.96,90.));
#1759=CARTESIAN_POINT('',(1.32241421744478,12.96,162.));
#1760=CARTESIAN_POINT('Origin',(-0.730171565110436,5.,162.));
#1761=CARTESIAN_POINT('',(-0.500000000002911,-5.9,162.));
#1762=CARTESIAN_POINT('',(-0.5,1.05,162.));
#1763=CARTESIAN_POINT('',(-7.96034313022087,2.30995008385456,162.));
#1764=CARTESIAN_POINT('',(-7.96034313022087,2.30995008385456,162.));
#1765=CARTESIAN_POINT('',(-5.,9.,162.));
#1766=CARTESIAN_POINT('Origin',(-5.,5.,162.));
#1767=CARTESIAN_POINT('',(-0.615085782555218,9.,162.));
#1768=CARTESIAN_POINT('',(9.5000000000291,9.,162.));
#1769=CARTESIAN_POINT('',(6.5,9.,162.));
#1770=CARTESIAN_POINT('',(9.5000000000291,1.,162.));
#1771=CARTESIAN_POINT('',(9.5000000000291,7.,162.));
#1772=CARTESIAN_POINT('',(6.5,1.,162.));
#1773=CARTESIAN_POINT('Origin',(6.5,9.,22.));
#1774=CARTESIAN_POINT('',(9.5000000000291,9.,22.));
#1775=CARTESIAN_POINT('',(6.5,9.,22.));
#1776=CARTESIAN_POINT('',(9.5000000000291,1.,22.));
#1777=CARTESIAN_POINT('',(9.5000000000291,7.,22.));
#1778=CARTESIAN_POINT('',(6.5,1.,22.));
#1779=CARTESIAN_POINT('Origin',(6.5,9.,18.));
#1780=CARTESIAN_POINT('',(9.5000000000291,9.,54.));
#1781=CARTESIAN_POINT('Origin',(6.5,9.,158.));
#1782=CARTESIAN_POINT('',(9.5000000000291,9.,158.));
#1783=CARTESIAN_POINT('',(6.5,9.,158.));
#1784=CARTESIAN_POINT('',(9.5000000000291,9.,124.));
#1785=CARTESIAN_POINT('Origin',(6.5,-0.9,20.));
#1786=CARTESIAN_POINT('',(9.5000000000291,-0.9,19.));
#1787=CARTESIAN_POINT('',(6.5,-0.9,19.));
#1788=CARTESIAN_POINT('Origin',(9.5000000000291,-0.9,20.));
#1789=CARTESIAN_POINT('Origin',(6.5,10.9,160.));
#1790=CARTESIAN_POINT('',(9.5000000000291,10.9,159.));
#1791=CARTESIAN_POINT('',(6.5,10.9,159.));
#1792=CARTESIAN_POINT('Origin',(9.5000000000291,10.9,160.));
#1793=CARTESIAN_POINT('Origin',(6.5,10.9,20.));
#1794=CARTESIAN_POINT('',(9.5000000000291,10.9,19.));
#1795=CARTESIAN_POINT('',(6.5,10.9,19.));
#1796=CARTESIAN_POINT('Origin',(9.5000000000291,10.9,20.));
#1797=CARTESIAN_POINT('Origin',(6.5,-0.9,160.));
#1798=CARTESIAN_POINT('',(9.5000000000291,-0.9,159.));
#1799=CARTESIAN_POINT('',(6.5,-0.9,159.));
#1800=CARTESIAN_POINT('Origin',(9.5000000000291,-0.9,160.));
#1801=CARTESIAN_POINT('Origin',(6.5,1.,22.));
#1802=CARTESIAN_POINT('',(9.5000000000291,1.,56.));
#1803=CARTESIAN_POINT('Origin',(6.5,1.,158.));
#1804=CARTESIAN_POINT('',(9.5000000000291,1.,158.));
#1805=CARTESIAN_POINT('',(6.5,1.,158.));
#1806=CARTESIAN_POINT('',(9.5000000000291,3.,158.));
#1807=CARTESIAN_POINT('Origin',(6.5,1.,162.));
#1808=CARTESIAN_POINT('',(9.5000000000291,1.,126.));
#1809=CARTESIAN_POINT('Origin',(-5.,5.,12.375));
#1810=CARTESIAN_POINT('',(-3.55,5.,12.75));
#1811=CARTESIAN_POINT('Origin',(-5.,5.,12.75));
#1812=CARTESIAN_POINT('',(-2.8,5.,12.));
#1813=CARTESIAN_POINT('',(-3.175,5.,12.375));
#1814=CARTESIAN_POINT('Origin',(-5.,5.,12.));
#1815=CARTESIAN_POINT('Origin',(-5.,5.,0.));
#1816=CARTESIAN_POINT('',(-3.55,5.,19.25));
#1817=CARTESIAN_POINT('Origin',(-5.,5.,19.25));
#1818=CARTESIAN_POINT('',(-3.55,5.,0.));
#1819=CARTESIAN_POINT('Origin',(-6.37207222956868,3.18302964500233,12.));
#1820=CARTESIAN_POINT('',(-5.,9.,12.));
#1821=CARTESIAN_POINT('',(-9.,5.,12.));
#1822=CARTESIAN_POINT('Origin',(-5.,5.,12.));
#1823=CARTESIAN_POINT('',(-1.99999999998836,9.,12.));
#1824=CARTESIAN_POINT('',(-3.43603611478434,9.,12.));
#1825=CARTESIAN_POINT('',(-2.00000000000553,3.10000000000437,12.));
#1826=CARTESIAN_POINT('',(-1.99999999998836,9.,12.));
#1827=CARTESIAN_POINT('',(-3.62347538298533,3.10000000000909,12.));
#1828=CARTESIAN_POINT('',(-2.43603611478722,3.10000000000563,12.));
#1829=CARTESIAN_POINT('',(-3.62347538300151,-2.46268129562322,12.));
#1830=CARTESIAN_POINT('',(-3.62347538301152,-5.89999999999091,12.));
#1831=CARTESIAN_POINT('',(-7.96034313022087,2.30995008385456,12.));
#1832=CARTESIAN_POINT('',(-7.81845031726301,2.15380003937158,12.));
#1833=CARTESIAN_POINT('Origin',(-5.,5.,12.));
#1834=CARTESIAN_POINT('Origin',(-5.,5.,160.375));
#1835=CARTESIAN_POINT('',(-3.55,5.,160.75));
#1836=CARTESIAN_POINT('Origin',(-5.,5.,160.75));
#1837=CARTESIAN_POINT('',(-2.8,5.,160.));
#1838=CARTESIAN_POINT('',(-3.175,5.,160.375));
#1839=CARTESIAN_POINT('Origin',(-5.,5.,160.));
#1840=CARTESIAN_POINT('Origin',(-5.,5.,160.));
#1841=CARTESIAN_POINT('',(-1.,5.,160.));
#1842=CARTESIAN_POINT('',(-9.,5.,160.));
#1843=CARTESIAN_POINT('Origin',(-5.,5.,160.));
#1844=CARTESIAN_POINT('Origin',(-5.,5.,160.));
#1845=CARTESIAN_POINT('Origin',(-5.,5.,0.));
#1846=CARTESIAN_POINT('',(-3.55,5.,172.));
#1847=CARTESIAN_POINT('Origin',(-5.,5.,172.));
#1848=CARTESIAN_POINT('',(-3.55,5.,0.));
#1849=CARTESIAN_POINT('Origin',(-5.,5.,19.625));
#1850=CARTESIAN_POINT('',(-2.8,5.,20.));
#1851=CARTESIAN_POINT('Origin',(-5.,5.,20.));
#1852=CARTESIAN_POINT('',(-3.175,5.,19.625));
#1853=CARTESIAN_POINT('Origin',(-5.,5.,20.));
#1854=CARTESIAN_POINT('',(-5.,9.,20.));
#1855=CARTESIAN_POINT('',(-9.,5.,20.));
#1856=CARTESIAN_POINT('Origin',(-5.,5.,20.));
#1857=CARTESIAN_POINT('Origin',(-5.,5.,20.));
#1858=CARTESIAN_POINT('Origin',(6.5,13.1,171.75));
#1859=CARTESIAN_POINT('',(7.9,13.1,172.));
#1860=CARTESIAN_POINT('Origin',(6.5,13.1,172.));
#1861=CARTESIAN_POINT('',(7.4,13.1,171.5));
#1862=CARTESIAN_POINT('',(7.65,13.1,171.75));
#1863=CARTESIAN_POINT('',(5.6,13.1,171.5));
#1864=CARTESIAN_POINT('Origin',(6.5,13.1,171.5));
#1865=CARTESIAN_POINT('Origin',(6.5,13.1,171.5));
#1866=CARTESIAN_POINT('Origin',(9.5000000000291,15.9000000000262,172.));
#1867=CARTESIAN_POINT('',(-5.,9.,172.));
#1868=CARTESIAN_POINT('',(-9.,5.,172.));
#1869=CARTESIAN_POINT('Origin',(-5.,5.,172.));
#1870=CARTESIAN_POINT('',(-7.96034313022087,2.30995008385456,172.));
#1871=CARTESIAN_POINT('Origin',(-5.,5.,172.));
#1872=CARTESIAN_POINT('',(-0.499999999978985,-5.90000000002633,172.));
#1873=CARTESIAN_POINT('',(-3.66374930285497,-2.41836069723964,172.));
#1874=CARTESIAN_POINT('',(9.5000000000291,-5.90000000002633,172.));
#1875=CARTESIAN_POINT('',(6.74999999998865,-5.9000000000211,172.));
#1876=CARTESIAN_POINT('',(9.5000000000291,15.9000000000262,172.));
#1877=CARTESIAN_POINT('',(9.5000000000291,10.4500000000131,172.));
#1878=CARTESIAN_POINT('',(6.75000000002037,15.9000000000211,172.));
#1879=CARTESIAN_POINT('',(-0.5,9.,172.));
#1880=CARTESIAN_POINT('',(7.9,-2.9,172.));
#1881=CARTESIAN_POINT('Origin',(6.5,-2.9,172.));
#1882=CARTESIAN_POINT('',(1.9,-2.9,172.));
#1883=CARTESIAN_POINT('Origin',(0.5,-2.9,172.));
#1884=CARTESIAN_POINT('Origin',(6.5,13.1,172.));
#1885=CARTESIAN_POINT('',(5.6,13.1,164.));
#1886=CARTESIAN_POINT('',(5.6,13.1,172.));
#1887=CARTESIAN_POINT('',(7.4,13.1,164.));
#1888=CARTESIAN_POINT('Origin',(6.5,13.1,164.));
#1889=CARTESIAN_POINT('Origin',(6.5,13.1,164.));
#1890=CARTESIAN_POINT('Origin',(6.5,-2.9,171.75));
#1891=CARTESIAN_POINT('',(7.4,-2.9,171.5));
#1892=CARTESIAN_POINT('',(7.65,-2.9,171.75));
#1893=CARTESIAN_POINT('',(5.6,-2.9,171.5));
#1894=CARTESIAN_POINT('Origin',(6.5,-2.9,171.5));
#1895=CARTESIAN_POINT('Origin',(6.5,-2.9,171.5));
#1896=CARTESIAN_POINT('Origin',(6.5,-2.9,172.));
#1897=CARTESIAN_POINT('',(5.6,-2.9,164.));
#1898=CARTESIAN_POINT('',(5.6,-2.9,172.));
#1899=CARTESIAN_POINT('',(7.4,-2.9,164.));
#1900=CARTESIAN_POINT('Origin',(6.5,-2.9,164.));
#1901=CARTESIAN_POINT('Origin',(6.5,-2.9,164.));
#1902=CARTESIAN_POINT('Origin',(0.5,-2.9,171.75));
#1903=CARTESIAN_POINT('',(1.4,-2.9,171.5));
#1904=CARTESIAN_POINT('',(1.65,-2.9,171.75));
#1905=CARTESIAN_POINT('',(-0.4,-2.9,171.5));
#1906=CARTESIAN_POINT('Origin',(0.5,-2.9,171.5));
#1907=CARTESIAN_POINT('Origin',(0.5,-2.9,171.5));
#1908=CARTESIAN_POINT('Origin',(0.5,-2.9,172.));
#1909=CARTESIAN_POINT('',(-0.4,-2.9,164.));
#1910=CARTESIAN_POINT('',(-0.4,-2.9,172.));
#1911=CARTESIAN_POINT('',(1.4,-2.9,164.));
#1912=CARTESIAN_POINT('Origin',(0.5,-2.9,164.));
#1913=CARTESIAN_POINT('Origin',(0.5,-2.9,164.));
#1914=CARTESIAN_POINT('Origin',(6.5,13.1,164.));
#1915=CARTESIAN_POINT('Origin',(0.5,-2.9,164.));
#1916=CARTESIAN_POINT('Origin',(6.5,-2.9,164.));
#1917=CARTESIAN_POINT('Origin',(-5.,5.,0.));
#1918=CARTESIAN_POINT('',(-7.96034313022087,2.30995008385456,0.));
#1919=CARTESIAN_POINT('',(-9.,5.,0.));
#1920=CARTESIAN_POINT('',(-5.,9.,172.));
#1921=CARTESIAN_POINT('Origin',(-0.5,9.,13.));
#1922=CARTESIAN_POINT('',(-5.,9.,172.));
#1923=CARTESIAN_POINT('',(-1.99999999998836,9.,8.));
#1924=CARTESIAN_POINT('',(-0.5,9.,8.));
#1925=CARTESIAN_POINT('',(-1.99999999998836,9.,11.5));
#1926=CARTESIAN_POINT('Origin',(7.50000000002911,-5.90000000002328,13.8107084351371));
#1927=CARTESIAN_POINT('',(9.5000000000291,-5.90000000002619,13.8107084351371));
#1928=CARTESIAN_POINT('',(6.45652173914896,-5.90000000002025,12.1044982725046));
#1929=CARTESIAN_POINT('Origin',(7.50000000002911,-5.90000000002328,13.8107084351371));
#1930=CARTESIAN_POINT('',(6.45652173917515,3.09999999997975,12.1044982725046));
#1931=CARTESIAN_POINT('',(6.45652173914896,-5.90000000002025,12.1044982725046));
#1932=CARTESIAN_POINT('',(9.5000000000291,3.09999999997089,13.8107084351371));
#1933=CARTESIAN_POINT('Origin',(7.5000000000553,3.09999999997672,13.8107084351371));
#1934=CARTESIAN_POINT('',(9.5000000000291,-5.90000000002328,13.8107084351371));
#1935=CARTESIAN_POINT('Origin',(9.5000000000291,5.,90.));
#1936=CARTESIAN_POINT('',(9.5000000000291,3.09999999997089,0.));
#1937=CARTESIAN_POINT('',(9.5000000000291,3.09999999997089,47.));
#1938=CARTESIAN_POINT('',(9.5000000000291,15.9000000000262,0.));
#1939=CARTESIAN_POINT('',(9.5000000000291,-5.90000000002619,0.));
#1940=CARTESIAN_POINT('',(9.5000000000291,15.9000000000262,0.));
#1941=CARTESIAN_POINT('',(9.5000000000291,-5.90000000002619,180.));
#1942=CARTESIAN_POINT('Origin',(-5.,5.,0.));
#1943=CARTESIAN_POINT('',(-9.,5.,0.));
#1944=CARTESIAN_POINT('',(-7.96034313022087,2.30995008385456,0.));
#1945=CARTESIAN_POINT('Origin',(-2.00000000000553,3.10000000000437,0.));
#1946=CARTESIAN_POINT('',(-1.99999999997308,14.2492816737,8.));
#1947=CARTESIAN_POINT('',(-1.9999999999869,9.50000000001746,8.));
#1948=CARTESIAN_POINT('',(-1.99999999997308,14.2492816737,0.));
#1949=CARTESIAN_POINT('',(-1.99999999997308,14.2492816737,0.));
#1950=CARTESIAN_POINT('',(-2.00000000000553,3.10000000000437,0.));
#1951=CARTESIAN_POINT('',(-2.00000000000276,4.04999999999782,0.));
#1952=CARTESIAN_POINT('',(-2.00000000000553,3.10000000000437,7.));
#1953=CARTESIAN_POINT('Origin',(-7.96034313022087,2.30995008385456,0.));
#1954=CARTESIAN_POINT('',(-0.500000000002909,-5.9,13.2870878105096));
#1955=CARTESIAN_POINT('Origin',(1.49999999996187,-8.10095776840498,4.));
#1956=CARTESIAN_POINT('',(-0.500000000002911,-5.9,180.));
#1957=CARTESIAN_POINT('Origin',(1.49999999996828,-5.90000000000582,4.));
#1958=CARTESIAN_POINT('Origin',(1.49999999996828,-5.90000000000582,4.));
#1959=CARTESIAN_POINT('Origin',(1.49999999999447,3.09999999999418,4.));
#1960=CARTESIAN_POINT('Origin',(-0.500000000002913,15.9,0.));
#1961=CARTESIAN_POINT('',(-0.499999999995736,15.9000000000079,8.));
#1962=CARTESIAN_POINT('',(-0.500000000002911,15.9,0.));
#1963=CARTESIAN_POINT('',(-0.500000000002911,15.9,0.));
#1964=CARTESIAN_POINT('',(-7.96034313022087,7.69004991614544,0.));
#1965=CARTESIAN_POINT('Origin',(1.49999999999447,3.09999999999418,4.));
#1966=CARTESIAN_POINT('',(-1.75000000000553,3.10000000000364,0.));
#1967=CARTESIAN_POINT('',(2.89999999999447,3.0999999999901,4.));
#1968=CARTESIAN_POINT('',(0.0999999999944697,3.09999999999825,4.));
#1969=CARTESIAN_POINT('Origin',(1.49999999999447,3.09999999999418,4.));
#1970=CARTESIAN_POINT('Origin',(1.49999999999447,3.09999999999418,4.));
#1971=CARTESIAN_POINT('Origin',(4.00000000001164,-5.9000000000131,90.));
#1972=CARTESIAN_POINT('',(-0.500000000002911,-5.9,180.));
#1973=CARTESIAN_POINT('',(-0.500000000002911,-5.9,180.));
#1974=CARTESIAN_POINT('Origin',(-0.500000000002909,-5.9,180.));
#1975=CARTESIAN_POINT('Origin',(-0.5,15.9000000000262,8.));
#1976=CARTESIAN_POINT('Origin',(1.49999999996828,-5.90000000000582,4.));
#1977=CARTESIAN_POINT('',(0.100000000031722,15.9000000000244,4.));
#1978=CARTESIAN_POINT('',(0.0999999999682763,-5.90000000000175,4.));
#1979=CARTESIAN_POINT('Origin',(1.50000000003172,15.9000000000204,4.));
#1980=CARTESIAN_POINT('Origin',(-0.5,9.,162.));
#1981=CARTESIAN_POINT('Origin',(-0.5,-2.9,0.));
#1982=CARTESIAN_POINT('Origin',(4.00000000001164,15.9000000000131,90.));
#1983=CARTESIAN_POINT('',(8.5000000000291,15.9000000000262,0.));
#1984=CARTESIAN_POINT('Origin',(-5.,5.,0.));
#1985=UNCERTAINTY_MEASURE_WITH_UNIT(LENGTH_MEASURE(0.01),#1989,
'DISTANCE_ACCURACY_VALUE',
'Maximum model space distance between geometric entities at asserted c
onnectivities');
#1986=UNCERTAINTY_MEASURE_WITH_UNIT(LENGTH_MEASURE(0.01),#1989,
'DISTANCE_ACCURACY_VALUE',
'Maximum model space distance between geometric entities at asserted c
onnectivities');
#1987=(
GEOMETRIC_REPRESENTATION_CONTEXT(3)
GLOBAL_UNCERTAINTY_ASSIGNED_CONTEXT((#1985))
GLOBAL_UNIT_ASSIGNED_CONTEXT((#1989,#1991,#1992))
REPRESENTATION_CONTEXT('','3D')
);
#1988=(
GEOMETRIC_REPRESENTATION_CONTEXT(3)
GLOBAL_UNCERTAINTY_ASSIGNED_CONTEXT((#1986))
GLOBAL_UNIT_ASSIGNED_CONTEXT((#1989,#1991,#1992))
REPRESENTATION_CONTEXT('','3D')
);
#1989=(
LENGTH_UNIT()
NAMED_UNIT(*)
SI_UNIT(.MILLI.,.METRE.)
);
#1990=(
LENGTH_UNIT()
NAMED_UNIT(*)
SI_UNIT(.CENTI.,.METRE.)
);
#1991=(
NAMED_UNIT(*)
PLANE_ANGLE_UNIT()
SI_UNIT($,.RADIAN.)
);
#1992=(
NAMED_UNIT(*)
SI_UNIT($,.STERADIAN.)
SOLID_ANGLE_UNIT()
);
#1993=SHAPE_DEFINITION_REPRESENTATION(#1994,#1995);
#1994=PRODUCT_DEFINITION_SHAPE('',$,#1997);
#1995=SHAPE_REPRESENTATION('',(#1183),#1987);
#1996=PRODUCT_DEFINITION_CONTEXT('part definition',#2001,'design');
#1997=PRODUCT_DEFINITION('slide rail','slide rail',#1998,#1996);
#1998=PRODUCT_DEFINITION_FORMATION('',$,#2003);
#1999=PRODUCT_RELATED_PRODUCT_CATEGORY('slide rail','slide rail',(#2003));
#2000=APPLICATION_PROTOCOL_DEFINITION('international standard',
'automotive_design',2009,#2001);
#2001=APPLICATION_CONTEXT(
'Core Data for Automotive Mechanical Design Process');
#2002=PRODUCT_CONTEXT('part definition',#2001,'mechanical');
#2003=PRODUCT('slide rail','slide rail',$,(#2002));
#2004=PRESENTATION_STYLE_ASSIGNMENT((#2005));
#2005=SURFACE_STYLE_USAGE(.BOTH.,#2008);
#2006=SURFACE_STYLE_RENDERING_WITH_PROPERTIES($,#2012,(#2007));
#2007=SURFACE_STYLE_TRANSPARENT(0.);
#2008=SURFACE_SIDE_STYLE('',(#2009,#2006));
#2009=SURFACE_STYLE_FILL_AREA(#2010);
#2010=FILL_AREA_STYLE('',(#2011));
#2011=FILL_AREA_STYLE_COLOUR('',#2012);
#2012=COLOUR_RGB('',0.509803921568627,0.52156862745098,0.63921568627451);
ENDSEC;
END-ISO-10303-21;
