ISO-10303-21;
HEADER;
/* Generated by software containing ST-Developer
 * from STEP Tools, Inc. (www.steptools.com) 
 */

FILE_DESCRIPTION(
/* description */ (''),
/* implementation_level */ '2;1');

FILE_NAME(
/* name */ 'C:\\2axis_CNC\\hardware\\3D_model_Step\\upper slider pen.s
tp',
/* time_stamp */ '2026-08-19T14:15:56+07:00',
/* author */ ('drago'),
/* organization */ (''),
/* preprocessor_version */ 'ST-DEVELOPER v18',
/* originating_system */ 'Autodesk Inventor 2020',
/* authorisation */ '');

FILE_SCHEMA (('AUTOMOTIVE_DESIGN { 1 0 10303 214 3 1 1 }'));
ENDSEC;

DATA;
#10=MECHANICAL_DESIGN_GEOMETRIC_PRESENTATION_REPRESENTATION('',(#13),#487);
#11=SHAPE_REPRESENTATION_RELATIONSHIP('SRR','None',#494,#12);
#12=ADVANCED_BREP_SHAPE_REPRESENTATION('',(#14),#486);
#13=STYLED_ITEM('',(#503),#14);
#14=MANIFOLD_SOLID_BREP('Solid1',#273);
#15=FACE_BOUND('',#45,.T.);
#16=FACE_BOUND('',#46,.T.);
#17=FACE_BOUND('',#47,.T.);
#18=FACE_BOUND('',#48,.T.);
#19=FACE_BOUND('',#51,.T.);
#20=FACE_BOUND('',#52,.T.);
#21=FACE_BOUND('',#53,.T.);
#22=FACE_BOUND('',#54,.T.);
#23=PLANE('',#299);
#24=PLANE('',#309);
#25=PLANE('',#321);
#26=PLANE('',#322);
#27=PLANE('',#323);
#28=FACE_OUTER_BOUND('',#42,.T.);
#29=FACE_OUTER_BOUND('',#43,.T.);
#30=FACE_OUTER_BOUND('',#44,.T.);
#31=FACE_OUTER_BOUND('',#49,.T.);
#32=FACE_OUTER_BOUND('',#50,.T.);
#33=FACE_OUTER_BOUND('',#55,.T.);
#34=FACE_OUTER_BOUND('',#56,.T.);
#35=FACE_OUTER_BOUND('',#57,.T.);
#36=FACE_OUTER_BOUND('',#58,.T.);
#37=FACE_OUTER_BOUND('',#59,.T.);
#38=FACE_OUTER_BOUND('',#60,.T.);
#39=FACE_OUTER_BOUND('',#61,.T.);
#40=FACE_OUTER_BOUND('',#62,.T.);
#41=FACE_OUTER_BOUND('',#63,.T.);
#42=EDGE_LOOP('',(#178,#179,#180,#181));
#43=EDGE_LOOP('',(#182,#183,#184,#185));
#44=EDGE_LOOP('',(#186,#187,#188,#189,#190,#191,#192,#193));
#45=EDGE_LOOP('',(#194));
#46=EDGE_LOOP('',(#195));
#47=EDGE_LOOP('',(#196));
#48=EDGE_LOOP('',(#197));
#49=EDGE_LOOP('',(#198,#199,#200,#201));
#50=EDGE_LOOP('',(#202,#203,#204,#205,#206,#207,#208,#209));
#51=EDGE_LOOP('',(#210));
#52=EDGE_LOOP('',(#211));
#53=EDGE_LOOP('',(#212));
#54=EDGE_LOOP('',(#213));
#55=EDGE_LOOP('',(#214,#215,#216,#217));
#56=EDGE_LOOP('',(#218,#219,#220,#221));
#57=EDGE_LOOP('',(#222,#223,#224,#225));
#58=EDGE_LOOP('',(#226,#227,#228,#229));
#59=EDGE_LOOP('',(#230,#231,#232,#233));
#60=EDGE_LOOP('',(#234,#235,#236,#237));
#61=EDGE_LOOP('',(#238,#239,#240,#241));
#62=EDGE_LOOP('',(#242,#243,#244,#245));
#63=EDGE_LOOP('',(#246,#247,#248,#249));
#64=LINE('',#415,#82);
#65=LINE('',#418,#83);
#66=LINE('',#423,#84);
#67=LINE('',#429,#85);
#68=LINE('',#431,#86);
#69=LINE('',#433,#87);
#70=LINE('',#448,#88);
#71=LINE('',#453,#89);
#72=LINE('',#455,#90);
#73=LINE('',#457,#91);
#74=LINE('',#468,#92);
#75=LINE('',#470,#93);
#76=LINE('',#472,#94);
#77=LINE('',#474,#95);
#78=LINE('',#476,#96);
#79=LINE('',#478,#97);
#80=LINE('',#480,#98);
#81=LINE('',#482,#99);
#82=VECTOR('',#331,0.999999999999999);
#83=VECTOR('',#334,0.999999999999999);
#84=VECTOR('',#339,0.999999999999999);
#85=VECTOR('',#346,10.);
#86=VECTOR('',#347,10.);
#87=VECTOR('',#348,10.);
#88=VECTOR('',#365,0.999999999999999);
#89=VECTOR('',#370,10.);
#90=VECTOR('',#371,10.);
#91=VECTOR('',#372,10.);
#92=VECTOR('',#385,1.);
#93=VECTOR('',#388,0.999999999999999);
#94=VECTOR('',#391,0.9);
#95=VECTOR('',#394,0.900000000000001);
#96=VECTOR('',#397,10.);
#97=VECTOR('',#400,10.);
#98=VECTOR('',#403,10.);
#99=VECTOR('',#406,10.);
#100=CIRCLE('',#294,0.999999999999999);
#101=CIRCLE('',#295,0.999999999999999);
#102=CIRCLE('',#297,6.5);
#103=CIRCLE('',#298,6.5);
#104=CIRCLE('',#300,2.5);
#105=CIRCLE('',#301,2.5);
#106=CIRCLE('',#302,0.999999999999999);
#107=CIRCLE('',#303,0.900000000000001);
#108=CIRCLE('',#304,0.9);
#109=CIRCLE('',#305,0.999999999999999);
#110=CIRCLE('',#306,1.);
#111=CIRCLE('',#308,0.999999999999999);
#112=CIRCLE('',#310,2.5);
#113=CIRCLE('',#311,2.5);
#114=CIRCLE('',#312,1.);
#115=CIRCLE('',#313,0.999999999999999);
#116=CIRCLE('',#314,0.9);
#117=CIRCLE('',#315,0.900000000000001);
#118=VERTEX_POINT('',#411);
#119=VERTEX_POINT('',#412);
#120=VERTEX_POINT('',#414);
#121=VERTEX_POINT('',#416);
#122=VERTEX_POINT('',#420);
#123=VERTEX_POINT('',#422);
#124=VERTEX_POINT('',#426);
#125=VERTEX_POINT('',#428);
#126=VERTEX_POINT('',#430);
#127=VERTEX_POINT('',#432);
#128=VERTEX_POINT('',#434);
#129=VERTEX_POINT('',#437);
#130=VERTEX_POINT('',#439);
#131=VERTEX_POINT('',#441);
#132=VERTEX_POINT('',#443);
#133=VERTEX_POINT('',#446);
#134=VERTEX_POINT('',#450);
#135=VERTEX_POINT('',#452);
#136=VERTEX_POINT('',#454);
#137=VERTEX_POINT('',#456);
#138=VERTEX_POINT('',#459);
#139=VERTEX_POINT('',#461);
#140=VERTEX_POINT('',#463);
#141=VERTEX_POINT('',#465);
#142=EDGE_CURVE('',#118,#119,#100,.T.);
#143=EDGE_CURVE('',#119,#120,#64,.T.);
#144=EDGE_CURVE('',#120,#121,#101,.T.);
#145=EDGE_CURVE('',#121,#118,#65,.T.);
#146=EDGE_CURVE('',#122,#119,#102,.T.);
#147=EDGE_CURVE('',#123,#122,#66,.T.);
#148=EDGE_CURVE('',#120,#123,#103,.T.);
#149=EDGE_CURVE('',#118,#124,#104,.T.);
#150=EDGE_CURVE('',#124,#125,#67,.T.);
#151=EDGE_CURVE('',#125,#126,#68,.T.);
#152=EDGE_CURVE('',#126,#127,#69,.T.);
#153=EDGE_CURVE('',#127,#128,#105,.T.);
#154=EDGE_CURVE('',#122,#128,#106,.T.);
#155=EDGE_CURVE('',#129,#129,#107,.T.);
#156=EDGE_CURVE('',#130,#130,#108,.T.);
#157=EDGE_CURVE('',#131,#131,#109,.T.);
#158=EDGE_CURVE('',#132,#132,#110,.T.);
#159=EDGE_CURVE('',#133,#123,#111,.T.);
#160=EDGE_CURVE('',#128,#133,#70,.T.);
#161=EDGE_CURVE('',#134,#133,#112,.T.);
#162=EDGE_CURVE('',#135,#134,#71,.T.);
#163=EDGE_CURVE('',#136,#135,#72,.T.);
#164=EDGE_CURVE('',#137,#136,#73,.T.);
#165=EDGE_CURVE('',#121,#137,#113,.T.);
#166=EDGE_CURVE('',#138,#138,#114,.T.);
#167=EDGE_CURVE('',#139,#139,#115,.T.);
#168=EDGE_CURVE('',#140,#140,#116,.T.);
#169=EDGE_CURVE('',#141,#141,#117,.T.);
#170=EDGE_CURVE('',#132,#138,#74,.T.);
#171=EDGE_CURVE('',#131,#139,#75,.T.);
#172=EDGE_CURVE('',#130,#140,#76,.T.);
#173=EDGE_CURVE('',#129,#141,#77,.T.);
#174=EDGE_CURVE('',#134,#127,#78,.T.);
#175=EDGE_CURVE('',#135,#126,#79,.T.);
#176=EDGE_CURVE('',#136,#125,#80,.T.);
#177=EDGE_CURVE('',#137,#124,#81,.T.);
#178=ORIENTED_EDGE('',*,*,#142,.T.);
#179=ORIENTED_EDGE('',*,*,#143,.T.);
#180=ORIENTED_EDGE('',*,*,#144,.T.);
#181=ORIENTED_EDGE('',*,*,#145,.T.);
#182=ORIENTED_EDGE('',*,*,#143,.F.);
#183=ORIENTED_EDGE('',*,*,#146,.F.);
#184=ORIENTED_EDGE('',*,*,#147,.F.);
#185=ORIENTED_EDGE('',*,*,#148,.F.);
#186=ORIENTED_EDGE('',*,*,#142,.F.);
#187=ORIENTED_EDGE('',*,*,#149,.T.);
#188=ORIENTED_EDGE('',*,*,#150,.T.);
#189=ORIENTED_EDGE('',*,*,#151,.T.);
#190=ORIENTED_EDGE('',*,*,#152,.T.);
#191=ORIENTED_EDGE('',*,*,#153,.T.);
#192=ORIENTED_EDGE('',*,*,#154,.F.);
#193=ORIENTED_EDGE('',*,*,#146,.T.);
#194=ORIENTED_EDGE('',*,*,#155,.T.);
#195=ORIENTED_EDGE('',*,*,#156,.T.);
#196=ORIENTED_EDGE('',*,*,#157,.T.);
#197=ORIENTED_EDGE('',*,*,#158,.T.);
#198=ORIENTED_EDGE('',*,*,#159,.T.);
#199=ORIENTED_EDGE('',*,*,#147,.T.);
#200=ORIENTED_EDGE('',*,*,#154,.T.);
#201=ORIENTED_EDGE('',*,*,#160,.T.);
#202=ORIENTED_EDGE('',*,*,#144,.F.);
#203=ORIENTED_EDGE('',*,*,#148,.T.);
#204=ORIENTED_EDGE('',*,*,#159,.F.);
#205=ORIENTED_EDGE('',*,*,#161,.F.);
#206=ORIENTED_EDGE('',*,*,#162,.F.);
#207=ORIENTED_EDGE('',*,*,#163,.F.);
#208=ORIENTED_EDGE('',*,*,#164,.F.);
#209=ORIENTED_EDGE('',*,*,#165,.F.);
#210=ORIENTED_EDGE('',*,*,#166,.F.);
#211=ORIENTED_EDGE('',*,*,#167,.F.);
#212=ORIENTED_EDGE('',*,*,#168,.F.);
#213=ORIENTED_EDGE('',*,*,#169,.F.);
#214=ORIENTED_EDGE('',*,*,#158,.F.);
#215=ORIENTED_EDGE('',*,*,#170,.T.);
#216=ORIENTED_EDGE('',*,*,#166,.T.);
#217=ORIENTED_EDGE('',*,*,#170,.F.);
#218=ORIENTED_EDGE('',*,*,#157,.F.);
#219=ORIENTED_EDGE('',*,*,#171,.T.);
#220=ORIENTED_EDGE('',*,*,#167,.T.);
#221=ORIENTED_EDGE('',*,*,#171,.F.);
#222=ORIENTED_EDGE('',*,*,#156,.F.);
#223=ORIENTED_EDGE('',*,*,#172,.T.);
#224=ORIENTED_EDGE('',*,*,#168,.T.);
#225=ORIENTED_EDGE('',*,*,#172,.F.);
#226=ORIENTED_EDGE('',*,*,#155,.F.);
#227=ORIENTED_EDGE('',*,*,#173,.T.);
#228=ORIENTED_EDGE('',*,*,#169,.T.);
#229=ORIENTED_EDGE('',*,*,#173,.F.);
#230=ORIENTED_EDGE('',*,*,#160,.F.);
#231=ORIENTED_EDGE('',*,*,#153,.F.);
#232=ORIENTED_EDGE('',*,*,#174,.F.);
#233=ORIENTED_EDGE('',*,*,#161,.T.);
#234=ORIENTED_EDGE('',*,*,#162,.T.);
#235=ORIENTED_EDGE('',*,*,#174,.T.);
#236=ORIENTED_EDGE('',*,*,#152,.F.);
#237=ORIENTED_EDGE('',*,*,#175,.F.);
#238=ORIENTED_EDGE('',*,*,#163,.T.);
#239=ORIENTED_EDGE('',*,*,#175,.T.);
#240=ORIENTED_EDGE('',*,*,#151,.F.);
#241=ORIENTED_EDGE('',*,*,#176,.F.);
#242=ORIENTED_EDGE('',*,*,#164,.T.);
#243=ORIENTED_EDGE('',*,*,#176,.T.);
#244=ORIENTED_EDGE('',*,*,#150,.F.);
#245=ORIENTED_EDGE('',*,*,#177,.F.);
#246=ORIENTED_EDGE('',*,*,#145,.F.);
#247=ORIENTED_EDGE('',*,*,#165,.T.);
#248=ORIENTED_EDGE('',*,*,#177,.T.);
#249=ORIENTED_EDGE('',*,*,#149,.F.);
#250=CYLINDRICAL_SURFACE('',#293,0.999999999999999);
#251=CYLINDRICAL_SURFACE('',#296,6.5);
#252=CYLINDRICAL_SURFACE('',#307,0.999999999999999);
#253=CYLINDRICAL_SURFACE('',#316,1.);
#254=CYLINDRICAL_SURFACE('',#317,0.999999999999999);
#255=CYLINDRICAL_SURFACE('',#318,0.9);
#256=CYLINDRICAL_SURFACE('',#319,0.900000000000001);
#257=CYLINDRICAL_SURFACE('',#320,2.5);
#258=CYLINDRICAL_SURFACE('',#324,2.5);
#259=ADVANCED_FACE('',(#28),#250,.T.);
#260=ADVANCED_FACE('',(#29),#251,.F.);
#261=ADVANCED_FACE('',(#30,#15,#16,#17,#18),#23,.T.);
#262=ADVANCED_FACE('',(#31),#252,.T.);
#263=ADVANCED_FACE('',(#32,#19,#20,#21,#22),#24,.F.);
#264=ADVANCED_FACE('',(#33),#253,.F.);
#265=ADVANCED_FACE('',(#34),#254,.F.);
#266=ADVANCED_FACE('',(#35),#255,.F.);
#267=ADVANCED_FACE('',(#36),#256,.F.);
#268=ADVANCED_FACE('',(#37),#257,.T.);
#269=ADVANCED_FACE('',(#38),#25,.T.);
#270=ADVANCED_FACE('',(#39),#26,.T.);
#271=ADVANCED_FACE('',(#40),#27,.T.);
#272=ADVANCED_FACE('',(#41),#258,.T.);
#273=CLOSED_SHELL('',(#259,#260,#261,#262,#263,#264,#265,#266,#267,#268,
#269,#270,#271,#272));
#274=DERIVED_UNIT_ELEMENT(#276,1.);
#275=DERIVED_UNIT_ELEMENT(#489,3.);
#276=(
MASS_UNIT()
NAMED_UNIT(*)
SI_UNIT($,.GRAM.)
);
#277=DERIVED_UNIT((#274,#275));
#278=MEASURE_REPRESENTATION_ITEM('density measure',
POSITIVE_RATIO_MEASURE(1.),#277);
#279=PROPERTY_DEFINITION_REPRESENTATION(#284,#281);
#280=PROPERTY_DEFINITION_REPRESENTATION(#285,#282);
#281=REPRESENTATION('material name',(#283),#486);
#282=REPRESENTATION('density',(#278),#486);
#283=DESCRIPTIVE_REPRESENTATION_ITEM('Generic','Generic');
#284=PROPERTY_DEFINITION('material property','material name',#496);
#285=PROPERTY_DEFINITION('material property','density of part',#496);
#286=DATE_TIME_ROLE('creation_date');
#287=APPLIED_DATE_AND_TIME_ASSIGNMENT(#288,#286,(#496));
#288=DATE_AND_TIME(#289,#290);
#289=CALENDAR_DATE(2026,8,7);
#290=LOCAL_TIME(10,2,7.,#291);
#291=COORDINATED_UNIVERSAL_TIME_OFFSET(0,0,.BEHIND.);
#292=AXIS2_PLACEMENT_3D('placement',#409,#325,#326);
#293=AXIS2_PLACEMENT_3D('',#410,#327,#328);
#294=AXIS2_PLACEMENT_3D('',#413,#329,#330);
#295=AXIS2_PLACEMENT_3D('',#417,#332,#333);
#296=AXIS2_PLACEMENT_3D('',#419,#335,#336);
#297=AXIS2_PLACEMENT_3D('',#421,#337,#338);
#298=AXIS2_PLACEMENT_3D('',#424,#340,#341);
#299=AXIS2_PLACEMENT_3D('',#425,#342,#343);
#300=AXIS2_PLACEMENT_3D('',#427,#344,#345);
#301=AXIS2_PLACEMENT_3D('',#435,#349,#350);
#302=AXIS2_PLACEMENT_3D('',#436,#351,#352);
#303=AXIS2_PLACEMENT_3D('',#438,#353,#354);
#304=AXIS2_PLACEMENT_3D('',#440,#355,#356);
#305=AXIS2_PLACEMENT_3D('',#442,#357,#358);
#306=AXIS2_PLACEMENT_3D('',#444,#359,#360);
#307=AXIS2_PLACEMENT_3D('',#445,#361,#362);
#308=AXIS2_PLACEMENT_3D('',#447,#363,#364);
#309=AXIS2_PLACEMENT_3D('',#449,#366,#367);
#310=AXIS2_PLACEMENT_3D('',#451,#368,#369);
#311=AXIS2_PLACEMENT_3D('',#458,#373,#374);
#312=AXIS2_PLACEMENT_3D('',#460,#375,#376);
#313=AXIS2_PLACEMENT_3D('',#462,#377,#378);
#314=AXIS2_PLACEMENT_3D('',#464,#379,#380);
#315=AXIS2_PLACEMENT_3D('',#466,#381,#382);
#316=AXIS2_PLACEMENT_3D('',#467,#383,#384);
#317=AXIS2_PLACEMENT_3D('',#469,#386,#387);
#318=AXIS2_PLACEMENT_3D('',#471,#389,#390);
#319=AXIS2_PLACEMENT_3D('',#473,#392,#393);
#320=AXIS2_PLACEMENT_3D('',#475,#395,#396);
#321=AXIS2_PLACEMENT_3D('',#477,#398,#399);
#322=AXIS2_PLACEMENT_3D('',#479,#401,#402);
#323=AXIS2_PLACEMENT_3D('',#481,#404,#405);
#324=AXIS2_PLACEMENT_3D('',#483,#407,#408);
#325=DIRECTION('axis',(0.,0.,1.));
#326=DIRECTION('refdir',(1.,0.,0.));
#327=DIRECTION('center_axis',(0.,0.,-1.));
#328=DIRECTION('ref_axis',(-0.213623969505943,0.976915963454648,0.));
#329=DIRECTION('center_axis',(0.,0.,-1.));
#330=DIRECTION('ref_axis',(-0.213623969505943,0.976915963454648,0.));
#331=DIRECTION('',(0.,0.,-1.));
#332=DIRECTION('center_axis',(0.,0.,1.));
#333=DIRECTION('ref_axis',(-0.213623969505943,0.976915963454648,0.));
#334=DIRECTION('',(0.,0.,1.));
#335=DIRECTION('center_axis',(0.,0.,-1.));
#336=DIRECTION('ref_axis',(1.,0.,0.));
#337=DIRECTION('center_axis',(0.,0.,-1.));
#338=DIRECTION('ref_axis',(1.,0.,0.));
#339=DIRECTION('',(0.,0.,1.));
#340=DIRECTION('center_axis',(0.,0.,1.));
#341=DIRECTION('ref_axis',(1.,0.,0.));
#342=DIRECTION('center_axis',(0.,0.,1.));
#343=DIRECTION('ref_axis',(1.,0.,0.));
#344=DIRECTION('center_axis',(0.,0.,1.));
#345=DIRECTION('ref_axis',(0.,-1.,0.));
#346=DIRECTION('',(0.,1.,0.));
#347=DIRECTION('',(-1.,0.,0.));
#348=DIRECTION('',(0.,-1.,0.));
#349=DIRECTION('center_axis',(0.,0.,1.));
#350=DIRECTION('ref_axis',(-1.,6.21724893790088E-15,0.));
#351=DIRECTION('center_axis',(0.,0.,-1.));
#352=DIRECTION('ref_axis',(0.213623969505943,0.976915963454648,0.));
#353=DIRECTION('center_axis',(0.,0.,-1.));
#354=DIRECTION('ref_axis',(-1.,0.,0.));
#355=DIRECTION('center_axis',(0.,0.,-1.));
#356=DIRECTION('ref_axis',(-1.,0.,0.));
#357=DIRECTION('center_axis',(0.,0.,-1.));
#358=DIRECTION('ref_axis',(-1.,0.,0.));
#359=DIRECTION('center_axis',(0.,0.,-1.));
#360=DIRECTION('ref_axis',(-1.,0.,0.));
#361=DIRECTION('center_axis',(0.,0.,1.));
#362=DIRECTION('ref_axis',(0.213623969505943,0.976915963454648,0.));
#363=DIRECTION('center_axis',(0.,0.,1.));
#364=DIRECTION('ref_axis',(0.213623969505943,0.976915963454648,0.));
#365=DIRECTION('',(0.,0.,-1.));
#366=DIRECTION('center_axis',(0.,0.,1.));
#367=DIRECTION('ref_axis',(1.,0.,0.));
#368=DIRECTION('center_axis',(0.,0.,1.));
#369=DIRECTION('ref_axis',(-1.,6.21724893790088E-15,0.));
#370=DIRECTION('',(0.,-1.,0.));
#371=DIRECTION('',(-1.,0.,0.));
#372=DIRECTION('',(0.,1.,0.));
#373=DIRECTION('center_axis',(0.,0.,1.));
#374=DIRECTION('ref_axis',(0.,-1.,0.));
#375=DIRECTION('center_axis',(0.,0.,-1.));
#376=DIRECTION('ref_axis',(-1.,0.,0.));
#377=DIRECTION('center_axis',(0.,0.,-1.));
#378=DIRECTION('ref_axis',(-1.,0.,0.));
#379=DIRECTION('center_axis',(0.,0.,-1.));
#380=DIRECTION('ref_axis',(-1.,0.,0.));
#381=DIRECTION('center_axis',(0.,0.,-1.));
#382=DIRECTION('ref_axis',(-1.,0.,0.));
#383=DIRECTION('center_axis',(0.,0.,1.));
#384=DIRECTION('ref_axis',(-1.,0.,0.));
#385=DIRECTION('',(0.,0.,-1.));
#386=DIRECTION('center_axis',(0.,0.,1.));
#387=DIRECTION('ref_axis',(-1.,0.,0.));
#388=DIRECTION('',(0.,0.,-1.));
#389=DIRECTION('center_axis',(0.,0.,1.));
#390=DIRECTION('ref_axis',(-1.,0.,0.));
#391=DIRECTION('',(0.,0.,-1.));
#392=DIRECTION('center_axis',(0.,0.,1.));
#393=DIRECTION('ref_axis',(-1.,0.,0.));
#394=DIRECTION('',(0.,0.,-1.));
#395=DIRECTION('center_axis',(0.,0.,1.));
#396=DIRECTION('ref_axis',(-1.,6.21724893790088E-15,0.));
#397=DIRECTION('',(0.,0.,1.));
#398=DIRECTION('center_axis',(-1.,0.,0.));
#399=DIRECTION('ref_axis',(0.,-1.,0.));
#400=DIRECTION('',(0.,0.,1.));
#401=DIRECTION('center_axis',(0.,1.,0.));
#402=DIRECTION('ref_axis',(-1.,0.,0.));
#403=DIRECTION('',(0.,0.,1.));
#404=DIRECTION('center_axis',(1.,0.,0.));
#405=DIRECTION('ref_axis',(0.,1.,0.));
#406=DIRECTION('',(0.,0.,1.));
#407=DIRECTION('center_axis',(0.,0.,1.));
#408=DIRECTION('ref_axis',(0.,-1.,0.));
#409=CARTESIAN_POINT('',(0.,0.,0.));
#410=CARTESIAN_POINT('Origin',(4.82043595425892,-21.465373945182,0.));
#411=CARTESIAN_POINT('',(5.03405992376486,-22.4422899086366,3.));
#412=CARTESIAN_POINT('',(4.17771116035773,-22.2314710926148,3.));
#413=CARTESIAN_POINT('Origin',(4.82043595425892,-21.465373945182,3.));
#414=CARTESIAN_POINT('',(4.17771116035773,-22.2314710926148,0.));
#415=CARTESIAN_POINT('',(4.17771116035773,-22.2314710926148,0.));
#416=CARTESIAN_POINT('',(5.03405992376486,-22.4422899086366,0.));
#417=CARTESIAN_POINT('Origin',(4.82043595425892,-21.465373945182,0.));
#418=CARTESIAN_POINT('',(5.03405992376486,-22.4422899086366,0.));
#419=CARTESIAN_POINT('Origin',(0.,-27.211102550928,3.));
#420=CARTESIAN_POINT('',(-4.17771116035773,-22.2314710926148,3.));
#421=CARTESIAN_POINT('Origin',(0.,-27.211102550928,3.));
#422=CARTESIAN_POINT('',(-4.17771116035773,-22.2314710926148,0.));
#423=CARTESIAN_POINT('',(-4.17771116035773,-22.2314710926148,0.));
#424=CARTESIAN_POINT('Origin',(0.,-27.211102550928,0.));
#425=CARTESIAN_POINT('Origin',(0.,-16.95,3.));
#426=CARTESIAN_POINT('',(7.,-20.,3.));
#427=CARTESIAN_POINT('Origin',(4.5,-20.,3.));
#428=CARTESIAN_POINT('',(7.,-11.4,3.));
#429=CARTESIAN_POINT('',(7.,-20.,3.));
#430=CARTESIAN_POINT('',(-7.,-11.4,3.));
#431=CARTESIAN_POINT('',(7.,-11.4,3.));
#432=CARTESIAN_POINT('',(-7.,-20.,3.));
#433=CARTESIAN_POINT('',(-7.,-11.4,3.));
#434=CARTESIAN_POINT('',(-5.03405992376486,-22.4422899086366,3.));
#435=CARTESIAN_POINT('Origin',(-4.5,-20.,3.));
#436=CARTESIAN_POINT('Origin',(-4.82043595425892,-21.465373945182,3.));
#437=CARTESIAN_POINT('',(-3.6,-14.2,3.));
#438=CARTESIAN_POINT('Origin',(-4.5,-14.2,3.));
#439=CARTESIAN_POINT('',(5.4,-14.2,3.));
#440=CARTESIAN_POINT('Origin',(4.5,-14.2,3.));
#441=CARTESIAN_POINT('',(-3.5,-20.,3.));
#442=CARTESIAN_POINT('Origin',(-4.5,-20.,3.));
#443=CARTESIAN_POINT('',(5.5,-20.,3.));
#444=CARTESIAN_POINT('Origin',(4.5,-20.,3.));
#445=CARTESIAN_POINT('Origin',(-4.82043595425892,-21.465373945182,0.));
#446=CARTESIAN_POINT('',(-5.03405992376486,-22.4422899086366,0.));
#447=CARTESIAN_POINT('Origin',(-4.82043595425892,-21.465373945182,0.));
#448=CARTESIAN_POINT('',(-5.03405992376486,-22.4422899086366,0.));
#449=CARTESIAN_POINT('Origin',(0.,-16.95,0.));
#450=CARTESIAN_POINT('',(-7.,-20.,0.));
#451=CARTESIAN_POINT('Origin',(-4.5,-20.,0.));
#452=CARTESIAN_POINT('',(-7.,-11.4,0.));
#453=CARTESIAN_POINT('',(-7.,-11.4,0.));
#454=CARTESIAN_POINT('',(7.,-11.4,0.));
#455=CARTESIAN_POINT('',(7.,-11.4,0.));
#456=CARTESIAN_POINT('',(7.,-20.,0.));
#457=CARTESIAN_POINT('',(7.,-20.,0.));
#458=CARTESIAN_POINT('Origin',(4.5,-20.,0.));
#459=CARTESIAN_POINT('',(5.5,-20.,0.));
#460=CARTESIAN_POINT('Origin',(4.5,-20.,0.));
#461=CARTESIAN_POINT('',(-3.5,-20.,0.));
#462=CARTESIAN_POINT('Origin',(-4.5,-20.,0.));
#463=CARTESIAN_POINT('',(5.4,-14.2,0.));
#464=CARTESIAN_POINT('Origin',(4.5,-14.2,0.));
#465=CARTESIAN_POINT('',(-3.6,-14.2,0.));
#466=CARTESIAN_POINT('Origin',(-4.5,-14.2,0.));
#467=CARTESIAN_POINT('Origin',(4.5,-20.,0.));
#468=CARTESIAN_POINT('',(5.5,-20.,0.));
#469=CARTESIAN_POINT('Origin',(-4.5,-20.,0.));
#470=CARTESIAN_POINT('',(-3.5,-20.,0.));
#471=CARTESIAN_POINT('Origin',(4.5,-14.2,0.));
#472=CARTESIAN_POINT('',(5.4,-14.2,0.));
#473=CARTESIAN_POINT('Origin',(-4.5,-14.2,0.));
#474=CARTESIAN_POINT('',(-3.6,-14.2,0.));
#475=CARTESIAN_POINT('Origin',(-4.5,-20.,0.));
#476=CARTESIAN_POINT('',(-7.,-20.,0.));
#477=CARTESIAN_POINT('Origin',(-7.,-11.4,0.));
#478=CARTESIAN_POINT('',(-7.,-11.4,0.));
#479=CARTESIAN_POINT('Origin',(7.,-11.4,0.));
#480=CARTESIAN_POINT('',(7.,-11.4,0.));
#481=CARTESIAN_POINT('Origin',(7.,-20.,0.));
#482=CARTESIAN_POINT('',(7.,-20.,0.));
#483=CARTESIAN_POINT('Origin',(4.5,-20.,0.));
#484=UNCERTAINTY_MEASURE_WITH_UNIT(LENGTH_MEASURE(0.01),#488,
'DISTANCE_ACCURACY_VALUE',
'Maximum model space distance between geometric entities at asserted c
onnectivities');
#485=UNCERTAINTY_MEASURE_WITH_UNIT(LENGTH_MEASURE(0.01),#488,
'DISTANCE_ACCURACY_VALUE',
'Maximum model space distance between geometric entities at asserted c
onnectivities');
#486=(
GEOMETRIC_REPRESENTATION_CONTEXT(3)
GLOBAL_UNCERTAINTY_ASSIGNED_CONTEXT((#484))
GLOBAL_UNIT_ASSIGNED_CONTEXT((#488,#490,#491))
REPRESENTATION_CONTEXT('','3D')
);
#487=(
GEOMETRIC_REPRESENTATION_CONTEXT(3)
GLOBAL_UNCERTAINTY_ASSIGNED_CONTEXT((#485))
GLOBAL_UNIT_ASSIGNED_CONTEXT((#488,#490,#491))
REPRESENTATION_CONTEXT('','3D')
);
#488=(
LENGTH_UNIT()
NAMED_UNIT(*)
SI_UNIT(.MILLI.,.METRE.)
);
#489=(
LENGTH_UNIT()
NAMED_UNIT(*)
SI_UNIT(.CENTI.,.METRE.)
);
#490=(
NAMED_UNIT(*)
PLANE_ANGLE_UNIT()
SI_UNIT($,.RADIAN.)
);
#491=(
NAMED_UNIT(*)
SI_UNIT($,.STERADIAN.)
SOLID_ANGLE_UNIT()
);
#492=SHAPE_DEFINITION_REPRESENTATION(#493,#494);
#493=PRODUCT_DEFINITION_SHAPE('',$,#496);
#494=SHAPE_REPRESENTATION('',(#292),#486);
#495=PRODUCT_DEFINITION_CONTEXT('part definition',#500,'design');
#496=PRODUCT_DEFINITION('upper slider pen','upper slider pen',#497,#495);
#497=PRODUCT_DEFINITION_FORMATION('',$,#502);
#498=PRODUCT_RELATED_PRODUCT_CATEGORY('upper slider pen',
'upper slider pen',(#502));
#499=APPLICATION_PROTOCOL_DEFINITION('international standard',
'automotive_design',2009,#500);
#500=APPLICATION_CONTEXT(
'Core Data for Automotive Mechanical Design Process');
#501=PRODUCT_CONTEXT('part definition',#500,'mechanical');
#502=PRODUCT('upper slider pen','upper slider pen',$,(#501));
#503=PRESENTATION_STYLE_ASSIGNMENT((#504));
#504=SURFACE_STYLE_USAGE(.BOTH.,#507);
#505=SURFACE_STYLE_RENDERING_WITH_PROPERTIES($,#511,(#506));
#506=SURFACE_STYLE_TRANSPARENT(0.);
#507=SURFACE_SIDE_STYLE('',(#508,#505));
#508=SURFACE_STYLE_FILL_AREA(#509);
#509=FILL_AREA_STYLE('',(#510));
#510=FILL_AREA_STYLE_COLOUR('',#511);
#511=COLOUR_RGB('',0.749019607843137,0.749019607843137,0.749019607843137);
ENDSEC;
END-ISO-10303-21;
